# 3ds Max Wavefront OBJ Exporter v0.97b - (c)2007 guruware
# ´´½¨µÄÎÄ¼ş:04.03.2021 16:04:12

mtllib ABC-24.mtl

#
# object Layer_0
#

v  -1.8200 5.7500 -11.5000
v  -1.8200 5.7500 11.5000
v  -1.9100 -10.7500 -11.5000
v  -1.8800 -10.7500 11.5000
v  -1.8200 -10.7500 11.5000
v  -1.8200 -10.7500 -11.5000
v  -1.8200 5.7500 11.5000
v  -1.8200 5.7500 -11.5000
v  1.9250 -10.7500 2.3000
v  1.9314 -4.0349 2.3000
v  1.8500 -4.1000 6.9000
v  2.0000 -10.7500 6.9000
v  1.9250 -10.7500 -2.3000
v  1.9314 -4.0349 -2.3000
v  2.0000 -10.7500 2.3000
v  1.8500 -4.1000 2.3000
v  1.9250 -10.7500 -6.9000
v  1.9314 -4.0349 -6.9000
v  1.8500 -4.1000 -2.3000
v  2.0000 -10.7500 -2.3000
v  1.9250 -10.7500 -11.5000
v  1.9314 -4.0349 -11.5000
v  2.0000 -10.7500 -6.9000
v  1.8500 -4.1000 -6.9000
v  -2.0000 10.7500 11.5000
v  2.0000 10.7500 -11.5000
v  1.9605 -4.0211 6.9000
v  1.9283 -4.0373 11.5000
v  1.9500 -10.7500 11.5000
v  -1.8200 -3.8750 -11.5000
v  2.0000 -3.7500 -11.5000
v  2.0000 -3.9167 11.5000
v  1.9000 -10.7500 6.9000
v  -2.0000 10.7500 -11.5000
v  -2.0000 -10.7500 11.7500
v  2.0000 -10.7500 11.6666
v  2.0000 10.7500 12.0000
v  -2.0000 10.7500 -11.7500
v  2.0000 10.7500 -11.6667
v  -2.0000 -10.7500 -11.6667
v  -2.0000 10.7500 11.6667
v  2.0000 -10.7500 -11.7500
v  -2.0000 -11.0833 -11.8500
v  1.8500 -10.9167 -11.8500
v  1.8500 -11.0833 11.8500
v  -2.0000 -10.9167 11.8500
v  -1.8200 -3.8333 11.5000
v  -2.0000 -10.7500 -11.5000
v  2.0000 -10.7500 -11.5000
v  -2.0000 10.7500 -11.5000
v  2.0000 10.7500 -11.5000
v  -2.0000 10.7500 11.5000
v  2.0000 10.7500 11.5000
v  -2.0000 -10.7500 11.5000
v  2.0000 -10.7500 11.5000
v  2.0000 -3.7500 1.2500
v  -1.8200 -3.7500 1.2500
v  2.0000 5.7500 1.2500
v  2.0000 -3.7500 -8.5000
v  -1.8200 -3.7500 -8.5000
v  2.0000 5.7500 -8.5000
v  2.0000 5.7500 -1.7500
v  -1.8200 5.7500 -1.7500
v  2.0000 -3.7500 -1.7500
v  2.0000 -3.7500 4.5000
v  -1.8200 -3.7500 4.5000
v  2.0000 5.7500 4.5000
v  2.0000 -3.7500 -2.0000
v  -1.8200 -3.7500 -2.0000
v  2.0000 5.7500 -2.0000
v  2.0000 -3.7500 -11.5000
v  -1.8200 -3.7500 -11.5000
v  2.0000 -3.7500 11.5000
v  2.0000 -3.7500 -5.2500
v  -1.8200 -3.7500 -5.2500
v  2.0000 5.7500 -5.2500
v  2.0000 5.7500 4.7500
v  -1.8200 5.7500 4.7500
v  2.0000 -3.7500 4.7500
v  2.0000 5.7500 -8.2500
v  -1.8200 5.7500 -8.2500
v  2.0000 -3.7500 -8.2500
v  2.0000 5.7500 -5.0000
v  -1.8200 5.7500 -5.0000
v  2.0000 -3.7500 -5.0000
v  -1.8200 5.7500 -11.5000
v  2.0000 5.7500 -11.5000
v  -1.8200 5.7500 11.5000
v  2.0000 5.7500 1.5000
v  -1.8200 5.7500 1.5000
v  2.0000 -3.7500 1.5000
v  -1.8200 -3.7500 4.7500
v  -1.8200 -3.7500 -1.7500
v  -1.8200 5.7500 -5.2500
v  -1.8200 5.7500 1.2500
v  -1.8200 5.7500 4.5000
v  -1.8200 5.7500 -8.5000
v  2.0000 5.7500 11.5000
v  -1.8200 -3.7500 -5.0000
v  -1.8200 5.7500 -2.0000
v  -1.8200 -3.7500 11.5000
v  -1.8200 -3.7500 -8.2500
v  -1.8200 -3.7500 1.5000
v  2.0000 10.7500 11.5000
v  2.0000 5.7500 11.5000
v  -1.8200 -0.5000 1.2500
v  2.0000 -0.5000 1.2500
v  -1.8200 -0.5000 -1.7500
v  2.0000 -0.7500 -2.0000
v  -1.8200 -0.7500 -2.0000
v  2.0000 -0.7500 -5.0000
v  -1.8200 2.7500 -8.5000
v  2.0000 2.7500 -8.5000
v  -1.8200 2.7500 -11.5000
v  2.0000 -0.7500 -8.5000
v  -1.8200 -0.7500 -8.5000
v  2.0000 -0.7500 -11.5000
v  -1.8200 2.7500 -5.2500
v  2.0000 2.7500 -5.2500
v  -1.8200 2.7500 -8.2500
v  -1.8200 -0.5000 4.5000
v  2.0000 -0.5000 4.5000
v  -1.8200 -0.5000 1.5000
v  -1.8200 2.7500 -2.0000
v  2.0000 2.7500 -2.0000
v  -1.8200 2.7500 -5.0000
v  2.0000 2.5000 -8.5000
v  -1.8200 2.5000 -8.5000
v  2.0000 2.5000 -11.5000
v  2.0000 2.5000 4.5000
v  -1.8200 2.5000 4.5000
v  2.0000 2.5000 1.5000
v  2.0000 -0.7500 4.5000
v  -1.8200 -0.7500 4.5000
v  2.0000 -0.7500 1.5000
v  -1.8200 -0.5000 -2.0000
v  2.0000 -0.5000 -2.0000
v  -1.8200 -0.5000 -5.0000
v  2.0000 2.5000 -5.2500
v  -1.8200 2.5000 -5.2500
v  2.0000 2.5000 -8.2500
v  2.0000 2.5000 -2.0000
v  -1.8200 2.5000 -2.0000
v  2.0000 2.5000 -5.0000
v  2.0000 2.5000 1.2500
v  -1.8200 2.5000 1.2500
v  2.0000 2.5000 -1.7500
v  2.0000 -0.7500 -5.2500
v  -1.8200 -0.7500 -5.2500
v  2.0000 -0.7500 -8.2500
v  2.0000 -0.7500 1.2500
v  -1.8200 -0.7500 1.2500
v  2.0000 -0.7500 -1.7500
v  -1.8200 -0.5000 -8.5000
v  2.0000 -0.5000 -8.5000
v  -1.8200 -0.5000 -11.5000
v  -1.8200 -0.5000 -5.2500
v  2.0000 -0.5000 -5.2500
v  -1.8200 -0.5000 -8.2500
v  -1.8200 2.7500 4.5000
v  2.0000 2.7500 4.5000
v  -1.8200 2.7500 1.5000
v  -1.8200 2.7500 1.2500
v  2.0000 2.7500 1.2500
v  -1.8200 2.7500 -1.7500
v  -1.8200 -0.7500 -1.7500
v  -1.8200 -0.7500 -11.5000
v  2.0000 -0.5000 -1.7500
v  2.0000 2.7500 1.5000
v  2.0000 -0.5000 -5.0000
v  2.0000 -0.5000 -8.2500
v  -1.8200 -0.7500 1.5000
v  -1.8200 2.5000 -8.2500
v  2.0000 2.7500 -8.2500
v  2.0000 2.7500 -11.5000
v  -1.8200 2.5000 1.5000
v  2.0000 -0.5000 -11.5000
v  -1.8200 2.5000 -11.5000
v  -1.8200 2.5000 -1.7500
v  -1.8200 -0.7500 -5.0000
v  -1.8200 -0.7500 -8.2500
v  -1.8200 2.5000 -5.0000
v  2.0000 2.7500 -1.7500
v  2.0000 -0.5000 1.5000
v  2.0000 2.7500 -5.0000
v  2.0000 -4.0000 -6.9000
v  2.0000 -10.7500 -2.3000
v  2.0000 -4.0000 -2.3000
v  2.0000 -4.0000 2.3000
v  2.0000 -10.7500 6.9000
v  2.0000 -4.0000 6.9000
v  2.0000 -4.0000 -2.3000
v  2.0000 -10.7500 2.3000
v  2.0000 -4.0000 2.3000
v  2.0000 -4.0000 -11.5000
v  2.0000 -10.7500 -6.9000
v  2.0000 -4.0000 -6.9000
v  1.8500 -10.7500 2.3000
v  1.8500 -4.1000 6.9000
v  1.8500 -10.7500 6.9000
v  1.8500 -10.7500 -2.3000
v  1.8500 -4.1000 2.3000
v  1.8500 -10.7500 2.3000
v  1.8500 -10.7500 -6.9000
v  1.8500 -4.1000 -2.3000
v  1.8500 -10.7500 -2.3000
v  1.8500 -10.7500 -11.5000
v  1.8500 -4.1000 -6.9000
v  1.8500 -10.7500 -6.9000
v  2.0000 5.7500 -11.5000
v  2.0000 10.7500 11.5000
# 211 vertices

vn -0.5788 0.5760 0.5772
vn -0.5787 0.5763 -0.5771
vn -1.0000 -0.0049 -0.0055
vn -1.0000 -0.0049 -0.0055
vn -1.0000 -0.0056 0.0072
vn -0.5788 0.5760 0.5772
vn 1.0000 0.0000 -0.0000
vn 1.0000 0.0000 -0.0000
vn 1.0000 0.0000 -0.0000
vn 1.0000 0.0000 -0.0000
vn 1.0000 0.0000 -0.0000
vn 1.0000 0.0000 -0.0000
vn -0.9992 0.0010 -0.0390
vn 0.9993 -0.0010 -0.0376
vn -0.9998 0.0010 -0.0177
vn 0.9993 -0.0010 -0.0376
vn -0.9992 0.0010 -0.0390
vn 0.9999 -0.0010 -0.0163
vn 0.9993 -0.0010 -0.0376
vn -0.9992 0.0010 -0.0390
vn 0.9999 -0.0010 -0.0163
vn -0.9992 0.0010 -0.0390
vn 0.9993 -0.0010 -0.0376
vn -0.9998 0.0010 -0.0177
vn -0.9992 0.0010 -0.0390
vn 0.9993 -0.0010 -0.0376
vn -0.9998 0.0010 -0.0177
vn 0.9993 -0.0010 -0.0376
vn -0.9992 0.0010 -0.0390
vn 0.9999 -0.0010 -0.0163
vn 0.9993 -0.0010 -0.0376
vn -0.9992 0.0010 -0.0390
vn 0.9999 -0.0010 -0.0163
vn -0.9992 0.0010 -0.0390
vn 0.9993 -0.0010 -0.0376
vn -0.9998 0.0010 -0.0177
vn -0.5788 0.5760 0.5772
vn -1.0000 -0.0056 0.0072
vn 0.0000 0.0000 1.0000
vn 0.5774 0.5774 -0.5774
vn 0.5774 0.5774 0.5774
vn 0.7071 0.0000 0.7071
vn 0.5774 0.5774 -0.5774
vn -0.5787 0.5763 -0.5771
vn -0.5788 0.5760 0.5772
vn 0.7071 0.0000 0.7071
vn 0.7071 0.0000 -0.7071
vn 0.5774 0.5774 -0.5774
vn 0.0086 0.7430 -0.6693
vn -0.0021 0.7410 0.6715
vn 0.0255 -0.7420 0.6700
vn -0.0021 0.7410 0.6715
vn 0.0086 0.7430 -0.6693
vn -0.0258 -0.7417 -0.6703
vn 0.0270 -0.9996 -0.0063
vn 0.0327 -0.9994 -0.0072
vn -0.0161 -0.9999 0.0009
vn 0.0255 -0.7420 0.6700
vn -0.0258 -0.7417 -0.6703
vn 0.0086 0.7430 -0.6693
vn -0.0258 -0.7417 -0.6703
vn 0.0255 -0.7420 0.6700
vn -0.0021 0.7410 0.6715
vn -1.0000 -0.0049 -0.0055
vn -0.5787 0.5763 -0.5771
vn -0.0000 0.0000 -1.0000
vn -0.5787 0.5763 -0.5771
vn 0.5774 0.5774 -0.5774
vn -0.0000 0.0000 -1.0000
vn 0.0086 -0.0132 0.9999
vn 0.0356 -0.0155 0.9992
vn 0.5555 0.5733 0.6023
vn 0.0160 0.0030 -0.9999
vn 0.0208 0.0039 -0.9998
vn -0.0160 -0.0030 -0.9999
vn 0.5555 0.5733 0.6023
vn -0.0828 0.0830 0.9931
vn 0.0086 -0.0132 0.9999
vn -0.0160 -0.0030 -0.9999
vn -0.0208 -0.0039 -0.9998
vn 0.0160 0.0030 -0.9999
vn -0.5744 -0.0327 -0.8179
vn 0.5744 0.0327 -0.8179
vn 0.5744 -0.0327 0.8179
vn 0.5744 0.0327 -0.8179
vn -0.5744 -0.0327 -0.8179
vn -0.5744 0.0327 0.8179
vn 0.5744 -0.0327 0.8179
vn -0.5744 0.0327 0.8179
vn -0.5744 -0.0327 -0.8179
vn -0.5744 0.0327 0.8179
vn 0.5744 -0.0327 0.8179
vn 0.5744 0.0327 -0.8179
vn -0.0161 -0.9999 0.0009
vn -0.0218 -0.9998 0.0018
vn 0.0270 -0.9996 -0.0063
vn 0.0000 -0.0000 1.0000
vn 0.0000 -0.0000 1.0000
vn 0.0000 -0.0000 1.0000
vn 0.0000 -0.0000 1.0000
vn 0.0000 0.0000 1.0000
vn 0.0000 -0.0000 1.0000
vn -0.0000 0.0000 -1.0000
vn -0.0000 0.0000 -1.0000
vn -0.0000 0.0000 -1.0000
vn -0.0000 0.0000 -1.0000
vn -0.0000 0.0000 -1.0000
vn -0.0000 0.0000 -1.0000
vn -0.0000 0.0000 -1.0000
vn -0.0000 0.0000 -1.0000
vn -0.0000 0.0000 -1.0000
vn -0.0000 0.0000 -1.0000
vn -0.0000 0.0000 -1.0000
vn -0.0000 0.0000 -1.0000
vn 0.0000 0.0000 1.0000
vn 0.0000 0.0000 1.0000
vn 0.0000 0.0000 1.0000
vn -0.0000 0.0000 -1.0000
vn -0.0000 0.0000 -1.0000
vn -0.0000 0.0000 -1.0000
vn -0.0000 0.0000 -1.0000
vn -0.0000 0.0000 -1.0000
vn -0.0000 0.0000 -1.0000
vn 0.0000 1.0000 -0.0000
vn 0.0000 1.0000 -0.0000
vn 0.0000 1.0000 -0.0000
vn -0.0000 0.0000 -1.0000
vn -0.0000 0.0000 -1.0000
vn -0.0000 0.0000 -1.0000
vn 0.0000 0.0000 1.0000
vn 0.0000 0.0000 1.0000
vn 0.0000 0.0000 1.0000
vn 0.0000 0.0000 1.0000
vn 0.0000 0.0000 1.0000
vn 0.0000 0.0000 1.0000
vn 0.0000 0.0000 1.0000
vn 0.0000 0.0000 1.0000
vn 0.0000 0.0000 1.0000
vn 0.0000 -1.0000 -0.0000
vn 0.0000 -1.0000 -0.0000
vn 0.0000 -1.0000 -0.0000
vn 0.0000 0.0000 1.0000
vn 0.0000 0.0000 1.0000
vn 0.0000 0.0000 1.0000
vn 0.0000 0.0000 1.0000
vn 0.0000 0.0000 1.0000
vn 0.0000 0.0000 1.0000
vn 0.0000 0.0000 1.0000
vn 0.0000 0.0000 1.0000
vn 0.0000 0.0000 1.0000
vn -0.0000 0.0000 -1.0000
vn -0.0000 0.0000 -1.0000
vn -0.0000 0.0000 -1.0000
vn -0.0000 0.0000 -1.0000
vn -0.0000 0.0000 -1.0000
vn -0.0000 0.0000 -1.0000
vn -0.0000 0.0000 -1.0000
vn -0.0000 0.0000 -1.0000
vn -0.0000 0.0000 -1.0000
vn -0.0000 0.0000 -1.0000
vn -0.0000 0.0000 -1.0000
vn -0.0000 0.0000 -1.0000
vn 0.0000 -1.0000 -0.0000
vn 0.0000 -1.0000 -0.0000
vn 0.0000 -1.0000 -0.0000
vn 0.0000 0.0000 1.0000
vn 0.0000 0.0000 1.0000
vn 0.0000 0.0000 1.0000
vn -0.0000 0.0000 -1.0000
vn -0.0000 0.0000 -1.0000
vn -0.0000 0.0000 -1.0000
vn 0.0000 1.0000 -0.0000
vn 0.0000 1.0000 -0.0000
vn 0.0000 1.0000 -0.0000
vn 0.0000 0.0000 1.0000
vn 0.0000 0.0000 1.0000
vn 0.0000 0.0000 1.0000
vn 0.0000 0.0000 1.0000
vn 0.0000 0.0000 1.0000
vn 0.0000 0.0000 1.0000
vn 0.5774 0.5774 0.5774
vn -0.5788 0.5760 0.5772
vn 0.0000 0.0000 1.0000
vn -0.5788 0.5760 0.5772
vn 0.5774 0.5774 0.5774
vn 0.5774 0.5774 -0.5774
vn 0.5774 0.5774 0.5774
vn 0.0000 0.0000 1.0000
vn 0.7071 0.0000 0.7071
vn 0.0000 1.0000 -0.0000
vn 0.0000 1.0000 -0.0000
vn 0.0000 1.0000 -0.0000
vn 0.0000 -1.0000 -0.0000
vn 0.0000 -1.0000 -0.0000
vn 0.0000 -1.0000 -0.0000
vn 0.0000 1.0000 -0.0000
vn 0.0000 1.0000 -0.0000
vn 0.0000 1.0000 -0.0000
vn 0.0000 -1.0000 -0.0000
vn 0.0000 -1.0000 -0.0000
vn 0.0000 -1.0000 -0.0000
vn 0.0000 1.0000 -0.0000
vn 0.0000 1.0000 -0.0000
vn 0.0000 1.0000 -0.0000
vn 0.0000 1.0000 -0.0000
vn 0.0000 1.0000 -0.0000
vn 0.0000 1.0000 -0.0000
vn 0.0000 1.0000 -0.0000
vn 0.0000 1.0000 -0.0000
vn 0.0000 1.0000 -0.0000
vn 0.0000 -1.0000 -0.0000
vn 0.0000 -1.0000 -0.0000
vn 0.0000 -1.0000 -0.0000
vn 0.0000 -1.0000 -0.0000
vn 0.0000 -1.0000 -0.0000
vn 0.0000 -1.0000 -0.0000
vn 0.0000 -1.0000 -0.0000
vn 0.0000 -1.0000 -0.0000
vn 0.0000 -1.0000 -0.0000
vn 0.0000 1.0000 -0.0000
vn 0.0000 1.0000 -0.0000
vn 0.0000 1.0000 -0.0000
vn 0.0000 -1.0000 -0.0000
vn 0.0000 -1.0000 -0.0000
vn 0.0000 -1.0000 -0.0000
vn 0.0000 -1.0000 -0.0000
vn 0.0000 -1.0000 -0.0000
vn 0.0000 -1.0000 -0.0000
vn 0.0000 -1.0000 -0.0000
vn 0.0000 -1.0000 -0.0000
vn 0.0000 -1.0000 -0.0000
vn 0.0000 -1.0000 -0.0000
vn 0.0000 -1.0000 -0.0000
vn 0.0000 -1.0000 -0.0000
vn 0.0000 -1.0000 -0.0000
vn 0.0000 -1.0000 -0.0000
vn 0.0000 -1.0000 -0.0000
vn 0.0000 1.0000 -0.0000
vn 0.0000 1.0000 -0.0000
vn 0.0000 1.0000 -0.0000
vn 0.0000 1.0000 -0.0000
vn 0.0000 1.0000 -0.0000
vn 0.0000 1.0000 -0.0000
vn 0.0000 1.0000 -0.0000
vn 0.0000 1.0000 -0.0000
vn 0.0000 1.0000 -0.0000
vn 0.0000 1.0000 -0.0000
vn 0.0000 1.0000 -0.0000
vn 0.0000 1.0000 -0.0000
vn 0.0000 -1.0000 -0.0000
vn 0.0000 -1.0000 -0.0000
vn 0.0000 -1.0000 -0.0000
vn 0.0000 -1.0000 -0.0000
vn 0.0000 -1.0000 -0.0000
vn 0.0000 -1.0000 -0.0000
vn 0.0000 1.0000 -0.0000
vn 0.0000 1.0000 -0.0000
vn 0.0000 1.0000 -0.0000
vn 0.0000 1.0000 -0.0000
vn 0.0000 1.0000 -0.0000
vn 0.0000 1.0000 -0.0000
vn 0.0000 1.0000 -0.0000
vn 0.0000 1.0000 -0.0000
vn 0.0000 1.0000 -0.0000
vn 0.0000 1.0000 -0.0000
vn 0.0000 1.0000 -0.0000
vn 0.0000 1.0000 -0.0000
vn 0.0000 -1.0000 -0.0000
vn 0.0000 -1.0000 -0.0000
vn 0.0000 -1.0000 -0.0000
vn 0.0000 -1.0000 -0.0000
vn 0.0000 -1.0000 -0.0000
vn 0.0000 -1.0000 -0.0000
vn 0.0000 1.0000 -0.0000
vn 0.0000 1.0000 -0.0000
vn 0.0000 1.0000 -0.0000
vn 0.0000 1.0000 -0.0000
vn 0.0000 1.0000 -0.0000
vn 0.0000 1.0000 -0.0000
vn 0.0000 -1.0000 -0.0000
vn 0.0000 -1.0000 -0.0000
vn 0.0000 -1.0000 -0.0000
vn 0.0000 1.0000 -0.0000
vn 0.0000 1.0000 -0.0000
vn 0.0000 1.0000 -0.0000
vn 0.0000 -1.0000 -0.0000
vn 0.0000 -1.0000 -0.0000
vn 0.0000 -1.0000 -0.0000
vn 0.0000 -1.0000 -0.0000
vn 0.0000 -1.0000 -0.0000
vn 0.0000 -1.0000 -0.0000
vn 0.0000 -1.0000 -0.0000
vn 0.0000 -1.0000 -0.0000
vn 0.0000 -1.0000 -0.0000
vn 0.0000 -1.0000 -0.0000
vn 0.0000 -1.0000 -0.0000
vn 0.0000 -1.0000 -0.0000
vn 0.0000 -1.0000 -0.0000
vn 0.0000 -1.0000 -0.0000
vn 0.0000 -1.0000 -0.0000
vn 0.0000 1.0000 -0.0000
vn 0.0000 1.0000 -0.0000
vn 0.0000 1.0000 -0.0000
vn 0.0000 1.0000 -0.0000
vn 0.0000 1.0000 -0.0000
vn 0.0000 1.0000 -0.0000
vn 0.0000 1.0000 -0.0000
vn 0.0000 1.0000 -0.0000
vn 0.0000 1.0000 -0.0000
vn 1.0000 0.0000 -0.0000
vn 1.0000 0.0000 -0.0000
vn 1.0000 0.0000 -0.0000
vn 1.0000 0.0000 -0.0000
vn 1.0000 0.0000 -0.0000
vn 1.0000 0.0000 -0.0000
vn 1.0000 0.0000 -0.0000
vn 1.0000 0.0000 -0.0000
vn 1.0000 0.0000 -0.0000
vn 1.0000 0.0000 -0.0000
vn 1.0000 0.0000 -0.0000
vn 1.0000 0.0000 -0.0000
vn -1.0000 0.0000 0.0000
vn -1.0000 0.0000 0.0000
vn -1.0000 0.0000 0.0000
vn -1.0000 0.0000 0.0000
vn -1.0000 0.0000 0.0000
vn -1.0000 0.0000 0.0000
vn -1.0000 0.0000 0.0000
vn -1.0000 0.0000 0.0000
vn -1.0000 0.0000 0.0000
vn -1.0000 0.0000 0.0000
vn -1.0000 0.0000 0.0000
vn -1.0000 0.0000 0.0000
vn 0.5774 0.5774 -0.5774
vn 0.7071 0.0000 -0.7071
vn -0.0000 0.0000 -1.0000
vn -0.0828 0.0830 0.9931
vn 0.5555 0.5733 0.6023
vn 0.7148 0.6993 -0.0000
vn 0.7148 0.6993 -0.0000
vn 0.5555 0.5733 0.6023
vn 0.0356 -0.0155 0.9992
# 342 vertex normals

vt 0.2725 1.2188 1.9375
vt 0.7275 1.2188 -0.9375
vt 0.2500 1.8438 1.9375
vt 0.7500 1.2188 1.9375
vt 0.7500 1.8438 1.9375
vt 0.2500 1.2188 -0.9375
vt 0.7500 1.8438 -0.9375
vt 0.2500 1.8438 -0.9375
vt 0.2650 -0.8438 1.9375
vt 0.7387 -0.8438 -0.9375
vt 0.7500 -0.9375 1.8438
vt 0.7500 1.9375 1.8438
vt 0.2500 1.9375 1.8438
vt 0.2500 -0.9375 1.8438
vt 1.9375 -0.8438 0.7500
vt 1.9375 1.8438 0.7500
vt -0.9375 1.8438 0.7500
vt -0.9375 -0.8438 0.7500
vt -0.9375 1.8438 0.2500
vt -0.9375 1.2188 0.2500
vt 1.9375 1.2188 0.2500
vt 1.9375 1.8438 0.2500
vt 0.0000 1.0000 0.0000
vt 0.0000 0.0000 0.0000
vt 1.0000 0.0000 0.0000
vt 1.0000 1.0000 0.0000
vt 0.2612 1.9375 0.9063
vt 0.2613 -0.9375 0.9063
vt 0.7387 1.9375 0.9063
vt 0.7388 -0.9375 0.9063
vt 0.2613 1.5000 0.2969
vt 0.7388 1.5000 0.2969
vt 0.2613 1.1250 0.2969
vt 0.7388 1.1250 0.2969
vt 0.2613 1.5000 0.7031
vt 0.7388 1.5000 0.7031
vt 0.2613 1.1250 0.7031
vt 0.7388 1.1250 0.7031
vt 0.2613 1.0938 0.7031
vt 0.7388 1.0937 0.7031
vt 0.2613 0.7188 0.7031
vt 0.7388 0.7187 0.7031
vt 0.2613 1.0938 0.2969
vt 0.7388 1.0937 0.2969
vt 0.2613 0.7188 0.2969
vt 0.7388 0.7187 0.2969
vt 0.2613 0.6875 0.2969
vt 0.7388 0.6875 0.2969
vt 0.2612 0.3125 0.2969
vt 0.7387 0.3125 0.2969
vt 0.2613 0.6875 0.7031
vt 0.7388 0.6875 0.7031
vt 0.2612 0.3125 0.7031
vt 0.7387 0.3125 0.7031
vt 0.2612 0.2813 0.7031
vt 0.7387 0.2812 0.7031
vt 0.2612 -0.0937 0.7031
vt 0.7387 -0.0938 0.7031
vt 0.2612 0.2813 0.2969
vt 0.7387 0.2812 0.2969
vt 0.2612 -0.0937 0.2969
vt 0.7387 -0.0938 0.2969
vt 0.2612 -0.1250 0.2969
vt 0.7387 -0.1250 0.2969
vt 0.2612 -0.5000 0.2969
vt 0.7387 -0.5000 0.2969
vt 0.2612 -0.1250 0.7031
vt 0.7387 -0.1250 0.7031
vt 0.2612 -0.5000 0.7031
vt 0.7387 -0.5000 0.7031
vt 0.7387 1.0625 0.0938
vt 0.2612 1.0625 0.0938
vt 0.7387 0.6875 0.0938
vt 0.2612 0.6875 0.0938
vt 0.7387 1.0625 0.5000
vt 0.2612 1.0625 0.5000
vt 0.7387 0.6875 0.5000
vt 0.2612 0.6875 0.5000
vt 0.7387 0.6563 0.5000
vt 0.2612 0.6562 0.5000
vt 0.7388 0.2813 0.5000
vt 0.2613 0.2812 0.5000
vt 0.7387 0.6563 0.0938
vt 0.2612 0.6562 0.0938
vt 0.7388 0.2813 0.0938
vt 0.2613 0.2812 0.0938
vt 0.7388 0.2500 0.0938
vt 0.2613 0.2500 0.0938
vt 0.7388 -0.1250 0.0938
vt 0.2613 -0.1250 0.0938
vt 0.7388 0.2500 0.5000
vt 0.2613 0.2500 0.5000
vt 0.7388 -0.1250 0.5000
vt 0.2613 -0.1250 0.5000
vt 0.7388 -0.1562 0.5000
vt 0.2613 -0.1563 0.5000
vt 0.7388 -0.5312 0.5000
vt 0.2613 -0.5313 0.5000
vt 0.7388 -0.1562 0.0938
vt 0.2613 -0.1563 0.0938
vt 0.7388 -0.5312 0.0938
vt 0.2613 -0.5313 0.0938
vt 0.7388 -0.5625 0.0938
vt 0.2613 -0.5625 0.0938
vt 0.7388 -0.9375 0.0938
vt 0.2613 -0.9375 0.0938
vt 0.7388 -0.5625 0.5000
vt 0.2613 -0.5625 0.5000
vt 0.7388 -0.9375 0.5000
vt 0.2613 -0.9375 0.5000
vt 0.0000 1.0000 0.0000
vt 1.0000 1.0000 0.0000
vt 1.0000 0.0000 0.0000
vt 0.0000 0.3256 0.3500
vt 0.9550 0.3256 0.3500
vt 0.0000 0.7674 0.3500
vt 0.9550 0.7674 0.3500
vt 0.0000 0.3256 0.5125
vt 0.9550 0.3256 0.5125
vt 0.0000 0.7674 0.5125
vt 0.9550 0.7674 0.5125
vt 0.0000 0.3256 0.6750
vt 0.9550 0.3256 0.6750
vt 0.0000 0.7674 0.6750
vt 0.9550 0.7674 0.6750
vt 0.0000 0.3256 0.8375
vt 0.9550 0.3256 0.8375
vt 0.0000 0.7674 0.8375
vt 0.9550 0.7674 0.8375
vt 0.0000 0.3256 1.0000
vt 0.9550 0.3256 1.0000
vt 0.0000 0.7674 1.0000
vt 0.9550 0.7674 1.0000
vt 0.0000 0.0000 0.0000
vt 0.2500 1.9375 0.0313
vt 0.7275 1.9375 0.0313
vt 0.2500 -0.9375 0.0313
vt 0.7275 -0.9375 0.0313
vt 0.7500 0.0313 1.0938
vt 0.7500 1.2188 1.0938
vt 0.2725 1.2188 1.0938
vt 0.2725 0.0313 1.0938
vt 0.7500 0.0313 0.6875
vt 0.7500 1.2188 0.6875
vt 0.2725 1.2188 0.6875
vt 0.2725 0.0313 0.6875
vt 0.7500 0.0313 0.2813
vt 0.7500 1.2188 0.2813
vt 0.2725 1.2188 0.2813
vt 0.2725 0.0313 0.2813
vt 0.7500 0.0313 -0.1250
vt 0.7500 1.2188 -0.1250
vt 0.2725 1.2188 -0.1250
vt 0.2725 0.0313 -0.1250
vt 0.7500 0.0313 -0.5312
vt 0.7500 1.2188 -0.5312
vt 0.2725 1.2188 -0.5312
vt 0.2725 0.0313 -0.5312
vt 0.7500 1.8438 -0.9375
vt 0.2500 1.8438 -0.9375
vt 0.2500 -0.8438 -0.9375
vt 0.7500 -0.8438 -0.9375
vt 1.0000 0.3333 -0.0000
vt 1.0000 0.3333 1.0000
vt -0.0000 1.0000 1.0000
vt -0.0000 0.0000 1.0000
vt 1.0000 0.0000 1.0000
vt 1.0000 1.0000 0.0000
vt 0.0000 1.0000 0.0000
vt 0.0000 0.0000 0.0000
vt 1.3625 -0.0125 0.2688
vt 1.9375 -0.0047 0.2609
vt -0.3625 -0.8438 0.2500
vt -0.9375 -0.8438 0.2500
vt 0.7875 -0.0044 0.2606
vt 0.2125 -0.8438 0.2500
vt 0.2125 -0.0044 0.2606
vt 0.7875 -0.8438 0.2500
vt -0.3625 -0.0044 0.2606
vt 1.3625 -0.8438 0.2500
vt -0.9375 -0.0044 0.2606
vt 1.9375 -0.8438 0.2500
vt -1.0000 0.2500 1.8438
vt -0.9375 0.2500 1.8438
vt -0.9583 0.7500 1.8438
vt 0.7500 -0.8438 -1.0000
vt 0.2500 -0.8438 -1.0000
vt -0.9375 0.7275 0.0000
vt 0.2500 1.8438 2.0000
vt 0.7500 1.8438 2.0000
vt -0.3625 0.0000 0.2500
vt -0.3625 -0.8438 0.2500
vt 1.3625 -0.8438 0.2688
vt 1.3625 -0.0125 0.2688
vt 0.2125 0.0000 0.2500
vt 0.2125 -0.8438 0.2500
vt 0.7875 -0.8438 0.2688
vt 0.7875 -0.0125 0.2688
vt 0.7875 0.0000 0.2500
vt 0.7875 -0.8438 0.2500
vt 0.2125 -0.8438 0.2687
vt 0.2125 -0.0125 0.2687
vt 1.3625 0.0000 0.2500
vt 1.3625 -0.8438 0.2500
vt -0.3625 -0.8438 0.2687
vt -0.3625 -0.0125 0.2687
vt 1.3625 -0.0026 0.2589
vt 0.2125 0.0000 0.2500
vt 0.7875 -0.8438 0.2688
vt 0.7875 0.0000 0.2500
vt 0.2125 -0.8438 0.2687
vt 1.3625 0.0000 0.2500
vt -0.3625 -0.8438 0.2687
vt 1.9375 0.0000 0.2500
vt -0.9375 -0.8438 0.2687
vt -0.3625 -0.8438 0.2500
vt 0.7875 -0.0125 0.2688
vt 0.2125 -0.8438 0.2500
vt 0.2125 -0.0125 0.2687
vt 0.7875 -0.8438 0.2500
vt -0.3625 -0.0125 0.2687
vt 1.3625 -0.8438 0.2500
vt -0.9375 0.2500 0.0000
vt -0.3625 0.0000 0.2500
vt -0.9375 0.0000 0.2500
vt 1.3625 -0.8438 0.2688
vt 1.9375 -0.8438 0.2688
vt 0.2125 0.0000 0.2500
vt 0.7875 -0.8438 0.2688
vt 0.7875 0.0000 0.2500
vt 0.2125 -0.8438 0.2687
vt 1.3625 0.0000 0.2500
vt -0.3625 -0.8438 0.2687
vt 1.9375 0.0000 0.2500
vt -0.9375 -0.8438 0.2687
vt 0.7500 1.8438 -1.0000
vt 0.2500 1.8438 -1.0000
vt -0.9375 1.8438 0.2500
vt -1.0000 1.8438 0.2500
vt -0.9583 -0.8438 0.2500
vt 1.9375 0.2500 0.0000
vt 1.9375 0.7275 0.0000
vt 0.2500 -0.8438 2.0000
vt 0.7500 -0.8438 2.0000
# 244 texture coords

o Layer_0
g Layer_0
usemtl ÑÆ¹âÄ¾ÎÆ
s 8
f 25/16/1 34/17/2 3/18/3 
f 3/18/4 4/15/5 25/16/6 
usemtl ÑÇÂé²¼
s 1
f 8/26/7 7/23/8 5/24/9 
f 5/24/10 6/25/11 8/26/12 
usemtl ÑÆ¹âÄ¾ÎÆ
s 16
f 10/175/13 9/229/14 11/171/15 
s 8
f 9/176/16 10/228/17 12/173/18 
s 1
f 13/178/19 14/230/20 15/218/21 
s 2
f 14/177/22 13/231/23 16/217/24 
s 32
f 18/179/25 17/233/26 19/219/27 
s 8
f 17/180/28 18/232/29 20/220/30 
s 1
f 21/182/31 22/234/32 23/222/33 
s 64
f 22/181/34 21/235/35 24/221/36 
s 4
f 25/3/37 4/9/38 2/1/39 
s 8
f 26/22/40 104/19/41 105/20/42 
s 1
f 26/14/43 34/11/44 25/12/45 
s 8
f 105/20/46 210/21/47 26/22/48 
s 1
f 27/224/49 28/225/50 29/174/51 
s 4
f 28/172/52 27/207/53 33/226/54 
s 32
f 30/188/55 31/223/56 32/241/57 
s 1
f 29/174/58 33/216/59 27/224/60 
s 4
f 33/226/61 29/227/62 28/172/63 
f 3/10/64 34/7/65 1/2/66 
f 34/7/67 26/8/68 1/2/69 
s 2
f 35/187/70 36/186/71 37/236/72 
s 1
f 38/190/73 39/189/74 42/243/75 
s 2
f 37/236/76 41/237/77 35/187/78 
s 1
f 42/243/79 40/244/80 38/190/81 
usemtl 05___Default
s 4
f 43/169/82 44/170/83 45/163/84 
f 44/167/85 43/164/86 46/165/87 
f 45/163/88 46/168/89 43/169/90 
f 46/165/91 45/166/92 44/167/93 
usemtl ÑÆ¹âÄ¾ÎÆ
s 32
f 32/241/94 47/242/95 30/188/96 
s 8
f 48/161/97 49/162/98 51/159/99 
f 51/159/100 50/160/101 48/161/102 
s 16
f 52/112/103 53/111/104 55/134/105 
f 55/134/106 54/113/107 52/112/108 
s 1
f 56/118/109 57/119/110 95/121/111 
f 59/130/112 60/131/113 97/133/114 
f 62/148/115 63/149/116 93/150/117 
f 65/114/118 66/115/119 96/117/120 
f 68/122/121 69/123/122 100/125/123 
usemtl Èé½ºÆá1
f 71/137/124 72/138/125 101/136/126 
usemtl ÑÆ¹âÄ¾ÎÆ
f 74/126/127 75/127/128 94/129/129 
f 77/140/130 78/141/131 92/142/132 
f 80/156/133 81/157/134 102/158/135 
f 83/152/136 84/153/137 99/154/138 
s 2
f 86/28/139 87/30/140 98/29/141 
s 1
f 89/144/142 90/145/143 103/146/144 
f 92/142/145 79/139/146 77/140/147 
f 93/150/148 64/147/149 62/148/150 
f 94/129/151 76/128/152 74/126/153 
f 95/121/154 58/120/155 56/118/156 
f 96/117/157 67/116/158 65/114/159 
f 97/133/160 61/132/161 59/130/162 
s 2
f 98/29/163 88/27/164 86/28/165 
s 1
f 99/154/166 85/151/167 83/152/168 
f 100/125/169 70/124/170 68/122/171 
usemtl Èé½ºÆá1
f 101/136/172 73/135/173 71/137/174 
usemtl ÑÆ¹âÄ¾ÎÆ
f 102/158/175 82/155/176 80/156/177 
f 103/146/178 91/143/179 89/144/180 
s 4
f 104/5/181 25/3/182 2/1/183 
s 1
f 25/12/184 104/13/185 26/14/186 
s 4
f 104/5/187 2/1/188 105/4/189 
s 2
f 168/45/190 108/46/191 106/44/192 
f 180/90/193 111/89/194 109/87/195 
f 175/69/196 114/70/197 112/68/198 
f 167/106/199 117/105/200 115/103/201 
f 174/57/202 120/58/203 118/56/204 
f 184/33/205 123/34/206 121/32/207 
f 185/53/208 126/54/209 124/52/210 
f 178/110/211 129/109/212 127/107/213 
f 176/78/214 132/77/215 130/75/216 
f 172/74/217 135/73/218 133/71/219 
f 170/49/220 138/50/221 136/48/222 
f 173/98/223 141/97/224 139/95/225 
f 182/94/226 144/93/227 142/91/228 
f 179/82/229 147/81/230 145/79/231 
f 181/102/232 150/101/233 148/99/234 
f 166/86/235 153/85/236 151/83/237 
f 177/65/238 156/66/239 154/64/240 
f 171/61/241 159/62/242 157/60/243 
f 169/37/244 162/38/245 160/36/246 
f 183/41/247 165/42/248 163/40/249 
f 151/83/250 152/84/251 166/86/252 
f 115/103/253 116/104/254 167/106/255 
f 106/44/256 107/43/257 168/45/258 
f 160/36/259 161/35/260 169/37/261 
f 136/48/262 137/47/263 170/49/264 
f 157/60/265 158/59/266 171/61/267 
f 133/71/268 134/72/269 172/74/270 
f 139/95/271 140/96/272 173/98/273 
f 118/56/274 119/55/275 174/57/276 
f 112/68/277 113/67/278 175/69/279 
f 130/75/280 131/76/281 176/78/282 
f 154/64/283 155/63/284 177/65/285 
f 127/107/286 128/108/287 178/110/288 
f 145/79/289 146/80/290 179/82/291 
f 109/87/292 110/88/293 180/90/294 
f 148/99/295 149/100/296 181/102/297 
f 142/91/298 143/92/299 182/94/300 
f 163/40/301 164/39/302 183/41/303 
f 121/32/304 122/31/305 184/33/306 
f 124/52/307 125/51/308 185/53/309 
s 8
f 187/200/310 186/212/311 188/199/312 
f 190/192/313 189/208/314 191/191/315 
s 1
f 193/196/316 192/210/317 194/195/318 
f 196/204/319 195/214/320 197/203/321 
s 16
f 199/194/322 198/209/323 200/193/324 
s 2
f 202/198/325 201/211/326 203/197/327 
s 32
f 205/202/328 204/213/329 206/201/330 
s 64
f 208/206/331 207/215/332 209/205/333 
s 4
f 26/8/334 210/6/335 1/2/336 
s 1
f 41/185/337 37/183/338 211/184/339 
s 32
f 211/238/340 37/239/341 36/240/342 
# 0 polygons - 114 triangles

