# 3ds Max Wavefront OBJ Exporter v0.97b - (c)2007 guruware
# 创建的文件:05.03.2021 09:57:18

mtllib ABC-53.mtl

#
# object Layer_0
#

v  225.0000 -135.0000 -215.0000
v  -225.0000 -135.0000 -190.0000
v  -225.0000 -135.0000 225.0000
v  -225.0001 -135.0000 664.9999
v  -249.9998 -150.0000 -1130.0000
v  -225.0002 150.0000 1105.0002
v  250.0002 150.0000 -1130.0000
v  -249.9998 150.0000 -1130.0000
v  224.9998 -135.0000 1105.0002
v  -224.9999 -135.0000 -630.0001
v  225.0000 -135.0000 225.0000
v  224.9999 -135.0000 690.0001
v  225.0001 -135.0000 -629.9999
v  -225.0000 -135.0000 250.0000
v  249.9998 -150.0000 1130.0002
v  224.9999 -135.0000 665.0001
v  224.9999 150.0000 681.6667
v  -225.0002 -135.0000 1105.0002
v  -225.0000 -135.0000 -215.0000
v  225.0000 -135.0000 -190.0000
v  225.0001 150.0000 -629.9999
v  -225.0001 -135.0000 689.9999
v  225.0000 -135.0000 250.0000
v  -250.0002 -150.0000 1130.0002
v  224.9998 150.0000 1105.0002
v  225.0000 150.0000 -190.0000
v  -225.0000 150.0000 -190.0000
v  250.0002 -150.0000 -1130.0000
v  -225.0000 150.0000 233.3333
v  -225.0001 150.0000 689.9999
v  225.0000 150.0000 241.6667
v  -224.9999 150.0000 -630.0001
v  249.9998 150.0000 1130.0002
v  -250.0002 150.0000 1130.0002
v  225.0000 150.0000 -215.0000
v  -225.0000 150.0000 -215.0000
v  -225.0001 150.0000 664.9999
# 37 vertices

vn 0.5774 0.5774 0.5774
vn -0.5774 0.5774 0.5774
vn -0.3015 0.9045 0.3015
vn -0.5774 0.5774 0.5774
vn -0.5774 0.5774 -0.5774
vn -0.5774 -0.5774 -0.5774
vn 0.5774 0.5774 0.5774
vn -0.3015 0.9045 0.3015
vn -0.6775 0.7356 0.0007
vn -0.5789 0.5849 0.5681
vn 0.5780 0.5907 0.5630
vn 0.5774 0.5774 -0.5774
vn 0.5774 -0.5774 -0.5774
vn -0.5774 -0.5774 -0.5774
vn -0.5774 0.5774 -0.5774
vn -0.5774 -0.5774 -0.5774
vn 0.5774 -0.5774 -0.5774
vn 0.5774 -0.5774 0.5774
vn 0.3054 0.9033 -0.3013
vn 0.6775 0.7356 -0.0007
vn -0.5774 0.5774 0.5774
vn 0.5774 -0.5774 0.5774
vn -0.5774 -0.5774 0.5774
vn -0.5774 -0.5774 -0.5774
vn -0.3015 0.9045 0.3015
vn 0.5774 0.5774 -0.5774
vn -0.5774 0.5774 -0.5774
vn 0.5774 0.5774 0.5774
vn 0.5774 0.5774 -0.5774
vn -0.3015 0.9045 0.3015
vn 0.3015 0.9045 -0.3015
vn 0.3015 0.9045 0.3015
vn -0.5774 0.5774 -0.5774
vn 0.3015 0.9045 0.3015
vn -0.5774 0.5774 -0.5774
vn -0.5774 0.5774 0.5774
vn 0.3054 0.9033 -0.3013
vn -0.6689 0.7434 0.0011
vn -0.5755 0.5890 -0.5673
vn -0.5774 0.5774 -0.5774
vn 0.5774 0.5774 -0.5774
vn 0.3015 0.9045 -0.3015
vn 0.3015 0.9045 0.3015
vn 0.3015 0.9045 -0.3015
vn 0.5774 0.5774 -0.5774
vn -0.3015 0.9045 0.3015
vn -0.3015 0.9045 -0.3015
vn 0.5774 0.5774 -0.5774
vn -0.5780 0.5907 -0.5630
vn 0.5789 0.5849 -0.5681
vn 0.6775 0.7356 -0.0007
vn -0.6775 0.7356 0.0007
vn -0.3015 0.9045 0.3015
vn -0.5774 0.5774 0.5774
vn 0.3076 0.9024 0.3019
vn 0.3015 0.9045 -0.3015
vn 0.5774 0.5774 -0.5774
vn 0.5799 0.5791 0.5730
vn -0.5789 0.5849 0.5681
vn -0.6689 0.7434 0.0011
vn -0.5774 0.5774 -0.5774
vn 0.5774 0.5774 -0.5774
vn 0.3015 0.9045 -0.3015
vn -0.3015 0.9045 -0.3015
vn -0.3015 0.9045 0.3015
vn -0.5774 0.5774 0.5774
vn 0.6775 0.7356 -0.0007
vn 0.3015 0.9045 0.3015
vn -0.5774 0.5774 0.5774
vn 0.3015 0.9045 0.3015
vn 0.6775 0.7356 -0.0007
vn 0.5789 0.5849 -0.5681
vn -0.5774 -0.5774 0.5774
vn 0.5774 -0.5774 0.5774
vn 0.5774 0.5774 0.5774
vn 0.5774 0.5774 -0.5774
vn 0.5774 0.5774 0.5774
vn 0.5774 -0.5774 0.5774
vn -0.6689 0.7434 0.0011
vn -0.6775 0.7356 0.0007
vn -0.5789 0.5849 0.5681
vn 0.5780 0.5907 0.5630
vn -0.5789 0.5849 0.5681
vn -0.6775 0.7356 0.0007
vn -0.3015 0.9045 -0.3015
vn -0.6689 0.7434 0.0011
vn -0.5789 0.5849 0.5681
vn -0.6775 0.7356 0.0007
vn -0.6689 0.7434 0.0011
vn 0.5774 0.5774 0.5774
vn 0.5774 0.5774 -0.5774
vn -0.5774 0.5774 -0.5774
vn -0.5789 0.5849 0.5681
vn -0.5789 0.5849 0.5681
vn 0.5799 0.5791 0.5730
vn 0.5774 0.5774 -0.5774
vn -0.5774 0.5774 0.5774
vn 0.5774 0.5774 0.5774
vn 0.5774 0.5774 -0.5774
vn 0.5774 0.5774 -0.5774
vn -0.5774 0.5774 -0.5774
vn -0.5774 0.5774 0.5774
vn -0.5774 0.5774 0.5774
vn 0.5774 0.5774 0.5774
vn 0.5789 0.5849 -0.5681
vn 0.5789 0.5849 -0.5681
vn -0.5780 0.5907 -0.5630
vn -0.5774 0.5774 0.5774
vn 0.3015 0.9045 0.3015
vn -0.3015 0.9045 0.3015
vn -0.5774 0.5774 -0.5774
vn 0.5774 0.5774 0.5774
vn -0.5774 0.5774 0.5774
vn -0.3015 0.9045 0.3015
vn -0.5755 0.5890 -0.5673
vn 0.5774 0.5774 -0.5774
vn 0.3054 0.9033 -0.3013
vn 0.6775 0.7356 -0.0007
vn 0.3054 0.9033 -0.3013
vn 0.5774 0.5774 -0.5774
vn -0.5789 0.5849 0.5681
vn -0.5755 0.5890 -0.5673
vn -0.6689 0.7434 0.0011
vn 0.5774 0.5774 -0.5774
vn -0.5755 0.5890 -0.5673
vn -0.5789 0.5849 0.5681
vn 0.5774 0.5774 0.5774
vn -0.5774 0.5774 0.5774
vn -0.5774 -0.5774 0.5774
vn -0.5774 -0.5774 -0.5774
vn -0.5774 -0.5774 0.5774
vn -0.5774 0.5774 0.5774
vn -0.5789 0.5849 0.5681
vn -0.5774 0.5774 -0.5774
vn -0.3015 0.9045 -0.3015
vn 0.3015 0.9045 -0.3015
vn -0.3015 0.9045 -0.3015
vn -0.5774 0.5774 -0.5774
vn 0.3015 0.9045 -0.3015
vn -0.3015 0.9045 -0.3015
vn -0.5774 0.5774 -0.5774
vn -0.5774 0.5774 0.5774
vn -0.5774 0.5774 -0.5774
vn -0.3015 0.9045 -0.3015
vn 0.5789 0.5849 -0.5681
vn 0.5774 0.5774 0.5774
vn 0.3015 0.9045 0.3015
vn -0.3015 0.9045 0.3015
vn 0.3015 0.9045 0.3015
vn 0.5774 0.5774 0.5774
vn 0.5774 -0.5774 0.5774
vn 0.5774 -0.5774 -0.5774
vn 0.5774 0.5774 -0.5774
vn -0.5774 0.5774 -0.5774
vn 0.5774 0.5774 -0.5774
vn 0.5774 -0.5774 -0.5774
vn 0.5774 0.5774 -0.5774
vn 0.5780 0.5907 0.5630
vn 0.6775 0.7356 -0.0007
vn -0.6775 0.7356 0.0007
vn 0.6775 0.7356 -0.0007
vn 0.5780 0.5907 0.5630
vn -0.6689 0.7434 0.0011
vn 0.3076 0.9024 0.3019
vn 0.5799 0.5791 0.5730
vn 0.5774 0.5774 -0.5774
vn 0.5799 0.5791 0.5730
vn 0.3076 0.9024 0.3019
vn 0.6775 0.7356 -0.0007
vn -0.6775 0.7356 0.0007
vn -0.5780 0.5907 -0.5630
vn -0.5774 0.5774 0.5774
vn -0.5780 0.5907 -0.5630
vn -0.6775 0.7356 0.0007
vn 0.5774 0.5774 -0.5774
vn 0.5774 0.5774 0.5774
vn 0.3015 0.9045 0.3015
vn -0.3015 0.9045 0.3015
vn 0.3015 0.9045 0.3015
vn 0.5774 0.5774 0.5774
vn 0.5774 0.5774 0.5774
vn -0.6689 0.7434 0.0011
vn -0.3015 0.9045 -0.3015
vn -0.5774 0.5774 0.5774
vn 0.5774 0.5774 0.5774
vn -0.3015 0.9045 -0.3015
vn -0.5774 0.5774 0.5774
vn 0.3015 0.9045 -0.3015
vn 0.3076 0.9024 0.3019
vn -0.5774 0.5774 0.5774
vn -0.3015 0.9045 -0.3015
vn 0.3015 0.9045 -0.3015
vn 0.5774 0.5774 -0.5774
vn -0.3015 0.9045 -0.3015
vn -0.3015 0.9045 0.3015
vn -0.3015 0.9045 -0.3015
vn 0.3015 0.9045 0.3015
vn -0.3015 0.9045 0.3015
vn 0.3015 0.9045 0.3015
vn -0.3015 0.9045 -0.3015
vn 0.3015 0.9045 -0.3015
vn 0.3015 0.9045 0.3015
vn 0.3015 0.9045 -0.3015
vn -0.5774 0.5774 -0.5774
vn -0.6689 0.7434 0.0011
vn 0.3054 0.9033 -0.3013
vn 0.3076 0.9024 0.3019
vn 0.3054 0.9033 -0.3013
vn -0.5774 0.5774 0.5774
vn 0.3076 0.9024 0.3019
# 210 vertex normals

vt 0.1250 0.5844 0.2750
vt 0.1250 0.4000 0.2750
vt 0.8750 0.4000 0.2750
vt 0.8750 0.5844 0.2750
vt 0.1250 0.3889 0.2750
vt 0.1250 0.2044 0.2750
vt 0.8750 0.2044 0.2750
vt 0.8750 0.3889 0.2750
vt 0.8750 0.0089 0.2750
vt 0.8750 0.1933 0.2750
vt 0.1250 0.1933 0.2750
vt 0.1250 0.0089 0.2750
vt 0.8750 0.5956 0.2750
vt 0.8750 0.7800 0.2750
vt 0.1250 0.7800 0.2750
vt 0.1250 0.5956 0.2750
vt 0.2500 0.0089 0.1250
vt 0.2500 0.1933 0.1250
vt 0.7500 0.0089 0.8750
vt 0.7500 0.1933 0.8750
vt 0.2500 0.2044 0.1250
vt 0.2500 0.3889 0.1250
vt 0.2500 0.4000 0.1250
vt 0.2500 0.5844 0.1250
vt 0.2500 0.5956 0.1250
vt 0.2500 0.7800 0.1250
vt 0.2500 0.8750 0.5844
vt 0.7500 0.8750 0.5956
vt 0.2500 0.8750 0.3889
vt 0.7500 0.8750 0.4000
vt 0.7500 0.8750 0.2044
vt 0.7500 0.7800 0.8750
vt 0.2500 0.9167 -0.0022
vt 0.2500 0.0833 -0.0022
vt 0.7500 0.0833 -0.0022
vt 0.7500 0.9167 -0.0022
vt 0.7500 1.0022 0.0833
vt 0.2500 1.0022 0.0833
vt 0.7500 0.9167 1.0022
vt 0.2500 0.9167 1.0022
vt 0.7250 0.0089 0.1250
vt 0.7250 0.1933 0.1250
vt 0.2750 0.0089 0.8750
vt 0.2750 0.1933 0.8750
vt 0.7250 0.2044 0.1250
vt 0.7250 0.3889 0.1250
vt 0.7250 0.4000 0.1250
vt 0.7250 0.5844 0.1250
vt 0.7250 0.5956 0.1250
vt 0.7250 0.7800 0.1250
vt 0.2500 0.1250 0.5844
vt 0.7250 0.1250 0.5844
vt 0.7250 0.8750 0.5844
vt 0.2750 0.8750 0.5956
vt 0.2750 0.1250 0.5956
vt 0.7500 0.1250 0.5956
vt 0.2500 0.1250 0.3889
vt 0.7250 0.1250 0.3889
vt 0.7250 0.8750 0.3889
vt 0.2750 0.8750 0.4000
vt 0.2750 0.1250 0.4000
vt 0.7500 0.1250 0.4000
vt 0.2500 0.1250 0.1933
vt 0.7250 0.1250 0.1933
vt 0.7250 0.8750 0.1933
vt 0.2500 0.8750 0.1933
vt 0.2750 0.8750 0.2044
vt 0.2750 0.1250 0.2044
vt 0.7500 0.1250 0.2044
vt 0.7500 0.3889 0.8750
vt 0.2750 0.3889 0.8750
vt 0.2750 0.2044 0.8750
vt 0.7500 0.2044 0.8750
vt 0.2750 0.5956 0.8750
vt 0.7500 0.5956 0.8750
vt 0.2750 0.7800 0.8750
vt 0.7500 0.5844 0.8750
vt 0.2750 0.5844 0.8750
vt 0.2750 0.4000 0.8750
vt 0.7500 0.4000 0.8750
vt 0.7500 0.8750 0.0089
vt 0.2750 0.8750 0.0089
vt 0.2750 0.1250 0.0089
vt 0.7500 0.1250 0.0089
vt 0.7250 0.8750 0.7800
vt 0.2500 0.8750 0.7800
vt 0.2500 0.1250 0.7800
vt 0.7250 0.1250 0.7800
vt 0.2500 -0.0022 0.0833
vt 0.7500 -0.0022 0.0833
vt 0.2500 0.0833 1.0022
vt 0.7500 0.0833 1.0022
vt 0.2500 -0.0022 0.9167
vt 0.7500 -0.0022 0.9167
vt 0.7500 1.0022 0.9167
vt 0.2500 1.0022 0.9167
vt 0.0833 1.0022 0.2500
vt 0.0833 -0.0022 0.2500
vt 0.9167 -0.0022 0.2500
vt 0.9167 1.0022 0.2500
vt 0.8750 0.1970 0.7500
vt 0.1250 0.2044 0.7500
vt 0.1250 0.3963 0.7500
vt 0.8750 0.3926 0.7500
vt 0.9167 -0.0022 0.7500
vt 0.9167 1.0022 0.7500
vt 0.8750 0.5956 0.7500
vt 0.1250 0.5844 0.7500
vt 0.8750 0.5844 0.7500
vt 0.1250 0.5844 0.7500
vt 0.8750 0.5956 0.7500
vt 0.1250 0.5956 0.7500
vt 0.1250 0.7800 0.7500
vt 0.8750 0.7800 0.7500
vt 0.8750 0.5956 0.7500
vt 0.9167 1.0022 0.7500
vt 0.0833 1.0022 0.7500
vt 0.0833 -0.0022 0.7500
vt 0.9167 -0.0022 0.7500
vt 0.8750 0.0089 0.7500
vt 0.1250 0.0089 0.7500
vt 0.1250 0.1933 0.7500
# 122 texture coords

o Layer_0
g Layer_0
usemtl 哑光木纹
s 4
f 2/52/1 20/53/2 26/27/3 
s 2
f 34/90/4 8/37/5 5/38/6 
s 8
f 33/105/7 26/109/8 31/104/9 
s 1
f 23/8/10 14/5/11 4/6/12 
f 28/40/13 5/91/14 8/92/15 
s 4
f 5/100/16 28/97/17 15/98/18 
s 8
f 37/102/19 29/103/20 34/118/21 
s 4
f 15/98/22 24/99/23 5/100/24 
s 8
f 21/114/25 7/116/26 8/117/27 
f 33/105/28 7/106/29 26/109/30 
f 36/112/31 32/113/32 8/117/33 
f 27/110/34 8/117/35 34/118/36 
s 4
f 37/69/37 17/31/38 16/67/39 
f 9/82/40 18/83/41 6/84/42 
s 2
f 32/26/43 36/25/44 19/49/45 
s 8
f 21/114/46 35/115/47 7/116/48 
s 4
f 11/60/49 3/61/50 29/62/51 
s 2
f 31/80/52 26/77/53 20/78/54 
f 30/18/55 6/17/56 18/41/57 
s 4
f 22/64/58 12/65/59 17/66/60 
f 1/54/61 19/55/62 36/56/63 
s 2
f 35/75/64 21/32/65 13/76/66 
s 8
f 29/103/67 27/110/68 34/118/69 
s 2
f 27/24/70 29/23/71 3/47/72 
s 1
f 24/35/73 15/36/74 33/33/75 
s 2
f 7/96/76 33/93/77 15/94/78 
f 17/73/79 31/70/80 23/71/81 
s 4
f 14/58/82 23/59/83 31/29/84 
s 2
f 25/19/85 17/20/86 12/44/87 
s 8
f 31/104/88 17/101/89 33/105/90 
s 1
f 18/12/91 9/9/92 12/10/93 
f 12/10/94 22/11/95 18/12/96 
f 13/14/97 10/15/98 19/16/99 
f 19/16/100 1/13/101 13/14/102 
f 20/4/103 2/1/104 3/2/105 
f 3/2/106 11/3/107 20/4/108 
s 8
f 32/113/109 21/114/110 8/117/111 
s 4
f 10/88/112 13/85/113 21/86/114 
f 16/67/115 4/68/116 37/69/117 
s 2
f 29/22/118 37/21/119 4/45/120 
f 23/71/121 16/72/122 17/73/123 
s 1
f 4/6/124 16/7/125 23/8/126 
f 33/33/127 34/34/128 24/35/129 
s 2
f 5/38/130 24/89/131 34/90/132 
f 12/44/133 9/43/134 25/19/135 
s 4
f 6/84/136 25/81/137 9/82/138 
f 36/56/139 35/28/140 1/54/141 
s 2
f 13/76/142 1/74/143 35/75/144 
f 3/47/145 2/48/146 27/24/147 
s 4
f 26/27/148 27/51/149 2/52/150 
s 2
f 15/94/151 28/95/152 7/96/153 
s 1
f 8/92/154 7/39/155 28/40/156 
s 2
f 4/45/157 14/46/158 29/22/159 
s 4
f 31/29/160 29/57/161 14/58/162 
f 17/66/163 30/63/164 22/64/165 
s 2
f 18/41/166 22/42/167 30/18/168 
s 4
f 29/62/169 31/30/170 11/60/171 
s 2
f 20/78/172 11/79/173 31/80/174 
f 19/49/175 10/50/176 32/26/177 
s 4
f 21/86/178 32/87/179 10/88/180 
s 8
f 33/119/181 17/101/182 25/120/183 
f 34/118/184 33/119/185 25/120/186 
f 34/118/187 6/121/188 30/122/189 
f 34/118/190 25/120/191 6/121/192 
f 7/106/193 35/107/194 26/109/195 
f 35/107/196 27/108/197 26/109/198 
f 27/110/199 35/111/200 36/112/201 
f 27/110/202 36/112/203 8/117/204 
f 17/101/205 37/102/206 30/122/207 
f 37/102/208 34/118/209 30/122/210 
# 0 polygons - 70 triangles

