# 3ds Max Wavefront OBJ Exporter v0.97b - (c)2007 guruware
# 创建的文件:05.03.2021 10:10:25

mtllib ABC-56.mtl

#
# object Rectangle001
#

v  -0.0750 -15.0000 14.0000
v  -0.0750 15.0000 -14.0000
v  -0.0750 15.0000 14.0000
v  -0.0750 -15.0000 -14.0000
v  0.0750 15.0000 14.0000
v  0.0750 -15.0000 14.0000
v  0.0750 -15.0000 -14.0000
v  0.0750 15.0000 -14.0000
v  -0.0750 14.7281 14.0000
v  0.0750 14.7281 14.0000
v  0.0750 -14.7259 -0.3549
v  -0.0750 -14.7259 -0.5235
v  -0.0750 -15.0000 -0.3549
v  -0.0750 15.0000 -0.6591
v  0.0750 -15.0000 -0.6921
v  0.0750 15.0000 -0.5884
v  0.0750 -14.7259 14.0000
v  0.0750 14.7281 -14.0000
v  -0.0750 -14.7259 -14.0000
v  -0.0750 14.7281 -14.0000
v  0.0750 -14.7259 -14.0000
v  -0.0750 -14.7259 14.0000
v  -0.0750 -15.0000 -0.6921
v  0.0750 -15.0000 -0.3549
v  0.0750 14.7281 -0.6921
v  -0.0750 14.7281 -0.3549
v  0.0750 14.7281 -0.3549
# 27 vertices

vn 0.7071 -0.0000 -0.7071
vn 1.0000 -0.0000 -0.0000
vn 1.0000 -0.0000 -0.0000
vn -0.7071 0.0000 -0.7071
vn -1.0000 0.0000 0.0000
vn -1.0000 0.0000 0.0000
vn 1.0000 -0.0000 -0.0000
vn 0.7071 -0.0000 -0.7071
vn 0.7071 -0.0000 -0.7071
vn -1.0000 0.0000 0.0000
vn -0.7071 0.0000 -0.7071
vn -0.7071 0.0000 -0.7071
vn 0.7071 -0.0000 0.7071
vn -0.7071 0.0000 0.7071
vn -0.7071 0.0000 0.7071
vn -0.7071 0.7071 0.0000
vn 0.7071 0.7071 -0.0000
vn 0.5774 0.5773 -0.5774
vn 0.5773 -0.5774 0.5773
vn -0.5774 -0.5773 0.5774
vn -0.7071 -0.7071 0.0000
vn -0.7071 0.0000 0.7071
vn 0.7071 -0.0000 0.7071
vn 0.7071 -0.0000 0.7071
vn 0.7071 -0.0000 -0.7071
vn -0.7071 0.0000 -0.7071
vn -0.7071 0.0000 -0.7071
vn -0.7071 -0.7071 0.0000
vn 0.7071 -0.7071 -0.0000
vn 0.5773 -0.5774 0.5773
vn -0.7071 0.0000 -0.7071
vn 0.7071 -0.0000 -0.7071
vn 0.7071 -0.0000 -0.7071
vn 0.5774 0.5773 -0.5774
vn -0.5773 0.5774 -0.5774
vn -0.7071 0.7071 0.0000
vn 0.5774 0.5773 0.5773
vn -0.5773 0.5774 0.5773
vn -0.7071 0.0000 0.7071
vn -0.7071 0.0000 -0.7071
vn -1.0000 0.0000 0.0000
vn -0.7071 0.7071 0.0000
vn -0.7071 0.0000 0.7071
vn 0.7071 -0.0000 0.7071
vn 0.5774 0.5773 0.5773
vn 0.5774 0.5773 -0.5774
vn 0.7071 0.7071 -0.0000
vn 1.0000 -0.0000 -0.0000
vn 0.5773 -0.5774 0.5773
vn 0.7071 -0.7071 -0.0000
vn 1.0000 -0.0000 -0.0000
vn 0.7071 -0.0000 0.7071
vn 1.0000 -0.0000 -0.0000
vn 1.0000 -0.0000 -0.0000
vn -1.0000 0.0000 0.0000
vn -0.7071 0.0000 0.7071
vn -0.7071 0.0000 0.7071
vn -0.7071 0.0000 0.7071
vn -1.0000 0.0000 0.0000
vn -0.7071 -0.7071 0.0000
vn -0.5774 -0.5773 -0.5774
vn -0.7071 -0.7071 0.0000
vn -1.0000 0.0000 0.0000
vn 0.7071 -0.7071 -0.0000
vn -0.7071 -0.7071 0.0000
vn -0.5774 -0.5773 -0.5774
vn -0.5773 0.5774 0.5773
vn -0.7071 0.7071 0.0000
vn -1.0000 0.0000 0.0000
vn 0.7071 0.7071 -0.0000
vn -0.7071 0.7071 0.0000
vn -0.5773 0.5774 0.5773
vn 0.7071 -0.0000 -0.7071
vn 1.0000 -0.0000 -0.0000
vn 0.7071 -0.7071 -0.0000
vn -0.5774 -0.5773 -0.5774
vn 0.5773 -0.5774 -0.5774
vn 0.7071 -0.7071 -0.0000
vn -0.5773 0.5774 0.5773
vn 0.5774 0.5773 0.5773
vn 0.7071 0.7071 -0.0000
vn 0.7071 0.7071 -0.0000
vn 0.5774 0.5773 0.5773
vn 0.7071 -0.0000 0.7071
vn -0.5774 -0.5773 0.5774
vn 0.5773 -0.5774 0.5773
vn 0.7071 -0.0000 0.7071
vn 1.0000 -0.0000 -0.0000
vn 0.7071 -0.0000 0.7071
vn 0.5773 -0.5774 0.5773
vn 1.0000 -0.0000 -0.0000
vn 0.7071 -0.0000 -0.7071
vn 0.5774 0.5773 -0.5774
vn -0.5773 0.5774 -0.5774
vn 0.5774 0.5773 -0.5774
vn 0.7071 -0.0000 -0.7071
vn 0.5773 -0.5774 -0.5774
vn -0.5774 -0.5773 -0.5774
vn -0.7071 0.0000 -0.7071
vn -1.0000 0.0000 0.0000
vn -0.7071 0.0000 -0.7071
vn -0.5774 -0.5773 -0.5774
vn -0.7071 0.7071 0.0000
vn -0.5773 0.5774 -0.5774
vn -0.7071 0.0000 -0.7071
vn 0.7071 -0.0000 -0.7071
vn -0.7071 0.0000 -0.7071
vn -0.5773 0.5774 -0.5774
vn 0.7071 -0.7071 -0.0000
vn 0.5773 -0.5774 -0.5774
vn 0.7071 -0.0000 -0.7071
vn -0.7071 0.0000 -0.7071
vn 0.7071 -0.0000 -0.7071
vn 0.5773 -0.5774 -0.5774
vn -0.7071 -0.7071 0.0000
vn -0.5774 -0.5773 0.5774
vn -0.7071 0.0000 0.7071
vn 0.7071 -0.0000 0.7071
vn -0.7071 0.0000 0.7071
vn -0.5774 -0.5773 0.5774
vn 0.7071 -0.7071 -0.0000
vn -0.7071 -0.7071 0.0000
vn -0.7071 -0.7071 0.0000
vn -0.7071 -0.7071 0.0000
vn -0.7071 -0.7071 0.0000
vn -1.0000 0.0000 0.0000
vn 0.7071 -0.7071 -0.0000
vn 0.7071 -0.7071 -0.0000
vn 1.0000 -0.0000 -0.0000
vn -0.7071 -0.7071 0.0000
vn 0.7071 -0.7071 -0.0000
vn 0.7071 -0.7071 -0.0000
vn 0.7071 -0.0000 0.7071
vn 1.0000 -0.0000 -0.0000
vn 0.7071 0.7071 -0.0000
vn 1.0000 -0.0000 -0.0000
vn 0.7071 -0.0000 0.7071
vn 0.7071 -0.0000 0.7071
vn -1.0000 0.0000 0.0000
vn -0.7071 0.0000 0.7071
vn -0.5773 0.5774 0.5773
vn -0.7071 0.0000 0.7071
vn -1.0000 0.0000 0.0000
vn -1.0000 0.0000 0.0000
vn 1.0000 -0.0000 -0.0000
vn 1.0000 -0.0000 -0.0000
vn 1.0000 -0.0000 -0.0000
vn 1.0000 -0.0000 -0.0000
vn 1.0000 -0.0000 -0.0000
vn 0.7071 0.7071 -0.0000
# 150 vertex normals

vt 1.0000 1.0000 0.0000
vt 0.0000 0.0000 0.0000
vt 0.0000 1.0000 3.0000
vt 1.0000 0.0000 3.0000
vt 0.0000 0.0000 1.0000
vt 1.0000 0.0000 1.0000
vt 1.0000 3.0000 1.0000
vt 0.0000 3.0000 1.0000
vt 0.0000 0.0000 0.0000
vt 1.0000 0.0000 -0.0000
vt 1.0000 3.0000 -0.0000
vt 0.0000 3.0000 0.0000
vt -0.0000 0.0000 0.0000
vt 1.0000 0.0000 0.0000
vt 1.0000 3.0000 0.0000
vt -0.0000 3.0000 0.0000
vt 0.0000 0.0000 1.0000
vt 1.0000 0.0000 1.0000
vt 1.0000 3.0000 1.0000
vt 0.0000 3.0000 1.0000
vt 1.0000 0.0000 0.0000
vt 0.0000 1.0000 0.0000
vt -0.0000 0.0000 3.0000
vt 1.0000 1.0000 3.0000
vt 0.3660 -0.0000 1.0000
vt 0.3660 1.0000 0.0000
vt 0.4359 3.0000 1.0000
vt 0.5641 1.0000 3.0000
vt 0.3333 0.0000 0.0000
vt 0.6667 0.0000 0.0000
vt 0.6667 0.0000 0.0000
vt 0.3333 0.0000 0.0000
vt 0.6667 3.0000 0.0000
vt 0.3333 3.0000 0.0000
vt 0.6667 0.0000 3.0000
vt 0.3333 0.0000 3.0000
vt 0.3333 0.0000 0.0000
vt 0.6667 0.0000 0.0000
vt 1.0000 0.6667 0.0000
vt 1.0000 0.3333 0.0000
vt 0.6667 3.0000 0.0000
vt 0.3333 3.0000 0.0000
vt 0.0000 0.3333 3.0000
vt 0.0000 0.6667 3.0000
vt 0.3333 0.0000 1.0000
vt 0.6667 0.0000 1.0000
vt 0.0000 0.3333 0.0000
vt 0.0000 0.6667 0.0000
vt 0.6667 3.0000 1.0000
vt 0.3333 3.0000 1.0000
vt 1.0000 0.6667 3.0000
vt 1.0000 0.3333 3.0000
vt 0.5000 0.3333 0.0000
vt 0.6667 0.6667 0.0000
vt 0.6667 0.6667 3.0000
vt 0.3333 0.6667 3.0000
vt 0.3333 0.3333 3.0000
# 57 texture coords

o Rectangle001
g Rectangle001
usemtl 高光木纹
s 16
f 18/51/1 25/55/2 11/57/3 
f 19/47/4 12/53/5 26/54/6 
f 11/57/7 21/52/8 18/51/9 
f 26/54/10 20/48/11 19/47/12 
s 4
f 10/42/13 9/37/14 22/38/15 
usemtl 12
s 1
f 14/25/16 16/27/17 8/8/18 
s 2
f 6/16/19 1/13/20 13/29/21 
usemtl 高光木纹
s 4
f 22/38/22 17/41/23 10/42/24 
f 21/50/25 19/45/26 20/46/27 
usemtl 12
s 2
f 13/29/28 24/34/29 6/16/30 
usemtl 高光木纹
s 4
f 20/46/31 18/49/32 21/50/33 
usemtl 12
s 1
f 8/8/34 2/5/35 14/25/36 
s 4
f 5/12/37 3/9/38 9/37/39 
s 16
f 20/48/40 26/54/41 14/26/42 
s 4
f 9/37/43 10/42/44 5/12/45 
s 16
f 8/24/46 16/28/47 25/55/48 
f 6/23/49 24/36/50 11/57/51 
usemtl 高光木纹
f 17/43/52 11/57/53 27/56/54 
f 12/53/55 22/40/56 9/39/57 
usemtl 12
f 22/40/58 12/53/59 13/31/60 
f 4/2/61 23/32/62 12/53/63 
s 2
f 15/33/64 23/30/65 4/14/66 
s 16
f 3/1/67 14/26/68 26/54/69 
s 1
f 16/27/70 14/25/71 3/6/72 
s 16
f 21/52/73 11/57/74 15/35/75 
s 2
f 4/14/76 7/15/77 15/33/78 
s 1
f 3/6/79 5/7/80 16/27/81 
s 16
f 16/28/82 5/3/83 10/44/84 
s 4
f 1/10/85 6/11/86 17/41/87 
s 16
f 11/57/88 17/43/89 6/23/90 
f 25/55/91 18/51/92 8/24/93 
s 4
f 2/18/94 8/19/95 18/49/96 
f 7/20/97 4/17/98 19/45/99 
s 16
f 12/53/100 19/47/101 4/2/102 
f 14/26/103 2/22/104 20/48/105 
s 4
f 18/49/106 20/46/107 2/18/108 
s 16
f 15/35/109 7/4/110 21/52/111 
s 4
f 19/45/112 21/50/113 7/20/114 
s 16
f 13/31/115 1/21/116 22/40/117 
s 4
f 17/41/118 22/38/119 1/10/120 
s 2
f 24/34/121 13/29/122 23/30/123 
s 16
f 23/32/124 13/31/125 12/53/126 
f 24/36/127 15/35/128 11/57/129 
s 2
f 23/30/130 15/33/131 24/34/132 
s 16
f 10/44/133 27/56/134 16/28/135 
usemtl 高光木纹
f 27/56/136 10/44/137 17/43/138 
usemtl 12
f 26/54/139 9/39/140 3/1/141 
usemtl 高光木纹
f 9/39/142 26/54/143 12/53/144 
usemtl 12
f 25/55/145 27/56/146 11/57/147 
f 27/56/148 25/55/149 16/28/150 
# 0 polygons - 50 triangles

