# 3ds Max Wavefront OBJ Exporter v0.97b - (c)2007 guruware
# 创建的文件:04.03.2021 16:42:23

mtllib ABC-26.mtl

#
# object 对象002
#

v  -5.5000 12.0000 2.0000
v  -5.5000 -11.5000 2.0000
v  5.5000 12.0000 2.0000
v  5.5000 -11.5000 2.0000
v  5.4600 -12.0000 1.9600
v  5.4600 -12.0000 -1.9600
v  5.4600 -11.5000 -1.9600
v  5.4600 -11.5000 1.9600
v  -5.4600 -12.0000 -1.9600
v  -5.4600 -11.5000 -1.9600
v  -5.4600 -12.0000 1.9600
v  -5.4600 -11.5000 1.9600
v  -5.5000 12.0000 2.0000
v  -5.5000 12.0000 -2.0000
v  -5.5000 -11.5000 -2.0000
v  -5.5000 -11.5000 2.0000
v  5.5000 12.0000 -2.0000
v  5.5000 -11.5000 -2.0000
v  5.5000 12.0000 2.0000
v  5.5000 -11.5000 2.0000
# 20 vertices

vn 0.0000 0.0000 1.0000
vn 0.0000 0.0000 1.0000
vn 0.0000 0.0000 1.0000
vn 0.0000 0.0000 1.0000
vn 0.5774 -0.5774 -0.5774
vn 0.5774 0.5774 -0.5774
vn 0.5774 0.5774 0.5774
vn 0.5774 -0.5774 0.5774
vn -0.5774 -0.5774 -0.5774
vn -0.5774 0.5774 -0.5774
vn 0.5774 0.5774 -0.5774
vn 0.5774 -0.5774 -0.5774
vn -0.5774 -0.5774 0.5774
vn -0.5774 0.5774 0.5774
vn -0.5774 0.5774 -0.5774
vn -0.5774 -0.5774 -0.5774
vn 0.5774 -0.5774 0.5774
vn 0.5774 0.5774 0.5774
vn -0.5774 0.5774 0.5774
vn -0.5774 -0.5774 0.5774
vn 0.5774 -0.5774 0.5774
vn -0.5774 -0.5774 0.5774
vn -0.5774 -0.5774 -0.5774
vn 0.5774 -0.5774 -0.5774
vn -0.5774 0.5774 0.5774
vn 0.5774 0.5774 0.5774
vn 0.5774 0.5774 -0.5774
vn -0.5774 0.5774 -0.5774
vn -0.5774 0.5774 -0.5774
vn -0.5774 -0.5774 -0.5774
vn -0.7071 -0.7071 -0.0000
vn -0.7071 0.7071 -0.0000
vn 0.5774 0.5774 -0.5774
vn 0.5774 -0.5774 -0.5774
vn -0.5774 -0.5774 -0.5774
vn -0.5774 0.5774 -0.5774
vn 0.7071 0.7071 -0.0000
vn 0.7071 -0.7071 -0.0000
vn 0.5774 -0.5774 -0.5774
vn 0.5774 0.5774 -0.5774
vn 0.7071 -0.7071 -0.0000
vn -0.7071 -0.7071 -0.0000
vn -0.5774 -0.5774 -0.5774
vn 0.5774 -0.5774 -0.5774
vn -0.7071 0.7071 -0.0000
vn 0.7071 0.7071 -0.0000
vn 0.5774 0.5774 -0.5774
vn -0.5774 0.5774 -0.5774
# 48 vertex normals

vt 0.0000 1.0000 0.0000
vt 0.0000 0.0208 0.0000
vt 1.0000 1.0000 0.0000
vt 1.0000 0.0208 0.0000
vt 0.0100 0.0000 0.9964
vt 0.9900 0.0000 0.9964
vt 0.9900 0.0208 0.9964
vt 0.0100 0.0208 0.9964
vt 0.9964 0.0000 0.9900
vt 0.9964 0.0208 0.9900
vt 0.9900 0.0000 0.0036
vt 0.9900 0.0208 0.0036
vt 1.0000 1.0000 0.0000
vt 0.0000 1.0000 0.0000
vt 0.0000 0.0208 0.0000
vt 1.0000 0.0208 0.0000
vt 0.0000 1.0000 1.0000
vt 0.0000 0.0208 1.0000
vt 0.0000 1.0000 1.0000
vt 0.0000 0.0208 1.0000
vt 0.0036 0.0208 0.9900
vt 0.0036 0.0000 0.9900
vt 0.0100 0.0208 0.0036
vt 0.0100 0.0000 0.0036
vt 0.9964 0.0000 0.0100
vt 0.9964 0.0208 0.0100
vt 0.0036 0.0208 0.0100
vt 0.0036 0.0000 0.0100
vt 0.0036 0.0100 0.0000
vt 0.9964 0.0100 0.0000
vt 0.9964 0.9900 0.0000
vt 0.0036 0.9900 0.0000
vt 0.0036 0.0100 0.0208
vt 0.9964 0.0100 0.0208
vt 0.9964 0.9900 0.0208
vt 0.0036 0.9900 0.0208
vt 1.0000 0.0208 1.0000
vt 1.0000 1.0000 1.0000
vt 1.0000 0.0208 1.0000
vt 1.0000 1.0000 1.0000
vt 0.0000 0.0000 0.0208
vt 1.0000 0.0000 0.0208
vt 1.0000 1.0000 0.0208
vt 0.0000 1.0000 0.0208
vt 0.0000 0.0000 1.0000
vt 1.0000 0.0000 1.0000
vt 1.0000 1.0000 1.0000
vt 0.0000 1.0000 1.0000
# 48 texture coords

o 对象002
g 对象002
usemtl 13___Default
s 2
f 1/1/1 2/2/2 4/4/3 3/3/4 
usemtl 10___Default
s 1
f 6/6/5 7/7/6 8/8/7 5/5/8 
s 2
f 9/9/9 10/10/10 7/21/11 6/22/12 
s 1
f 11/11/13 12/12/14 10/23/15 9/24/16 
s 2
f 5/25/17 8/26/18 12/27/19 11/28/20 
s 4
f 5/29/21 11/30/22 9/31/23 6/32/24 
f 12/33/25 8/34/26 7/35/27 10/36/28 
usemtl 05___Default
s 1
f 14/14/29 15/15/30 16/16/31 13/13/32 
s 2
f 17/17/33 18/18/34 15/37/35 14/38/36 
s 1
f 19/19/37 20/20/38 18/39/39 17/40/40 
s 4
f 20/41/41 16/42/42 15/43/43 18/44/44 
f 13/45/45 19/46/46 17/47/47 14/48/48 
# 12 polygons

