# 3ds Max Wavefront OBJ Exporter v0.97b - (c)2007 guruware
# 创建的文件:05.03.2021 10:13:42

mtllib ABC-57.mtl

#
# object ABC_57
#

v  2.0000 -9.5000 8.5000
v  2.0000 -3.8800 -8.5000
v  2.0000 -3.8800 8.5000
v  2.0000 -9.5000 -8.5000
v  -2.0000 3.5000 -8.5000
v  -2.0000 3.5000 8.5000
v  -2.0000 9.5000 -8.5000
v  -2.0000 9.5000 8.5000
v  2.0000 -3.8800 8.5000
v  2.0000 -9.5000 8.5000
v  2.0000 -3.8800 -8.5000
v  2.0000 -9.5000 -8.5000
v  1.9200 3.5000 4.2500
v  1.9200 3.5000 8.5000
v  1.9466 9.5000 4.2500
v  2.0000 -3.5000 -8.5000
v  -1.8200 -3.5000 -8.5000
v  -1.8200 -3.6267 8.5000
v  -2.0000 10.0000 -8.5000
v  2.0000 10.0000 -8.5000
v  2.0000 -10.0000 -8.5000
v  -2.0000 -10.0000 -9.0000
v  -2.0000 10.0000 9.0000
v  2.0000 10.0000 9.0000
v  2.0000 -10.0000 9.0000
v  -2.0000 -10.0000 9.0000
v  2.0000 -3.5000 8.5000
v  -1.8200 6.6167 -0.0800
v  1.8400 6.5333 -0.0800
v  1.8400 6.6167 -8.5000
v  -1.8200 6.5333 -8.5000
v  -1.8200 3.6067 8.5000
v  1.8400 3.5533 8.5000
v  1.8400 3.6067 -8.5000
v  -1.8200 3.5533 -8.5000
v  2.0000 3.5000 8.5000
v  2.0000 3.5000 4.2500
v  2.0000 9.5000 8.5000
v  2.0000 9.5000 4.2500
v  1.8500 9.5750 -8.5000
v  -2.0000 9.6000 -8.5000
v  -2.0000 9.5750 8.5000
v  1.8492 9.6000 8.5000
v  1.8475 9.5000 8.5000
v  -1.8200 3.6600 0.0500
v  1.8400 6.4600 0.0500
v  -1.8200 6.4600 0.0500
v  1.8400 3.6600 0.0500
v  -1.8200 6.7000 0.0500
v  1.8400 9.5000 0.0500
v  -1.8200 9.5000 0.0500
v  1.8400 6.7000 0.0500
v  1.9466 9.5000 -0.0800
v  1.9200 3.5000 -0.0800
v  1.8400 9.5000 4.2500
v  1.8400 3.5000 -0.0800
v  1.8400 9.5000 4.2500
v  1.8400 3.5000 4.2500
v  2.0000 3.5000 -0.0800
v  2.0000 9.5000 -0.0800
v  2.0000 3.5000 4.2500
v  2.0000 9.5000 -0.0800
v  2.0000 9.5000 4.2500
v  2.0000 3.5000 4.2500
v  -2.0000 9.5000 -8.5000
v  1.8475 9.5000 8.5000
v  1.8500 9.5000 -8.5000
v  1.8475 9.5000 8.5000
v  -2.0000 9.5000 8.5000
v  -2.0000 9.5000 -8.5000
v  2.0000 -3.5000 -8.5000
v  -1.8200 -3.5000 8.5000
v  -1.8200 -3.5000 -8.5000
v  -1.5733 -2.7000 -8.5000
v  -1.5733 -3.5000 8.5000
v  -1.6967 -3.5000 -8.5000
v  -1.6967 -2.7000 8.5000
v  1.8000 -10.0000 8.5000
v  1.8000 -9.5000 -8.5000
v  1.8000 -9.5000 8.5000
v  1.8000 -10.0000 -8.5000
v  1.9492 9.5000 8.5000
v  1.9000 9.5000 -8.5000
v  1.9000 10.0000 8.5000
v  1.9500 10.0000 -8.5000
v  1.3000 -10.0000 -8.5000
v  1.5000 -3.8800 8.5000
v  1.3000 -9.5000 8.5000
v  1.5000 -9.5000 -8.5000
v  -2.0000 10.0000 -9.0000
v  -2.0000 -10.0000 -8.5000
v  2.0000 -10.0000 -9.0000
v  -2.0000 -10.0000 8.5000
v  -2.0000 10.0000 8.5000
v  1.5000 -3.8800 -8.5000
v  1.5000 -9.5000 8.5000
v  2.0000 10.0000 -9.0000
v  2.0000 10.0000 8.5000
v  2.0000 -10.0000 8.5000
v  1.3000 -10.0000 8.5000
v  1.3000 -9.5000 -8.5000
v  -1.8200 -3.8800 -8.5000
v  2.0000 -3.8800 -8.5000
v  2.0000 -3.8800 8.5000
v  -1.8200 3.6600 0.0500
v  1.8400 6.4600 0.0500
v  1.8400 6.4600 0.0500
v  -1.8200 3.6600 0.0500
v  1.8400 9.5000 0.0500
v  -1.8200 6.7000 0.0500
v  -1.8200 6.7000 0.0500
v  1.8400 9.5000 0.0500
# 112 vertices

vn -0.5774 -0.5774 -0.5774
vn -0.5774 -0.5774 0.5774
vn -0.5774 0.5774 0.5774
vn -0.5774 0.5774 0.5774
vn -0.5774 0.5774 -0.5774
vn -0.5774 -0.5774 -0.5774
vn -1.0000 0.0000 0.0000
vn -1.0000 0.0000 0.0000
vn -1.0000 0.0000 0.0000
vn -1.0000 0.0000 0.0000
vn -1.0000 0.0000 0.0000
vn -1.0000 0.0000 0.0000
vn 1.0000 0.0000 0.0000
vn 1.0000 0.0000 0.0000
vn 1.0000 0.0000 0.0000
vn 1.0000 0.0000 0.0000
vn 1.0000 0.0000 0.0000
vn 1.0000 0.0000 0.0000
vn -0.9999 -0.0056 -0.0092
vn -0.9999 -0.0121 0.0000
vn -0.9999 -0.0020 -0.0142
vn -0.0066 -0.7078 -0.7064
vn 0.5774 -0.5774 -0.5774
vn 0.5608 -0.5936 0.5772
vn 0.5774 0.5774 0.5774
vn -0.5774 0.5774 0.5774
vn -0.5774 -0.5774 0.5774
vn -0.5774 0.5774 -0.5774
vn 0.5774 0.5774 -0.5774
vn 0.5774 -0.5774 -0.5774
vn -0.5774 -0.5774 0.5774
vn 0.5774 -0.5774 0.5773
vn 0.5774 0.5774 0.5774
vn 0.5774 -0.5774 -0.5774
vn -0.5774 -0.5774 -0.5773
vn -0.5774 0.5774 -0.5774
vn 0.5774 0.5774 0.5774
vn -0.5774 0.5774 0.5774
vn -0.5774 -0.5774 0.5774
vn -0.5774 0.5774 -0.5773
vn 0.5774 0.5774 -0.5774
vn 0.5774 -0.5774 -0.5774
vn 0.5774 -0.5774 -0.5774
vn -0.5774 -0.5774 -0.5774
vn -0.5774 0.5774 -0.5773
vn -0.5774 -0.5774 0.5774
vn 0.5774 -0.5774 0.5774
vn 0.5774 0.5774 0.5774
vn 0.5608 -0.5936 0.5772
vn -0.5116 -0.7482 0.4225
vn -0.0066 -0.7078 -0.7064
vn 0.5686 0.5876 0.5757
vn 0.7020 0.0992 -0.7053
vn -0.5116 -0.7482 0.4225
vn 0.6305 -0.0193 0.7760
vn -0.6305 0.0193 0.7760
vn -0.6305 -0.0193 -0.7760
vn -0.6305 0.0193 0.7760
vn 0.6305 -0.0193 0.7760
vn 0.6305 0.0193 -0.7760
vn 0.6305 0.0193 -0.7760
vn -0.6305 -0.0193 -0.7760
vn -0.6305 0.0193 0.7760
vn -0.6305 -0.0193 -0.7760
vn 0.6305 0.0193 -0.7760
vn 0.6305 -0.0193 0.7760
vn -0.5863 0.0372 0.8093
vn 0.5863 -0.0371 0.8093
vn 0.5863 0.0371 -0.8093
vn 0.5863 -0.0371 0.8093
vn -0.5863 0.0372 0.8093
vn -0.5863 -0.0371 -0.8093
vn 0.5863 0.0371 -0.8093
vn -0.5863 -0.0371 -0.8093
vn -0.5863 0.0372 0.8093
vn -0.5863 -0.0371 -0.8093
vn 0.5863 0.0371 -0.8093
vn 0.5863 -0.0371 0.8093
vn 1.0000 0.0000 -0.0000
vn 1.0000 0.0000 -0.0000
vn 1.0000 0.0000 -0.0000
vn 1.0000 0.0000 -0.0000
vn 1.0000 0.0000 -0.0000
vn 1.0000 0.0000 -0.0000
vn 0.0047 1.0000 0.0011
vn 0.0065 1.0000 0.0015
vn -0.0047 1.0000 -0.0011
vn -0.0047 1.0000 -0.0011
vn -0.0065 1.0000 -0.0015
vn 0.0047 1.0000 0.0011
vn -0.9999 -0.0020 -0.0142
vn -0.9997 0.0044 -0.0233
vn -0.9999 -0.0056 -0.0092
vn 1.0000 0.0000 -0.0000
vn 1.0000 0.0000 -0.0000
vn 1.0000 0.0000 -0.0000
vn 1.0000 0.0000 -0.0000
vn 1.0000 0.0000 -0.0000
vn 1.0000 0.0000 -0.0000
vn -0.0000 0.0000 -1.0000
vn 1.0000 0.0000 -0.0000
vn -0.0000 0.0000 -1.0000
vn 0.0000 -0.0000 1.0000
vn 1.0000 0.0000 -0.0000
vn 0.0000 -0.0000 1.0000
vn 1.0000 0.0000 -0.0000
vn 1.0000 0.0000 -0.0000
vn 1.0000 0.0000 -0.0000
vn 1.0000 0.0000 -0.0000
vn 1.0000 0.0000 -0.0000
vn 1.0000 0.0000 -0.0000
vn 0.0000 -0.0000 1.0000
vn 1.0000 0.0000 -0.0000
vn 0.0000 -0.0000 1.0000
vn -0.0000 0.0000 -1.0000
vn 1.0000 0.0000 -0.0000
vn -0.0000 0.0000 -1.0000
vn -0.9997 0.0044 -0.0246
vn -0.9997 0.0044 -0.0246
vn -0.9997 0.0044 -0.0246
vn -1.0000 0.0000 0.0000
vn -1.0000 0.0000 0.0000
vn -1.0000 0.0000 0.0000
vn 1.0000 0.0000 -0.0000
vn 1.0000 0.0000 -0.0000
vn 1.0000 0.0000 -0.0000
vn 1.0000 0.0000 -0.0000
vn 1.0000 0.0000 -0.0000
vn 1.0000 0.0000 -0.0000
vn 0.0000 -1.0000 -0.0000
vn 0.0000 -1.0000 -0.0000
vn 0.0000 -1.0000 -0.0000
vn 0.0000 -1.0000 -0.0000
vn 0.0000 -1.0000 -0.0000
vn 0.0000 -1.0000 -0.0000
vn 0.0000 1.0000 -0.0000
vn 0.0000 1.0000 -0.0000
vn 0.0000 1.0000 -0.0000
vn 0.0852 -0.5419 0.8361
vn -0.0852 -0.5419 -0.8361
vn 0.0852 0.5419 -0.8361
vn -0.0852 0.5419 0.8361
vn 0.0852 0.5419 -0.8361
vn -0.0852 -0.5419 -0.8361
vn 0.0852 0.5419 -0.8361
vn -0.0852 0.5419 0.8361
vn 0.0852 -0.5419 0.8361
vn -0.0852 -0.5419 -0.8361
vn 0.0852 -0.5419 0.8361
vn -0.0852 0.5419 0.8361
vn -0.5773 -0.5774 -0.5774
vn -0.5773 -0.5774 0.5774
vn -0.5774 0.5774 0.5774
vn 0.5774 0.5774 0.5774
vn 0.5774 -0.5773 0.5774
vn 0.5774 -0.5774 -0.5774
vn -0.5774 0.5774 0.5774
vn -0.5774 0.5774 -0.5774
vn -0.5773 -0.5774 -0.5774
vn 0.5774 -0.5774 -0.5774
vn 0.5774 0.5774 -0.5774
vn 0.5774 0.5774 0.5774
vn -0.0595 -0.5409 -0.8389
vn 0.0593 -0.5410 0.8389
vn -0.0717 0.5397 0.8388
vn 0.0721 0.5396 -0.8388
vn -0.0717 0.5397 0.8388
vn 0.0593 -0.5410 0.8389
vn 0.0593 -0.5410 0.8389
vn -0.0595 -0.5409 -0.8389
vn 0.0721 0.5396 -0.8388
vn -0.0717 0.5397 0.8388
vn 0.0721 0.5396 -0.8388
vn -0.0595 -0.5409 -0.8389
vn -0.5773 -0.5774 0.5774
vn -0.5773 -0.5774 -0.5774
vn 0.5774 -0.5774 -0.5774
vn 0.5774 0.5774 -0.5774
vn 0.5774 -0.5774 -0.5774
vn -0.5773 -0.5774 -0.5774
vn 0.0000 -0.7071 0.7071
vn 0.0000 0.7071 0.7071
vn -0.5774 0.5774 0.5774
vn -0.5774 0.5774 -0.5774
vn -0.5774 0.5774 0.5774
vn 0.0000 0.7071 0.7071
vn 0.5774 -0.5773 0.5774
vn 0.5774 0.5774 0.5774
vn -0.5774 0.5774 0.5774
vn -0.5774 0.5774 -0.5774
vn -0.5774 0.5774 0.5774
vn 0.5774 0.5774 0.5774
vn -0.5774 -0.5774 0.5774
vn -0.5774 -0.5774 -0.5774
vn 0.0000 -0.7071 -0.7071
vn 0.0000 0.7071 -0.7071
vn 0.0000 -0.7071 -0.7071
vn -0.5774 -0.5774 -0.5774
vn 0.5774 0.5774 -0.5774
vn -0.5774 0.5774 -0.5774
vn -0.5774 0.5774 0.5774
vn -0.5774 0.5774 0.5774
vn -0.5774 0.5774 -0.5774
vn -0.5774 -0.5774 -0.5773
vn -0.5774 -0.5774 -0.5773
vn -0.5774 -0.5774 0.5774
vn -0.5774 0.5774 0.5774
vn 0.5774 -0.5774 0.5773
vn -0.5774 -0.5774 0.5774
vn -0.5774 -0.5774 -0.5773
vn -0.5774 -0.5774 -0.5773
vn 0.5774 -0.5774 -0.5774
vn 0.5774 -0.5774 0.5773
vn 0.5774 -0.5774 0.5773
vn 0.5774 -0.5774 -0.5774
vn 0.5774 0.5774 -0.5774
vn -0.5774 -0.5774 -0.5774
vn -0.5774 -0.5774 0.5774
vn -0.5774 0.5774 0.5774
vn 0.5774 -0.5774 0.5774
vn -0.5774 -0.5774 0.5774
vn -0.5774 -0.5774 -0.5774
vn 0.5774 0.5774 -0.5774
vn -0.5774 0.5774 -0.5773
vn -0.5774 0.5774 0.5774
vn -0.5774 0.5774 0.5774
vn -0.5774 0.5774 -0.5773
vn -0.5774 -0.5774 -0.5774
vn -0.5774 -0.5774 -0.5774
vn -0.5774 0.5774 -0.5774
vn 0.0000 0.7071 -0.7071
vn 0.0000 0.7071 0.7071
vn 0.0000 0.7071 -0.7071
vn -0.5774 0.5774 -0.5774
vn 0.0000 -0.7071 -0.7071
vn 0.0000 -0.7071 0.7071
vn -0.5774 -0.5774 0.5774
vn -0.5774 0.5774 0.5774
vn -0.5774 -0.5774 0.5774
vn 0.0000 -0.7071 0.7071
vn -0.5774 0.5774 0.5774
vn 0.5774 0.5774 0.5774
vn 0.5774 0.5774 -0.5774
vn 0.5774 0.5774 -0.5774
vn 0.5774 0.5774 0.5774
vn 0.5774 -0.5774 0.5773
vn 0.5774 0.5774 -0.5774
vn 0.5774 0.5774 0.5774
vn 0.5774 -0.5774 0.5774
vn -0.5774 0.5774 0.5774
vn 0.5774 0.5774 0.5774
vn 0.5774 0.5774 -0.5774
vn -0.5774 -0.5774 -0.5774
vn 0.5774 -0.5774 -0.5774
vn 0.5774 -0.5774 0.5774
vn 0.5774 -0.5774 0.5774
vn 0.5774 -0.5774 -0.5774
vn 0.5774 0.5774 -0.5774
vn 0.5774 -0.5774 -0.5774
vn 0.5774 -0.5773 0.5774
vn -0.5773 -0.5774 0.5774
vn -0.5774 0.5774 0.5774
vn -0.5773 -0.5774 0.5774
vn 0.5774 -0.5773 0.5774
vn -0.5773 -0.5774 -0.5774
vn -0.5774 0.5774 -0.5774
vn 0.5774 0.5774 -0.5774
vn 0.5774 0.5774 0.5774
vn 0.5774 0.5774 -0.5774
vn -0.5774 0.5774 -0.5774
vn 0.5774 -0.5774 -0.5774
vn -0.0066 -0.7078 -0.7064
vn 0.0000 0.0000 -1.0000
vn 0.5608 -0.5936 0.5772
vn 0.5774 -0.5774 -0.5774
vn 0.7020 0.0992 -0.7053
vn 0.0000 0.0000 -1.0000
vn 0.7020 0.0992 -0.7053
vn 0.5774 -0.5774 -0.5774
vn 0.7020 0.0992 -0.7053
vn 0.5686 0.5876 0.5757
vn 0.5608 -0.5936 0.5772
vn -0.5116 -0.7482 0.4225
vn 0.5608 -0.5936 0.5772
vn 0.5686 0.5876 0.5757
# 285 vertex normals

vt 1.9167 0.0000 0.5000
vt -0.9167 0.0000 0.5000
vt 1.9167 1.0000 0.5000
vt -0.9167 1.0000 0.5000
vt -0.2083 2.0833 0.5000
vt -0.2083 1.0833 0.5000
vt 0.5133 2.0833 0.5000
vt -0.9167 -0.1467 0.5000
vt 1.9167 -0.1467 0.5000
vt 1.9167 -1.0833 0.5000
vt -0.9167 -1.0833 0.5000
vt -0.9167 2.0833 0.5000
vt -0.9167 1.0833 0.5000
vt -0.2083 1.0833 0.5000
vt 0.5133 1.0833 0.5000
vt -0.2083 1.0833 0.5000
vt -0.2083 2.0833 0.5000
vt 0.5133 2.0833 0.5000
vt 1.0000 1.0000 0.5000
vt 0.0000 1.0000 0.5000
vt 0.0000 0.0000 0.5000
vt 1.0000 0.0000 0.5000
vt 1.0000 1.0000 0.5000
vt 0.0000 1.0000 0.5000
vt 0.0000 0.0000 0.5000
vt 1.0000 0.0000 0.5000
vt 0.8333 -0.9167 -0.1467
vt 0.8333 1.9167 -0.1467
vt 0.1667 -1.0833 1.9167
vt 0.1667 -0.9167 -1.0833
vt 0.7500 -0.9167 -0.1467
vt 0.7500 1.9167 -0.1467
vt 0.2500 -1.0833 1.9167
vt 0.2500 -0.9167 -1.0833
vt 0.8333 -1.1667 -1.0000
vt 0.8333 2.1667 -1.0000
vt 0.1667 2.1667 -1.0000
vt 0.1667 -1.1667 -1.0000
vt 0.1667 -0.9167 -1.1667
vt 0.1667 2.1667 -0.9167
vt 0.8333 2.1667 -0.9167
vt 0.8333 -1.1667 1.9167
vt 0.8333 2.1667 1.9167
vt 0.1667 2.1667 1.9167
vt 0.1667 2.0000 -1.1667
vt 0.8333 2.0000 -1.1667
vt 0.1667 2.1667 2.0000
vt 0.8333 2.1667 2.0000
vt 0.1933 1.9167 1.0833
vt 0.8033 1.9167 1.0833
vt 0.1933 1.9167 1.5750
vt 0.8033 1.9167 1.5750
vt 0.8333 -0.9167 2.0833
vt 0.8333 1.9167 2.0833
vt 0.1917 1.9167 2.0833
vt 0.1921 -0.9167 2.0833
vt 1.0833 -0.2083 0.1933
vt 2.0833 -0.2083 0.1933
vt 0.8333 -0.9167 -1.1667
vt 0.1667 -1.1667 1.9167
vt 0.8333 1.9167 2.0833
vt 0.1921 -0.9167 2.0833
vt 1.0833 0.5133 0.1933
vt 0.1667 -0.1467 1.9167
vt 0.2500 -0.1467 1.9167
vt 0.1667 1.9167 -1.0833
vt 0.2500 1.9167 -1.0833
vt 0.8333 -1.0833 -0.9167
vt 0.8333 -0.1467 -0.9167
vt 0.7500 -0.1467 -0.9167
vt 0.7500 -1.0833 -0.9167
vt -1.0833 1.9167 0.2500
vt -1.0833 -0.9167 0.2500
vt -0.1467 -0.9167 0.2500
vt -0.1467 1.9167 0.2500
vt 0.1667 -1.0000 -1.1667
vt 0.8333 -1.0000 -1.1667
vt 0.1667 -1.1667 -0.9167
vt 0.8333 -1.1667 -0.9167
vt 0.8333 -1.0000 2.1667
vt 0.8333 -0.9167 2.1667
vt 0.1667 -0.9167 2.1667
vt 0.1667 -1.0000 2.1667
vt -1.1667 -1.0000 0.1667
vt 2.1667 -1.0000 0.1667
vt 2.1667 -0.9167 0.1667
vt -1.1667 -0.9167 0.1667
vt 2.1667 -0.9167 0.8333
vt -1.1667 -0.9167 0.8333
vt -1.1667 -1.0000 0.8333
vt 2.1667 -1.0000 0.8333
vt 0.1667 1.9167 -1.1667
vt 0.8333 1.9167 -1.1667
vt 0.1667 -1.1667 2.0000
vt 0.8333 -1.1667 2.0000
vt 0.8333 1.9167 2.1667
vt 0.8333 2.0000 2.1667
vt 0.1667 2.0000 2.1667
vt 0.1667 1.9167 2.1667
vt -1.1667 1.9167 0.1667
vt 2.1667 1.9167 0.1667
vt 2.1667 2.0000 0.1667
vt -1.1667 2.0000 0.1667
vt 2.1667 2.0000 0.8333
vt -1.1667 2.0000 0.8333
vt -1.1667 1.9167 0.8333
vt 2.1667 1.9167 0.8333
vt -1.1667 -0.9167 0.1667
vt -1.0833 -0.9167 0.1667
vt -1.0833 1.9167 0.1667
vt -1.1667 1.9167 0.1667
vt 2.1667 1.9167 0.1917
vt 2.0833 1.9167 0.1917
vt 2.0833 -0.9167 0.1921
vt 2.1667 -0.9167 0.1917
vt 0.1667 1.9167 2.1083
vt 0.1667 -0.9167 2.1083
vt 0.8083 -0.9167 2.1083
vt 0.8083 1.9167 2.1083
vt 2.0833 -0.2083 0.1933
vt 1.0833 -0.2083 0.1933
vt 1.0833 -0.9167 0.1933
vt 2.0833 -0.9167 0.1921
vt 2.0833 0.5133 0.1933
vt 1.0833 0.5133 0.1933
vt 2.0833 -0.2083 0.1933
vt 0.1933 -0.9167 1.0833
vt 0.8033 -0.9167 1.0833
vt 0.8067 -0.9167 1.1100
vt 0.8067 1.9167 1.1100
vt 0.1967 1.9167 1.1100
vt 0.1967 -0.9167 1.1100
vt 0.1933 0.5133 1.5750
vt 0.8033 0.5133 1.5750
vt 0.8067 0.5133 1.6167
vt 0.8067 1.9167 1.6167
vt 0.1967 1.9167 1.6167
vt 0.1967 0.5133 1.6167
vt 0.3090 0.4663 -0.3500
vt 0.6910 0.4790 1.3500
vt 0.6910 0.4790 -0.3500
vt -0.3500 0.6910 0.4410
vt 0.3090 0.4790 1.3500
vt 0.6910 0.4410 -0.3500
vt -0.3500 0.3090 0.4410
vt 1.3500 0.6910 0.4790
vt -0.3500 0.6910 0.4790
vt 1.3500 0.3090 0.4790
vt -0.3500 0.5590 0.6540
vt -0.3500 0.4790 0.6540
vt 1.3500 0.4790 0.6540
vt 1.3500 0.5590 0.6540
vt -0.3500 0.5590 0.6910
vt -0.3500 0.4790 0.6910
vt 1.3500 0.4790 0.6910
vt 1.3500 0.5590 0.6910
vt 1.3500 0.3090 0.4410
vt 1.3500 0.6910 0.4410
vt 0.3090 0.4410 1.3500
vt 0.6910 0.4410 1.3500
vt -0.3500 0.3090 0.4790
vt 1.3500 0.3090 0.4790
vt -0.3500 0.6910 0.4790
vt -0.3500 0.4790 0.3090
vt -0.3500 0.4410 0.3090
vt 1.3500 0.4410 0.3090
vt 1.3500 0.4790 0.3090
vt 1.0000 1.0000 0.0000
vt 0.0000 1.0000 0.0000
vt 0.0000 0.0000 0.0000
vt 1.0000 0.0000 0.0000
vt 1.0000 1.0000 1.0000
vt 0.0000 1.0000 1.0000
vt 0.0000 0.0000 1.0000
vt 1.0000 0.0000 1.0000
# 175 texture coords

o ABC_57
g ABC_57
usemtl 哑光木11
s 16
f 89/72/1 96/73/2 87/74/3 
f 87/74/4 95/75/5 89/72/6 
s 4
f 8/3/7 7/4/8 5/2/9 
f 5/2/10 6/1/11 8/3/12 
s 16
f 9/8/13 10/11/14 12/10/15 
f 12/10/16 11/9/17 9/8/18 
s 64
f 13/121/19 14/122/20 44/123/21 
usemtl 10___Default
s 1
f 102/142/22 103/145/23 104/157/24 
usemtl 哑光木11
s 8
f 20/43/25 19/44/26 91/60/27 
s 1
f 90/48/28 97/47/29 92/94/30 
s 8
f 91/60/31 21/42/32 20/43/33 
s 1
f 92/94/34 22/95/35 90/48/36 
f 24/36/37 23/37/38 26/38/39 
s 16
f 94/41/40 98/40/41 99/78/42 
f 99/78/43 93/79/44 94/41/45 
s 1
f 26/38/46 25/35/47 24/36/48 
usemtl 10___Default
f 104/157/49 18/158/50 102/142/51 
s 16
f 27/161/52 16/162/53 18/163/54 
usemtl 哑光木11
s 2
f 29/133/55 28/134/56 31/52/57 
f 28/138/58 29/135/59 30/136/60 
f 30/136/61 31/137/62 28/138/63 
f 31/52/64 30/51/65 29/133/66 
s 4
f 32/132/67 33/129/68 34/130/69 
f 33/127/70 32/128/71 35/50/72 
f 34/130/73 35/131/74 32/132/75 
f 35/50/76 34/49/77 33/127/78 
f 36/13/79 37/16/80 39/17/81 
f 39/17/82 38/12/83 36/13/84 
s 1
f 40/119/85 41/116/86 42/117/87 
f 42/117/88 43/118/89 40/119/90 
s 64
f 44/123/91 15/120/92 13/121/93 
s 16
f 46/19/94 47/20/95 45/21/96 
f 45/21/97 47/20/98 46/19/99 
f 106/19/100 48/22/101 105/21/102 
f 108/21/103 48/22/104 107/19/105 
f 50/23/106 51/24/107 49/25/108 
f 49/25/109 51/24/110 50/23/111 
f 110/25/112 52/26/113 109/23/114 
f 112/23/115 52/26/116 111/25/117 
s 4
f 53/124/118 54/125/119 55/126/120 
f 57/58/121 56/63/122 58/57/123 
s 16
f 60/18/124 61/14/125 59/15/126 
f 63/5/127 64/6/128 62/7/129 
s 8
f 66/56/130 65/61/131 67/55/132 
f 69/53/133 70/54/134 68/62/135 
usemtl 10___Default
s 16
f 72/147/136 71/148/137 73/146/138 
s 4
f 75/150/139 76/151/140 74/152/141 
f 77/156/142 74/153/143 76/154/144 
f 74/152/145 77/149/146 75/150/147 
f 76/154/148 75/155/149 77/156/150 
usemtl 04___Default
s 16
f 86/174/151 100/175/152 88/172/153 
f 80/168/154 78/171/155 81/170/156 
f 88/172/157 101/173/158 86/174/159 
f 81/170/160 79/169/161 80/168/162 
usemtl 哑光木11
s 2
f 83/113/163 82/114/164 84/115/165 
s 64
f 85/111/166 84/108/167 82/109/168 
f 82/109/169 83/110/170 85/111/171 
s 2
f 84/115/172 85/112/173 83/113/174 
usemtl 04___Default
f 100/175/175 86/174/176 81/170/177 
s 4
f 79/169/178 81/170/179 86/174/180 
usemtl 哑光木11
f 1/68/181 3/69/182 87/70/183 
s 1
f 95/32/184 87/31/185 3/27/186 
usemtl 04___Default
s 4
f 78/171/187 80/168/188 88/172/189 
s 1
f 101/173/190 88/172/191 80/168/192 
usemtl 哑光木11
s 2
f 96/34/193 89/67/194 4/66/195 
s 4
f 2/64/196 4/29/197 89/33/198 
s 2
f 97/97/199 90/98/200 19/99/201 
s 32
f 19/107/202 90/104/203 22/105/204 
f 22/105/205 91/106/206 19/107/207 
s 16
f 21/92/208 91/93/209 22/46/210 
f 22/46/211 92/45/212 21/92/213 
s 4
f 21/101/214 92/102/215 97/103/216 
s 32
f 93/89/217 26/90/218 23/91/219 
s 8
f 25/76/220 26/77/221 93/59/222 
s 2
f 98/81/223 94/82/224 23/83/225 
s 32
f 23/91/226 94/88/227 93/89/228 
s 4
f 89/33/229 95/65/230 2/64/231 
s 1
f 3/27/232 2/28/233 95/32/234 
s 2
f 4/66/235 1/30/236 96/34/237 
s 4
f 87/70/238 96/71/239 1/68/240 
s 2
f 19/99/241 20/96/242 97/97/243 
s 4
f 97/103/244 20/100/245 21/101/246 
f 98/87/247 24/84/248 25/85/249 
s 2
f 23/83/250 24/80/251 98/81/252 
s 8
f 93/59/253 99/39/254 25/76/255 
s 4
f 25/85/256 99/86/257 98/87/258 
usemtl 04___Default
s 2
f 81/170/259 78/171/260 100/175/261 
s 4
f 88/172/262 100/175/263 78/171/264 
f 86/174/265 101/173/266 79/169/267 
s 1
f 80/168/268 79/169/269 101/173/270 
usemtl 10___Default
s 8
f 103/159/271 102/160/272 17/140/273 
s 2
f 104/165/274 103/166/275 16/167/276 
s 8
f 17/140/277 16/143/278 103/159/279 
s 2
f 16/167/280 27/164/281 104/165/282 
s 8
f 18/139/283 104/144/284 27/141/285 
# 0 polygons - 95 triangles

