mtllib Box0001.mtl
# File exported by Houdini 18.5.351 (www.sidefx.com)
# 8 points
# 36 vertices
# 12 primitives
# Bounds: [-0.5, -0.5, -0.5] to [0.5, 0.5, 0.5]
g 
usemtl Box0001
v 0.500 -0.500 0.500
v -0.500 -0.500 0.500
v -0.500 -0.500 -0.500
v 0.500 -0.500 -0.500
v 0.500 0.500 0.500
v -0.500 0.500 0.500
v 0.500 0.500 -0.500
v -0.500 0.500 -0.500
vt 0.529 0.000
vt 1.000 1.000
vt 0.000 0.000
vt 0.000 1.000
vt 0.696 1.000
vt 1.000 0.000
vn 0.000 -1.000 0.000
vn 0.000 -1.000 0.000
vn 0.000 -1.000 0.000
vn 0.000 -1.000 0.000
vn 0.000 -1.000 0.000
vn 0.000 -1.000 0.000
vn 0.000 1.000 0.000
vn 0.000 1.000 0.000
vn 0.000 1.000 0.000
vn 0.000 1.000 0.000
vn 0.000 1.000 0.000
vn 0.000 1.000 0.000
vn 0.000 0.000 1.000
vn 0.000 0.000 1.000
vn 0.000 0.000 1.000
vn 0.000 0.000 1.000
vn 0.000 0.000 1.000
vn 0.000 0.000 1.000
vn 1.000 0.000 0.000
vn 1.000 0.000 0.000
vn 1.000 0.000 0.000
vn 1.000 0.000 0.000
vn 1.000 0.000 0.000
vn 1.000 0.000 0.000
vn 0.000 0.000 -1.000
vn 0.000 0.000 -1.000
vn 0.000 0.000 -1.000
vn 0.000 0.000 -1.000
vn 0.000 0.000 -1.000
vn 0.000 0.000 -1.000
vn -1.000 0.000 0.000
vn -1.000 0.000 0.000
vn -1.000 0.000 0.000
vn -1.000 0.000 0.000
vn -1.000 0.000 0.000
vn -1.000 0.000 0.000
g Box0001_Mesh
usemtl Box0001
f 2/1/1 3/2/2 1/3/3
f 1/3/4 3/2/5 4/4/6
f 7/5/7 6/3/8 5/6/9
f 7/5/10 8/4/11 6/3/12
f 5/2/13 2/1/14 1/6/15
f 6/4/16 2/1/17 5/2/18
f 7/5/19 1/3/20 4/6/21
f 7/5/22 5/4/23 1/3/24
f 3/6/25 8/2/26 4/3/27
f 8/2/28 7/5/29 4/3/30
f 6/2/31 3/3/32 2/1/33
f 6/2/34 8/4/35 3/3/36
