mtllib Carpet0002.mtl
# File exported by Houdini 18.5.351 (www.sidefx.com)
# 24 points
# 132 vertices
# 44 primitives
# Bounds: [-0.703000009, -0.00657405844, -0.894999981] to [0.702000022, 0.0044259415, 0.894999981]
g 
usemtl Carpet0002
v -0.699 -0.005 0.895
v -0.696 -0.005 0.338
v -0.107 -0.007 0.590
v 0.698 -0.005 0.893
v 0.098 -0.004 0.607
v -0.446 0.004 0.571
v -0.326 -0.003 0.240
v -0.703 -0.004 -0.446
v -0.112 -0.002 -0.303
v 0.450 0.002 0.465
v -0.029 0.002 0.366
v 0.384 -0.002 0.201
v 0.272 -0.003 -0.075
v 0.404 0.002 -0.398
v -0.501 0.000 -0.454
v -0.700 -0.005 -0.894
v -0.063 -0.003 -0.657
v -0.700 -0.007 -0.890
v 0.695 -0.006 -0.895
v 0.492 0.000 -0.761
v 0.695 -0.005 0.568
v 0.702 -0.002 -0.086
v 0.698 -0.004 -0.609
v 0.701 -0.006 -0.862
vt 0.010 -0.001
vt 0.001 0.311
vt 0.424 0.171
vt 0.996 0.001
vt 0.569 0.161
vt 0.178 0.181
vt 0.266 0.366
vt 0.004 0.749
vt 0.422 0.670
vt 0.816 0.241
vt 0.481 0.296
vt 0.773 0.388
vt 0.695 0.542
vt 0.789 0.723
vt 0.150 0.754
vt 0.007 1.000
vt 0.459 0.867
vt 0.006 0.999
vt 0.991 1.001
vt 0.851 0.925
vt 0.991 0.183
vt 0.996 0.548
vt 0.996 0.841
vt 1.001 0.982
vn -0.002 -1.000 0.001
vn -0.004 -1.000 -0.001
vn 0.000 -1.000 0.002
vn -0.007 1.000 0.007
vn -0.011 1.000 0.015
vn 0.002 1.000 0.016
vn -0.015 1.000 -0.008
vn -0.011 1.000 0.015
vn -0.007 1.000 0.007
vn -0.015 1.000 -0.008
vn -0.007 1.000 0.007
vn -0.005 1.000 -0.012
vn -0.003 1.000 0.014
vn -0.005 1.000 -0.001
vn -0.015 1.000 -0.008
vn -0.015 1.000 -0.008
vn -0.005 1.000 -0.012
vn -0.003 1.000 0.014
vn 0.002 1.000 0.016
vn -0.011 1.000 0.015
vn 0.001 1.000 0.002
vn 0.002 1.000 0.016
vn 0.001 1.000 -0.007
vn -0.007 1.000 0.007
vn 0.007 1.000 0.018
vn 0.001 1.000 -0.007
vn 0.002 1.000 0.016
vn 0.001 1.000 -0.007
vn 0.007 1.000 0.018
vn -0.003 1.000 -0.010
vn 0.001 1.000 -0.007
vn -0.003 1.000 -0.010
vn -0.005 1.000 -0.012
vn -0.002 1.000 0.005
vn -0.005 1.000 -0.012
vn -0.003 1.000 -0.010
vn -0.003 1.000 0.014
vn -0.002 1.000 0.005
vn 0.003 1.000 -0.003
vn -0.002 1.000 0.005
vn -0.003 1.000 0.014
vn -0.005 1.000 -0.012
vn -0.003 1.000 0.014
vn -0.017 1.000 -0.002
vn -0.005 1.000 -0.001
vn -0.017 1.000 -0.002
vn -0.001 1.000 -0.014
vn -0.005 1.000 -0.001
vn -0.001 1.000 -0.014
vn -0.001 1.000 -0.004
vn -0.005 1.000 -0.001
vn -0.326 -0.813 -0.483
vn -0.638 -0.743 -0.203
vn -0.016 -1.000 0.005
vn -0.001 1.000 -0.004
vn -0.001 1.000 -0.014
vn 0.008 1.000 -0.029
vn -0.001 1.000 -0.014
vn -0.017 1.000 -0.002
vn 0.003 1.000 -0.003
vn -0.003 1.000 0.014
vn 0.003 1.000 -0.003
vn -0.017 1.000 -0.002
vn -0.638 -0.743 -0.203
vn 0.011 -1.000 0.002
vn 0.000 -1.000 0.002
vn 0.000 -1.000 0.002
vn -0.004 -1.000 -0.001
vn -0.016 -1.000 0.005
vn 0.002 1.000 0.016
vn 0.001 1.000 0.002
vn 0.010 1.000 0.009
vn 0.007 1.000 0.018
vn 0.002 1.000 0.016
vn 0.010 1.000 0.009
vn 0.006 1.000 0.002
vn -0.003 1.000 -0.010
vn 0.007 1.000 0.018
vn 0.007 1.000 0.018
vn 0.010 1.000 0.009
vn 0.006 1.000 0.002
vn 0.003 1.000 -0.003
vn -0.002 1.000 0.005
vn 0.006 1.000 0.002
vn 0.006 1.000 0.002
vn -0.002 1.000 0.005
vn -0.003 1.000 -0.010
vn 0.013 1.000 -0.004
vn 0.003 1.000 -0.003
vn 0.006 1.000 0.002
vn -0.001 1.000 -0.014
vn 0.003 1.000 -0.003
vn 0.013 1.000 -0.004
vn 0.013 1.000 -0.004
vn -0.005 1.000 -0.026
vn -0.001 1.000 -0.014
vn -0.005 1.000 -0.026
vn 0.013 1.000 -0.004
vn 0.019 1.000 -0.017
vn -0.005 1.000 -0.026
vn 0.008 1.000 -0.029
vn -0.001 1.000 -0.014
vn 0.019 1.000 -0.017
vn 0.008 1.000 -0.029
vn -0.005 1.000 -0.026
vn -0.638 -0.743 -0.203
vn -0.326 -0.813 -0.483
vn 0.011 -1.000 0.002
vn -0.638 -0.743 -0.203
vn 0.000 -1.000 0.002
vn -0.016 -1.000 0.005
vn 0.016 -1.000 0.008
vn 0.006 -1.000 0.001
vn 0.000 -1.000 0.002
vn 0.011 -1.000 0.002
vn 0.016 -1.000 0.008
vn 0.000 -1.000 0.002
vn 0.011 -1.000 0.002
vn 0.051 -0.999 0.008
vn 0.016 -1.000 0.008
vn -0.002 -1.000 0.001
vn 0.000 -1.000 0.002
vn 0.002 -1.000 0.001
vn 0.002 -1.000 0.001
vn 0.000 -1.000 0.002
vn 0.003 -1.000 -0.002
vn 0.000 -1.000 0.002
vn 0.006 -1.000 0.001
vn 0.003 -1.000 -0.002
vn 0.001 1.000 -0.007
vn -0.005 1.000 -0.012
vn -0.007 1.000 0.007
g 
usemtl Carpet0002
f 1/1/1 2/2/2 3/3/3
f 6/6/4 1/1/5 5/5/6
f 2/2/7 1/1/8 6/6/9
f 2/2/10 6/6/11 7/7/12
f 9/9/13 8/8/14 2/2/15
f 2/2/16 7/7/17 9/9/18
f 5/5/19 1/1/20 4/4/21
f 5/5/22 11/11/23 6/6/24
f 10/10/25 11/11/26 5/5/27
f 11/11/28 10/10/29 12/12/30
f 11/11/31 12/12/32 7/7/33
f 13/13/34 7/7/35 12/12/36
f 9/9/37 13/13/38 14/14/39
f 13/13/40 9/9/41 7/7/42
f 9/9/43 15/15/44 8/8/45
f 15/15/46 17/17/47 8/8/48
f 17/17/49 16/16/50 8/8/51
f 16/16/52 18/18/53 8/8/54
f 16/16/55 17/17/56 19/19/57
f 17/17/58 15/15/59 14/14/60
f 9/9/61 14/14/62 15/15/63
f 18/18/64 19/19/65 3/3/66
f 3/3/67 2/2/68 8/8/69
f 5/5/70 4/4/71 21/21/72
f 10/10/73 5/5/74 21/21/75
f 22/22/76 12/12/77 10/10/78
f 10/10/79 21/21/80 22/22/81
f 14/14/82 13/13/83 22/22/84
f 22/22/85 13/13/86 12/12/87
f 23/23/88 14/14/89 22/22/90
f 17/17/91 14/14/92 23/23/93
f 23/23/94 20/20/95 17/17/96
f 20/20/97 23/23/98 24/24/99
f 20/20/100 19/19/101 17/17/102
f 24/24/103 19/19/104 20/20/105
f 18/18/106 16/16/107 19/19/108
f 18/18/109 3/3/110 8/8/111
f 23/23/112 22/22/113 3/3/114
f 19/19/115 23/23/116 3/3/117
f 19/19/118 24/24/119 23/23/120
f 1/1/121 3/3/122 4/4/123
f 4/4/124 3/3/125 21/21/126
f 3/3/127 22/22/128 21/21/129
f 11/11/130 7/7/131 6/6/132
