mtllib Ceiling0003.mtl
# File exported by Houdini 18.0.499 (www.sidefx.com)
# 84 points
# 328 vertices
# 82 primitives
# Bounds: [-1.5, -0.127969489, -1.5] to [1.5, 0, 1.5]
g 
usemtl Ceiling0003
v -1.500 0.000 1.500
v 1.500 0.000 1.500
v -1.500 0.000 0.750
v 1.500 0.000 0.750
v -1.500 0.000 0.000
v 1.500 0.000 0.000
v -1.500 0.000 -0.750
v 1.500 0.000 -0.750
v -1.500 0.000 -1.500
v 1.500 0.000 -1.500
v -1.500 -0.008 1.500
v 1.500 -0.008 1.500
v 1.500 -0.008 0.750
v -1.500 -0.008 0.750
v 1.500 -0.008 0.000
v -1.500 -0.008 0.000
v 1.500 -0.008 -0.750
v -1.500 -0.008 -0.750
v 1.500 -0.008 -1.500
v -1.500 -0.008 -1.500
v -1.400 -0.008 1.400
v 1.400 -0.008 1.400
v 1.400 -0.008 0.850
v -1.400 -0.008 0.850
v -1.400 -0.008 0.650
v 1.400 -0.008 0.650
v 1.400 -0.008 0.100
v -1.400 -0.008 0.100
v -1.400 -0.008 -0.100
v 1.400 -0.008 -0.100
v 1.400 -0.008 -0.650
v -1.400 -0.008 -0.650
v -1.400 -0.008 -0.850
v 1.400 -0.008 -0.850
v 1.400 -0.008 -1.400
v -1.400 -0.008 -1.400
v -1.400 -0.108 1.400
v 1.400 -0.108 1.400
v 1.400 -0.108 0.850
v -1.400 -0.108 0.850
v -1.400 -0.108 0.650
v 1.400 -0.108 0.650
v 1.400 -0.108 0.100
v -1.400 -0.108 0.100
v -1.400 -0.108 -0.100
v 1.400 -0.108 -0.100
v 1.400 -0.108 -0.650
v -1.400 -0.108 -0.650
v -1.400 -0.108 -0.850
v 1.400 -0.108 -0.850
v 1.400 -0.108 -1.400
v -1.400 -0.108 -1.400
v -1.470 -0.108 1.470
v 1.470 -0.108 1.470
v 1.470 -0.108 0.780
v -1.470 -0.108 0.780
v -1.470 -0.108 0.720
v 1.470 -0.108 0.720
v 1.470 -0.108 0.030
v -1.470 -0.108 0.030
v -1.470 -0.108 -0.030
v 1.470 -0.108 -0.030
v 1.470 -0.108 -0.720
v -1.470 -0.108 -0.720
v -1.470 -0.108 -0.780
v 1.470 -0.108 -0.780
v 1.470 -0.108 -1.470
v -1.470 -0.108 -1.470
v -1.470 -0.128 1.470
v 1.470 -0.128 1.470
v 1.470 -0.128 0.780
v -1.470 -0.128 0.780
v -1.470 -0.128 0.720
v 1.470 -0.128 0.720
v 1.470 -0.128 0.030
v -1.470 -0.128 0.030
v -1.470 -0.128 -0.030
v 1.470 -0.128 -0.030
v 1.470 -0.128 -0.720
v -1.470 -0.128 -0.720
v -1.470 -0.128 -0.780
v 1.470 -0.128 -0.780
v 1.470 -0.128 -1.470
v -1.470 -0.128 -1.470
vt 0.002 0.002
vt 0.462 0.002
vt 0.462 0.117
vt 0.002 0.117
vt 0.462 0.232
vt 0.002 0.232
vt 0.462 0.347
vt 0.002 0.347
vt 0.462 0.462
vt 0.002 0.462
vt 0.462 0.902
vt 0.462 0.904
vt 0.002 0.904
vt 0.002 0.902
vt 0.462 0.898
vt 0.462 0.900
vt 0.347 0.900
vt 0.347 0.898
vt 0.232 0.900
vt 0.232 0.898
vt 0.117 0.900
vt 0.117 0.898
vt 0.002 0.900
vt 0.002 0.898
vt 0.925 0.898
vt 0.925 0.900
vt 0.465 0.900
vt 0.465 0.898
vt 0.925 0.902
vt 0.925 0.904
vt 0.810 0.904
vt 0.810 0.902
vt 0.695 0.904
vt 0.695 0.902
vt 0.580 0.904
vt 0.580 0.902
vt 0.465 0.904
vt 0.465 0.902
vt 0.925 0.002
vt 0.910 0.017
vt 0.480 0.017
vt 0.465 0.002
vt 0.480 0.102
vt 0.465 0.117
vt 0.910 0.102
vt 0.925 0.117
vt 0.910 0.132
vt 0.480 0.132
vt 0.480 0.217
vt 0.465 0.232
vt 0.910 0.217
vt 0.925 0.232
vt 0.910 0.248
vt 0.480 0.248
vt 0.480 0.332
vt 0.465 0.347
vt 0.910 0.332
vt 0.925 0.347
vt 0.910 0.363
vt 0.480 0.363
vt 0.480 0.447
vt 0.465 0.462
vt 0.910 0.447
vt 0.925 0.462
vt 0.432 0.947
vt 0.432 0.963
vt 0.002 0.963
vt 0.002 0.947
vt 0.781 0.279
vt 0.781 0.295
vt 0.696 0.295
vt 0.696 0.279
vt 0.864 0.947
vt 0.864 0.963
vt 0.435 0.963
vt 0.435 0.947
vt 0.653 0.268
vt 0.653 0.283
vt 0.568 0.283
vt 0.568 0.268
vt 0.432 0.965
vt 0.432 0.980
vt 0.002 0.980
vt 0.002 0.965
vt 0.783 0.262
vt 0.783 0.277
vt 0.698 0.277
vt 0.698 0.262
vt 0.864 0.930
vt 0.864 0.945
vt 0.435 0.945
vt 0.435 0.930
vt 0.566 0.285
vt 0.566 0.301
vt 0.481 0.301
vt 0.481 0.285
vt 0.864 0.965
vt 0.864 0.980
vt 0.435 0.980
vt 0.435 0.965
vt 0.653 0.285
vt 0.653 0.301
vt 0.568 0.301
vt 0.568 0.285
vt 0.432 0.930
vt 0.432 0.945
vt 0.002 0.945
vt 0.002 0.930
vt 0.889 0.268
vt 0.889 0.283
vt 0.805 0.283
vt 0.805 0.268
vt 0.432 0.982
vt 0.432 0.998
vt 0.002 0.998
vt 0.002 0.982
vt 0.566 0.268
vt 0.566 0.283
vt 0.481 0.283
vt 0.481 0.268
vt 0.864 0.982
vt 0.864 0.998
vt 0.435 0.998
vt 0.435 0.982
vt 0.891 0.250
vt 0.891 0.265
vt 0.807 0.265
vt 0.807 0.250
vt 0.897 0.560
vt 0.907 0.571
vt 0.456 0.571
vt 0.467 0.560
vt 0.456 0.465
vt 0.467 0.476
vt 0.907 0.465
vt 0.897 0.476
vt 0.442 0.885
vt 0.453 0.896
vt 0.002 0.896
vt 0.013 0.885
vt 0.002 0.790
vt 0.013 0.801
vt 0.453 0.790
vt 0.442 0.801
vt 0.442 0.668
vt 0.453 0.679
vt 0.002 0.679
vt 0.013 0.668
vt 0.002 0.573
vt 0.013 0.584
vt 0.453 0.573
vt 0.442 0.584
vt 0.442 0.560
vt 0.453 0.571
vt 0.002 0.571
vt 0.013 0.560
vt 0.002 0.465
vt 0.013 0.476
vt 0.453 0.465
vt 0.442 0.476
vt 0.907 0.573
vt 0.907 0.679
vt 0.456 0.679
vt 0.456 0.573
vt 0.453 0.682
vt 0.453 0.788
vt 0.002 0.788
vt 0.002 0.682
vt 0.907 0.790
vt 0.907 0.896
vt 0.456 0.896
vt 0.456 0.790
vt 0.907 0.682
vt 0.907 0.788
vt 0.456 0.788
vt 0.456 0.682
vt 0.907 0.918
vt 0.907 0.921
vt 0.456 0.921
vt 0.456 0.918
vt 0.587 0.250
vt 0.587 0.253
vt 0.481 0.253
vt 0.481 0.250
vt 0.453 0.912
vt 0.453 0.915
vt 0.002 0.915
vt 0.002 0.912
vt 0.696 0.256
vt 0.696 0.259
vt 0.590 0.259
vt 0.590 0.256
vt 0.907 0.912
vt 0.907 0.915
vt 0.456 0.915
vt 0.456 0.912
vt 0.804 0.256
vt 0.804 0.259
vt 0.698 0.259
vt 0.698 0.256
vt 0.907 0.906
vt 0.907 0.909
vt 0.456 0.909
vt 0.456 0.906
vt 0.587 0.262
vt 0.587 0.265
vt 0.481 0.265
vt 0.481 0.262
vt 0.453 0.924
vt 0.453 0.927
vt 0.002 0.927
vt 0.002 0.924
vt 0.804 0.250
vt 0.804 0.253
vt 0.698 0.253
vt 0.698 0.250
vt 0.453 0.906
vt 0.453 0.909
vt 0.002 0.909
vt 0.002 0.906
vt 0.587 0.256
vt 0.587 0.259
vt 0.481 0.259
vt 0.481 0.256
vt 0.453 0.918
vt 0.453 0.921
vt 0.002 0.921
vt 0.002 0.918
vt 0.696 0.262
vt 0.696 0.265
vt 0.590 0.265
vt 0.590 0.262
vt 0.907 0.924
vt 0.907 0.927
vt 0.456 0.927
vt 0.456 0.924
vt 0.696 0.250
vt 0.696 0.253
vt 0.590 0.253
vt 0.590 0.250
vn 0.000 1.000 0.000
vn 0.000 1.000 0.000
vn 0.000 1.000 0.000
vn 0.000 1.000 0.000
vn 0.000 1.000 0.000
vn 0.000 1.000 0.000
vn 0.000 1.000 0.000
vn 0.000 1.000 0.000
vn 0.000 1.000 0.000
vn 0.000 1.000 0.000
vn 0.000 1.000 0.000
vn 0.000 1.000 0.000
vn 0.000 1.000 0.000
vn 0.000 1.000 0.000
vn 0.000 1.000 0.000
vn 0.000 1.000 0.000
vn 0.000 0.000 1.000
vn 0.000 0.000 1.000
vn 0.000 0.000 1.000
vn 0.000 0.000 1.000
vn 1.000 0.000 0.000
vn 1.000 0.000 0.000
vn 1.000 0.000 0.000
vn 1.000 0.000 0.000
vn 1.000 0.000 0.000
vn 1.000 0.000 0.000
vn 1.000 0.000 0.000
vn 1.000 0.000 0.000
vn 1.000 0.000 0.000
vn 1.000 0.000 0.000
vn 1.000 0.000 0.000
vn 1.000 0.000 0.000
vn 1.000 0.000 0.000
vn 1.000 0.000 0.000
vn 1.000 0.000 0.000
vn 1.000 0.000 0.000
vn 0.000 0.000 -1.000
vn 0.000 0.000 -1.000
vn 0.000 0.000 -1.000
vn 0.000 0.000 -1.000
vn -1.000 0.000 0.000
vn -1.000 0.000 0.000
vn -1.000 0.000 0.000
vn -1.000 0.000 0.000
vn -1.000 0.000 0.000
vn -1.000 0.000 0.000
vn -1.000 0.000 0.000
vn -1.000 0.000 0.000
vn -1.000 0.000 0.000
vn -1.000 0.000 0.000
vn -1.000 0.000 0.000
vn -1.000 0.000 0.000
vn -1.000 0.000 0.000
vn -1.000 0.000 0.000
vn -1.000 0.000 0.000
vn -1.000 0.000 0.000
vn 0.000 -1.000 0.000
vn 0.000 -1.000 0.000
vn 0.000 -1.000 0.000
vn 0.000 -1.000 0.000
vn 0.000 -1.000 0.000
vn 0.000 -1.000 0.000
vn 0.000 -1.000 0.000
vn 0.000 -1.000 0.000
vn 0.000 -1.000 0.000
vn 0.000 -1.000 0.000
vn 0.000 -1.000 0.000
vn 0.000 -1.000 0.000
vn 0.000 -1.000 0.000
vn 0.000 -1.000 0.000
vn 0.000 -1.000 0.000
vn 0.000 -1.000 0.000
vn 0.000 -1.000 0.000
vn 0.000 -1.000 0.000
vn 0.000 -1.000 0.000
vn 0.000 -1.000 0.000
vn 0.000 -1.000 0.000
vn 0.000 -1.000 0.000
vn 0.000 -1.000 0.000
vn 0.000 -1.000 0.000
vn 0.000 -1.000 0.000
vn 0.000 -1.000 0.000
vn 0.000 -1.000 0.000
vn 0.000 -1.000 0.000
vn 0.000 -1.000 0.000
vn 0.000 -1.000 0.000
vn 0.000 -1.000 0.000
vn 0.000 -1.000 0.000
vn 0.000 -1.000 0.000
vn 0.000 -1.000 0.000
vn 0.000 -1.000 0.000
vn 0.000 -1.000 0.000
vn 0.000 -1.000 0.000
vn 0.000 -1.000 0.000
vn 0.000 -1.000 0.000
vn 0.000 -1.000 0.000
vn 0.000 -1.000 0.000
vn 0.000 -1.000 0.000
vn 0.000 -1.000 0.000
vn 0.000 -1.000 0.000
vn 0.000 -1.000 0.000
vn 0.000 -1.000 0.000
vn 0.000 -1.000 0.000
vn 0.000 -1.000 0.000
vn 0.000 -1.000 0.000
vn 0.000 -1.000 0.000
vn 0.000 -1.000 0.000
vn 0.000 -1.000 0.000
vn 0.000 -1.000 0.000
vn 0.000 -1.000 0.000
vn 0.000 -1.000 0.000
vn 0.000 -1.000 0.000
vn 0.000 -1.000 0.000
vn 0.000 -1.000 0.000
vn 0.000 -1.000 0.000
vn 0.000 -1.000 0.000
vn 0.000 -1.000 0.000
vn 0.000 -1.000 0.000
vn 0.000 -1.000 0.000
vn 0.000 -1.000 0.000
vn 0.000 0.000 1.000
vn 0.000 0.000 1.000
vn 0.000 0.000 1.000
vn 0.000 0.000 1.000
vn 1.000 0.000 0.000
vn 1.000 0.000 0.000
vn 1.000 0.000 0.000
vn 1.000 0.000 0.000
vn 0.000 0.000 -1.000
vn 0.000 0.000 -1.000
vn 0.000 0.000 -1.000
vn 0.000 0.000 -1.000
vn -1.000 0.000 0.000
vn -1.000 0.000 0.000
vn -1.000 0.000 0.000
vn -1.000 0.000 0.000
vn 0.000 0.000 1.000
vn 0.000 0.000 1.000
vn 0.000 0.000 1.000
vn 0.000 0.000 1.000
vn 1.000 0.000 0.000
vn 1.000 0.000 0.000
vn 1.000 0.000 0.000
vn 1.000 0.000 0.000
vn 0.000 0.000 -1.000
vn 0.000 0.000 -1.000
vn 0.000 0.000 -1.000
vn 0.000 0.000 -1.000
vn -1.000 0.000 0.000
vn -1.000 0.000 0.000
vn -1.000 0.000 0.000
vn -1.000 0.000 0.000
vn 0.000 0.000 1.000
vn 0.000 0.000 1.000
vn 0.000 0.000 1.000
vn 0.000 0.000 1.000
vn 1.000 0.000 0.000
vn 1.000 0.000 0.000
vn 1.000 0.000 0.000
vn 1.000 0.000 0.000
vn 0.000 0.000 -1.000
vn 0.000 0.000 -1.000
vn 0.000 0.000 -1.000
vn 0.000 0.000 -1.000
vn -1.000 0.000 0.000
vn -1.000 0.000 0.000
vn -1.000 0.000 0.000
vn -1.000 0.000 0.000
vn 0.000 0.000 1.000
vn 0.000 0.000 1.000
vn 0.000 0.000 1.000
vn 0.000 0.000 1.000
vn 1.000 0.000 0.000
vn 1.000 0.000 0.000
vn 1.000 0.000 0.000
vn 1.000 0.000 0.000
vn 0.000 0.000 -1.000
vn 0.000 0.000 -1.000
vn 0.000 0.000 -1.000
vn 0.000 0.000 -1.000
vn -1.000 0.000 0.000
vn -1.000 0.000 0.000
vn -1.000 0.000 0.000
vn -1.000 0.000 0.000
vn 0.000 1.000 0.000
vn 0.000 1.000 0.000
vn 0.000 1.000 0.000
vn 0.000 1.000 0.000
vn 0.000 1.000 0.000
vn 0.000 1.000 0.000
vn 0.000 1.000 0.000
vn 0.000 1.000 0.000
vn 0.000 1.000 0.000
vn 0.000 1.000 0.000
vn 0.000 1.000 0.000
vn 0.000 1.000 0.000
vn 0.000 1.000 0.000
vn 0.000 1.000 0.000
vn 0.000 1.000 0.000
vn 0.000 1.000 0.000
vn 0.000 1.000 0.000
vn 0.000 1.000 0.000
vn 0.000 1.000 0.000
vn 0.000 1.000 0.000
vn 0.000 1.000 0.000
vn 0.000 1.000 0.000
vn 0.000 1.000 0.000
vn 0.000 1.000 0.000
vn 0.000 1.000 0.000
vn 0.000 1.000 0.000
vn 0.000 1.000 0.000
vn 0.000 1.000 0.000
vn 0.000 1.000 0.000
vn 0.000 1.000 0.000
vn 0.000 1.000 0.000
vn 0.000 1.000 0.000
vn 0.000 1.000 0.000
vn 0.000 1.000 0.000
vn 0.000 1.000 0.000
vn 0.000 1.000 0.000
vn 0.000 1.000 0.000
vn 0.000 1.000 0.000
vn 0.000 1.000 0.000
vn 0.000 1.000 0.000
vn 0.000 1.000 0.000
vn 0.000 1.000 0.000
vn 0.000 1.000 0.000
vn 0.000 1.000 0.000
vn 0.000 1.000 0.000
vn 0.000 1.000 0.000
vn 0.000 1.000 0.000
vn 0.000 1.000 0.000
vn 0.000 1.000 0.000
vn 0.000 1.000 0.000
vn 0.000 1.000 0.000
vn 0.000 1.000 0.000
vn 0.000 1.000 0.000
vn 0.000 1.000 0.000
vn 0.000 1.000 0.000
vn 0.000 1.000 0.000
vn 0.000 1.000 0.000
vn 0.000 1.000 0.000
vn 0.000 1.000 0.000
vn 0.000 1.000 0.000
vn 0.000 1.000 0.000
vn 0.000 1.000 0.000
vn 0.000 1.000 0.000
vn 0.000 1.000 0.000
vn 0.000 -1.000 0.000
vn 0.000 -1.000 0.000
vn 0.000 -1.000 0.000
vn 0.000 -1.000 0.000
vn 0.000 -1.000 0.000
vn 0.000 -1.000 0.000
vn 0.000 -1.000 0.000
vn 0.000 -1.000 0.000
vn 0.000 -1.000 0.000
vn 0.000 -1.000 0.000
vn 0.000 -1.000 0.000
vn 0.000 -1.000 0.000
vn 0.000 -1.000 0.000
vn 0.000 -1.000 0.000
vn 0.000 -1.000 0.000
vn 0.000 -1.000 0.000
vn 0.000 0.000 1.000
vn 0.000 0.000 1.000
vn 0.000 0.000 1.000
vn 0.000 0.000 1.000
vn 1.000 0.000 0.000
vn 1.000 0.000 0.000
vn 1.000 0.000 0.000
vn 1.000 0.000 0.000
vn 0.000 0.000 -1.000
vn 0.000 0.000 -1.000
vn 0.000 0.000 -1.000
vn 0.000 0.000 -1.000
vn -1.000 0.000 0.000
vn -1.000 0.000 0.000
vn -1.000 0.000 0.000
vn -1.000 0.000 0.000
vn 0.000 0.000 1.000
vn 0.000 0.000 1.000
vn 0.000 0.000 1.000
vn 0.000 0.000 1.000
vn 1.000 0.000 0.000
vn 1.000 0.000 0.000
vn 1.000 0.000 0.000
vn 1.000 0.000 0.000
vn 0.000 0.000 -1.000
vn 0.000 0.000 -1.000
vn 0.000 0.000 -1.000
vn 0.000 0.000 -1.000
vn -1.000 0.000 0.000
vn -1.000 0.000 0.000
vn -1.000 0.000 0.000
vn -1.000 0.000 0.000
vn 0.000 0.000 1.000
vn 0.000 0.000 1.000
vn 0.000 0.000 1.000
vn 0.000 0.000 1.000
vn 1.000 0.000 0.000
vn 1.000 0.000 0.000
vn 1.000 0.000 0.000
vn 1.000 0.000 0.000
vn 0.000 0.000 -1.000
vn 0.000 0.000 -1.000
vn 0.000 0.000 -1.000
vn 0.000 0.000 -1.000
vn -1.000 0.000 0.000
vn -1.000 0.000 0.000
vn -1.000 0.000 0.000
vn -1.000 0.000 0.000
vn 0.000 0.000 1.000
vn 0.000 0.000 1.000
vn 0.000 0.000 1.000
vn 0.000 0.000 1.000
vn 1.000 0.000 0.000
vn 1.000 0.000 0.000
vn 1.000 0.000 0.000
vn 1.000 0.000 0.000
vn 0.000 0.000 -1.000
vn 0.000 0.000 -1.000
vn 0.000 0.000 -1.000
vn 0.000 0.000 -1.000
vn -1.000 0.000 0.000
vn -1.000 0.000 0.000
vn -1.000 0.000 0.000
vn -1.000 0.000 0.000
g 
usemtl Ceiling0003
f 1/1/1 2/2/2 4/3/3 3/4/4
f 3/4/5 4/3/6 6/5/7 5/6/8
f 5/6/9 6/5/10 8/7/11 7/8/12
f 7/8/13 8/7/14 10/9/15 9/10/16
f 1/11/17 11/12/18 12/13/19 2/14/20
f 2/15/21 12/16/22 13/17/23 4/18/24
f 4/18/25 13/17/26 15/19/27 6/20/28
f 6/20/29 15/19/30 17/21/31 8/22/32
f 8/22/33 17/21/34 19/23/35 10/24/36
f 10/25/37 19/26/38 20/27/39 9/28/40
f 9/29/41 20/30/42 18/31/43 7/32/44
f 7/32/45 18/31/46 16/33/47 5/34/48
f 5/34/49 16/33/50 14/35/51 3/36/52
f 3/36/53 14/35/54 11/37/55 1/38/56
f 11/39/57 21/40/58 22/41/59 12/42/60
f 12/42/61 22/41/62 23/43/63 13/44/64
f 13/44/65 23/43/66 24/45/67 14/46/68
f 14/46/69 24/45/70 21/40/71 11/39/72
f 14/46/73 25/47/74 26/48/75 13/44/76
f 13/44/77 26/48/78 27/49/79 15/50/80
f 15/50/81 27/49/82 28/51/83 16/52/84
f 16/52/85 28/51/86 25/47/87 14/46/88
f 16/52/89 29/53/90 30/54/91 15/50/92
f 15/50/93 30/54/94 31/55/95 17/56/96
f 17/56/97 31/55/98 32/57/99 18/58/100
f 18/58/101 32/57/102 29/53/103 16/52/104
f 18/58/105 33/59/106 34/60/107 17/56/108
f 17/56/109 34/60/110 35/61/111 19/62/112
f 19/62/113 35/61/114 36/63/115 20/64/116
f 20/64/117 36/63/118 33/59/119 18/58/120
f 21/65/121 37/66/122 38/67/123 22/68/124
f 22/69/125 38/70/126 39/71/127 23/72/128
f 23/73/129 39/74/130 40/75/131 24/76/132
f 24/77/133 40/78/134 37/79/135 21/80/136
f 25/81/137 41/82/138 42/83/139 26/84/140
f 26/85/141 42/86/142 43/87/143 27/88/144
f 27/89/145 43/90/146 44/91/147 28/92/148
f 28/93/149 44/94/150 41/95/151 25/96/152
f 29/97/153 45/98/154 46/99/155 30/100/156
f 30/101/157 46/102/158 47/103/159 31/104/160
f 31/105/161 47/106/162 48/107/163 32/108/164
f 32/109/165 48/110/166 45/111/167 29/112/168
f 33/113/169 49/114/170 50/115/171 34/116/172
f 34/117/173 50/118/174 51/119/175 35/120/176
f 35/121/177 51/122/178 52/123/179 36/124/180
f 36/125/181 52/126/182 49/127/183 33/128/184
f 37/129/185 53/130/186 54/131/187 38/132/188
f 38/132/189 54/131/190 55/133/191 39/134/192
f 39/134/193 55/133/194 56/135/195 40/136/196
f 40/136/197 56/135/198 53/130/199 37/129/200
f 41/137/201 57/138/202 58/139/203 42/140/204
f 42/140/205 58/139/206 59/141/207 43/142/208
f 43/142/209 59/141/210 60/143/211 44/144/212
f 44/144/213 60/143/214 57/138/215 41/137/216
f 45/145/217 61/146/218 62/147/219 46/148/220
f 46/148/221 62/147/222 63/149/223 47/150/224
f 47/150/225 63/149/226 64/151/227 48/152/228
f 48/152/229 64/151/230 61/146/231 45/145/232
f 49/153/233 65/154/234 66/155/235 50/156/236
f 50/156/237 66/155/238 67/157/239 51/158/240
f 51/158/241 67/157/242 68/159/243 52/160/244
f 52/160/245 68/159/246 65/154/247 49/153/248
f 69/161/249 72/162/250 71/163/251 70/164/252
f 73/165/253 76/166/254 75/167/255 74/168/256
f 77/169/257 80/170/258 79/171/259 78/172/260
f 81/173/261 84/174/262 83/175/263 82/176/264
f 53/177/265 69/178/266 70/179/267 54/180/268
f 54/181/269 70/182/270 71/183/271 55/184/272
f 55/185/273 71/186/274 72/187/275 56/188/276
f 56/189/277 72/190/278 69/191/279 53/192/280
f 57/193/281 73/194/282 74/195/283 58/196/284
f 58/197/285 74/198/286 75/199/287 59/200/288
f 59/201/289 75/202/290 76/203/291 60/204/292
f 60/205/293 76/206/294 73/207/295 57/208/296
f 61/209/297 77/210/298 78/211/299 62/212/300
f 62/213/301 78/214/302 79/215/303 63/216/304
f 63/217/305 79/218/306 80/219/307 64/220/308
f 64/221/309 80/222/310 77/223/311 61/224/312
f 65/225/313 81/226/314 82/227/315 66/228/316
f 66/229/317 82/230/318 83/231/319 67/232/320
f 67/233/321 83/234/322 84/235/323 68/236/324
f 68/237/325 84/238/326 81/239/327 65/240/328
