mtllib Ceiling0002.mtl
# File exported by Houdini 18.0.499 (www.sidefx.com)
# 40 points
# 152 vertices
# 38 primitives
# Bounds: [-1.5, -0.109999999, -1.5] to [1.5, 0, 1.5]
g 
usemtl Ceiling0002
v -1.500 0.000 1.500
v 1.500 0.000 1.500
v -1.500 0.000 -1.500
v 1.500 0.000 -1.500
v -1.500 -0.010 1.500
v 1.500 -0.010 1.500
v 1.500 -0.010 -1.500
v -1.500 -0.010 -1.500
v -1.450 -0.010 1.450
v 1.450 -0.010 1.450
v 1.450 -0.010 -1.450
v -1.450 -0.010 -1.450
v -1.450 -0.110 1.450
v 1.450 -0.110 1.450
v 1.450 -0.110 -1.450
v -1.450 -0.110 -1.450
v -0.950 -0.110 0.950
v 0.950 -0.110 0.950
v 0.950 -0.110 -0.950
v -0.950 -0.110 -0.950
v -0.950 -0.095 0.950
v 0.950 -0.095 0.950
v 0.950 -0.095 -0.950
v -0.950 -0.095 -0.950
v -1.241 -0.095 1.241
v 1.241 -0.095 1.241
v 1.241 -0.095 -1.241
v -1.241 -0.095 -1.241
v -1.241 -0.022 1.241
v 1.241 -0.022 1.241
v 1.241 -0.022 -1.241
v -1.241 -0.022 -1.241
v -0.811 -0.022 0.811
v 0.811 -0.022 0.811
v 0.811 -0.022 -0.811
v -0.811 -0.022 -0.811
v -0.811 -0.082 0.811
v 0.811 -0.082 0.811
v 0.811 -0.082 -0.811
v -0.811 -0.082 -0.811
vt 0.002 0.002
vt 0.498 0.002
vt 0.498 0.498
vt 0.002 0.498
vt 0.979 0.921
vt 0.979 0.923
vt 0.483 0.923
vt 0.483 0.921
vt 0.979 0.913
vt 0.979 0.915
vt 0.483 0.915
vt 0.483 0.913
vt 0.979 0.917
vt 0.979 0.919
vt 0.483 0.919
vt 0.483 0.917
vt 0.979 0.925
vt 0.979 0.926
vt 0.483 0.926
vt 0.483 0.925
vt 0.996 0.498
vt 0.988 0.490
vt 0.988 0.010
vt 0.996 0.002
vt 0.508 0.010
vt 0.500 0.002
vt 0.508 0.490
vt 0.500 0.498
vt 0.481 0.981
vt 0.481 0.998
vt 0.002 0.998
vt 0.002 0.981
vt 0.963 0.929
vt 0.963 0.945
vt 0.483 0.945
vt 0.483 0.929
vt 0.963 0.947
vt 0.963 0.964
vt 0.483 0.964
vt 0.483 0.947
vt 0.963 0.966
vt 0.963 0.982
vt 0.483 0.982
vt 0.483 0.966
vt 0.002 0.979
vt 0.085 0.897
vt 0.399 0.897
vt 0.481 0.979
vt 0.399 0.583
vt 0.481 0.500
vt 0.085 0.583
vt 0.002 0.500
vt 0.797 0.984
vt 0.797 0.987
vt 0.483 0.987
vt 0.483 0.984
vt 0.797 0.989
vt 0.797 0.992
vt 0.483 0.992
vt 0.483 0.989
vt 0.797 0.994
vt 0.797 0.997
vt 0.483 0.997
vt 0.483 0.994
vt 0.824 0.484
vt 0.824 0.487
vt 0.510 0.487
vt 0.510 0.484
vt 0.531 0.862
vt 0.483 0.910
vt 0.483 0.500
vt 0.531 0.548
vt 0.894 0.500
vt 0.846 0.548
vt 0.894 0.910
vt 0.846 0.862
vt 0.920 0.455
vt 0.920 0.467
vt 0.510 0.467
vt 0.510 0.455
vt 0.920 0.426
vt 0.920 0.438
vt 0.510 0.438
vt 0.510 0.426
vt 0.920 0.440
vt 0.920 0.452
vt 0.510 0.452
vt 0.510 0.440
vt 0.920 0.470
vt 0.920 0.482
vt 0.510 0.482
vt 0.510 0.470
vt 0.920 0.423
vt 0.849 0.352
vt 0.849 0.084
vt 0.920 0.013
vt 0.581 0.084
vt 0.510 0.013
vt 0.581 0.352
vt 0.510 0.423
vt 0.801 0.819
vt 0.533 0.819
vt 0.533 0.551
vt 0.801 0.551
vt 0.801 0.847
vt 0.801 0.857
vt 0.533 0.857
vt 0.533 0.847
vt 0.354 0.585
vt 0.354 0.595
vt 0.086 0.595
vt 0.086 0.585
vt 0.801 0.834
vt 0.801 0.844
vt 0.533 0.844
vt 0.533 0.834
vt 0.801 0.821
vt 0.801 0.831
vt 0.533 0.831
vt 0.533 0.821
vn 0.000 1.000 0.000
vn 0.000 1.000 0.000
vn 0.000 1.000 0.000
vn 0.000 1.000 0.000
vn 0.000 0.000 1.000
vn 0.000 0.000 1.000
vn 0.000 0.000 1.000
vn 0.000 0.000 1.000
vn 1.000 0.000 0.000
vn 1.000 0.000 0.000
vn 1.000 0.000 0.000
vn 1.000 0.000 0.000
vn 0.000 0.000 -1.000
vn 0.000 0.000 -1.000
vn 0.000 0.000 -1.000
vn 0.000 0.000 -1.000
vn -1.000 0.000 0.000
vn -1.000 0.000 0.000
vn -1.000 0.000 0.000
vn -1.000 0.000 0.000
vn 0.000 -1.000 0.000
vn 0.000 -1.000 0.000
vn 0.000 -1.000 0.000
vn 0.000 -1.000 0.000
vn 0.000 -1.000 0.000
vn 0.000 -1.000 0.000
vn 0.000 -1.000 0.000
vn 0.000 -1.000 0.000
vn 0.000 -1.000 0.000
vn 0.000 -1.000 0.000
vn 0.000 -1.000 0.000
vn 0.000 -1.000 0.000
vn 0.000 -1.000 0.000
vn 0.000 -1.000 0.000
vn 0.000 -1.000 0.000
vn 0.000 -1.000 0.000
vn 0.000 0.000 1.000
vn 0.000 0.000 1.000
vn 0.000 0.000 1.000
vn 0.000 0.000 1.000
vn 1.000 0.000 0.000
vn 1.000 0.000 0.000
vn 1.000 0.000 0.000
vn 1.000 0.000 0.000
vn 0.000 0.000 -1.000
vn 0.000 0.000 -1.000
vn 0.000 0.000 -1.000
vn 0.000 0.000 -1.000
vn -1.000 0.000 0.000
vn -1.000 0.000 0.000
vn -1.000 0.000 0.000
vn -1.000 0.000 0.000
vn 0.000 -1.000 0.000
vn 0.000 -1.000 0.000
vn 0.000 -1.000 0.000
vn 0.000 -1.000 0.000
vn 0.000 -1.000 0.000
vn 0.000 -1.000 0.000
vn 0.000 -1.000 0.000
vn 0.000 -1.000 0.000
vn 0.000 -1.000 0.000
vn 0.000 -1.000 0.000
vn 0.000 -1.000 0.000
vn 0.000 -1.000 0.000
vn 0.000 -1.000 0.000
vn 0.000 -1.000 0.000
vn 0.000 -1.000 0.000
vn 0.000 -1.000 0.000
vn 0.000 0.000 -1.000
vn 0.000 0.000 -1.000
vn 0.000 0.000 -1.000
vn 0.000 0.000 -1.000
vn -1.000 0.000 0.000
vn -1.000 0.000 0.000
vn -1.000 0.000 0.000
vn -1.000 0.000 0.000
vn 0.000 0.000 1.000
vn 0.000 0.000 1.000
vn 0.000 0.000 1.000
vn 0.000 0.000 1.000
vn 1.000 0.000 0.000
vn 1.000 0.000 0.000
vn 1.000 0.000 0.000
vn 1.000 0.000 0.000
vn 0.000 1.000 0.000
vn 0.000 1.000 0.000
vn 0.000 1.000 0.000
vn 0.000 1.000 0.000
vn 0.000 1.000 0.000
vn 0.000 1.000 0.000
vn 0.000 1.000 0.000
vn 0.000 1.000 0.000
vn 0.000 1.000 0.000
vn 0.000 1.000 0.000
vn 0.000 1.000 0.000
vn 0.000 1.000 0.000
vn 0.000 1.000 0.000
vn 0.000 1.000 0.000
vn 0.000 1.000 0.000
vn 0.000 1.000 0.000
vn 0.000 0.000 -1.000
vn 0.000 0.000 -1.000
vn 0.000 0.000 -1.000
vn 0.000 0.000 -1.000
vn -1.000 0.000 0.000
vn -1.000 0.000 0.000
vn -1.000 0.000 0.000
vn -1.000 0.000 0.000
vn 0.000 0.000 1.000
vn 0.000 0.000 1.000
vn 0.000 0.000 1.000
vn 0.000 0.000 1.000
vn 1.000 0.000 0.000
vn 1.000 0.000 0.000
vn 1.000 0.000 0.000
vn 1.000 0.000 0.000
vn 0.000 -1.000 0.000
vn 0.000 -1.000 0.000
vn 0.000 -1.000 0.000
vn 0.000 -1.000 0.000
vn 0.000 -1.000 0.000
vn 0.000 -1.000 0.000
vn 0.000 -1.000 0.000
vn 0.000 -1.000 0.000
vn 0.000 -1.000 0.000
vn 0.000 -1.000 0.000
vn 0.000 -1.000 0.000
vn 0.000 -1.000 0.000
vn 0.000 -1.000 0.000
vn 0.000 -1.000 0.000
vn 0.000 -1.000 0.000
vn 0.000 -1.000 0.000
vn 0.000 -1.000 0.000
vn 0.000 -1.000 0.000
vn 0.000 -1.000 0.000
vn 0.000 -1.000 0.000
vn 0.000 0.000 1.000
vn 0.000 0.000 1.000
vn 0.000 0.000 1.000
vn 0.000 0.000 1.000
vn 1.000 0.000 0.000
vn 1.000 0.000 0.000
vn 1.000 0.000 0.000
vn 1.000 0.000 0.000
vn 0.000 0.000 -1.000
vn 0.000 0.000 -1.000
vn 0.000 0.000 -1.000
vn 0.000 0.000 -1.000
vn -1.000 0.000 0.000
vn -1.000 0.000 0.000
vn -1.000 0.000 0.000
vn -1.000 0.000 0.000
g 
usemtl Ceiling0002
f 1/1/1 2/2/2 4/3/3 3/4/4
f 1/5/5 5/6/6 6/7/7 2/8/8
f 2/9/9 6/10/10 7/11/11 4/12/12
f 4/13/13 7/14/14 8/15/15 3/16/16
f 3/17/17 8/18/18 5/19/19 1/20/20
f 5/21/21 9/22/22 10/23/23 6/24/24
f 6/24/25 10/23/26 11/25/27 7/26/28
f 7/26/29 11/25/30 12/27/31 8/28/32
f 8/28/33 12/27/34 9/22/35 5/21/36
f 9/29/37 13/30/38 14/31/39 10/32/40
f 10/33/41 14/34/42 15/35/43 11/36/44
f 11/37/45 15/38/46 16/39/47 12/40/48
f 12/41/49 16/42/50 13/43/51 9/44/52
f 13/45/53 17/46/54 18/47/55 14/48/56
f 14/48/57 18/47/58 19/49/59 15/50/60
f 15/50/61 19/49/62 20/51/63 16/52/64
f 16/52/65 20/51/66 17/46/67 13/45/68
f 17/53/69 21/54/70 22/55/71 18/56/72
f 18/57/73 22/58/74 23/59/75 19/60/76
f 19/61/77 23/62/78 24/63/79 20/64/80
f 20/65/81 24/66/82 21/67/83 17/68/84
f 21/69/85 25/70/86 26/71/87 22/72/88
f 22/72/89 26/71/90 27/73/91 23/74/92
f 23/74/93 27/73/94 28/75/95 24/76/96
f 24/76/97 28/75/98 25/70/99 21/69/100
f 25/77/101 29/78/102 30/79/103 26/80/104
f 26/81/105 30/82/106 31/83/107 27/84/108
f 27/85/109 31/86/110 32/87/111 28/88/112
f 28/89/113 32/90/114 29/91/115 25/92/116
f 29/93/117 33/94/118 34/95/119 30/96/120
f 30/96/121 34/95/122 35/97/123 31/98/124
f 31/98/125 35/97/126 36/99/127 32/100/128
f 32/100/129 36/99/130 33/94/131 29/93/132
f 37/101/133 40/102/134 39/103/135 38/104/136
f 33/105/137 37/106/138 38/107/139 34/108/140
f 34/109/141 38/110/142 39/111/143 35/112/144
f 35/113/145 39/114/146 40/115/147 36/116/148
f 36/117/149 40/118/150 37/119/151 33/120/152
