# 3ds Max Wavefront OBJ Exporter v0.97b - (c)2007 guruware
# 创建的文件:05.03.2021 14:51:49

mtllib dazycj.mtl

#
# object 对象001
#

v  -2.9999 0.7616 -10.7167
v  2.9573 0.7235 -10.7022
v  2.9667 0.7640 7.2500
v  2.9532 0.7538 10.7045
v  2.9400 -3.2000 7.3100
v  -3.0000 -3.2000 10.7000
v  -0.5900 0.8000 10.2500
v  -3.0000 0.8000 7.2500
v  2.9409 -3.2000 -10.7247
v  2.9611 0.7656 7.2500
v  -3.0000 0.8000 -10.4500
v  -3.0000 0.8000 6.9500
v  -3.0000 3.8000 -10.4500
v  2.9500 -3.2000 7.2500
v  -3.0000 3.8000 6.9500
v  -2.5900 0.8000 10.2500
v  -0.5900 -1.7000 7.7500
v  -3.0000 -3.2000 7.3000
v  2.9703 -3.2000 10.7085
v  -3.0000 -3.8000 -10.7500
v  -0.5900 -1.7000 10.2500
v  -2.5900 0.8000 7.7500
v  -3.0000 -3.8000 7.2500
v  2.9000 -3.8000 10.6500
v  -1.5633 -1.7000 7.7500
v  -1.6167 0.8000 7.7500
v  -1.5633 0.8000 10.2500
v  -1.6167 -1.7000 10.2500
v  -1.1771 0.8235 -10.4500
v  -0.5900 0.8000 7.7500
v  -1.1158 0.8937 6.9500
v  -2.5900 -1.7000 10.2500
v  -2.5900 -1.7000 7.7500
v  -1.8476 3.7502 6.9500
v  -1.8384 3.7436 -10.4500
v  -2.9999 0.7708 10.7035
v  2.9000 -3.8000 7.2500
v  -3.0000 -3.8000 7.3500
v  2.9000 -3.8000 7.2500
v  2.9000 -3.8000 -10.7500
v  2.9000 -3.2000 7.2500
v  2.9000 -3.2000 7.3500
v  2.9000 -3.2000 10.6500
v  2.9000 -3.8000 7.3500
v  2.9000 -3.2000 10.6500
v  -3.0000 -3.2000 10.6500
v  2.9000 -3.8000 10.6500
v  -3.0000 -3.8000 10.6500
v  2.9000 -3.8000 10.6500
v  2.9000 -3.2000 -10.7498
v  -3.0000 0.8000 7.2500
v  2.9000 -3.8000 -10.7500
v  2.9000 -3.8000 7.3500
v  -3.0000 -3.8000 10.6500
v  2.9323 0.7872 -10.6790
v  -1.0559 0.9692 -10.4500
# 56 vertices

vn 0.4570 0.7573 -0.4666
vn -0.5782 0.5770 -0.5769
vn -0.5759 0.5790 0.5771
vn -0.5761 -0.5752 -0.5807
vn -0.0000 -0.6759 -0.7370
vn 0.0000 -0.6886 0.7251
vn 0.5795 0.5710 -0.5814
vn 0.4573 -0.0382 -0.8885
vn -0.6991 -0.0341 -0.7142
vn -0.8897 -0.0001 0.4566
vn 0.7087 0.0000 0.7055
vn 0.5781 0.5743 0.5797
vn 0.5795 0.5710 -0.5814
vn -0.6991 -0.0341 -0.7142
vn -0.5768 0.5751 -0.5801
vn 0.5781 0.5743 0.5797
vn -0.5833 0.5640 0.5846
vn -0.8897 -0.0001 0.4566
vn 0.0000 -0.6886 0.7251
vn -0.5774 -0.5774 0.5773
vn -0.5761 -0.5752 -0.5807
vn -0.5759 0.5790 0.5771
vn 0.5805 0.5739 0.5777
vn 0.4570 0.7573 -0.4666
vn 0.6935 0.2207 -0.6858
vn 0.4544 0.0183 -0.8906
vn -0.5782 0.5770 -0.5769
vn 0.4565 -0.0019 0.8897
vn 0.4544 0.0183 -0.8906
vn 0.6935 0.2207 -0.6858
vn 0.5781 0.5743 0.5797
vn 0.5795 0.5710 -0.5814
vn -0.2965 0.9102 0.2890
vn 0.5795 0.5710 -0.5814
vn 0.5781 0.5743 0.5797
vn 0.7087 0.0000 0.7055
vn 0.6625 -0.4872 0.5689
vn 0.7716 -0.1629 -0.6148
vn 0.5012 0.6278 -0.5955
vn -0.5658 0.5908 0.5751
vn -0.5644 0.5924 -0.5749
vn -0.5739 -0.5814 -0.5767
vn -0.5759 0.5790 0.5771
vn 0.4565 -0.0019 0.8897
vn 0.5805 0.5739 0.5777
vn 0.6935 0.2207 -0.6858
vn 0.5805 0.5739 0.5777
vn 0.4565 -0.0019 0.8897
vn -0.5739 -0.5814 -0.5767
vn -0.5644 -0.5917 0.5757
vn -0.5658 0.5908 0.5751
vn 0.5012 0.6278 -0.5955
vn 0.5065 0.6245 0.5945
vn 0.6625 -0.4872 0.5689
vn 0.2742 0.9204 -0.2787
vn -0.3006 0.9175 -0.2605
vn -0.5774 0.5774 -0.5773
vn 0.2953 0.9052 0.3055
vn 0.2742 0.9204 -0.2787
vn 0.5773 0.5774 -0.5774
vn -0.3006 0.9175 -0.2605
vn -0.5833 0.5640 0.5846
vn 0.5781 0.5743 0.5797
vn -0.5833 0.5640 0.5846
vn -0.5768 0.5751 -0.5801
vn -0.6991 -0.0341 -0.7142
vn -0.5833 0.5640 0.5846
vn -0.6991 -0.0341 -0.7142
vn -0.8897 -0.0001 0.4566
vn 0.0000 -1.0000 -0.0000
vn -0.7251 -0.6886 0.0000
vn -0.5819 -0.5985 -0.5506
vn 0.7087 0.0000 0.7055
vn 0.4573 -0.0382 -0.8885
vn 0.5795 0.5710 -0.5814
vn 0.4544 0.0183 -0.8906
vn -0.5761 -0.5752 -0.5807
vn -0.5782 0.5770 -0.5769
vn -0.5782 0.5770 -0.5769
vn -0.5761 -0.5752 -0.5807
vn -0.5774 -0.5774 0.5773
vn 0.5773 0.5774 -0.5774
vn 0.5774 0.5774 0.5773
vn 0.2953 0.9052 0.3055
vn -0.5773 0.5774 0.5774
vn -0.5774 0.5774 -0.5773
vn -0.3006 0.9175 -0.2605
vn 0.5795 0.5710 -0.5814
vn -0.5768 0.5751 -0.5801
vn -0.2965 0.9102 0.2890
vn -0.2965 0.9102 0.2890
vn 0.2953 0.9052 0.3055
vn 0.5774 0.5774 0.5773
vn -0.5782 0.5770 -0.5769
vn -0.5774 -0.5774 0.5773
vn -0.5759 0.5790 0.5771
vn -0.5759 0.5790 0.5771
vn -0.5774 -0.5774 0.5773
vn 0.4565 -0.0019 0.8897
vn -0.5819 -0.5985 -0.5506
vn 0.0011 -0.7173 -0.6968
vn 0.0000 -1.0000 -0.0000
vn 0.0169 -0.7070 -0.7070
vn -0.0199 0.7070 -0.7070
vn 0.0199 0.7070 0.7070
vn -0.0199 0.7070 -0.7070
vn 0.0169 -0.7070 -0.7070
vn -0.0169 -0.7070 0.7070
vn 0.0199 0.7070 0.7070
vn -0.0169 -0.7070 0.7070
vn 0.0169 -0.7070 -0.7070
vn -0.0169 -0.7070 0.7070
vn 0.0199 0.7070 0.7070
vn -0.0199 0.7070 -0.7070
vn 0.5012 0.6278 -0.5955
vn 0.3363 -0.7055 -0.6239
vn -0.5739 -0.5814 -0.5767
vn -0.5644 -0.5917 0.5757
vn -0.5739 -0.5814 -0.5767
vn 0.3363 -0.7055 -0.6239
vn -0.3006 0.9175 -0.2605
vn -0.2965 0.9102 0.2890
vn -0.5773 0.5774 0.5774
vn -0.3006 0.9175 -0.2605
vn 0.5781 0.5743 0.5797
vn -0.2965 0.9102 0.2890
vn -0.5644 -0.5917 0.5757
vn 0.6625 -0.4872 0.5689
vn 0.5065 0.6245 0.5945
vn 0.3363 -0.7055 -0.6239
vn 0.6625 -0.4872 0.5689
vn -0.5644 -0.5917 0.5757
vn 0.5773 0.5774 -0.5774
vn -0.5774 0.5774 -0.5773
vn -0.5773 0.5774 0.5774
vn -0.5774 0.5774 -0.5773
vn 0.5773 0.5774 -0.5774
vn 0.2742 0.9204 -0.2787
vn 0.5774 0.5774 0.5773
vn -0.5773 0.5774 0.5774
vn -0.2965 0.9102 0.2890
vn -0.5773 0.5774 0.5774
vn 0.5774 0.5774 0.5773
vn 0.5773 0.5774 -0.5774
vn -0.5644 0.5924 -0.5749
vn -0.5658 0.5908 0.5751
vn 0.5065 0.6245 0.5945
vn -0.5658 0.5908 0.5751
vn -0.5644 -0.5917 0.5757
vn 0.5065 0.6245 0.5945
vn -0.5644 0.5924 -0.5749
vn 0.5012 0.6278 -0.5955
vn -0.5739 -0.5814 -0.5767
vn 0.5065 0.6245 0.5945
vn 0.5012 0.6278 -0.5955
vn -0.5644 0.5924 -0.5749
vn -0.3006 0.9175 -0.2605
vn 0.2742 0.9204 -0.2787
vn -0.5833 0.5640 0.5846
vn 0.2742 0.9204 -0.2787
vn 0.2953 0.9052 0.3055
vn -0.5833 0.5640 0.5846
vn -0.5774 -0.5774 0.5773
vn 0.0000 -0.6886 0.7251
vn 0.4565 -0.0019 0.8897
vn 0.0011 -0.7173 -0.6968
vn -0.5819 -0.5985 -0.5506
vn -0.6991 -0.0341 -0.7142
vn -0.6991 -0.0341 -0.7142
vn -0.5819 -0.5985 -0.5506
vn -0.8897 -0.0001 0.4566
vn 1.0000 0.0000 -0.0000
vn 1.0000 0.0000 -0.0000
vn 1.0000 0.0000 -0.0000
vn 1.0000 0.0000 -0.0000
vn 1.0000 0.0000 -0.0000
vn 1.0000 0.0000 -0.0000
vn 0.0000 0.0000 1.0000
vn 0.0000 0.0000 1.0000
vn 0.0000 0.0000 1.0000
vn 0.0000 0.0000 1.0000
vn 0.0000 0.0000 1.0000
vn 0.0000 0.0000 1.0000
vn 1.0000 0.0000 -0.0000
vn 1.0000 0.0000 -0.0000
vn 1.0000 0.0000 -0.0000
vn 1.0000 0.0000 -0.0000
vn 1.0000 0.0000 -0.0000
vn 1.0000 0.0000 -0.0000
vn -0.5768 0.5751 -0.5801
vn 0.2953 0.9052 0.3055
vn -0.2965 0.9102 0.2890
vn 0.2953 0.9052 0.3055
vn -0.5768 0.5751 -0.5801
vn -0.5833 0.5640 0.5846
vn 0.4544 0.0183 -0.8906
vn -0.0000 -0.6759 -0.7370
vn -0.5761 -0.5752 -0.5807
vn -0.6991 -0.0341 -0.7142
vn 0.4573 -0.0382 -0.8885
vn 0.0011 -0.7173 -0.6968
vn -0.5819 -0.5985 -0.5506
vn -0.7251 -0.6886 0.0000
vn -0.8897 -0.0001 0.4566
vn 0.5805 0.5739 0.5777
vn 0.6935 0.2207 -0.6858
vn 0.4570 0.7573 -0.4666
vn -0.5782 0.5770 -0.5769
vn 0.4570 0.7573 -0.4666
vn 0.6935 0.2207 -0.6858
vn 0.6625 -0.4872 0.5689
vn 0.3363 -0.7055 -0.6239
vn 0.7716 -0.1629 -0.6148
vn 0.5012 0.6278 -0.5955
vn 0.7716 -0.1629 -0.6148
vn 0.3363 -0.7055 -0.6239
# 216 vertex normals

vt 1.0000 0.0000 0.0000
vt 0.0000 1.0000 0.0000
vt 1.0000 1.0000 0.0000
vt 0.0000 0.0000 0.0000
vt 1.0000 0.0000 0.0000
vt 0.0000 1.0000 0.0000
vt 1.0000 1.0000 0.0000
vt 0.0000 0.0000 0.0000
vt 1.0000 0.0000 0.0000
vt 1.0000 1.0000 0.0000
vt 1.0000 0.0000 0.0000
vt 0.0000 0.0000 0.0000
vt 0.0000 1.0000 0.0000
vt 0.4097 -0.0034 0.8900
vt 0.0000 0.4294 0.8860
vt 0.7090 0.6778 0.8966
vt 1.0000 0.0000 0.0000
vt 1.0000 1.0000 0.0000
vt 0.0000 1.0000 0.0000
vt 0.0000 0.0000 0.0000
vt 1.0000 0.1984 0.0531
vt 1.0004 0.7797 0.9408
vt 0.0000 0.5127 0.4605
vt 0.0000 1.0000 0.0000
vt 0.0000 0.1333 0.0000
vt 0.0000 0.0000 0.0000
vt 1.0000 0.0000 0.0000
vt 1.0000 1.0000 0.0000
vt 0.9945 0.9922 0.0000
vt 0.0000 1.0000 0.0000
vt 0.0000 0.0000 0.0000
vt 0.9833 0.0000 0.0000
vt 0.9917 0.1304 0.0000
vt 1.0000 0.0000 0.0000
vt 1.0000 1.0000 0.0000
vt 0.0000 1.0000 0.0000
vt 0.0000 0.0000 0.0000
vt 1.0000 1.0000 0.0000
vt 0.0000 1.0000 0.0000
vt 0.0000 0.0000 0.0000
vt 1.0000 0.0000 0.0000
vt 0.0018 0.9917 0.0000
vt 0.0000 0.0000 0.0000
vt 1.0000 0.0000 0.0000
vt 1.0000 1.0000 0.0000
vt 0.2917 0.4667 0.5983
vt 0.7083 0.4667 0.5983
vt 0.7083 0.8833 0.5983
vt 0.2917 0.8833 0.5983
vt 0.0683 0.4667 0.7083
vt 0.0683 0.8833 0.7083
vt 0.2917 0.4667 0.9317
vt 0.2917 0.8833 0.9317
vt 0.9897 0.8749 0.2133
vt 0.7917 0.8773 0.0055
vt 0.7917 0.0101 0.8816
vt 0.0000 0.8778 0.2138
vt 0.2210 1.0000 0.8823
vt 0.7917 1.0000 0.8833
vt 0.7750 1.0000 0.1167
vt 0.7750 0.0167 0.1167
vt 0.2250 1.0000 0.1167
vt 0.2250 0.0167 0.1167
vt 0.4017 0.4667 0.7083
vt 0.4017 0.8833 0.7083
vt 0.7083 0.4667 0.9317
vt 0.7083 0.8833 0.9317
vt 0.9317 0.4667 0.2917
vt 0.9317 0.8833 0.2917
vt 0.5983 0.8833 0.2917
vt 0.5983 0.4667 0.2917
vt 0.2917 0.5983 0.4667
vt 0.7083 0.5983 0.4667
vt 0.7083 0.9317 0.4667
vt 0.2917 0.9317 0.4667
vt 0.2164 0.8756 0.0073
vt 0.2195 0.0115 0.8811
vt 0.2154 0.2167 0.0043
vt 0.9899 0.2167 0.2101
vt 0.0000 0.2167 0.2083
vt 0.2917 0.5983 0.8833
vt 0.2917 0.9317 0.8833
vt 0.7083 0.9317 0.8833
vt 0.7083 0.9317 0.8833
vt 0.7083 0.5983 0.8833
vt 0.7917 0.2167 0.0000
vt 0.0065 0.8776 0.7917
vt 0.0000 0.2167 0.7917
vt 1.0000 0.2167 0.7917
vt 1.0000 0.8833 0.7917
vt 1.0000 0.1167 0.7750
vt 1.0000 0.2167 0.7750
vt 0.0167 0.2167 0.7750
vt 0.0167 0.1167 0.7750
vt 0.2083 0.8833 1.0000
vt 0.2167 0.2167 1.0000
vt 0.2250 0.1167 1.0000
vt 0.7750 0.1167 1.0000
vt 0.7833 0.2167 1.0000
vt 0.7839 0.8785 1.0000
vt 1.0000 1.0000 0.0000
vt 0.0000 1.0000 0.0000
vt 0.0000 0.0000 0.0000
vt 1.0000 0.0000 0.0000
vt 1.0000 1.0000 0.0000
vt 0.0000 1.0000 0.0000
vt 0.0000 0.0000 0.0000
vt 1.0000 0.0000 0.0000
# 108 texture coords

o 对象001
g 对象001
usemtl 人造皮
s 1
f 55/34/1 1/35/2 8/36/3 
s 2
f 20/39/4 52/40/5 37/41/6 
usemtl 哑光木纹
s 8
f 10/87/7 5/88/8 18/89/9 
s 4
f 6/80/10 19/79/11 4/54/12 
s 8
f 10/87/13 18/89/14 51/90/15 
s 4
f 4/54/16 36/57/17 6/80/18 
usemtl 人造皮
s 2
f 37/41/19 23/38/20 20/39/21 
s 1
f 8/36/22 3/37/23 55/34/24 
f 2/24/25 9/25/26 1/28/27 
s 2
f 14/20/28 9/17/29 2/18/30 
usemtl 哑光木纹
s 4
f 4/77/31 10/56/32 30/85/33 
f 10/55/34 4/76/35 19/78/36 
usemtl 棉布
s 2
f 31/1/37 56/1/38 35/1/39 
s 1
f 15/1/40 13/1/41 11/1/42 
usemtl 人造皮
s 8
f 8/30/43 14/33/44 3/29/45 
s 2
f 2/18/46 3/19/47 14/20/48 
usemtl 棉布
s 1
f 11/1/49 12/1/50 15/1/51 
s 2
f 35/1/52 34/1/53 31/1/54 
usemtl 哑光木纹
f 16/69/55 7/70/56 21/71/57 
s 1
f 22/67/58 16/53/59 32/52/60 
s 4
f 7/81/61 36/58/62 4/77/63 
s 16
f 36/100/64 51/95/65 18/96/66 
f 36/100/67 18/96/68 6/99/69 
s 1
f 24/61/70 54/60/71 38/62/72 
s 4
f 19/78/73 5/86/74 10/55/75 
usemtl 人造皮
s 1
f 9/25/76 20/27/77 1/28/78 
s 16
f 1/42/79 20/43/80 23/44/81 
usemtl 哑光木纹
s 1
f 32/52/82 33/66/83 22/67/84 
f 17/46/85 21/47/86 7/48/87 
s 4
f 10/56/88 51/59/89 30/85/90 
s 2
f 30/65/91 22/51/92 33/50/93 
usemtl 人造皮
s 16
f 1/42/94 23/44/95 8/45/96 
s 8
f 8/30/97 23/31/98 14/33/99 
usemtl 哑光木纹
s 1
f 38/62/100 53/63/101 24/61/102 
usemtl 09___Default
f 25/104/103 26/101/104 27/102/105 
f 26/106/106 25/107/107 28/108/108 
f 27/102/109 28/103/110 25/104/111 
f 28/108/112 27/105/113 26/106/114 
usemtl 棉布
s 4
f 35/1/115 29/1/116 11/1/117 
s 2
f 12/1/118 11/1/119 29/1/120 
usemtl 哑光木纹
s 1
f 7/48/121 30/49/122 17/46/123 
s 4
f 7/81/124 4/77/125 30/85/126 
usemtl 棉布
f 12/1/127 31/1/128 34/1/129 
s 2
f 29/1/130 31/1/131 12/1/132 
usemtl 哑光木纹
s 4
f 32/75/133 21/72/134 17/73/135 
s 2
f 21/71/136 32/68/137 16/69/138 
f 33/50/139 17/64/140 30/65/141 
s 4
f 17/73/142 33/74/143 32/75/144 
usemtl 棉布
s 2
f 13/1/145 15/1/146 34/1/147 
s 4
f 15/1/148 12/1/149 34/1/150 
f 13/1/151 35/1/152 11/1/153 
s 2
f 34/1/154 35/1/155 13/1/156 
usemtl 哑光木纹
s 4
f 7/81/157 16/82/158 36/58/159 
f 16/82/160 22/83/161 36/58/162 
usemtl 人造皮
s 8
f 23/31/163 37/32/164 14/33/165 
usemtl 哑光木纹
s 2
f 53/94/166 38/91/167 18/92/168 
s 16
f 18/96/169 38/97/170 6/99/171 
usemtl 拉丝不锈钢
f 50/10/172 41/13/173 39/12/174 
s 4
f 49/8/175 44/9/176 42/7/177 
s 2
f 48/4/178 47/5/179 45/3/180 
f 45/3/181 46/2/182 48/4/183 
s 4
f 42/7/184 43/6/185 49/8/186 
s 16
f 39/12/187 40/11/188 50/10/189 
usemtl 哑光木纹
s 4
f 51/59/190 22/84/191 30/85/192 
f 22/83/193 51/59/194 36/58/195 
usemtl 人造皮
s 1
f 9/25/196 52/26/197 20/27/198 
usemtl 哑光木纹
s 2
f 18/92/199 5/93/200 53/94/201 
s 16
f 38/97/202 54/98/203 6/99/204 
usemtl 人造皮
s 4
f 3/23/205 2/21/206 55/22/207 
f 1/16/208 55/14/209 2/15/210 
usemtl 棉布
s 2
f 31/1/211 29/1/212 56/1/213 
s 4
f 35/1/214 56/1/215 29/1/216 
# 0 polygons - 72 triangles

