mtllib decoration0003.mtl
# File exported by Houdini 18.5.351 (www.sidefx.com)
# 13 points
# 60 vertices
# 20 primitives
# Bounds: [-0.11898376, -0.594818652, -0.39199999] to [0.119016245, 0.595181406, 0.39199999]
g 
usemtl decoration0003
v -0.119 0.588 -0.390
v -0.119 0.588 0.390
v -0.119 0.590 0.392
v -0.119 0.590 -0.392
v -0.090 0.594 0.390
v -0.090 0.595 -0.392
v -0.089 0.593 -0.390
v 0.119 -0.589 0.390
v 0.119 -0.589 -0.390
v 0.090 -0.595 0.392
v 0.090 -0.595 -0.392
v 0.089 -0.594 -0.390
v 0.089 -0.594 0.390
vt -0.001 0.999
vt 0.914 1.000
vt 0.000 1.000
vt 0.915 0.999
vt 0.000 0.976
vt 0.915 0.976
vt 0.914 0.975
vt 0.000 0.025
vt 0.914 0.025
vt -0.001 0.002
vt 0.915 0.002
vt 0.914 0.000
vt 0.000 0.000
vt 0.920 0.001
vt 0.920 0.999
vt 0.918 0.002
vt 0.918 0.998
vt 0.956 0.002
vt 0.956 0.999
vt 1.000 0.002
vt 1.000 0.998
vt 0.998 0.001
vt 0.999 0.999
vt 0.961 0.998
vt 0.962 0.002
vt 0.963 1.000
vn -0.971 -0.018 0.239
vn -0.972 -0.018 -0.233
vn -0.971 -0.014 0.238
vn -0.972 -0.018 -0.233
vn -0.971 -0.018 0.239
vn -0.974 -0.022 -0.226
vn -0.147 0.989 0.000
vn -0.161 0.987 0.000
vn -0.161 0.987 0.000
vn -0.175 0.985 0.001
vn -0.161 0.987 0.000
vn -0.161 0.987 0.000
vn 0.917 0.319 -0.238
vn 0.985 0.174 0.000
vn 0.985 0.174 0.000
vn 0.985 0.174 0.000
vn 0.985 0.174 0.000
vn 0.985 0.174 0.000
vn 0.985 0.174 -0.001
vn 0.985 0.174 0.000
vn 0.985 0.174 0.000
vn 0.198 -0.980 0.000
vn 0.199 -0.980 0.000
vn 0.199 -0.980 0.000
vn 0.200 -0.980 0.000
vn 0.199 -0.980 0.000
vn 0.199 -0.980 0.000
vn -0.917 -0.266 -0.297
vn -0.910 -0.382 0.162
vn -0.912 -0.374 -0.167
vn -0.916 -0.259 0.307
vn -0.912 -0.374 -0.167
vn -0.910 -0.382 0.162
vn -0.910 -0.382 0.162
vn -0.971 -0.018 0.239
vn -0.916 -0.259 0.307
vn -0.971 -0.014 0.238
vn -0.916 -0.259 0.307
vn -0.971 -0.018 0.239
vn 0.039 0.007 0.999
vn 0.042 0.007 0.999
vn 0.039 0.007 0.999
vn 0.037 0.006 0.999
vn 0.039 0.007 0.999
vn 0.039 0.007 0.999
vn -0.912 -0.374 -0.167
vn -0.972 -0.018 -0.233
vn -0.917 -0.266 -0.297
vn -0.974 -0.022 -0.226
vn -0.917 -0.266 -0.297
vn -0.972 -0.018 -0.233
vn 0.985 0.174 0.000
vn 0.985 0.174 -0.001
vn 0.917 0.319 -0.238
vn -0.005 -0.001 -1.000
vn 0.019 0.003 -1.000
vn 0.019 0.003 -1.000
vn 0.019 0.003 -1.000
vn 0.042 0.006 -0.999
vn 0.019 0.003 -1.000
g 
usemtl decoration0003
f 3/1/1 1/2/2 2/3/3
f 1/2/4 3/1/5 4/4/6
f 3/1/7 5/5/8 4/4/9
f 6/6/10 4/4/11 5/5/12
f 6/6/13 5/5/14 7/7/15
f 5/5/16 8/8/17 7/7/18
f 9/9/19 7/7/20 8/8/21
f 8/8/22 10/10/23 9/9/24
f 11/11/25 9/9/26 10/10/27
f 11/11/28 10/10/29 12/12/30
f 13/13/31 12/12/32 10/10/33
f 10/14/34 3/15/35 13/16/36
f 2/17/37 13/16/38 3/15/39
f 8/18/40 5/19/41 3/15/42
f 10/14/43 8/18/44 3/15/45
f 12/20/46 1/21/47 11/22/48
f 4/23/49 11/22/50 1/21/51
f 7/24/52 9/25/53 6/26/54
f 4/23/55 6/26/56 11/22/57
f 6/26/58 9/25/59 11/22/60
