mtllib TT0006.mtl
# File exported by Houdini 18.5.351 (www.sidefx.com)
# 95 points
# 534 vertices
# 178 primitives
# Bounds: [-0.686999798, -0.150169894, -0.701999962] to [0.687000096, 0.149830118, 0.702000082]
g 
usemtl TT0006
v 0.684 0.056 0.497
v 0.680 0.144 0.658
v 0.682 0.149 0.700
v -0.685 0.149 -0.484
v -0.686 0.057 -0.650
v -0.686 0.056 0.700
v -0.687 0.149 0.700
v 0.684 -0.016 0.700
v 0.685 -0.012 0.660
v -0.684 -0.016 -0.486
v -0.684 -0.016 0.700
v -0.685 0.148 0.700
v -0.687 0.149 0.700
v 0.682 0.148 0.702
v 0.682 0.149 0.702
v -0.686 0.058 -0.649
v -0.683 -0.016 -0.487
v -0.684 0.150 -0.479
v -0.685 0.149 -0.482
v -0.685 0.150 -0.480
v -0.685 0.150 0.701
v -0.687 0.149 0.700
v -0.686 0.150 0.700
v -0.687 0.150 0.700
v -0.684 -0.016 -0.485
v -0.684 -0.017 0.701
v -0.684 -0.017 0.701
v 0.683 -0.017 0.702
v 0.683 -0.017 0.701
v -0.686 0.056 -0.649
v -0.686 0.150 -0.481
v -0.686 0.149 -0.482
v 0.684 -0.017 0.660
v -0.684 -0.017 0.701
v -0.682 -0.022 -0.490
v -0.686 0.051 -0.652
v -0.685 0.052 -0.700
v -0.684 -0.116 -0.701
v -0.685 -0.116 -0.652
v 0.683 0.051 0.494
v 0.684 0.050 0.492
v 0.684 0.053 -0.699
v -0.683 -0.117 -0.653
v 0.685 -0.118 -0.702
v 0.685 -0.118 -0.701
v 0.683 0.052 0.489
v 0.684 -0.022 0.654
v 0.685 -0.116 0.491
v -0.684 -0.117 -0.648
v 0.684 0.052 0.490
v 0.684 0.052 0.490
v 0.685 0.052 -0.700
v 0.684 -0.116 0.487
v 0.686 -0.118 0.488
v 0.685 -0.117 -0.699
v 0.685 -0.119 -0.701
v 0.685 -0.119 -0.701
v 0.685 0.053 -0.699
v 0.685 0.053 -0.699
v 0.686 0.052 -0.699
v -0.685 0.053 -0.701
v -0.685 0.053 -0.701
v 0.683 0.053 -0.700
v 0.683 0.053 -0.701
v -0.685 0.053 -0.702
v 0.682 0.052 0.490
v -0.685 0.053 -0.652
v -0.685 0.052 -0.648
v -0.683 -0.118 -0.700
v 0.684 -0.118 0.490
v -0.683 -0.017 -0.482
v -0.684 -0.016 0.702
v -0.685 -0.017 0.701
v -0.685 0.150 0.701
v 0.682 0.149 0.702
v 0.682 0.149 0.702
v 0.682 0.150 0.701
v -0.685 -0.017 0.700
v -0.686 -0.017 0.700
v -0.686 -0.017 0.700
v 0.683 -0.017 0.701
v 0.687 -0.118 -0.700
v 0.687 -0.118 -0.700
v -0.683 -0.118 -0.701
v -0.683 -0.118 -0.701
v 0.687 -0.118 -0.699
v 0.687 -0.119 -0.699
v 0.381 -0.150 0.619
v 0.383 -0.150 -0.635
v 0.382 -0.028 -0.634
v 0.380 -0.028 0.619
v -0.328 -0.148 0.618
v -0.329 -0.026 0.618
v -0.327 -0.026 -0.635
v -0.326 -0.148 -0.635
vt 0.130 0.974
vt 0.181 0.951
vt 0.193 0.950
vt 0.052 0.014
vt 0.000 0.042
vt 0.400 0.033
vt 0.401 0.005
vt 0.188 0.999
vt 0.176 0.998
vt 0.048 0.063
vt 0.398 0.054
vt 0.695 0.671
vt 0.696 0.672
vt 0.695 0.672
vt 0.790 0.024
vt 0.149 0.761
vt 0.150 0.760
vt 0.903 0.146
vt 0.903 0.145
vt 0.442 0.962
vt 0.441 0.963
vt 0.588 0.568
vt 0.589 0.556
vt 0.902 0.549
vt 0.038 0.980
vt 0.001 0.938
vt 0.992 0.011
vt 0.993 0.012
vt 0.466 0.001
vt 0.000 0.100
vt 0.001 0.100
vt 0.502 0.056
vt 0.993 0.905
vt 0.993 0.906
vt 0.895 0.097
vt 0.917 0.048
vt 0.917 0.034
vt 0.867 0.033
vt 0.867 0.048
vt 0.108 0.729
vt 0.108 0.728
vt 0.352 0.219
vt 0.351 0.219
vt 0.396 1.000
vt 0.000 0.384
vt 0.000 0.383
vt 0.001 0.169
vt 0.352 0.169
vt 0.395 0.284
vt 0.001 0.228
vt 0.405 0.227
vt 0.400 0.298
vt 0.401 0.298
vt 0.400 0.299
vt 0.867 0.049
vt 0.124 0.776
vt 0.482 0.594
vt 0.496 0.599
vt 0.496 0.600
vt 0.414 0.345
vt 0.049 0.890
vt 0.481 0.595
vt 0.405 1.000
vt 0.404 1.000
vt 0.000 0.938
vt 0.992 0.012
vt 0.992 0.556
vt 0.443 0.962
vt 0.968 0.960
vt 0.977 0.949
vt 0.149 0.760
vt 0.402 0.005
vt 0.513 0.429
vt 0.512 0.429
vt 0.512 0.430
vt 0.399 0.054
vt 0.932 0.996
vt 0.000 0.153
vt 0.502 0.108
vt 0.050 0.890
vt 0.001 0.220
vt 0.001 0.219
vt 0.405 0.277
vt 0.001 0.278
vt 0.001 0.229
vt 0.000 0.219
vt 0.050 0.891
vt 0.405 0.278
vt 0.001 0.279
vt 0.001 0.874
vt 0.434 0.581
vt 0.875 0.082
vt 0.506 0.082
vt 0.506 0.118
vt 0.875 0.118
vt 0.993 0.179
vt 0.957 0.179
vt 0.957 0.549
vt 0.993 0.549
vt 0.419 0.125
vt 0.419 0.333
vt 0.790 0.333
vt 0.790 0.125
vt 0.494 0.638
vt 0.494 0.847
vt 0.530 0.847
vt 0.530 0.638
vt 0.518 0.340
vt 0.518 0.549
vt 0.887 0.549
vt 0.887 0.340
vt 0.000 0.630
vt 0.000 0.839
vt 0.036 0.839
vt 0.036 0.630
vt 0.952 0.145
vt 0.952 0.146
vt 0.951 0.549
vt 0.400 0.191
vn 1.000 0.029 -0.001
vn 0.979 0.189 -0.078
vn 1.000 0.023 0.000
vn -1.000 -0.001 -0.001
vn -1.000 -0.010 0.000
vn -1.000 -0.014 0.000
vn -1.000 -0.014 0.000
vn -1.000 -0.014 -0.002
vn -1.000 -0.001 -0.001
vn 1.000 0.015 0.009
vn 0.995 0.094 0.040
vn 1.000 0.029 -0.001
vn -1.000 -0.031 0.000
vn -1.000 -0.025 -0.002
vn -1.000 -0.014 0.000
vn -1.000 -0.014 0.000
vn -1.000 -0.010 0.000
vn -1.000 -0.031 0.000
vn 0.042 0.007 0.999
vn 0.000 0.000 1.000
vn -0.013 0.349 0.937
vn -0.090 0.066 0.994
vn -0.013 0.349 0.937
vn 0.000 0.000 1.000
vn -0.056 0.116 0.992
vn -0.068 0.101 0.993
vn 0.000 0.000 1.000
vn 0.924 0.008 0.383
vn 1.000 0.023 0.000
vn 0.923 0.108 0.369
vn -0.996 -0.081 0.036
vn -0.996 -0.072 0.044
vn -1.000 -0.025 -0.002
vn 0.948 -0.214 0.235
vn 0.947 -0.254 0.197
vn 1.000 0.015 0.009
vn -0.950 0.313 -0.001
vn -0.801 0.599 -0.001
vn -0.897 0.443 -0.001
vn -0.897 0.443 -0.001
vn -0.969 0.248 -0.001
vn -0.950 0.313 -0.001
vn -1.000 -0.014 -0.002
vn -0.950 0.313 -0.001
vn -0.969 0.248 -0.001
vn -0.622 -0.783 -0.001
vn -0.622 -0.783 -0.001
vn -0.622 -0.783 -0.001
vn 0.989 -0.149 0.016
vn 0.995 0.094 0.040
vn 1.000 0.015 0.009
vn 0.000 -0.770 0.638
vn 0.000 -0.693 0.721
vn 0.000 -0.694 0.720
vn 0.000 -0.694 0.720
vn 0.000 -0.833 0.553
vn 0.000 -0.770 0.638
vn -0.872 -0.451 -0.190
vn -1.000 -0.031 0.000
vn -0.872 -0.451 -0.190
vn 0.329 -0.858 -0.393
vn 0.566 -0.472 -0.676
vn 0.320 -0.867 -0.381
vn -0.374 -0.868 0.326
vn -0.313 -0.872 0.376
vn -0.313 -0.872 0.376
vn 0.513 -0.811 -0.281
vn 0.367 -0.802 -0.472
vn 0.312 -0.876 -0.369
vn 0.637 -0.121 -0.761
vn 0.637 -0.121 -0.761
vn 0.637 -0.121 -0.761
vn -1.000 -0.012 0.009
vn -1.000 -0.028 0.004
vn -1.000 -0.014 0.009
vn -1.000 -0.001 0.008
vn -1.000 0.014 0.008
vn -1.000 -0.012 0.009
vn -0.534 0.553 0.640
vn -0.290 0.843 0.454
vn -0.221 0.975 0.003
vn -0.534 0.553 0.640
vn -0.221 0.975 0.003
vn -0.305 0.952 0.001
vn -0.391 -0.792 0.469
vn -0.760 -0.649 0.001
vn -0.723 -0.691 0.001
vn 0.973 -0.201 -0.110
vn 0.973 -0.201 -0.110
vn 1.000 0.001 -0.006
vn -0.305 0.953 0.001
vn -0.001 1.000 0.001
vn -0.305 0.952 0.001
vn -0.305 0.952 0.001
vn -0.221 0.975 0.003
vn -0.305 0.953 0.001
vn 0.513 0.858 0.001
vn 0.428 0.904 0.001
vn 0.433 0.901 0.001
vn 0.433 0.901 0.001
vn 0.558 0.830 0.001
vn 0.513 0.858 0.001
vn 0.677 0.736 0.001
vn 0.513 0.858 0.001
vn 0.558 0.830 0.001
vn 0.901 -0.433 0.001
vn 1.000 -0.009 0.001
vn 0.895 -0.445 0.001
vn 1.000 0.010 0.002
vn 0.895 -0.445 0.001
vn 1.000 -0.009 0.001
vn 0.000 0.833 -0.553
vn 0.000 0.884 -0.468
vn 0.001 0.884 -0.468
vn 0.001 0.884 -0.468
vn 0.000 0.803 -0.596
vn 0.000 0.833 -0.553
vn 0.000 0.693 -0.721
vn 0.000 0.833 -0.553
vn 0.000 0.803 -0.596
vn 0.001 -0.560 -0.828
vn 0.000 -0.774 -0.633
vn 0.000 -0.774 -0.633
vn -0.576 0.439 0.690
vn -0.560 0.487 0.670
vn -0.560 0.487 0.670
vn 0.328 0.860 -0.392
vn 0.257 0.917 -0.306
vn 0.328 0.860 -0.392
vn 0.328 0.860 -0.392
vn 0.374 0.813 -0.447
vn 0.328 0.860 -0.392
vn -1.000 0.014 0.008
vn -0.398 -0.783 0.477
vn -1.000 -0.012 0.009
vn 0.770 0.583 0.260
vn 0.770 0.583 0.260
vn 1.000 0.011 0.002
vn -0.001 -1.000 0.003
vn 0.099 -0.988 -0.120
vn -0.003 -0.962 0.275
vn -1.000 -0.001 0.008
vn -0.881 -0.472 0.003
vn -0.882 -0.471 0.008
vn -0.939 0.304 0.161
vn -1.000 -0.028 0.004
vn -0.939 0.304 0.161
vn -0.579 -0.425 0.696
vn -0.391 -0.792 0.469
vn -0.398 -0.783 0.477
vn 0.221 -0.938 -0.266
vn 0.099 -0.988 -0.120
vn 0.344 -0.844 -0.413
vn 0.374 0.812 -0.447
vn -0.179 0.862 -0.474
vn 0.370 0.818 -0.440
vn -0.139 -0.907 -0.399
vn -0.139 -0.907 -0.399
vn 0.367 -0.802 -0.472
vn 0.615 0.288 -0.734
vn 0.615 0.288 -0.734
vn 0.372 0.816 -0.442
vn 1.000 0.023 0.000
vn 1.000 0.015 0.009
vn 1.000 0.029 -0.001
vn -0.001 -1.000 0.002
vn -0.001 -1.000 0.001
vn 0.000 -1.000 0.001
vn 0.000 -1.000 0.001
vn 0.000 -0.999 0.032
vn -0.001 -1.000 0.002
vn 0.366 0.870 -0.330
vn 0.133 0.979 -0.153
vn 0.329 0.860 -0.390
vn 0.001 0.009 1.000
vn -0.027 -0.235 0.972
vn 0.000 -0.001 1.000
vn 0.366 0.870 -0.330
vn 0.333 0.785 -0.521
vn 0.133 0.979 -0.153
vn 0.292 0.914 -0.281
vn 0.563 0.827 0.000
vn 0.366 0.870 -0.330
vn 0.370 0.818 -0.440
vn 0.292 0.914 -0.281
vn 0.366 0.870 -0.330
vn -0.927 -0.006 -0.376
vn -0.992 0.108 0.060
vn -0.992 0.108 0.060
vn -0.068 0.101 0.993
vn -0.090 0.066 0.994
vn 0.000 0.000 1.000
vn 0.923 0.108 0.369
vn 1.000 0.023 0.000
vn 0.803 0.419 0.424
vn 0.759 0.525 0.385
vn 0.803 0.419 0.424
vn 1.000 0.023 0.000
vn 0.695 0.636 0.336
vn 0.759 0.525 0.385
vn 0.695 0.636 0.336
vn -0.996 -0.072 0.044
vn -0.997 -0.062 0.053
vn -1.000 -0.025 -0.002
vn -0.423 -0.808 -0.410
vn -0.001 -1.000 0.002
vn -0.423 -0.808 -0.410
vn -0.048 -0.072 0.996
vn -0.040 -0.082 0.996
vn 0.319 0.001 0.948
vn -0.056 -0.061 0.997
vn -0.048 -0.072 0.996
vn 0.319 0.001 0.948
vn 0.947 -0.254 0.197
vn 0.943 -0.292 0.161
vn 1.000 0.015 0.009
vn 0.370 0.818 -0.440
vn 0.366 0.870 -0.330
vn 0.329 0.860 -0.390
vn 0.800 0.600 0.001
vn 0.800 0.600 0.001
vn 0.800 0.600 0.001
vn -0.553 0.833 -0.001
vn -0.427 0.904 0.000
vn -0.214 0.977 0.001
vn -0.961 0.278 -0.001
vn -0.909 0.417 -0.001
vn -0.961 0.278 -0.001
vn -0.801 0.599 -0.001
vn -0.553 0.833 -0.001
vn -0.909 0.417 -0.001
vn 0.366 0.870 -0.330
vn 0.563 0.827 0.000
vn 0.563 0.827 0.001
vn 0.000 0.710 -0.704
vn 0.003 1.000 -0.003
vn 0.000 0.710 -0.704
vn 0.000 0.710 -0.704
vn 0.000 0.542 -0.840
vn 0.000 0.710 -0.704
vn 0.000 0.833 0.554
vn 0.000 0.883 0.469
vn 0.000 0.883 0.469
vn 0.000 0.883 0.469
vn 0.000 0.803 0.596
vn 0.000 0.833 0.554
vn -0.001 0.556 0.831
vn 0.000 0.833 0.554
vn 0.000 0.803 0.596
vn -0.001 -0.736 0.677
vn -0.001 -0.736 0.677
vn -0.001 -0.736 0.677
vn -0.001 0.259 0.966
vn -0.001 0.556 0.831
vn 0.000 0.000 1.000
vn -0.002 -0.011 1.000
vn -0.001 0.259 0.966
vn 0.000 0.000 1.000
vn 0.000 0.000 1.000
vn 0.042 0.007 0.999
vn 0.196 0.002 0.981
vn -0.433 0.901 0.000
vn -0.433 0.901 0.000
vn -0.433 0.901 0.000
vn -0.551 -0.835 -0.002
vn -0.677 -0.736 -0.002
vn -0.374 -0.868 0.326
vn -0.922 0.387 -0.001
vn -0.922 0.387 -0.001
vn -0.922 0.387 -0.001
vn -0.428 -0.904 -0.001
vn -0.551 -0.835 -0.002
vn -0.404 -0.915 0.000
vn 0.784 -0.621 0.000
vn 0.784 -0.621 0.000
vn 0.513 -0.811 -0.281
vn -0.404 -0.915 0.000
vn -0.001 -1.000 0.001
vn -0.001 -1.000 0.002
vn 0.000 0.868 0.497
vn 0.000 0.868 0.497
vn 0.000 0.868 0.497
vn -0.027 -0.235 0.972
vn 0.000 -0.020 1.000
vn 0.000 -0.020 1.000
vn 0.000 -0.884 0.468
vn 0.000 -0.770 0.638
vn 0.000 -0.833 0.553
vn 0.000 -0.833 0.553
vn 0.000 -0.884 0.468
vn 0.000 -0.884 0.468
vn 0.000 -0.554 -0.832
vn 0.000 -0.542 -0.841
vn 0.000 -0.554 -0.832
vn 0.000 -0.554 -0.832
vn 0.000 -0.566 -0.824
vn 0.000 -0.554 -0.832
vn -1.000 -0.025 -0.002
vn -0.926 -0.006 -0.377
vn -0.927 -0.006 -0.376
vn 0.000 0.000 1.000
vn 0.196 0.002 0.981
vn 0.319 0.001 0.948
vn 0.265 -0.910 -0.317
vn 0.513 -0.811 -0.281
vn 0.000 -1.000 0.001
vn -0.001 1.000 0.002
vn -0.001 1.000 0.002
vn 0.003 1.000 -0.003
vn 0.003 1.000 -0.003
vn 0.329 0.860 -0.390
vn 0.133 0.979 -0.153
vn 0.372 0.816 -0.442
vn 0.374 0.812 -0.447
vn 0.370 0.818 -0.440
vn 0.370 0.818 -0.440
vn 0.329 0.860 -0.390
vn 0.372 0.816 -0.442
vn 0.320 -0.868 -0.380
vn 0.329 -0.858 -0.393
vn 0.320 -0.867 -0.381
vn 0.320 -0.867 -0.381
vn 0.312 -0.876 -0.369
vn 0.320 -0.868 -0.380
vn -1.000 -0.014 0.009
vn -1.000 -0.001 0.008
vn -1.000 -0.012 0.009
vn -0.001 -1.000 0.003
vn 0.000 -1.000 0.027
vn -0.001 -1.000 0.003
vn -0.001 -1.000 0.003
vn -0.001 -1.000 0.002
vn -0.001 -1.000 0.003
vn -1.000 -0.028 0.004
vn -0.893 0.451 -0.010
vn -1.000 -0.014 0.009
vn 0.156 0.970 -0.185
vn 0.001 1.000 -0.001
vn 0.035 0.999 -0.040
vn 0.999 -0.048 0.002
vn 1.000 0.013 0.002
vn 1.000 0.013 0.002
vn -0.001 0.008 -1.000
vn 0.030 -0.240 -0.970
vn 0.000 0.006 -1.000
vn -0.947 0.282 -0.156
vn -0.951 0.244 -0.190
vn -1.000 -0.014 0.009
vn -0.951 0.244 -0.190
vn -0.953 0.205 -0.224
vn -1.000 -0.014 0.009
vn 0.748 0.662 0.046
vn 0.748 0.662 0.046
vn 0.257 0.917 -0.306
vn 0.017 0.549 -0.836
vn 0.094 0.562 -0.822
vn 0.296 0.031 -0.955
vn 0.094 0.562 -0.822
vn 0.368 0.557 -0.745
vn 0.296 0.031 -0.955
vn 0.368 0.557 -0.745
vn 0.479 0.520 -0.707
vn 0.296 0.031 -0.955
vn 0.596 0.798 0.088
vn 0.617 0.783 -0.078
vn 0.001 0.919 0.393
vn 0.610 0.702 -0.368
vn 0.001 0.884 -0.468
vn 0.617 0.783 -0.078
vn -1.000 -0.001 0.008
vn -0.809 -0.520 -0.273
vn -0.810 -0.523 -0.264
vn -1.000 -0.001 0.008
vn -0.810 -0.523 -0.264
vn -0.881 -0.472 0.003
vn 0.419 -0.757 -0.502
vn 1.000 0.013 0.002
vn 0.882 -0.409 -0.232
vn -0.675 -0.738 0.000
vn -0.354 -0.749 -0.561
vn -0.354 -0.749 -0.561
vn -0.033 0.495 -0.868
vn 0.072 -0.075 -0.995
vn 0.072 -0.075 -0.995
vn 0.000 0.723 0.691
vn -0.001 0.571 0.821
vn -0.001 0.571 0.821
vn -0.001 1.000 0.001
vn 0.001 0.919 0.393
vn 0.000 0.723 0.691
vn 0.000 -0.883 -0.469
vn 0.000 -0.774 -0.633
vn 0.000 -0.774 -0.633
vn -0.534 0.553 0.640
vn -0.560 0.487 0.670
vn -0.560 0.487 0.670
vn 0.885 -0.466 0.002
vn 0.999 -0.048 0.002
vn 1.000 0.013 0.002
vn 0.682 -0.732 0.002
vn 0.885 -0.466 0.002
vn 0.682 -0.732 0.002
vn 0.889 0.458 0.000
vn 0.889 0.458 0.000
vn 0.889 0.458 0.000
vn -0.675 -0.738 0.000
vn -0.675 -0.738 0.000
vn -0.723 -0.691 0.001
vn -0.723 -0.691 0.001
vn -0.760 -0.649 0.001
vn -0.760 -0.650 0.000
vn -0.001 -0.960 0.281
vn -0.001 -1.000 0.003
vn -0.003 -0.962 0.275
vn 0.001 0.675 -0.738
vn 0.001 0.563 -0.827
vn -0.033 0.495 -0.868
vn 0.001 0.747 -0.665
vn 0.001 0.747 -0.665
vn 0.001 0.675 -0.738
vn -0.001 -0.945 -0.326
vn -0.001 -0.883 -0.469
vn -0.001 -0.883 -0.469
vn -0.001 -0.883 -0.469
vn -0.001 -0.962 -0.274
vn -0.001 -0.945 -0.326
vn 0.000 -1.000 0.027
vn -0.001 -0.945 -0.326
vn -0.001 -0.962 -0.274
vn 0.000 -0.559 0.829
vn 0.000 -0.559 0.829
vn 0.000 -0.559 0.829
vn 0.419 -0.757 -0.502
vn 0.344 -0.844 -0.413
vn 0.418 -0.757 -0.502
vn 0.099 -0.988 -0.120
vn -0.001 -1.000 0.003
vn -0.001 -1.000 0.002
vn 0.000 1.000 -0.001
vn 0.035 0.999 -0.040
vn 0.001 1.000 -0.001
vn 0.001 1.000 -0.001
vn -0.001 1.000 0.001
vn 0.000 1.000 -0.001
vn -0.334 0.853 0.400
vn -0.330 0.858 0.393
vn -0.334 0.853 0.400
vn -0.334 0.853 0.400
vn -0.339 0.848 0.407
vn -0.334 0.853 0.400
vn -0.391 -0.792 0.469
vn -0.385 -0.800 0.460
vn -0.390 -0.793 0.467
vn -0.390 -0.793 0.467
vn -0.398 -0.783 0.477
vn -0.391 -0.792 0.469
vn 1.000 0.010 0.002
vn 1.000 0.010 0.002
vn 1.000 0.010 0.002
vn 1.000 0.010 0.002
vn 1.000 0.010 0.002
vn 1.000 0.010 0.002
vn -1.000 -0.010 -0.002
vn -1.000 -0.010 -0.002
vn -1.000 -0.010 -0.002
vn -1.000 -0.010 -0.002
vn -1.000 -0.010 -0.002
vn -1.000 -0.010 -0.002
vn -0.003 -1.000 0.000
vn -0.003 -1.000 0.000
vn -0.003 -1.000 0.000
vn -0.003 -1.000 0.000
vn -0.003 -1.000 0.000
vn -0.003 -1.000 0.000
vn 0.001 0.001 -1.000
vn 0.001 0.001 -1.000
vn 0.001 0.001 -1.000
vn 0.001 0.001 -1.000
vn 0.001 0.001 -1.000
vn 0.001 0.001 -1.000
vn 0.003 1.000 0.000
vn 0.003 1.000 0.000
vn 0.003 1.000 0.000
vn 0.003 1.000 0.000
vn 0.003 1.000 0.000
vn 0.003 1.000 0.000
vn -0.001 -0.001 1.000
vn -0.001 -0.001 1.000
vn -0.001 -0.001 1.000
vn -0.001 -0.001 1.000
vn -0.001 -0.001 1.000
vn -0.001 -0.001 1.000
vn -0.001 1.000 0.002
vn -0.214 0.977 0.001
vn -0.001 1.000 0.002
vn -0.027 -0.235 0.972
vn 0.001 0.009 1.000
vn 0.000 0.000 1.000
vn 1.000 0.023 0.000
vn 0.924 0.008 0.383
vn 1.000 0.015 0.009
vn 0.030 -0.240 -0.970
vn -0.001 0.008 -1.000
vn 0.296 0.031 -0.955
vn 1.000 0.001 -0.006
vn 1.000 0.001 -0.005
vn 1.000 0.010 0.002
vn -0.001 0.007 -1.000
vn -0.238 -0.004 -0.971
vn -0.033 0.495 -0.868
vn -0.239 -0.018 -0.971
vn -0.033 0.495 -0.868
vn -0.238 -0.004 -0.971
vn 0.000 -0.001 1.000
vn -0.002 -0.011 1.000
vn 0.000 0.000 1.000
vn 0.000 -0.001 1.000
vn 0.000 0.000 1.000
vn 0.001 0.009 1.000
vn 1.000 -0.009 0.001
vn 1.000 0.011 0.002
vn 1.000 0.010 0.002
vn 1.000 0.010 0.002
vn 1.000 0.011 0.002
vn 1.000 0.013 0.002
vn 1.000 0.013 0.002
vn 1.000 0.013 0.002
vn 1.000 0.010 0.002
vn 0.000 0.006 -1.000
vn 0.000 0.005 -1.000
vn -0.001 0.007 -1.000
vn 0.000 0.006 -1.000
vn -0.001 0.007 -1.000
vn -0.001 0.008 -1.000
g 
usemtl TT0006
f 1/1/1 2/2/2 3/3/3
f 4/4/4 5/5/5 6/6/6
f 6/6/7 7/7/8 4/4/9
f 8/8/10 9/9/11 1/1/12
f 10/10/13 11/11/14 6/6/15
f 6/6/16 5/5/17 10/10/18
f 7/12/19 12/13/20 13/12/21
f 22/12/22 13/12/23 12/13/24
f 23/14/25 24/14/26 12/13/27
f 14/15/28 3/15/29 15/15/30
f 26/16/31 27/16/32 11/17/33
f 28/18/34 29/18/35 8/19/36
f 13/12/37 22/12/38 31/20/39
f 31/20/40 32/20/41 13/12/42
f 7/12/43 13/12/44 32/20/45
f 32/20/46 4/21/47 7/12/48
f 33/22/49 9/22/50 8/23/51
f 29/18/52 28/18/53 34/24/54
f 34/24/55 27/24/56 29/18/57
f 17/25/58 10/25/59 30/26/60
f 30/27/61 5/28/62 1/29/63
f 10/30/64 17/31/65 9/32/66
f 25/33/67 10/34/68 9/22/69
f 9/22/70 33/22/71 25/33/72
f 35/35/73 36/36/74 37/37/75
f 38/38/76 39/39/77 35/35/78
f 41/40/79 50/40/80 51/41/81
f 41/40/82 51/41/83 46/41/84
f 48/42/85 53/43/86 54/43/87
f 57/44/88 56/44/89 55/44/90
f 58/45/91 42/46/92 46/41/93
f 46/41/94 51/41/95 58/45/96
f 59/45/97 58/45/98 51/41/99
f 51/41/100 50/40/101 59/45/102
f 60/47/103 59/47/104 50/48/105
f 50/48/106 41/48/107 60/47/108
f 52/47/109 60/47/110 41/48/111
f 61/49/112 62/49/113 63/46/114
f 63/46/115 64/46/116 61/49/117
f 65/50/118 61/50/119 64/51/120
f 64/51/121 52/51/122 65/50/123
f 67/52/124 36/53/125 66/41/126
f 40/40/127 41/40/128 36/53/129
f 36/53/130 68/54/131 40/40/132
f 39/39/133 49/55/134 35/35/135
f 41/40/136 40/40/137 47/56/138
f 43/57/139 39/57/140 38/58/141
f 38/58/142 69/59/143 43/57/144
f 68/54/145 36/53/146 35/60/147
f 70/61/148 48/61/149 49/62/150
f 49/62/151 39/57/152 70/61/153
f 16/63/154 5/64/155 4/21/156
f 5/65/157 30/26/158 10/25/159
f 5/28/160 16/66/161 1/29/162
f 3/3/163 8/8/164 1/1/165
f 11/67/166 71/33/167 33/22/168
f 33/22/169 8/23/170 11/67/171
f 19/20/172 18/68/173 2/69/174
f 72/24/175 73/24/176 8/19/177
f 19/20/178 20/20/179 18/68/180
f 32/20/181 31/20/182 19/20/183
f 4/21/184 32/20/185 19/20/186
f 12/13/187 74/13/188 21/13/189
f 24/14/190 22/12/191 12/13/192
f 15/70/193 3/70/194 75/70/195
f 76/70/196 75/70/197 3/70/198
f 77/70/199 76/70/200 3/70/201
f 27/16/202 34/16/203 11/17/204
f 73/16/205 11/17/206 34/16/207
f 79/71/208 78/17/209 11/17/210
f 80/71/211 79/71/212 11/17/213
f 29/18/214 81/18/215 8/19/216
f 4/21/217 19/20/218 2/69/219
f 23/14/220 12/13/221 20/20/222
f 24/14/223 23/14/224 20/20/225
f 20/20/226 19/20/227 24/14/228
f 22/12/229 24/14/230 19/20/231
f 19/20/232 31/20/233 22/12/234
f 77/70/235 3/70/236 12/13/237
f 12/13/238 21/13/239 77/70/240
f 76/70/241 77/70/242 21/13/243
f 21/13/244 74/13/245 76/70/246
f 75/70/247 76/70/248 74/13/249
f 74/13/250 12/13/251 75/70/252
f 15/70/253 75/70/254 12/13/255
f 14/15/256 15/15/257 12/72/258
f 12/72/259 7/7/260 6/6/261
f 80/71/262 11/17/263 10/73/264
f 79/71/265 80/71/266 10/73/267
f 10/73/268 25/74/269 79/71/270
f 78/17/271 79/71/272 25/74/273
f 11/17/274 78/17/275 25/74/276
f 25/74/277 71/75/278 11/17/279
f 28/18/280 8/19/281 73/24/282
f 73/24/283 34/24/284 28/18/285
f 81/18/286 29/18/287 27/24/288
f 27/24/289 26/24/290 81/18/291
f 8/23/292 81/23/293 26/67/294
f 26/67/295 11/67/296 8/23/297
f 11/11/298 73/76/299 12/72/300
f 12/72/301 6/6/302 11/11/303
f 71/33/304 25/33/305 33/22/306
f 18/68/307 12/13/308 3/70/309
f 3/70/310 2/69/311 18/68/312
f 1/77/313 16/63/314 4/21/315
f 4/21/316 2/69/317 1/77/318
f 17/31/319 30/78/320 1/79/321
f 1/79/322 9/32/323 17/31/324
f 37/37/325 38/38/326 35/35/327
f 43/57/328 69/59/329 55/44/330
f 55/44/331 53/80/332 43/57/333
f 36/53/334 67/52/335 37/49/336
f 66/41/337 46/41/338 67/52/339
f 82/81/340 83/82/341 48/42/342
f 44/83/343 45/83/344 38/84/345
f 62/49/346 61/49/347 37/49/348
f 61/50/349 65/50/350 37/85/351
f 46/41/352 66/41/353 41/40/354
f 42/46/355 58/45/356 52/46/357
f 58/45/358 59/45/359 52/46/360
f 59/47/361 60/47/362 52/47/363
f 42/46/364 52/46/365 63/46/366
f 64/46/367 63/46/368 52/46/369
f 38/58/370 84/59/371 85/59/372
f 38/58/373 85/59/374 69/59/375
f 53/80/376 48/61/377 70/61/378
f 55/86/379 82/81/380 86/81/381
f 55/86/382 86/81/383 87/81/384
f 62/49/385 37/49/386 42/46/387
f 42/46/388 63/46/389 62/49/390
f 37/85/391 65/50/392 52/51/393
f 41/40/394 66/41/395 36/53/396
f 86/81/397 82/81/398 48/42/399
f 87/81/400 86/81/401 48/42/402
f 48/42/403 54/43/404 87/81/405
f 55/44/406 87/44/407 54/87/408
f 54/87/409 53/80/410 55/44/411
f 45/83/412 55/88/413 38/84/414
f 84/89/415 38/84/416 55/88/417
f 55/88/418 56/88/419 84/89/420
f 85/59/421 84/59/422 56/44/423
f 56/44/424 57/44/425 85/59/426
f 69/59/427 85/59/428 57/44/429
f 57/44/430 55/44/431 69/59/432
f 53/80/433 70/61/434 39/57/435
f 39/57/436 43/57/437 53/80/438
f 37/49/439 67/52/440 46/41/441
f 46/41/442 42/46/443 37/49/444
f 35/60/445 47/56/446 40/40/447
f 40/40/448 68/54/449 35/60/450
f 48/61/451 47/90/452 35/91/453
f 35/91/454 49/62/455 48/61/456
f 88/92/457 89/93/458 90/94/459
f 90/94/460 91/95/461 88/92/462
f 92/96/463 93/97/464 94/98/465
f 94/98/466 95/99/467 92/96/468
f 88/100/469 92/101/470 95/102/471
f 95/102/472 89/103/473 88/100/474
f 89/104/475 95/105/476 94/106/477
f 94/106/478 90/107/479 89/104/480
f 90/108/481 94/109/482 93/110/483
f 93/110/484 91/111/485 90/108/486
f 91/112/487 93/113/488 92/114/489
f 92/114/490 88/115/491 91/112/492
f 18/68/493 20/20/494 12/13/495
f 73/76/496 72/76/497 12/72/498
f 3/116/499 14/117/500 8/19/501
f 45/83/502 44/83/503 52/51/504
f 55/88/505 45/83/506 52/51/507
f 52/47/508 83/82/509 55/86/510
f 82/81/511 55/86/512 83/82/513
f 8/19/514 14/117/515 12/118/516
f 8/19/517 12/118/518 72/24/519
f 41/48/520 47/119/521 52/47/522
f 52/47/523 47/119/524 48/42/525
f 48/42/526 83/82/527 52/47/528
f 38/84/529 37/85/530 52/51/531
f 38/84/532 52/51/533 44/83/534
