mtllib TT0020.mtl
# File exported by Houdini 18.0.499 (www.sidefx.com)
# 44 points
# 252 vertices
# 84 primitives
# Bounds: [-0.147730529, 2.74367394e-05, -0.142168567] to [0.143002212, 0.472562104, 0.143109307]
g 
usemtl TT0020
v 0.039 0.000 0.078
v 0.090 0.002 -0.035
v -0.102 0.471 -0.039
v -0.086 0.001 -0.041
v 0.092 0.469 -0.042
v 0.034 0.470 0.079
v -0.120 0.000 -0.022
v -0.100 0.317 -0.035
v 0.021 0.000 0.109
v -0.137 0.466 -0.025
v -0.101 0.131 -0.036
v -0.147 0.470 0.011
v -0.109 0.468 0.098
v -0.032 0.471 0.143
v 0.002 0.472 0.129
v 0.086 0.468 0.093
v 0.130 0.469 0.065
v 0.126 0.471 -0.010
v 0.100 0.471 -0.073
v 0.062 0.469 -0.109
v -0.042 0.470 -0.127
v -0.077 0.473 -0.102
v -0.099 0.074 -0.045
v -0.060 0.082 -0.130
v 0.016 0.264 -0.142
v 0.126 0.306 0.084
v 0.143 0.301 0.034
v 0.095 0.286 -0.043
v 0.044 0.085 -0.138
v -0.054 0.001 -0.110
v 0.066 0.231 -0.121
v 0.034 0.000 -0.122
v 0.097 0.002 0.085
v -0.047 0.001 0.110
v -0.112 0.000 0.062
v -0.148 0.089 0.047
v -0.084 0.100 0.132
v -0.033 0.091 0.143
v 0.099 0.097 -0.064
v 0.125 0.084 -0.018
v 0.092 0.132 0.104
v 0.026 0.302 0.085
v 0.138 0.090 0.062
v 0.073 0.306 0.103
vt 0.027 0.920
vt 0.011 0.864
vt 0.005 0.670
vt 0.079 0.511
vt 0.128 0.900
vt 0.009 0.513
vt 0.129 0.512
vt 0.244 0.507
vt 0.197 0.716
vt 0.391 0.499
vt 0.480 0.501
vt 0.441 0.671
vt 0.345 0.687
vt 0.344 0.500
vt 0.306 0.501
vt 0.233 0.891
vt 0.134 0.983
vt 0.045 1.005
vt 0.255 0.746
vt 0.233 0.979
vt 0.986 0.918
vt 0.963 1.002
vt 0.928 0.985
vt 0.995 0.860
vt 0.736 0.974
vt 0.765 0.871
vt 0.828 0.977
vt 0.649 0.976
vt 0.712 0.879
vt 0.869 0.885
vt 0.810 0.504
vt 0.958 0.506
vt 0.997 0.658
vt 0.997 0.500
vt 0.543 0.502
vt 0.500 0.667
vt 0.363 0.979
vt 0.330 0.880
vt 0.515 0.970
vt 0.545 0.840
vt 0.596 0.980
vt 0.613 0.670
vt 0.602 0.499
vt 0.665 0.498
vt 0.711 0.502
vt 0.911 0.503
vt 0.859 0.211
vt 0.805 0.081
vt 0.636 0.423
vt 0.646 0.060
vt 0.545 0.223
vt 0.925 0.238
vt 0.908 0.395
vt 0.795 0.482
vt 0.652 0.489
vt 0.526 0.444
vt 0.207 -0.003
vt 0.270 0.027
vt 0.323 0.124
vt 0.067 0.093
vt -0.003 0.247
vt 0.011 0.314
vt 0.077 0.320
vt 0.115 0.461
vt 0.186 0.498
vt 0.371 0.463
vt 0.459 0.391
vt 0.425 0.341
vt 0.491 0.290
vt 0.501 0.144
vt 0.418 0.095
vt 0.388 0.890
vt 0.472 0.880
vt 0.564 0.667
vn -0.919 -0.032 -0.392
vn -0.502 -0.004 -0.865
vn -0.995 -0.002 -0.097
vn -0.919 -0.032 -0.392
vn -0.868 0.002 -0.496
vn -0.648 -0.030 -0.761
vn -0.868 0.002 -0.496
vn -0.919 -0.032 -0.392
vn -0.944 -0.001 -0.329
vn -0.919 -0.032 -0.392
vn -0.995 -0.002 -0.097
vn -0.944 -0.001 -0.329
vn -0.868 0.002 -0.496
vn -0.180 0.057 -0.982
vn -0.648 -0.030 -0.761
vn 0.387 0.083 -0.918
vn 0.070 0.040 -0.997
vn -0.180 0.057 -0.982
vn 0.883 0.027 -0.469
vn 0.994 0.057 0.098
vn 0.998 0.011 -0.061
vn 0.883 0.027 -0.469
vn 0.854 0.011 -0.521
vn 0.684 0.014 -0.730
vn 0.937 -0.020 -0.349
vn 0.970 0.011 0.243
vn 0.965 0.001 0.261
vn -0.180 0.057 -0.982
vn 0.070 0.040 -0.997
vn -0.648 -0.030 -0.761
vn 0.070 0.040 -0.997
vn 0.466 -0.038 -0.884
vn -0.079 -0.080 -0.994
vn -0.919 -0.032 -0.392
vn -0.648 -0.030 -0.761
vn -0.691 -0.225 -0.686
vn -0.691 -0.225 -0.686
vn -0.784 -0.169 -0.598
vn -0.919 -0.032 -0.392
vn 0.525 0.048 -0.849
vn 0.466 -0.038 -0.884
vn 0.070 0.040 -0.997
vn -0.079 -0.080 -0.994
vn 0.466 -0.038 -0.884
vn -0.106 -0.208 -0.972
vn -0.106 -0.208 -0.972
vn -0.691 -0.225 -0.686
vn -0.648 -0.030 -0.761
vn -0.484 -0.128 -0.866
vn -0.784 -0.169 -0.598
vn -0.847 -0.036 -0.531
vn -0.502 -0.004 -0.865
vn -0.919 -0.032 -0.392
vn -0.847 -0.036 -0.531
vn -0.303 -0.360 0.882
vn -0.599 -0.048 0.799
vn -0.790 -0.322 0.522
vn 0.429 -0.082 0.900
vn 0.209 -0.063 0.976
vn -0.303 -0.360 0.882
vn -0.303 -0.360 0.882
vn 0.209 -0.063 0.976
vn -0.599 -0.048 0.799
vn -0.790 -0.322 0.522
vn -0.972 -0.039 0.230
vn -0.931 -0.354 0.089
vn -0.790 -0.322 0.522
vn -0.599 -0.048 0.799
vn -0.972 -0.039 0.230
vn -0.775 0.028 0.631
vn -0.972 -0.039 0.230
vn -0.599 -0.048 0.799
vn -0.847 -0.036 -0.531
vn -0.774 -0.030 -0.633
vn -0.502 -0.004 -0.865
vn -0.774 -0.030 -0.633
vn -0.847 -0.036 -0.531
vn -0.972 -0.039 0.230
vn -0.502 -0.004 -0.865
vn -0.774 -0.030 -0.633
vn -0.302 -0.008 -0.953
vn -0.774 -0.030 -0.633
vn -0.373 -0.027 -0.928
vn -0.302 -0.008 -0.953
vn 0.521 0.083 0.849
vn 0.075 0.067 0.995
vn 0.681 0.022 0.732
vn 0.387 0.083 -0.918
vn 0.686 0.046 -0.726
vn 0.525 0.048 -0.849
vn 0.387 0.083 -0.918
vn 0.525 0.048 -0.849
vn 0.070 0.040 -0.997
vn 0.982 -0.161 0.100
vn 0.937 -0.020 -0.349
vn 0.856 -0.215 -0.470
vn 0.934 -0.277 -0.224
vn 0.824 -0.195 -0.532
vn 0.856 -0.215 -0.470
vn 0.856 -0.215 -0.470
vn 0.921 -0.051 -0.387
vn 0.934 -0.277 -0.224
vn 0.965 0.001 0.261
vn 0.934 -0.277 -0.224
vn 0.921 -0.051 -0.387
vn 0.937 -0.020 -0.349
vn 0.921 -0.051 -0.387
vn 0.466 -0.038 -0.884
vn 0.854 0.011 -0.521
vn 0.921 -0.051 -0.387
vn 0.937 -0.020 -0.349
vn 0.269 -0.129 0.955
vn -0.057 -0.051 0.997
vn -0.290 -0.071 0.955
vn 0.889 0.009 0.458
vn 0.843 -0.018 0.537
vn 0.700 0.000 0.714
vn 0.700 0.000 0.714
vn 0.890 0.020 0.456
vn 0.889 0.009 0.458
vn 0.700 0.000 0.714
vn 0.865 0.013 0.501
vn 0.890 0.020 0.456
vn 0.429 -0.082 0.900
vn 0.700 0.000 0.714
vn 0.209 -0.063 0.976
vn 0.700 0.000 0.714
vn -0.246 0.024 0.969
vn 0.209 -0.063 0.976
vn -0.599 -0.048 0.799
vn 0.209 -0.063 0.976
vn -0.246 0.024 0.969
vn -0.963 -0.024 -0.268
vn -0.972 -0.039 0.230
vn -0.975 0.023 0.222
vn -0.775 0.028 0.631
vn -0.599 -0.048 0.799
vn -0.246 0.024 0.969
vn -0.775 0.028 0.631
vn -0.975 0.023 0.222
vn -0.972 -0.039 0.230
vn 0.003 -1.000 -0.008
vn -0.003 -1.000 -0.003
vn 0.005 -1.000 -0.001
vn -0.003 -1.000 -0.003
vn 0.007 -1.000 -0.002
vn 0.005 -1.000 -0.001
vn 0.007 -1.000 -0.002
vn 0.029 -1.000 -0.002
vn 0.005 -1.000 -0.001
vn 0.001 -1.000 -0.002
vn 0.003 -1.000 -0.008
vn 0.005 -1.000 -0.001
vn -0.003 -1.000 0.007
vn 0.001 -1.000 -0.002
vn 0.005 -1.000 -0.001
vn -0.005 -1.000 0.011
vn -0.003 -1.000 0.007
vn 0.005 -1.000 -0.001
vn -0.009 -1.000 -0.001
vn -0.005 -1.000 0.011
vn 0.005 -1.000 -0.001
vn 0.029 -1.000 -0.002
vn 0.032 -1.000 0.000
vn 0.005 -1.000 -0.001
vn -0.029 0.999 -0.040
vn -0.098 0.989 -0.112
vn -0.003 1.000 0.003
vn -0.013 1.000 0.003
vn -0.029 0.999 -0.040
vn -0.003 1.000 0.003
vn 0.004 1.000 -0.018
vn -0.013 1.000 0.003
vn -0.003 1.000 0.003
vn -0.029 1.000 0.010
vn 0.004 1.000 -0.018
vn -0.003 1.000 0.003
vn -0.029 1.000 0.010
vn -0.003 1.000 0.003
vn -0.038 0.998 0.055
vn 0.020 1.000 0.002
vn -0.038 0.998 0.055
vn -0.003 1.000 0.003
vn 0.026 1.000 -0.008
vn 0.020 1.000 0.002
vn -0.003 1.000 0.003
vn -0.001 1.000 -0.006
vn 0.026 1.000 -0.008
vn -0.003 1.000 0.003
vn -0.016 1.000 -0.002
vn -0.001 1.000 -0.006
vn -0.003 1.000 0.003
vn -0.007 1.000 -0.007
vn -0.016 1.000 -0.002
vn -0.003 1.000 0.003
vn -0.008 1.000 0.008
vn -0.007 1.000 -0.007
vn -0.003 1.000 0.003
vn 0.017 0.999 0.042
vn -0.008 1.000 0.008
vn -0.003 1.000 0.003
vn 0.021 0.997 0.071
vn 0.017 0.999 0.042
vn -0.003 1.000 0.003
vn 0.854 0.011 -0.521
vn 0.883 0.027 -0.469
vn 0.877 -0.050 -0.477
vn 0.877 -0.050 -0.477
vn 0.515 -0.031 -0.856
vn 0.515 -0.031 -0.856
vn 0.903 -0.190 0.385
vn 0.934 -0.277 -0.224
vn 0.877 -0.050 -0.477
vn 0.934 -0.277 -0.224
vn 0.903 -0.190 0.385
vn 0.900 -0.432 -0.053
vn 0.269 -0.129 0.955
vn 0.903 -0.190 0.385
vn -0.057 -0.051 0.997
vn -0.057 -0.051 0.997
vn -0.336 0.002 0.942
vn -0.290 -0.071 0.955
vn -0.336 0.002 0.942
vn -0.057 -0.051 0.997
vn 0.015 0.034 0.999
vn -0.336 0.002 0.942
vn 0.015 0.034 0.999
vn 0.075 0.067 0.995
vn 0.075 0.067 0.995
vn -0.244 0.046 0.969
vn -0.336 0.002 0.942
vn 0.681 0.022 0.732
vn 0.075 0.067 0.995
vn 0.015 0.034 0.999
vn 0.998 0.011 -0.061
vn 0.994 0.057 0.098
vn 0.681 0.022 0.732
vn 0.681 0.022 0.732
vn 0.015 0.034 0.999
vn -0.057 -0.051 0.997
vn 0.650 -0.041 0.759
vn 0.903 -0.190 0.385
vn 0.681 0.022 0.732
vn 0.681 0.022 0.732
vn 0.903 -0.190 0.385
vn 0.998 0.011 -0.061
vn 0.883 0.027 -0.469
vn 0.998 0.011 -0.061
vn 0.877 -0.050 -0.477
vn 0.985 -0.045 -0.165
vn 0.877 -0.050 -0.477
vn 0.998 0.011 -0.061
g 
usemtl TT0020
f 23/1/1 11/2/2 8/3/3
f 23/1/4 22/4/5 24/5/6
f 22/4/7 23/1/8 3/6/9
f 23/1/10 8/3/11 3/6/12
f 22/4/13 21/7/14 24/5/15
f 20/8/16 25/9/17 21/7/18
f 18/10/19 17/11/20 27/12/21
f 18/10/22 28/13/23 5/14/24
f 19/15/25 5/14/26 28/13/27
f 21/7/28 25/9/29 24/5/30
f 25/9/31 29/16/32 24/5/33
f 23/1/34 24/5/35 30/17/36
f 30/17/37 4/18/38 23/1/39
f 31/19/40 29/16/41 25/9/42
f 24/5/43 29/16/44 32/20/45
f 32/20/46 30/17/47 24/5/48
f 23/21/49 4/22/50 7/23/51
f 11/24/52 23/21/53 7/23/54
f 34/25/55 37/26/56 35/27/57
f 9/28/58 38/29/59 34/25/60
f 34/25/61 38/29/62 37/26/63
f 35/27/64 36/30/65 7/23/66
f 35/27/67 37/26/68 36/30/69
f 13/31/70 36/30/71 37/26/72
f 7/23/73 10/32/74 11/24/75
f 10/32/76 7/23/77 36/30/78
f 11/24/79 10/32/80 8/33/81
f 10/32/82 3/34/83 8/33/84
f 17/11/85 16/35/86 26/36/87
f 20/8/88 19/15/89 31/19/90
f 20/8/91 31/19/92 25/9/93
f 31/19/94 19/15/95 29/16/96
f 2/37/97 32/20/98 29/16/99
f 29/16/100 39/38/101 2/37/102
f 28/13/103 2/37/104 39/38/105
f 19/15/106 39/38/107 29/16/108
f 28/13/109 39/38/110 19/15/111
f 33/39/112 41/40/113 1/41/114
f 42/42/115 6/43/116 15/44/117
f 15/44/118 1/41/119 42/42/120
f 15/44/121 9/28/122 1/41/123
f 9/28/124 15/44/125 38/29/126
f 15/44/127 14/45/128 38/29/129
f 37/26/130 38/29/131 14/45/132
f 10/32/133 36/30/134 12/46/135
f 13/31/136 37/26/137 14/45/138
f 13/31/139 12/46/140 36/30/141
f 4/47/142 30/48/143 1/49/144
f 30/48/145 32/50/146 1/49/147
f 32/50/148 2/51/149 1/49/150
f 7/52/151 4/47/152 1/49/153
f 35/53/154 7/52/155 1/49/156
f 34/54/157 35/53/158 1/49/159
f 9/55/160 34/54/161 1/49/162
f 2/51/163 33/56/164 1/49/165
f 14/57/166 15/58/167 6/59/168
f 13/60/169 14/57/170 6/59/171
f 12/61/172 13/60/173 6/59/174
f 10/62/175 12/61/176 6/59/177
f 10/62/178 6/59/179 3/63/180
f 22/64/181 3/63/182 6/59/183
f 21/65/184 22/64/185 6/59/186
f 20/66/187 21/65/188 6/59/189
f 19/67/190 20/66/191 6/59/192
f 5/68/193 19/67/194 6/59/195
f 18/69/196 5/68/197 6/59/198
f 17/70/199 18/69/200 6/59/201
f 16/71/202 17/70/203 6/59/204
f 28/13/205 18/10/206 40/72/207
f 40/72/208 2/37/209 28/13/210
f 43/73/211 2/37/212 40/72/213
f 2/37/214 43/73/215 33/39/216
f 33/39/217 43/73/218 41/40/219
f 41/40/220 42/42/221 1/41/222
f 42/42/223 41/40/224 44/74/225
f 42/42/226 44/74/227 16/35/228
f 16/35/229 6/43/230 42/42/231
f 26/36/232 16/35/233 44/74/234
f 27/12/235 17/11/236 26/36/237
f 26/36/238 44/74/239 41/40/240
f 41/40/241 43/73/242 26/36/243
f 26/36/244 43/73/245 27/12/246
f 18/10/247 27/12/248 40/72/249
f 43/73/250 40/72/251 27/12/252
