mtllib TV0006.mtl
# File exported by Houdini 18.0.499 (www.sidefx.com)
# 95 points
# 534 vertices
# 178 primitives
# Bounds: [-0.687283516, 5.76972961e-05, -0.701657712] to [0.687267303, 0.300282091, 0.702018857]
g 
usemtl TV0006
v 0.684 0.206 0.497
v 0.680 0.294 0.658
v 0.682 0.299 0.700
v -0.685 0.299 -0.484
v -0.686 0.207 -0.650
v -0.686 0.206 0.700
v -0.687 0.299 0.700
v 0.684 0.134 0.700
v 0.685 0.138 0.660
v -0.684 0.134 -0.486
v -0.684 0.134 0.700
v -0.685 0.298 0.700
v -0.687 0.299 0.700
v 0.682 0.298 0.702
v 0.682 0.299 0.702
v -0.686 0.208 -0.649
v -0.683 0.134 -0.487
v -0.684 0.300 -0.479
v -0.685 0.299 -0.482
v -0.685 0.300 -0.480
v -0.685 0.300 0.701
v -0.687 0.299 0.700
v -0.686 0.300 0.700
v -0.687 0.300 0.700
v -0.684 0.134 -0.485
v -0.684 0.133 0.701
v -0.684 0.133 0.701
v 0.683 0.133 0.702
v 0.683 0.133 0.701
v -0.686 0.206 -0.649
v -0.686 0.300 -0.481
v -0.686 0.299 -0.482
v 0.684 0.133 0.660
v -0.684 0.133 0.701
v -0.682 0.128 -0.490
v -0.686 0.201 -0.652
v -0.685 0.202 -0.700
v -0.684 0.034 -0.701
v -0.685 0.034 -0.652
v 0.683 0.201 0.494
v 0.684 0.200 0.492
v 0.684 0.203 -0.699
v -0.683 0.033 -0.653
v 0.685 0.032 -0.702
v 0.685 0.032 -0.701
v 0.683 0.202 0.489
v 0.684 0.128 0.654
v 0.685 0.034 0.491
v -0.684 0.033 -0.648
v 0.684 0.202 0.490
v 0.684 0.202 0.490
v 0.685 0.202 -0.700
v 0.684 0.034 0.487
v 0.686 0.032 0.488
v 0.685 0.033 -0.699
v 0.685 0.031 -0.701
v 0.685 0.031 -0.701
v 0.685 0.203 -0.699
v 0.685 0.203 -0.699
v 0.686 0.202 -0.699
v -0.685 0.203 -0.701
v -0.685 0.203 -0.701
v 0.683 0.203 -0.700
v 0.683 0.203 -0.701
v -0.685 0.203 -0.702
v 0.682 0.202 0.490
v -0.685 0.203 -0.652
v -0.685 0.202 -0.648
v -0.683 0.032 -0.700
v 0.684 0.033 0.490
v -0.683 0.133 -0.482
v -0.684 0.134 0.702
v -0.685 0.133 0.701
v -0.685 0.300 0.701
v 0.682 0.299 0.702
v 0.682 0.299 0.702
v 0.682 0.300 0.701
v -0.685 0.133 0.700
v -0.686 0.133 0.700
v -0.686 0.133 0.700
v 0.683 0.133 0.701
v 0.687 0.032 -0.700
v 0.687 0.032 -0.700
v -0.683 0.032 -0.701
v -0.683 0.032 -0.701
v 0.687 0.032 -0.699
v 0.687 0.031 -0.699
v 0.381 0.000 0.619
v 0.383 0.000 -0.635
v 0.382 0.122 -0.634
v 0.380 0.122 0.619
v -0.328 0.002 0.618
v -0.329 0.124 0.618
v -0.327 0.124 -0.635
v -0.326 0.002 -0.635
vt 0.130 0.974
vt 0.181 0.951
vt 0.193 0.950
vt 0.052 0.014
vt 0.000 0.042
vt 0.400 0.033
vt 0.401 0.005
vt 0.188 0.999
vt 0.176 0.998
vt 0.048 0.063
vt 0.398 0.054
vt 0.695 0.671
vt 0.696 0.672
vt 0.695 0.671
vt 0.695 0.672
vt 0.790 0.024
vt 0.790 0.024
vt 0.149 0.761
vt 0.150 0.760
vt 0.903 0.146
vt 0.903 0.145
vt 0.442 0.962
vt 0.442 0.962
vt 0.441 0.963
vt 0.588 0.568
vt 0.588 0.568
vt 0.589 0.556
vt 0.902 0.549
vt 0.038 0.980
vt 0.038 0.980
vt 0.001 0.938
vt 0.992 0.011
vt 0.993 0.012
vt 0.466 0.001
vt 0.000 0.100
vt 0.001 0.100
vt 0.502 0.056
vt 0.993 0.905
vt 0.993 0.906
vt 0.895 0.097
vt 0.917 0.048
vt 0.918 0.034
vt 0.867 0.033
vt 0.867 0.048
vt 0.108 0.729
vt 0.108 0.729
vt 0.108 0.728
vt 0.108 0.728
vt 0.352 0.219
vt 0.351 0.219
vt 0.351 0.219
vt 0.396 1.000
vt 0.396 1.000
vt 0.000 0.384
vt 0.000 0.383
vt 0.000 0.384
vt 0.001 0.169
vt 0.352 0.169
vt 0.352 0.169
vt 0.001 0.169
vt 0.395 0.284
vt 0.395 0.284
vt 0.000 0.383
vt 0.000 0.383
vt 0.001 0.228
vt 0.405 0.227
vt 0.405 0.227
vt 0.400 0.298
vt 0.401 0.298
vt 0.108 0.728
vt 0.108 0.729
vt 0.400 0.299
vt 0.867 0.049
vt 0.124 0.776
vt 0.482 0.594
vt 0.482 0.594
vt 0.496 0.599
vt 0.496 0.600
vt 0.414 0.345
vt 0.049 0.890
vt 0.049 0.890
vt 0.481 0.595
vt 0.405 1.000
vt 0.404 1.000
vt 0.000 0.938
vt 0.992 0.012
vt 0.992 0.556
vt 0.993 0.905
vt 0.442 0.962
vt 0.443 0.962
vt 0.968 0.960
vt 0.902 0.549
vt 0.902 0.549
vt 0.442 0.962
vt 0.696 0.672
vt 0.977 0.949
vt 0.977 0.949
vt 0.977 0.949
vt 0.977 0.949
vt 0.149 0.761
vt 0.149 0.761
vt 0.149 0.760
vt 0.150 0.760
vt 0.149 0.760
vt 0.903 0.146
vt 0.402 0.005
vt 0.513 0.429
vt 0.512 0.429
vt 0.512 0.430
vt 0.589 0.556
vt 0.992 0.556
vt 0.399 0.054
vt 0.932 0.996
vt 0.000 0.153
vt 0.502 0.108
vt 0.050 0.890
vt 0.395 0.284
vt 0.001 0.220
vt 0.001 0.219
vt 0.405 0.277
vt 0.405 0.277
vt 0.001 0.278
vt 0.001 0.229
vt 0.000 0.383
vt 0.496 0.600
vt 0.000 0.219
vt 0.001 0.220
vt 0.396 1.000
vt 0.050 0.891
vt 0.405 0.278
vt 0.001 0.279
vt 0.405 0.278
vt 0.001 0.874
vt 0.434 0.581
vt 0.875 0.082
vt 0.506 0.082
vt 0.506 0.118
vt 0.875 0.118
vt 0.993 0.179
vt 0.957 0.179
vt 0.957 0.549
vt 0.993 0.549
vt 0.419 0.125
vt 0.419 0.333
vt 0.790 0.333
vt 0.790 0.125
vt 0.494 0.638
vt 0.494 0.847
vt 0.530 0.847
vt 0.530 0.638
vt 0.518 0.340
vt 0.518 0.549
vt 0.887 0.549
vt 0.887 0.340
vt 0.000 0.630
vt 0.000 0.839
vt 0.036 0.839
vt 0.036 0.630
vt 0.399 0.054
vt 0.952 0.145
vt 0.952 0.146
vt 0.951 0.549
vt 0.400 0.191
vn 0.999 0.038 -0.026
vn 0.377 0.818 -0.435
vn 1.000 0.023 0.000
vn -1.000 -0.004 -0.001
vn -1.000 -0.010 0.000
vn -1.000 -0.014 0.000
vn -1.000 -0.014 0.000
vn -1.000 -0.020 -0.002
vn -1.000 -0.004 -0.001
vn 1.000 0.015 0.009
vn 0.758 -0.084 -0.646
vn 0.999 0.038 -0.026
vn -0.999 -0.034 0.000
vn -1.000 -0.027 -0.002
vn -1.000 -0.014 0.000
vn -1.000 -0.014 0.000
vn -1.000 -0.010 0.000
vn -0.999 -0.034 0.000
vn 0.041 0.003 0.999
vn 0.000 0.000 1.000
vn -0.013 0.349 0.937
vn -0.091 0.066 0.994
vn -0.013 0.349 0.937
vn 0.000 0.000 1.000
vn -0.056 0.116 0.992
vn -0.069 0.101 0.993
vn 0.000 0.000 1.000
vn 0.924 0.008 0.383
vn 1.000 0.023 0.000
vn 0.923 0.108 0.369
vn -0.996 -0.081 0.036
vn -0.996 -0.072 0.044
vn -1.000 -0.027 -0.002
vn 0.948 -0.214 0.235
vn 0.947 -0.254 0.197
vn 1.000 0.015 0.009
vn -0.950 0.313 -0.001
vn -0.801 0.599 -0.001
vn -0.897 0.443 -0.001
vn -0.897 0.443 -0.001
vn -0.969 0.248 -0.001
vn -0.950 0.313 -0.001
vn -1.000 -0.020 -0.002
vn -0.950 0.313 -0.001
vn -0.969 0.248 -0.001
vn -0.622 -0.783 -0.001
vn -1.000 -0.004 -0.001
vn -1.000 -0.020 -0.002
vn 0.650 -0.123 -0.750
vn 0.758 -0.084 -0.646
vn 1.000 0.015 0.009
vn 0.000 -0.770 0.638
vn 0.000 -0.376 0.926
vn 0.000 -0.494 0.869
vn 0.000 -0.494 0.869
vn 0.000 -0.833 0.553
vn 0.000 -0.770 0.638
vn -0.369 -0.865 0.341
vn -0.999 -0.034 0.000
vn -0.664 -0.687 -0.296
vn 0.329 -0.858 -0.393
vn 0.511 -0.537 -0.672
vn 0.320 -0.867 -0.381
vn -0.309 -0.887 0.343
vn -0.369 -0.865 0.341
vn 0.306 -0.881 -0.361
vn 0.646 -0.435 -0.627
vn 0.397 -0.787 -0.472
vn 0.397 -0.787 -0.472
vn 0.758 -0.084 -0.646
vn 0.650 -0.123 -0.750
vn 0.646 -0.435 -0.627
vn -1.000 -0.009 0.011
vn -0.866 0.259 0.428
vn -1.000 -0.015 0.009
vn -1.000 -0.002 0.008
vn -1.000 0.019 0.005
vn -1.000 -0.009 0.011
vn -0.534 0.553 0.640
vn 0.438 0.899 0.002
vn -0.221 0.975 0.003
vn -0.534 0.553 0.640
vn -0.221 0.975 0.003
vn 0.000 1.000 -0.001
vn -0.391 -0.792 0.469
vn -0.002 -1.000 0.002
vn -0.723 -0.691 0.001
vn 0.973 -0.201 -0.110
vn 0.973 -0.201 -0.110
vn 1.000 0.001 -0.006
vn -0.158 0.987 0.000
vn -0.001 1.000 0.001
vn 0.000 1.000 -0.001
vn 0.000 1.000 -0.001
vn -0.221 0.975 0.003
vn -0.158 0.987 0.000
vn 0.513 0.858 0.001
vn -0.158 0.987 0.000
vn 0.433 0.901 0.001
vn 0.433 0.901 0.001
vn 0.438 0.899 0.002
vn 0.513 0.858 0.001
vn 0.677 0.736 0.000
vn 0.513 0.858 0.001
vn 0.677 0.736 0.001
vn 0.901 -0.433 0.001
vn 1.000 -0.009 0.001
vn 0.895 -0.445 0.001
vn 1.000 0.010 0.002
vn 0.895 -0.445 0.001
vn 1.000 -0.009 0.001
vn 0.000 0.833 -0.553
vn 0.000 0.992 0.128
vn 0.001 1.000 -0.028
vn 0.001 1.000 -0.028
vn 0.001 0.803 -0.596
vn 0.000 0.833 -0.553
vn 0.000 0.693 -0.721
vn 0.000 0.833 -0.553
vn 0.001 0.803 -0.596
vn 0.001 -0.560 -0.828
vn 0.000 -0.774 -0.634
vn 0.000 -0.774 -0.634
vn -0.588 0.443 0.676
vn -0.866 0.259 0.428
vn -0.560 0.487 0.670
vn 0.347 0.860 -0.374
vn 0.305 0.914 -0.268
vn 0.328 0.860 -0.392
vn 0.328 0.860 -0.392
vn 0.374 0.813 -0.447
vn 0.347 0.860 -0.374
vn -1.000 0.019 0.005
vn -0.398 -0.783 0.477
vn -1.000 -0.009 0.011
vn 0.305 0.914 -0.268
vn 0.347 0.860 -0.374
vn 1.000 0.011 0.002
vn -0.001 -1.000 0.003
vn 0.254 -0.918 -0.305
vn -0.003 -0.962 0.275
vn -1.000 -0.002 0.008
vn -0.917 -0.400 0.000
vn -0.917 -0.398 0.005
vn -0.341 0.848 0.407
vn -0.866 0.259 0.428
vn -1.000 -0.009 0.011
vn -0.585 -0.404 0.703
vn -0.391 -0.792 0.469
vn -0.398 -0.783 0.477
vn 0.234 -0.931 -0.281
vn 0.254 -0.918 -0.305
vn 0.345 -0.843 -0.413
vn 0.374 0.812 -0.447
vn -0.179 0.862 -0.474
vn 0.370 0.818 -0.440
vn 0.511 -0.537 -0.672
vn -0.664 -0.687 -0.296
vn -0.309 -0.887 0.343
vn 0.615 0.288 -0.734
vn 0.615 0.288 -0.734
vn 0.999 0.038 -0.026
vn 1.000 0.023 0.000
vn 1.000 0.015 0.009
vn 0.999 0.038 -0.026
vn -0.001 -1.000 0.001
vn -0.001 -1.000 0.000
vn 0.000 -1.000 0.001
vn 0.000 -1.000 0.001
vn 0.000 -0.999 -0.039
vn -0.001 -1.000 0.001
vn 0.366 0.870 -0.330
vn 0.004 1.000 -0.004
vn 0.377 0.818 -0.435
vn 0.001 0.009 1.000
vn -0.027 -0.235 0.972
vn 0.000 -0.001 1.000
vn 0.366 0.870 -0.330
vn 0.540 0.842 0.001
vn 0.004 1.000 -0.004
vn 0.292 0.914 -0.281
vn 0.563 0.827 0.000
vn 0.366 0.870 -0.330
vn 0.370 0.818 -0.440
vn 0.292 0.914 -0.281
vn 0.366 0.870 -0.330
vn -0.927 -0.006 -0.376
vn -0.992 0.107 0.060
vn -0.992 0.107 0.060
vn -0.069 0.101 0.993
vn -0.091 0.066 0.994
vn 0.000 0.000 1.000
vn 0.923 0.108 0.369
vn 1.000 0.023 0.000
vn 0.000 0.557 0.831
vn 0.001 0.833 0.554
vn 0.000 0.557 0.831
vn 1.000 0.023 0.000
vn 0.001 0.883 0.469
vn 0.001 0.833 0.554
vn 1.000 0.023 0.000
vn -0.996 -0.072 0.044
vn -0.997 -0.062 0.053
vn -1.000 -0.027 -0.002
vn -0.926 -0.010 -0.378
vn -0.001 -1.000 0.001
vn -0.423 -0.808 -0.410
vn -0.048 -0.072 0.996
vn -0.040 -0.083 0.996
vn 0.040 -0.001 0.999
vn -0.057 -0.061 0.997
vn -0.048 -0.072 0.996
vn 0.040 -0.001 0.999
vn 0.947 -0.254 0.197
vn 0.943 -0.292 0.161
vn 1.000 0.015 0.009
vn 0.370 0.818 -0.440
vn 0.366 0.870 -0.330
vn 0.117 0.984 -0.135
vn 0.800 0.600 0.001
vn 0.000 1.000 0.001
vn 0.540 0.842 0.001
vn -0.827 0.562 -0.001
vn -0.427 0.904 0.000
vn -0.861 0.508 -0.001
vn -0.861 0.508 -0.001
vn -0.909 0.417 -0.001
vn -0.827 0.562 -0.001
vn -0.801 0.599 -0.001
vn -0.827 0.562 -0.001
vn -0.909 0.417 -0.001
vn 0.366 0.870 -0.330
vn 0.563 0.827 0.000
vn 0.563 0.827 0.001
vn 0.000 0.710 -0.704
vn 0.003 1.000 -0.003
vn 0.000 1.000 0.001
vn 0.000 0.542 -0.841
vn 0.000 0.542 -0.841
vn 0.000 0.710 -0.704
vn 0.001 0.833 0.554
vn 0.001 0.883 0.469
vn 0.000 0.883 0.469
vn 0.000 0.883 0.469
vn 0.000 0.803 0.596
vn 0.001 0.833 0.554
vn 0.000 0.557 0.831
vn 0.001 0.833 0.554
vn 0.000 0.803 0.596
vn -0.001 -0.736 0.677
vn -0.001 -0.736 0.677
vn -0.001 -0.736 0.677
vn -0.001 0.259 0.966
vn 0.000 0.557 0.831
vn 0.000 0.000 1.000
vn -0.002 -0.011 1.000
vn -0.001 0.259 0.966
vn 0.000 0.000 1.000
vn 0.000 0.000 1.000
vn 0.041 0.003 0.999
vn 0.041 -0.001 0.999
vn -0.433 0.901 0.000
vn -0.433 0.901 0.000
vn -0.607 0.795 0.000
vn -0.551 -0.835 -0.002
vn -0.677 -0.736 -0.002
vn -0.999 -0.034 0.000
vn -0.607 0.795 0.000
vn -0.922 0.387 -0.001
vn -0.922 0.387 -0.001
vn -0.428 -0.904 -0.001
vn -0.551 -0.835 -0.002
vn -0.404 -0.915 0.000
vn 0.784 -0.621 0.000
vn 0.784 -0.621 0.000
vn 0.646 -0.435 -0.627
vn -0.404 -0.915 0.000
vn -0.001 -1.000 0.000
vn -0.001 -1.000 0.001
vn 0.000 0.868 0.497
vn 0.000 0.868 0.497
vn 0.000 0.868 0.497
vn -0.027 -0.235 0.972
vn 0.000 -0.494 0.869
vn 0.000 -0.376 0.926
vn 0.000 -0.884 0.468
vn 0.000 -0.770 0.638
vn 0.000 -0.833 0.553
vn 0.000 -0.833 0.553
vn 0.000 -0.884 0.468
vn 0.000 -0.884 0.468
vn 0.000 -0.999 -0.039
vn 0.000 -0.542 -0.841
vn 0.000 -0.554 -0.833
vn 0.000 -0.554 -0.833
vn -0.001 -1.000 0.001
vn 0.000 -0.999 -0.039
vn -1.000 -0.027 -0.002
vn -0.926 -0.010 -0.378
vn -0.927 -0.006 -0.376
vn 0.000 0.000 1.000
vn 0.041 -0.001 0.999
vn 0.040 -0.001 0.999
vn -0.001 -1.000 0.000
vn 0.646 -0.435 -0.627
vn 0.000 -1.000 0.001
vn 0.004 1.000 -0.004
vn 0.000 1.000 0.001
vn 0.003 1.000 -0.003
vn 0.003 1.000 -0.003
vn 0.117 0.984 -0.135
vn 0.004 1.000 -0.004
vn 0.371 0.817 -0.441
vn 0.374 0.812 -0.447
vn 0.370 0.818 -0.440
vn 0.370 0.818 -0.440
vn 0.377 0.818 -0.435
vn 0.371 0.817 -0.441
vn 0.320 -0.868 -0.380
vn 0.329 -0.858 -0.393
vn 0.320 -0.867 -0.381
vn 0.320 -0.867 -0.381
vn 0.306 -0.881 -0.361
vn 0.320 -0.868 -0.380
vn -1.000 -0.009 0.011
vn -1.000 -0.015 0.009
vn -1.000 -0.002 0.008
vn -0.001 -1.000 0.003
vn 0.000 -1.000 0.027
vn -0.003 -1.000 0.003
vn -0.003 -1.000 0.003
vn -0.002 -1.000 0.002
vn -0.001 -1.000 0.003
vn -0.866 0.259 0.428
vn -0.588 0.443 0.676
vn -1.000 -0.015 0.009
vn 0.157 0.970 -0.185
vn 0.000 1.000 -0.001
vn 0.035 0.999 -0.040
vn 0.999 -0.048 0.002
vn 1.000 0.013 0.002
vn 1.000 0.012 0.002
vn -0.001 0.008 -1.000
vn 0.030 -0.240 -0.970
vn 0.000 0.009 -1.000
vn -0.928 0.326 -0.179
vn -0.934 0.284 -0.219
vn -1.000 -0.015 0.009
vn -0.934 0.284 -0.219
vn -0.936 0.238 -0.259
vn -1.000 -0.015 0.009
vn 0.748 0.662 0.046
vn 0.157 0.970 -0.185
vn 0.305 0.914 -0.268
vn -0.001 1.000 0.001
vn -0.158 0.987 0.000
vn 0.303 0.041 -0.952
vn 0.275 0.580 -0.767
vn 0.513 0.858 0.001
vn 0.303 0.041 -0.952
vn 0.513 0.858 0.001
vn 0.677 0.736 0.000
vn 0.303 0.041 -0.952
vn 0.000 0.723 0.691
vn 0.596 0.798 0.088
vn 0.001 1.000 -0.028
vn 0.001 0.803 -0.596
vn 0.001 1.000 -0.028
vn 0.303 0.041 -0.952
vn -1.000 -0.002 0.008
vn -0.002 -0.883 -0.469
vn -0.001 -0.945 -0.326
vn -1.000 -0.002 0.008
vn -0.001 -0.945 -0.326
vn -0.917 -0.400 0.000
vn 0.411 -0.767 -0.493
vn 1.000 0.012 0.002
vn 0.345 -0.843 -0.413
vn -0.003 -1.000 0.003
vn -0.341 -0.527 -0.778
vn -0.218 -0.555 -0.803
vn -0.015 0.631 -0.776
vn -0.218 -0.555 -0.803
vn 0.072 -0.075 -0.995
vn -0.001 0.570 0.822
vn 0.000 1.000 0.001
vn 0.000 0.723 0.691
vn 0.000 0.723 0.691
vn 0.001 1.000 -0.028
vn 0.000 0.992 0.128
vn 0.000 -0.883 -0.469
vn 0.000 -0.774 -0.634
vn 0.000 -0.774 -0.634
vn -0.534 0.553 0.640
vn -0.560 0.487 0.670
vn -0.534 0.552 0.640
vn 0.885 -0.466 0.002
vn 0.999 -0.048 0.002
vn 1.000 0.012 0.002
vn 0.682 -0.732 0.002
vn 0.885 -0.466 0.002
vn 1.000 0.012 0.002
vn 0.889 0.458 0.000
vn 0.889 0.458 0.000
vn 0.889 0.458 0.000
vn -0.003 -1.000 0.003
vn -0.675 -0.738 0.000
vn -0.723 -0.691 0.001
vn -0.723 -0.691 0.001
vn -0.002 -1.000 0.002
vn -0.003 -1.000 0.003
vn -0.001 -0.960 0.281
vn -0.003 -1.000 0.003
vn -0.003 -0.962 0.275
vn 0.001 0.664 -0.747
vn 0.000 0.009 -1.000
vn -0.015 0.631 -0.776
vn -0.015 0.631 -0.776
vn 0.001 0.747 -0.665
vn 0.001 0.664 -0.747
vn -0.001 -0.945 -0.326
vn -0.002 -0.883 -0.469
vn -0.001 -0.883 -0.469
vn -0.001 -0.883 -0.469
vn -0.001 -0.962 -0.274
vn -0.001 -0.945 -0.326
vn 0.000 -1.000 0.027
vn -0.001 -0.945 -0.326
vn -0.001 -0.962 -0.274
vn 0.000 -0.559 0.829
vn 0.000 -0.559 0.829
vn 0.000 -0.559 0.829
vn 0.411 -0.767 -0.493
vn 0.345 -0.843 -0.413
vn 0.254 -0.918 -0.305
vn 0.254 -0.918 -0.305
vn -0.001 -1.000 0.003
vn -0.002 -1.000 0.002
vn 0.000 1.000 0.001
vn 0.035 0.999 -0.040
vn 0.000 1.000 -0.001
vn 0.000 1.000 -0.001
vn -0.001 1.000 0.001
vn 0.000 1.000 0.001
vn -0.334 0.853 0.400
vn -0.330 0.858 0.393
vn -0.334 0.853 0.400
vn -0.334 0.853 0.400
vn -0.341 0.848 0.407
vn -0.334 0.853 0.400
vn -0.391 -0.792 0.469
vn -0.385 -0.800 0.460
vn -0.390 -0.793 0.467
vn -0.390 -0.793 0.467
vn -0.398 -0.783 0.477
vn -0.391 -0.792 0.469
vn 1.000 0.010 0.002
vn 1.000 0.010 0.002
vn 1.000 0.010 0.002
vn 1.000 0.010 0.002
vn 1.000 0.010 0.002
vn 1.000 0.010 0.002
vn -1.000 -0.010 -0.002
vn -1.000 -0.010 -0.002
vn -1.000 -0.010 -0.002
vn -1.000 -0.010 -0.002
vn -1.000 -0.010 -0.002
vn -1.000 -0.010 -0.002
vn -0.003 -1.000 0.000
vn -0.003 -1.000 0.000
vn -0.003 -1.000 0.000
vn -0.003 -1.000 0.000
vn -0.003 -1.000 0.000
vn -0.003 -1.000 0.000
vn 0.001 0.001 -1.000
vn 0.001 0.001 -1.000
vn 0.001 0.001 -1.000
vn 0.001 0.001 -1.000
vn 0.001 0.001 -1.000
vn 0.001 0.001 -1.000
vn 0.003 1.000 0.000
vn 0.003 1.000 0.000
vn 0.003 1.000 0.000
vn 0.003 1.000 0.000
vn 0.003 1.000 0.000
vn 0.003 1.000 0.000
vn -0.001 -0.001 1.000
vn -0.001 -0.001 1.000
vn -0.001 -0.001 1.000
vn -0.001 -0.001 1.000
vn -0.001 -0.001 1.000
vn -0.001 -0.001 1.000
vn 0.004 1.000 -0.004
vn 0.540 0.842 0.001
vn 0.000 1.000 0.001
vn -0.027 -0.235 0.972
vn 0.001 0.009 1.000
vn 0.000 0.000 1.000
vn 1.000 0.023 0.000
vn 0.924 0.008 0.383
vn 1.000 0.015 0.009
vn 0.030 -0.240 -0.970
vn -0.001 0.008 -1.000
vn 0.303 0.041 -0.952
vn 1.000 0.001 -0.006
vn 1.000 0.001 -0.005
vn 1.000 0.010 0.002
vn -0.001 0.007 -1.000
vn -0.238 -0.004 -0.971
vn -0.015 0.631 -0.776
vn -0.341 -0.527 -0.778
vn -0.015 0.631 -0.776
vn -0.238 -0.004 -0.971
vn 0.000 -0.001 1.000
vn -0.002 -0.011 1.000
vn 0.000 0.000 1.000
vn 0.000 -0.001 1.000
vn 0.000 0.000 1.000
vn 0.001 0.009 1.000
vn 1.000 -0.009 0.001
vn 1.000 0.011 0.002
vn 1.000 0.010 0.002
vn 1.000 0.010 0.002
vn 1.000 0.011 0.002
vn 1.000 0.012 0.002
vn 1.000 0.012 0.002
vn 1.000 0.013 0.002
vn 1.000 0.010 0.002
vn 0.000 0.009 -1.000
vn 0.000 0.005 -1.000
vn -0.001 0.007 -1.000
vn 0.000 0.009 -1.000
vn -0.001 0.007 -1.000
vn -0.001 0.008 -1.000
g 
usemtl TV0006
f 1/1/1 2/2/2 3/3/3
f 4/4/4 5/5/5 6/6/6
f 6/6/7 7/7/8 4/4/9
f 8/8/10 9/9/11 1/1/12
f 10/10/13 11/11/14 6/6/15
f 6/6/16 5/5/17 10/10/18
f 7/12/19 12/13/20 13/14/21
f 22/14/22 13/14/23 12/13/24
f 23/15/25 24/15/26 12/13/27
f 14/16/28 3/16/29 15/17/30
f 26/18/31 27/18/32 11/19/33
f 28/20/34 29/20/35 8/21/36
f 13/14/37 22/14/38 31/22/39
f 31/22/40 32/23/41 13/14/42
f 7/12/43 13/14/44 32/23/45
f 32/23/46 4/24/47 7/12/48
f 33/25/49 9/26/50 8/27/51
f 29/20/52 28/20/53 34/28/54
f 34/28/55 27/28/56 29/20/57
f 17/29/58 10/30/59 30/31/60
f 30/32/61 5/33/62 1/34/63
f 10/35/64 17/36/65 9/37/66
f 25/38/67 10/39/68 9/26/69
f 9/26/70 33/25/71 25/38/72
f 35/40/73 36/41/74 37/42/75
f 38/43/76 39/44/77 35/40/78
f 41/45/79 50/46/80 51/47/81
f 41/45/82 51/47/83 46/48/84
f 48/49/85 53/50/86 54/51/87
f 57/52/88 56/52/89 55/53/90
f 58/54/91 42/55/92 46/48/93
f 46/48/94 51/47/95 58/54/96
f 59/56/97 58/54/98 51/47/99
f 51/47/100 50/46/101 59/56/102
f 60/57/103 59/57/104 50/58/105
f 50/58/106 41/59/107 60/57/108
f 52/60/109 60/57/110 41/59/111
f 61/61/112 62/62/113 63/63/114
f 63/63/115 64/64/116 61/61/117
f 65/65/118 61/65/119 64/66/120
f 64/66/121 52/67/122 65/65/123
f 67/68/124 36/69/125 66/70/126
f 40/71/127 41/45/128 36/69/129
f 36/69/130 68/72/131 40/71/132
f 39/44/133 49/73/134 35/40/135
f 41/45/136 40/71/137 47/74/138
f 43/75/139 39/76/140 38/77/141
f 38/77/142 69/78/143 43/75/144
f 68/72/145 36/69/146 35/79/147
f 70/80/148 48/81/149 49/82/150
f 49/82/151 39/76/152 70/80/153
f 16/83/154 5/84/155 4/24/156
f 5/85/157 30/31/158 10/30/159
f 5/33/160 16/86/161 1/34/162
f 3/3/163 8/8/164 1/1/165
f 11/87/166 71/88/167 33/25/168
f 33/25/169 8/27/170 11/87/171
f 19/89/172 18/90/173 2/91/174
f 72/92/175 73/93/176 8/21/177
f 19/89/178 20/94/179 18/90/180
f 32/23/181 31/22/182 19/89/183
f 4/24/184 32/23/185 19/89/186
f 12/13/187 74/95/188 21/95/189
f 24/15/190 22/14/191 12/13/192
f 15/96/193 3/97/194 75/98/195
f 76/98/196 75/98/197 3/97/198
f 77/99/199 76/98/200 3/97/201
f 27/18/202 34/100/203 11/19/204
f 73/101/205 11/19/206 34/100/207
f 79/102/208 78/103/209 11/19/210
f 80/104/211 79/102/212 11/19/213
f 29/20/214 81/105/215 8/21/216
f 4/24/217 19/89/218 2/91/219
f 23/15/220 12/13/221 20/94/222
f 24/15/223 23/15/224 20/94/225
f 20/94/226 19/89/227 24/15/228
f 22/14/229 24/15/230 19/89/231
f 19/89/232 31/22/233 22/14/234
f 77/99/235 3/97/236 12/13/237
f 12/13/238 21/95/239 77/99/240
f 76/98/241 77/99/242 21/95/243
f 21/95/244 74/95/245 76/98/246
f 75/98/247 76/98/248 74/95/249
f 74/95/250 12/13/251 75/98/252
f 15/96/253 75/98/254 12/13/255
f 14/16/256 15/17/257 12/106/258
f 12/106/259 7/7/260 6/6/261
f 80/104/262 11/19/263 10/107/264
f 79/102/265 80/104/266 10/107/267
f 10/107/268 25/108/269 79/102/270
f 78/103/271 79/102/272 25/108/273
f 11/19/274 78/103/275 25/108/276
f 25/108/277 71/109/278 11/19/279
f 28/20/280 8/21/281 73/93/282
f 73/93/283 34/28/284 28/20/285
f 81/105/286 29/20/287 27/28/288
f 27/28/289 26/28/290 81/105/291
f 8/27/292 81/110/293 26/111/294
f 26/111/295 11/87/296 8/27/297
f 11/11/298 73/112/299 12/106/300
f 12/106/301 6/6/302 11/11/303
f 71/88/304 25/38/305 33/25/306
f 18/90/307 12/13/308 3/97/309
f 3/97/310 2/91/311 18/90/312
f 1/113/313 16/83/314 4/24/315
f 4/24/316 2/91/317 1/113/318
f 17/36/319 30/114/320 1/115/321
f 1/115/322 9/37/323 17/36/324
f 35/40/325 37/42/326 38/43/327
f 43/75/328 69/78/329 55/53/330
f 55/53/331 53/116/332 43/75/333
f 36/69/334 67/68/335 37/117/336
f 66/70/337 46/48/338 67/68/339
f 82/118/340 83/119/341 48/49/342
f 44/120/343 45/121/344 38/122/345
f 62/62/346 61/61/347 37/117/348
f 61/65/349 65/65/350 37/123/351
f 46/48/352 66/70/353 41/45/354
f 42/55/355 58/54/356 52/124/357
f 58/54/358 59/56/359 52/124/360
f 59/57/361 60/57/362 52/60/363
f 42/55/364 52/124/365 63/63/366
f 64/64/367 63/63/368 52/124/369
f 38/77/370 84/125/371 85/125/372
f 38/77/373 85/125/374 69/78/375
f 53/116/376 48/81/377 70/80/378
f 55/126/379 82/118/380 86/127/381
f 55/126/382 86/127/383 87/127/384
f 62/62/385 37/117/386 42/55/387
f 42/55/388 63/63/389 62/62/390
f 37/123/391 65/65/392 52/67/393
f 41/45/394 66/70/395 36/69/396
f 86/127/397 82/118/398 48/49/399
f 87/127/400 86/127/401 48/49/402
f 48/49/403 54/51/404 87/127/405
f 55/53/406 87/128/407 54/129/408
f 54/129/409 53/116/410 55/53/411
f 45/121/412 55/130/413 38/122/414
f 84/131/415 38/122/416 55/130/417
f 55/130/418 56/132/419 84/131/420
f 85/125/421 84/125/422 56/52/423
f 56/52/424 57/52/425 85/125/426
f 69/78/427 85/125/428 57/52/429
f 57/52/430 55/53/431 69/78/432
f 53/116/433 70/80/434 39/76/435
f 39/76/436 43/75/437 53/116/438
f 37/117/439 67/68/440 46/48/441
f 46/48/442 42/55/443 37/117/444
f 35/79/445 47/74/446 40/71/447
f 40/71/448 68/72/449 35/79/450
f 48/81/451 47/133/452 35/134/453
f 35/134/454 49/82/455 48/81/456
f 88/135/457 89/136/458 90/137/459
f 90/137/460 91/138/461 88/135/462
f 92/139/463 93/140/464 94/141/465
f 94/141/466 95/142/467 92/139/468
f 88/143/469 92/144/470 95/145/471
f 95/145/472 89/146/473 88/143/474
f 89/147/475 95/148/476 94/149/477
f 94/149/478 90/150/479 89/147/480
f 90/151/481 94/152/482 93/153/483
f 93/153/484 91/154/485 90/151/486
f 91/155/487 93/156/488 92/157/489
f 92/157/490 88/158/491 91/155/492
f 18/90/493 20/94/494 12/13/495
f 73/112/496 72/159/497 12/106/498
f 3/160/499 14/161/500 8/21/501
f 45/121/502 44/120/503 52/67/504
f 55/130/505 45/121/506 52/67/507
f 52/60/508 83/119/509 55/126/510
f 82/118/511 55/126/512 83/119/513
f 8/21/514 14/161/515 12/162/516
f 8/21/517 12/162/518 72/92/519
f 41/59/520 47/163/521 52/60/522
f 52/60/523 47/163/524 48/49/525
f 48/49/526 83/119/527 52/60/528
f 38/122/529 37/123/530 52/67/531
f 38/122/532 52/67/533 44/120/534
