mtllib WallPainting0018.mtl
# File exported by Houdini 18.5.351 (www.sidefx.com)
# 24 points
# 108 vertices
# 36 primitives
# Bounds: [-0.00703351665, -0.469000041, -0.200000077] to [0.00696648424, 0.468999952, 0.199999914]
g 
usemtl WallPainting0018
v -0.007 -0.469 0.200
v -0.007 0.469 0.200
v -0.007 0.469 -0.200
v -0.007 -0.469 -0.200
v 0.005 -0.462 0.194
v 0.005 0.462 -0.194
v 0.005 0.462 0.194
v 0.005 -0.462 -0.194
v 0.007 -0.469 -0.200
v 0.007 0.469 -0.200
v 0.007 -0.468 -0.199
v 0.007 0.468 -0.199
v 0.007 -0.462 -0.194
v 0.007 0.462 -0.194
v 0.005 0.462 -0.194
v 0.005 -0.462 -0.194
v 0.007 -0.469 0.200
v 0.007 0.469 0.200
v 0.007 0.468 0.199
v 0.007 -0.468 0.199
v 0.007 0.462 0.194
v 0.007 -0.462 0.194
v 0.005 0.462 0.194
v 0.005 -0.462 0.194
vt 0.000 1.000
vt 0.000 0.000
vt 0.457 0.000
vt 0.457 1.000
vt 0.462 0.014
vt 0.905 1.000
vt 0.462 1.000
vt 0.905 0.014
vt 0.945 1.000
vt 0.945 0.000
vt 0.961 1.000
vt 0.961 0.000
vt 0.962 0.999
vt 0.962 0.001
vt 0.968 0.993
vt 0.968 0.007
vt 0.970 0.007
vt 0.970 0.993
vt 0.937 0.000
vt 0.939 1.000
vt 0.923 1.000
vt 0.921 0.000
vt 0.920 0.001
vt 0.923 0.999
vt 0.914 0.007
vt 0.917 0.994
vt 0.912 0.007
vt 0.914 0.993
vt 1.000 0.562
vt 0.997 0.149
vt 1.000 0.149
vt 0.997 0.562
vt 0.991 0.143
vt 0.991 0.568
vt 0.990 0.569
vt 0.990 0.142
vt 0.975 0.569
vt 0.975 0.142
vt 1.000 0.573
vt 1.000 1.000
vt 0.984 0.574
vt 0.984 1.000
vt 0.983 0.574
vt 0.983 0.999
vt 0.977 0.580
vt 0.977 0.993
vt 0.975 0.580
vt 0.975 0.993
vn -1.000 0.000 0.000
vn -1.000 0.000 0.000
vn -1.000 0.000 0.000
vn -1.000 0.000 0.000
vn -1.000 0.000 0.000
vn -1.000 0.000 0.000
vn 1.000 0.000 0.000
vn 1.000 0.000 0.000
vn 1.000 0.000 0.000
vn 1.000 0.000 0.000
vn 1.000 0.000 0.000
vn 1.000 0.000 0.000
vn 0.000 0.000 -1.000
vn 0.001 0.000 -1.000
vn 0.020 0.000 -1.000
vn 0.039 0.000 -0.999
vn 0.020 0.000 -1.000
vn 0.001 0.000 -1.000
vn 0.020 0.000 -1.000
vn 0.039 0.000 -0.999
vn 0.999 -0.010 -0.053
vn 0.999 -0.010 -0.053
vn 0.923 0.260 -0.284
vn 1.000 0.008 -0.017
vn 1.000 0.008 -0.017
vn 1.000 0.001 0.004
vn 0.999 -0.010 -0.053
vn 1.000 0.001 0.004
vn 1.000 0.008 -0.017
vn 1.000 -0.002 0.003
vn 0.055 0.000 0.998
vn 0.055 0.000 0.998
vn 0.064 0.000 0.998
vn 0.055 0.000 0.998
vn 0.046 0.000 0.999
vn 0.055 0.000 0.998
vn 0.001 0.000 1.000
vn 0.000 0.000 1.000
vn 0.039 0.000 0.999
vn 0.001 0.000 1.000
vn 0.039 0.000 0.999
vn 0.039 0.000 0.999
vn 0.039 0.000 0.999
vn 0.039 0.000 0.999
vn 0.998 0.022 0.055
vn 0.998 0.022 0.055
vn 0.039 0.000 0.999
vn 1.000 -0.018 0.018
vn 1.000 -0.018 0.018
vn 1.000 -0.001 -0.004
vn 0.998 0.022 0.055
vn 1.000 -0.001 -0.004
vn 1.000 -0.018 0.018
vn 1.000 0.002 -0.003
vn 0.055 0.000 -0.998
vn 0.055 0.000 -0.998
vn 0.063 0.000 -0.998
vn 0.055 0.000 -0.998
vn 0.055 0.000 -0.998
vn 0.047 0.000 -0.999
vn 0.057 -0.998 0.000
vn 0.057 -0.998 0.000
vn 0.050 -0.999 0.000
vn 0.057 -0.998 0.000
vn 0.057 -0.998 0.000
vn 0.064 -0.998 0.000
vn 1.000 -0.002 0.003
vn 0.998 0.022 0.055
vn 1.000 -0.001 -0.004
vn 0.998 0.022 0.055
vn 1.000 -0.002 0.003
vn 1.000 0.008 -0.017
vn 0.923 0.260 -0.284
vn 0.998 0.022 0.055
vn 1.000 0.008 -0.017
vn 0.998 0.022 0.055
vn 0.923 0.260 -0.284
vn 0.020 1.000 0.000
vn 0.001 1.000 0.000
vn 0.020 1.000 0.000
vn 0.001 1.000 0.000
vn 0.020 1.000 0.000
vn 0.001 1.000 0.000
vn 0.000 1.000 0.000
vn 0.000 -1.000 0.000
vn 0.001 -1.000 0.000
vn 0.020 -1.000 0.000
vn 0.020 -1.000 0.000
vn 0.001 -1.000 0.000
vn 0.075 -0.997 0.000
vn 0.020 -1.000 0.000
vn 0.075 -0.997 0.000
vn 1.000 -0.018 0.018
vn 1.000 -0.018 0.018
vn 0.075 -0.997 0.000
vn 0.999 -0.010 -0.053
vn 0.999 -0.010 -0.053
vn 1.000 0.002 -0.003
vn 1.000 -0.018 0.018
vn 1.000 0.002 -0.003
vn 0.999 -0.010 -0.053
vn 1.000 0.001 0.004
vn 0.053 0.999 0.000
vn 0.053 0.999 0.000
vn 0.060 0.998 0.000
vn 0.053 0.999 0.000
vn 0.053 0.999 0.000
vn 0.046 0.999 0.000
g 
usemtl WallPainting0018
f 1/1/1 2/2/2 3/3/3
f 1/1/4 3/3/5 4/4/6
f 5/5/7 6/6/8 7/7/9
f 6/6/10 5/5/11 8/8/12
f 4/9/13 3/10/14 9/11/15
f 10/12/16 9/11/17 3/10/18
f 9/11/19 10/12/20 11/13/21
f 11/13/22 10/12/23 12/14/24
f 12/14/25 13/15/26 11/13/27
f 13/15/28 12/14/29 14/16/30
f 15/17/31 13/15/32 14/16/33
f 15/17/34 16/18/35 13/15/36
f 2/19/37 1/20/38 17/21/39
f 2/19/40 17/21/41 18/22/42
f 18/22/43 17/21/44 19/23/45
f 19/23/46 17/21/47 20/24/48
f 20/24/49 21/25/50 19/23/51
f 21/25/52 20/24/53 22/26/54
f 22/26/55 23/27/56 21/25/57
f 23/27/58 22/26/59 24/28/60
f 15/29/61 21/30/62 23/31/63
f 21/30/64 15/29/65 14/32/66
f 14/32/67 19/33/68 21/30/69
f 19/33/70 14/32/71 12/34/72
f 10/35/73 19/33/74 12/34/75
f 19/33/76 10/35/77 18/36/78
f 3/37/79 18/36/80 10/35/81
f 18/36/82 3/37/83 2/38/84
f 1/39/85 4/40/86 17/41/87
f 17/41/88 4/40/89 9/42/90
f 17/41/91 9/42/92 20/43/93
f 20/43/94 9/42/95 11/44/96
f 11/44/97 22/45/98 20/43/99
f 22/45/100 11/44/101 13/46/102
f 13/46/103 24/47/104 22/45/105
f 24/47/106 13/46/107 16/48/108
