mtllib WallLight0001.mtl
# File exported by Houdini 18.5.351 (www.sidefx.com)
# 84 points
# 465 vertices
# 155 primitives
# Bounds: [-0.0696543455, -0.049999997, -0.0529999956] to [0.0693456456, 0.049999997, 0.0529999956]
g 
usemtl WallLight0001
v -0.070 -0.021 0.033
v -0.021 -0.021 0.033
v -0.021 0.022 0.033
v -0.070 0.022 0.033
v -0.070 0.022 -0.033
v -0.021 0.022 -0.033
v -0.070 -0.022 -0.033
v -0.021 -0.022 -0.033
v -0.070 -0.022 0.033
v -0.004 -0.048 0.049
v 0.006 -0.049 0.052
v 0.021 -0.047 0.051
v 0.040 -0.047 0.045
v 0.058 -0.047 0.031
v 0.031 -0.049 0.051
v -0.003 0.049 0.048
v 0.016 0.049 0.053
v 0.025 0.049 0.051
v 0.040 0.048 0.046
v 0.045 0.049 0.043
v 0.056 0.048 0.033
v 0.064 0.049 0.020
v 0.068 0.048 0.010
v 0.068 0.047 -0.004
v 0.067 0.049 -0.005
v 0.067 0.050 -0.016
v 0.056 0.049 -0.033
v 0.045 0.049 -0.043
v 0.060 0.049 -0.030
v 0.031 0.049 -0.049
v 0.021 0.047 -0.051
v 0.011 0.049 -0.051
v -0.004 0.049 -0.047
v 0.042 0.049 -0.047
v -0.008 0.047 -0.046
v -0.021 0.049 -0.037
v -0.033 0.050 -0.021
v -0.036 0.048 0.011
v -0.035 0.049 0.005
v -0.029 0.050 0.029
v -0.018 0.047 0.039
v -0.017 0.049 0.040
v -0.014 0.049 0.044
v -0.021 -0.049 0.038
v -0.021 -0.047 0.036
v -0.034 -0.048 0.019
v -0.036 0.049 -0.010
v 0.000 0.049 -0.051
v -0.037 -0.048 -0.001
v -0.030 -0.048 -0.028
v -0.018 -0.049 -0.042
v -0.001 -0.047 -0.048
v 0.017 -0.048 -0.053
v 0.036 -0.047 -0.047
v 0.036 -0.049 -0.049
v 0.056 -0.048 -0.036
v 0.069 -0.048 0.001
v 0.026 0.049 -0.052
v -0.019 0.049 -0.041
v 0.063 -0.047 -0.019
v 0.065 -0.049 0.020
v 0.054 -0.049 0.038
v 0.046 0.049 0.044
v 0.061 0.049 0.029
v 0.036 -0.045 -0.019
v 0.019 -0.044 -0.027
v 0.042 -0.044 -0.006
v 0.041 -0.045 0.011
v 0.026 -0.044 0.026
v 0.005 -0.045 0.025
v 0.004 -0.045 -0.024
v -0.010 -0.044 0.010
v -0.009 -0.045 -0.011
v 0.011 -0.049 -0.051
v -0.024 -0.049 -0.033
v 0.049 -0.050 -0.040
v -0.032 -0.050 -0.019
v -0.035 -0.049 0.005
v 0.067 -0.050 -0.006
v -0.032 -0.050 0.021
v 0.065 -0.049 0.015
v 0.056 -0.049 0.032
v -0.003 -0.050 0.048
v 0.022 -0.050 0.051
vt 0.796 0.836
vt 1.000 1.000
vt 0.796 1.000
vt 1.000 0.835
vt 1.000 0.579
vt 0.796 0.579
vt 1.000 0.413
vt 0.796 0.413
vt 1.000 0.157
vt 0.796 0.155
vt 1.000 0.154
vt 0.332 0.111
vt 0.331 0.033
vt 0.346 0.081
vt 0.349 0.144
vt 0.330 0.001
vt 0.008 0.007
vt 0.021 0.063
vt 0.010 0.093
vt 0.000 0.159
vt 0.008 0.143
vt 0.008 0.206
vt 0.000 0.253
vt 0.022 0.284
vt 0.006 0.327
vt 0.000 0.330
vt 0.017 0.361
vt 0.006 0.469
vt 0.000 0.423
vt 0.021 0.409
vt 0.006 0.548
vt 0.000 0.517
vt 0.003 0.578
vt 0.021 0.482
vt 0.006 0.638
vt 0.000 0.625
vt 0.000 0.688
vt 0.017 0.748
vt 0.000 0.828
vt 0.022 0.845
vt 0.017 0.902
vt 0.000 0.951
vt 0.006 0.948
vt 0.009 1.000
vt 0.021 0.968
vt 0.330 1.000
vt 0.332 0.938
vt 0.330 0.870
vt 0.350 0.933
vt 0.021 0.782
vt 0.021 0.610
vt 0.330 0.808
vt 0.330 0.725
vt 0.332 0.502
vt 0.350 0.498
vt 0.330 0.559
vt 0.331 0.429
vt 0.021 0.534
vt 0.349 0.617
vt 0.331 0.671
vt 0.018 0.675
vt 0.331 0.312
vt 0.350 0.376
vt 0.346 0.214
vt 0.332 0.252
vt 0.332 0.190
vt 0.021 0.160
vt 0.021 0.222
vt 0.365 0.465
vt 0.353 0.355
vt 0.401 0.517
vt 0.448 0.564
vt 0.544 0.588
vt 0.652 0.580
vt 0.717 0.532
vt 0.779 0.410
vt 0.762 0.466
vt 0.770 0.332
vt 0.743 0.279
vt 0.588 0.192
vt 0.700 0.237
vt 0.628 0.194
vt 0.484 0.205
vt 0.388 0.279
vt 0.581 0.084
vt 0.677 0.001
vt 0.609 0.034
vt 0.589 0.148
vt 0.651 0.204
vt 0.798 0.143
vt 0.738 0.201
vt 0.740 0.012
vt 0.794 0.062
vt 0.578 0.998
vt 0.554 0.994
vt 0.501 0.984
vt 0.657 0.979
vt 0.410 0.922
vt 0.438 0.953
vt 0.388 0.902
vt 0.374 0.870
vt 0.733 0.930
vt 0.708 0.950
vt 0.357 0.801
vt 0.769 0.872
vt 0.362 0.777
vt 0.371 0.724
vt 0.377 0.717
vt 0.789 0.794
vt 0.784 0.819
vt 0.420 0.657
vt 0.774 0.738
vt 0.751 0.674
vt 0.738 0.671
vt 0.494 0.610
vt 0.490 0.609
vt 0.672 0.621
vt 0.531 0.600
vt 0.597 0.598
vt 0.594 0.593
vt 0.586 0.899
vt 0.524 0.889
vt 0.653 0.867
vt 0.680 0.817
vt 0.673 0.754
vt 0.613 0.699
vt 0.527 0.702
vt 0.469 0.759
vt 0.472 0.839
vn -0.002 0.844 0.537
vn -0.005 0.001 1.000
vn 0.010 -0.837 0.547
vn -0.005 0.001 1.000
vn -0.002 0.844 0.537
vn -0.005 0.844 0.537
vn -0.005 0.844 0.537
vn -0.002 0.844 0.537
vn 0.000 0.951 -0.309
vn 0.000 0.611 -0.791
vn 0.000 0.951 -0.309
vn -0.002 0.844 0.537
vn 0.000 0.951 -0.309
vn 0.000 0.611 -0.791
vn 0.000 -0.609 -0.793
vn 0.000 -0.838 -0.546
vn 0.000 -0.609 -0.793
vn 0.000 0.611 -0.791
vn 0.000 -0.609 -0.793
vn 0.000 -0.838 -0.546
vn 0.006 -1.000 0.010
vn 0.010 -0.837 0.547
vn 0.006 -1.000 0.010
vn 0.012 -1.000 0.009
vn 0.006 -1.000 0.010
vn 0.010 -0.837 0.547
vn -0.005 0.001 1.000
vn -0.233 -0.701 -0.674
vn -0.041 -0.181 -0.983
vn -0.120 -0.744 -0.658
vn -0.120 -0.744 -0.658
vn -0.283 -0.822 -0.494
vn -0.233 -0.701 -0.674
vn -0.438 -0.009 0.899
vn -0.130 -0.014 0.991
vn -0.295 0.038 0.955
vn -0.035 0.002 0.999
vn -0.130 -0.014 0.991
vn 0.293 -0.001 0.956
vn -0.035 0.002 0.999
vn -0.295 0.038 0.955
vn -0.130 -0.014 0.991
vn 0.068 0.973 0.221
vn -0.035 0.002 0.999
vn 0.293 -0.001 0.956
vn 0.068 0.973 0.221
vn -0.295 0.038 0.955
vn 0.003 1.000 0.005
vn 0.466 0.412 0.783
vn 0.068 0.973 0.221
vn 0.466 0.412 0.783
vn 0.466 0.412 0.783
vn 0.579 -0.678 0.452
vn 0.466 0.412 0.783
vn 0.047 0.999 0.018
vn 0.062 0.996 0.057
vn -0.146 0.982 -0.118
vn 0.579 -0.678 0.452
vn 0.987 0.003 0.161
vn 0.597 -0.742 0.305
vn -0.506 0.859 -0.081
vn 0.504 0.863 0.006
vn 0.047 0.999 0.018
vn 0.008 1.000 0.001
vn 0.047 0.999 0.018
vn 0.504 0.863 0.006
vn 0.504 0.863 0.006
vn 0.961 0.001 -0.277
vn 0.008 1.000 0.001
vn -0.694 -0.695 0.188
vn -0.058 -0.997 -0.043
vn -0.211 -0.953 0.216
vn 0.961 0.001 -0.277
vn 0.778 0.042 -0.626
vn 0.009 1.000 -0.015
vn -0.058 -0.997 -0.043
vn 0.024 -0.950 0.312
vn 0.256 -0.805 -0.535
vn -0.016 0.910 -0.415
vn 0.030 0.964 -0.265
vn -0.010 0.945 -0.326
vn 0.024 -0.950 0.312
vn -0.066 -0.909 0.411
vn -0.066 -0.909 0.411
vn -0.389 0.379 -0.840
vn -0.389 0.379 -0.840
vn -0.016 0.910 -0.415
vn 0.012 1.000 -0.011
vn -0.389 0.379 -0.840
vn -0.389 0.379 -0.840
vn 0.218 -0.926 0.308
vn 0.218 -0.926 0.308
vn -0.175 -0.981 -0.079
vn 0.005 1.000 -0.001
vn -0.864 0.095 -0.495
vn -0.982 0.027 0.184
vn -0.982 0.027 0.184
vn -0.832 0.014 0.554
vn 0.005 1.000 -0.001
vn -0.023 0.999 0.026
vn -0.832 0.014 0.554
vn -0.593 0.193 0.782
vn -0.593 0.193 0.782
vn -0.295 0.038 0.955
vn -0.023 0.999 0.026
vn 0.491 0.619 -0.612
vn 0.491 0.619 -0.612
vn 0.032 0.995 -0.096
vn 0.491 0.619 -0.612
vn 0.491 0.619 -0.612
vn 0.274 0.941 -0.198
vn -0.295 0.038 0.955
vn -0.587 0.004 0.810
vn -0.438 -0.009 0.899
vn -0.717 -0.003 0.697
vn -0.587 0.004 0.810
vn -0.832 0.014 0.554
vn -0.717 -0.003 0.697
vn -0.438 -0.009 0.899
vn -0.587 0.004 0.810
vn -0.926 -0.016 0.377
vn -0.717 -0.003 0.697
vn -0.832 0.014 0.554
vn 0.486 -0.804 -0.344
vn -0.119 -0.983 0.138
vn 0.402 -0.828 -0.390
vn -0.926 -0.016 0.377
vn -0.832 0.014 0.554
vn -0.982 0.027 0.184
vn -0.982 0.027 0.184
vn -0.864 0.095 -0.495
vn -0.983 0.007 -0.182
vn 0.218 -0.926 0.308
vn 0.373 -0.829 0.417
vn 0.218 -0.926 0.308
vn -0.998 -0.020 -0.058
vn -0.982 0.027 0.184
vn -0.983 0.007 -0.182
vn -0.998 -0.020 -0.058
vn -0.926 -0.016 0.377
vn -0.982 0.027 0.184
vn -0.886 -0.011 -0.464
vn -0.998 -0.020 -0.058
vn -0.983 0.007 -0.182
vn -0.983 0.007 -0.182
vn -0.864 0.095 -0.495
vn -0.886 -0.011 -0.464
vn 0.402 -0.828 -0.390
vn -0.119 -0.983 0.138
vn 0.319 -0.844 -0.431
vn -0.237 -0.826 0.511
vn 0.020 -0.991 -0.130
vn 0.014 -0.995 0.098
vn -0.052 -0.972 0.230
vn 0.020 -0.991 -0.130
vn -0.237 -0.826 0.511
vn 0.812 -0.016 -0.583
vn 0.393 -0.006 -0.919
vn 0.556 0.006 -0.831
vn 0.393 -0.006 -0.919
vn -0.114 -0.015 -0.993
vn 0.139 0.004 -0.990
vn 0.234 0.662 0.712
vn 0.234 0.662 0.712
vn 0.234 0.662 0.712
vn -0.114 -0.015 -0.993
vn -0.480 -0.021 -0.877
vn -0.282 0.018 -0.959
vn -0.700 0.043 -0.713
vn -0.282 0.018 -0.959
vn -0.480 -0.021 -0.877
vn -0.480 -0.021 -0.877
vn -0.886 -0.011 -0.464
vn -0.700 0.043 -0.713
vn -0.864 0.095 -0.495
vn -0.700 0.043 -0.713
vn -0.886 -0.011 -0.464
vn -0.864 0.095 -0.495
vn -0.282 0.018 -0.959
vn -0.700 0.043 -0.713
vn 0.000 1.000 0.001
vn 0.002 0.994 0.105
vn 0.004 0.949 0.315
vn 0.373 -0.829 0.417
vn -0.066 -0.909 0.411
vn -0.066 -0.909 0.411
vn -0.017 1.000 0.017
vn 0.001 0.999 0.033
vn 0.002 0.994 0.105
vn -0.010 0.945 -0.326
vn 0.009 1.000 -0.015
vn -0.017 1.000 0.017
vn -0.114 -0.015 -0.993
vn -0.282 0.018 -0.959
vn 0.139 0.004 -0.990
vn 0.393 -0.006 -0.919
vn 0.139 0.004 -0.990
vn 0.556 0.006 -0.831
vn 0.812 -0.016 -0.583
vn 0.556 0.006 -0.831
vn 0.778 0.042 -0.626
vn 0.009 1.000 -0.015
vn 0.778 0.042 -0.626
vn 0.556 0.006 -0.831
vn 0.778 0.042 -0.626
vn 0.961 0.001 -0.277
vn 0.812 -0.016 -0.583
vn 0.991 -0.021 -0.132
vn 0.812 -0.016 -0.583
vn 0.961 0.001 -0.277
vn -0.757 0.591 0.280
vn -0.757 0.591 0.280
vn -0.162 0.921 0.354
vn -0.431 -0.856 -0.286
vn -0.341 -0.935 -0.101
vn -0.495 -0.840 -0.222
vn -0.495 -0.840 -0.222
vn -0.477 -0.678 -0.559
vn -0.431 -0.856 -0.286
vn -0.283 -0.822 -0.494
vn -0.431 -0.856 -0.286
vn -0.477 -0.678 -0.559
vn -0.477 -0.678 -0.559
vn -0.233 -0.701 -0.674
vn -0.283 -0.822 -0.494
vn 0.293 -0.001 0.956
vn 0.689 -0.006 0.725
vn 0.524 0.005 0.852
vn 0.293 -0.001 0.956
vn 0.524 0.005 0.852
vn 0.068 0.973 0.221
vn 0.689 -0.006 0.725
vn 0.925 -0.003 0.380
vn 0.837 0.003 0.548
vn 0.925 -0.003 0.380
vn 0.991 -0.021 -0.132
vn 0.987 0.003 0.161
vn 0.689 -0.006 0.725
vn 0.837 0.003 0.548
vn 0.524 0.005 0.852
vn 0.925 -0.003 0.380
vn 0.987 0.003 0.161
vn 0.837 0.003 0.548
vn -0.026 0.992 -0.122
vn -0.394 0.712 -0.582
vn -0.304 0.768 -0.563
vn -0.146 0.982 -0.118
vn -0.304 0.768 -0.563
vn -0.394 0.712 -0.582
vn -0.394 0.712 -0.582
vn -0.415 0.864 -0.284
vn -0.146 0.982 -0.118
vn -0.506 0.859 -0.081
vn -0.146 0.982 -0.118
vn -0.415 0.864 -0.284
vn -0.694 -0.695 0.188
vn -0.998 0.035 0.050
vn -0.506 0.859 -0.081
vn 0.991 -0.021 -0.132
vn 0.961 0.001 -0.277
vn 0.987 0.003 0.161
vn 0.032 0.995 -0.096
vn -0.026 0.992 -0.122
vn -0.023 0.999 0.026
vn 0.274 0.941 -0.198
vn 0.162 0.983 -0.086
vn 0.005 1.000 -0.001
vn -0.023 0.999 0.026
vn 0.068 0.973 0.221
vn 0.005 1.000 -0.001
vn 0.131 0.990 0.045
vn 0.005 1.000 -0.001
vn 0.012 1.000 -0.011
vn 0.005 1.000 -0.001
vn 0.000 1.000 0.001
vn 0.012 1.000 -0.011
vn 0.068 0.973 0.221
vn 0.000 1.000 0.001
vn 0.005 1.000 -0.001
vn 0.012 1.000 -0.011
vn 0.000 1.000 0.001
vn -0.005 1.000 -0.007
vn 0.030 0.964 -0.265
vn -0.016 0.910 -0.415
vn 0.009 1.000 -0.015
vn 0.009 1.000 -0.015
vn 0.000 1.000 0.001
vn 0.008 1.000 0.001
vn -0.101 0.994 0.040
vn 0.009 1.000 -0.015
vn 0.008 1.000 0.001
vn 0.008 1.000 0.001
vn 0.000 1.000 0.001
vn 0.068 0.973 0.221
vn -0.279 0.953 0.114
vn -0.101 0.994 0.040
vn -0.279 0.953 0.114
vn 0.047 0.999 0.018
vn 0.008 1.000 0.001
vn 0.068 0.973 0.221
vn 0.062 0.996 0.057
vn 0.047 0.999 0.018
vn 0.068 0.973 0.221
vn -0.085 -0.996 0.013
vn -0.012 -0.998 0.069
vn -0.165 -0.979 0.123
vn -0.182 -0.981 -0.071
vn -0.030 -0.997 -0.073
vn -0.085 -0.996 0.013
vn -0.030 -0.997 -0.073
vn -0.012 -0.998 0.069
vn -0.085 -0.996 0.013
vn 0.078 -0.996 -0.048
vn -0.012 -0.998 0.069
vn -0.030 -0.997 -0.073
vn 0.053 -0.985 -0.164
vn 0.078 -0.996 -0.048
vn -0.030 -0.997 -0.073
vn 0.130 -0.975 0.182
vn -0.012 -0.998 0.069
vn 0.153 -0.988 0.036
vn 0.153 -0.988 0.036
vn -0.012 -0.998 0.069
vn 0.078 -0.996 -0.048
vn -0.114 -0.015 -0.993
vn -0.045 -0.946 -0.321
vn -0.145 -0.922 -0.358
vn 0.020 -0.991 -0.130
vn -0.045 -0.946 -0.321
vn 0.014 -0.995 0.098
vn -0.145 -0.922 -0.358
vn -0.104 -0.980 -0.167
vn 0.064 -0.998 -0.002
vn -0.886 -0.011 -0.464
vn -0.480 -0.021 -0.877
vn -0.104 -0.980 -0.167
vn -0.104 -0.980 -0.167
vn -0.333 -0.940 -0.068
vn -0.886 -0.011 -0.464
vn 0.496 0.213 -0.842
vn 0.812 -0.016 -0.583
vn 0.444 -0.707 -0.551
vn -0.998 -0.020 -0.058
vn -0.886 -0.011 -0.464
vn -0.333 -0.940 -0.068
vn 0.473 -0.853 -0.220
vn -0.120 -0.979 0.162
vn -0.052 -0.972 0.230
vn -0.333 -0.940 -0.068
vn -0.281 -0.959 0.020
vn -0.998 -0.020 -0.058
vn -0.926 -0.016 0.377
vn -0.998 -0.020 -0.058
vn -0.281 -0.959 0.020
vn -0.281 -0.959 0.020
vn 0.124 -0.992 -0.022
vn -0.926 -0.016 0.377
vn 0.942 0.157 -0.297
vn 0.991 -0.021 -0.132
vn 0.687 -0.681 -0.254
vn -0.671 -0.479 0.566
vn -0.926 -0.016 0.377
vn 0.124 -0.992 -0.022
vn 0.352 -0.928 0.125
vn 0.687 -0.681 -0.254
vn 0.991 -0.021 -0.132
vn -0.162 0.921 0.354
vn 0.805 0.205 0.556
vn 0.642 0.734 0.220
vn 0.406 -0.802 0.438
vn 0.352 -0.928 0.125
vn 0.805 0.205 0.556
vn -0.119 -0.983 0.138
vn 0.060 -0.993 -0.099
vn -0.438 -0.009 0.899
vn 0.805 0.205 0.556
vn 0.434 -0.452 0.779
vn 0.406 -0.802 0.438
vn -0.130 -0.014 0.991
vn -0.438 -0.009 0.899
vn 0.060 -0.993 -0.099
vn 0.060 -0.993 -0.099
vn 0.229 -0.663 0.713
vn -0.130 -0.014 0.991
vn 0.215 0.104 0.971
vn -0.130 -0.014 0.991
vn 0.229 -0.663 0.713
vn 0.229 -0.663 0.713
vn 0.434 -0.452 0.779
vn 0.215 0.104 0.971
vn -0.012 -0.998 0.069
vn 0.130 -0.975 0.182
vn 0.055 -0.975 0.218
vn 0.055 -0.975 0.218
vn -0.120 -0.979 0.162
vn -0.012 -0.998 0.069
vn 0.444 -0.707 -0.551
vn -0.045 -0.946 -0.321
vn 0.020 -0.991 -0.130
vn -0.012 -0.998 0.069
vn -0.120 -0.979 0.162
vn -0.165 -0.979 0.123
vn -0.120 -0.979 0.162
vn -0.189 -0.982 0.028
vn -0.165 -0.979 0.123
vn 0.687 -0.681 -0.254
vn 0.444 -0.707 -0.551
vn 0.473 -0.853 -0.220
vn -0.165 -0.979 0.123
vn -0.189 -0.982 0.028
vn -0.085 -0.996 0.013
vn -0.085 -0.996 0.013
vn -0.189 -0.982 0.028
vn -0.182 -0.981 -0.071
vn -0.163 -0.977 -0.134
vn -0.182 -0.981 -0.071
vn -0.189 -0.982 0.028
vn 0.352 -0.928 0.125
vn 0.406 -0.802 0.438
vn -0.189 -0.982 0.028
vn -0.182 -0.981 -0.071
vn -0.163 -0.977 -0.134
vn -0.030 -0.997 -0.073
vn -0.163 -0.977 -0.134
vn -0.034 -0.978 -0.207
vn -0.030 -0.997 -0.073
vn 0.229 -0.663 0.713
vn 0.406 -0.802 0.438
vn 0.434 -0.452 0.779
vn -0.030 -0.997 -0.073
vn -0.034 -0.978 -0.207
vn 0.053 -0.985 -0.164
vn 0.060 -0.993 -0.099
vn 0.053 -0.985 -0.164
vn -0.034 -0.978 -0.207
vn 0.053 -0.985 -0.164
vn 0.060 -0.993 -0.099
vn 0.078 -0.996 -0.048
vn 0.060 -0.993 -0.099
vn -0.119 -0.983 0.138
vn 0.124 -0.992 -0.022
vn 0.124 -0.992 -0.022
vn 0.078 -0.996 -0.048
vn 0.060 -0.993 -0.099
vn 0.078 -0.996 -0.048
vn 0.124 -0.992 -0.022
vn 0.153 -0.988 0.036
vn 0.124 -0.992 -0.022
vn -0.281 -0.959 0.020
vn -0.333 -0.940 -0.068
vn 0.147 -0.985 0.092
vn 0.153 -0.988 0.036
vn 0.124 -0.992 -0.022
vn 0.153 -0.988 0.036
vn 0.147 -0.985 0.092
vn 0.130 -0.975 0.182
vn 0.147 -0.985 0.092
vn -0.104 -0.980 -0.167
vn -0.045 -0.946 -0.321
vn 0.055 -0.975 0.218
vn 0.130 -0.975 0.182
vn 0.147 -0.985 0.092
vn -0.145 -0.922 -0.358
vn -0.045 -0.946 -0.321
vn -0.104 -0.980 -0.167
g 
usemtl WallLight0001
f 3/1/1 1/2/2 2/3/3
f 1/2/4 3/1/5 4/4/6
f 4/4/7 3/1/8 5/5/9
f 6/6/10 5/5/11 3/1/12
f 5/5/13 6/6/14 7/7/15
f 8/8/16 7/7/17 6/6/18
f 7/7/19 8/8/20 9/9/21
f 2/10/22 9/9/23 8/8/24
f 9/9/25 2/10/26 1/11/27
f 15/12/28 11/13/29 12/14/30
f 12/14/31 13/15/32 15/12/33
f 10/16/34 11/13/35 16/17/36
f 17/18/37 11/13/38 15/12/39
f 17/18/40 16/17/41 11/13/42
f 18/19/43 17/18/44 15/12/45
f 18/19/46 16/17/47 17/18/48
f 20/20/49 18/19/50 19/21/51
f 19/21/52 21/22/53 20/20/54
f 22/23/55 20/20/56 21/22/57
f 21/22/58 23/24/59 22/23/60
f 23/24/61 24/25/62 22/23/63
f 25/26/64 22/23/65 24/25/66
f 24/25/67 26/27/68 25/26/69
f 26/27/70 28/28/71 27/29/72
f 26/27/73 29/30/74 28/28/75
f 28/28/76 31/31/77 30/32/78
f 32/33/79 30/32/80 31/31/81
f 31/31/82 34/34/83 32/33/84
f 35/35/85 33/36/86 32/33/87
f 36/37/88 33/36/89 35/35/90
f 35/35/91 37/38/92 36/37/93
f 39/39/94 37/38/95 38/40/96
f 38/40/97 40/41/98 39/39/99
f 42/42/100 40/41/101 41/43/102
f 41/43/103 16/44/104 42/42/105
f 41/43/106 43/45/107 16/44/108
f 43/45/109 41/43/110 40/41/111
f 16/44/112 43/45/113 10/46/114
f 44/47/115 43/45/116 40/41/117
f 44/47/118 10/46/119 43/45/120
f 46/48/121 44/47/122 40/41/123
f 46/48/124 45/49/125 44/47/126
f 46/48/127 40/41/128 38/40/129
f 38/40/130 37/38/131 47/50/132
f 35/35/133 48/51/134 37/38/135
f 49/52/136 38/40/137 47/50/138
f 49/52/139 46/48/140 38/40/141
f 50/53/142 49/52/143 47/50/144
f 47/50/145 37/38/146 50/53/147
f 44/47/148 45/49/149 10/46/150
f 55/54/151 54/55/152 53/56/153
f 56/57/154 54/55/155 55/54/156
f 56/57/157 55/54/158 34/34/159
f 55/54/160 53/56/161 58/58/162
f 52/59/163 51/60/164 53/56/165
f 53/56/166 51/60/167 48/51/168
f 59/61/169 48/51/170 51/60/171
f 51/60/172 50/53/173 59/61/174
f 37/38/175 59/61/176 50/53/177
f 37/38/178 48/51/179 59/61/180
f 32/33/181 48/51/182 35/35/183
f 48/51/184 32/33/185 34/34/186
f 34/34/187 58/58/188 48/51/189
f 31/31/190 28/28/191 34/34/192
f 53/56/193 48/51/194 58/58/195
f 55/54/196 58/58/197 34/34/198
f 56/57/199 34/34/200 29/30/201
f 28/28/202 29/30/203 34/34/204
f 29/30/205 26/27/206 56/57/207
f 57/62/208 56/57/209 26/27/210
f 60/63/211 56/57/212 57/62/213
f 14/64/214 57/62/215 61/65/216
f 61/65/217 62/66/218 14/64/219
f 13/15/220 14/64/221 62/66/222
f 62/66/223 15/12/224 13/15/225
f 15/12/226 62/66/227 63/67/228
f 15/12/229 63/67/230 18/19/231
f 62/66/232 61/65/233 64/68/234
f 61/65/235 57/62/236 23/24/237
f 62/66/238 64/68/239 63/67/240
f 61/65/241 23/24/242 64/68/243
f 18/19/244 63/67/245 19/21/246
f 21/22/247 19/21/248 63/67/249
f 63/67/250 64/68/251 21/22/252
f 23/24/253 21/22/254 64/68/255
f 26/27/256 24/25/257 23/24/258
f 57/62/259 26/27/260 23/24/261
f 16/69/262 18/70/263 42/71/264
f 40/72/265 42/71/266 39/73/267
f 42/71/268 18/70/269 39/73/270
f 37/74/271 39/73/272 36/75/273
f 39/73/274 32/76/275 36/75/276
f 18/70/277 32/76/278 39/73/279
f 36/75/280 32/76/281 33/77/282
f 30/78/283 32/76/284 28/79/285
f 28/79/286 32/76/287 25/80/288
f 27/81/289 28/79/290 25/80/291
f 25/80/292 32/76/293 18/70/294
f 26/82/295 27/81/296 25/80/297
f 22/83/298 25/80/299 18/70/300
f 20/84/301 22/83/302 18/70/303
f 67/85/304 66/86/305 65/87/306
f 68/88/307 69/89/308 67/85/309
f 69/89/310 66/86/311 67/85/312
f 72/90/313 66/86/314 69/89/315
f 70/91/316 72/90/317 69/89/318
f 71/92/319 66/86/320 73/93/321
f 73/93/322 66/86/323 72/90/324
f 53/94/325 74/95/326 52/96/327
f 54/97/328 74/95/329 53/94/330
f 52/96/331 75/98/332 51/99/333
f 50/100/334 51/99/335 75/98/336
f 75/98/337 77/101/338 50/100/339
f 54/97/340 56/102/341 76/103/342
f 49/104/343 50/100/344 77/101/345
f 60/105/346 76/103/347 56/102/348
f 77/101/349 78/106/350 49/104/351
f 46/107/352 49/104/353 78/106/354
f 78/106/355 80/108/356 46/107/357
f 60/105/358 57/109/359 79/110/360
f 45/111/361 46/107/362 80/108/363
f 81/112/364 79/110/365 57/109/366
f 57/109/367 14/113/368 81/112/369
f 82/114/370 81/112/371 14/113/372
f 45/111/373 83/115/374 10/116/375
f 14/113/376 13/117/377 82/114/378
f 11/118/379 10/116/380 83/115/381
f 83/115/382 84/119/383 11/118/384
f 12/120/385 11/118/386 84/119/387
f 84/119/388 13/117/389 12/120/390
f 66/121/391 71/122/392 74/95/393
f 74/95/394 76/103/395 66/121/396
f 76/103/397 74/95/398 54/97/399
f 66/121/400 76/103/401 65/123/402
f 76/103/403 79/110/404 65/123/405
f 79/110/406 76/103/407 60/105/408
f 65/123/409 79/110/410 67/124/411
f 67/124/412 79/110/413 68/125/414
f 82/114/415 68/125/416 79/110/417
f 81/112/418 82/114/419 79/110/420
f 68/125/421 82/114/422 69/126/423
f 82/114/424 84/119/425 69/126/426
f 84/119/427 82/114/428 13/117/429
f 69/126/430 84/119/431 70/127/432
f 83/115/433 70/127/434 84/119/435
f 70/127/436 83/115/437 72/128/438
f 83/115/439 45/111/440 80/108/441
f 80/108/442 72/128/443 83/115/444
f 72/128/445 80/108/446 73/129/447
f 80/108/448 78/106/449 77/101/450
f 77/101/451 73/129/452 80/108/453
f 73/129/454 77/101/455 71/122/456
f 77/101/457 75/98/458 74/95/459
f 74/95/460 71/122/461 77/101/462
f 52/96/463 74/95/464 75/98/465
