mtllib WallLight0002.mtl
# File exported by Houdini 18.0.499 (www.sidefx.com)
# 113 points
# 504 vertices
# 168 primitives
# Bounds: [0, -0.300967515, -0.0259100981] to [0.0864119604, 0.300978601, 0.0263477359]
g 
usemtl WallLight0002
v 0.041 -0.301 -0.018
v 0.046 -0.301 -0.022
v 0.057 -0.301 -0.026
v 0.084 -0.301 -0.008
v 0.086 -0.301 0.002
v 0.067 -0.301 0.025
v 0.048 -0.301 0.023
v 0.041 -0.301 0.018
v 0.040 -0.301 -0.017
v 0.039 -0.301 0.017
v 0.039 -0.301 -0.017
v 0.039 -0.301 0.017
v 0.041 0.301 0.018
v 0.050 0.301 0.024
v 0.069 0.301 0.025
v 0.085 0.301 0.001
v 0.083 0.301 0.012
v 0.084 0.301 -0.010
v 0.057 0.301 -0.026
v 0.046 0.301 -0.022
v 0.041 0.301 -0.018
v 0.040 0.301 -0.017
v 0.039 0.301 -0.017
v 0.039 0.301 0.017
v 0.039 0.301 0.017
v 0.040 -0.301 0.017
v 0.040 0.301 0.017
v 0.073 0.301 -0.023
v 0.058 -0.301 0.026
v 0.075 -0.301 -0.022
v 0.082 -0.301 0.015
v 0.021 -0.301 -0.017
v 0.021 -0.301 0.017
v 0.021 0.301 0.017
v 0.021 0.301 -0.017
v 0.039 0.288 0.017
v 0.050 0.288 0.025
v 0.065 0.288 0.026
v 0.081 0.288 0.016
v 0.086 0.288 -0.006
v 0.071 0.288 -0.024
v 0.050 0.288 -0.025
v 0.039 0.288 -0.017
v 0.042 -0.290 0.016
v 0.042 0.288 0.016
v 0.022 -0.290 0.016
v 0.022 0.288 0.016
v 0.022 -0.290 -0.016
v 0.022 0.288 -0.016
v 0.042 -0.290 -0.016
v 0.042 0.288 -0.016
v 0.000 0.108 -0.016
v 0.000 -0.124 -0.016
v 0.001 -0.124 -0.017
v 0.001 0.107 -0.017
v 0.023 0.107 -0.017
v 0.023 -0.124 -0.017
v 0.023 0.108 0.017
v 0.023 -0.124 0.017
v 0.001 -0.124 0.017
v 0.001 0.107 0.017
v 0.000 -0.124 0.016
v 0.000 0.107 0.016
v 0.039 -0.288 0.018
v 0.058 -0.288 0.026
v 0.075 -0.288 0.022
v 0.086 -0.288 0.002
v 0.080 -0.288 -0.016
v 0.067 -0.288 -0.025
v 0.050 -0.288 -0.025
v 0.039 -0.288 -0.017
v 0.036 -0.289 0.007
v 0.039 -0.289 0.013
v 0.036 0.288 0.007
v 0.039 0.288 0.014
v 0.046 -0.289 0.021
v 0.046 0.288 0.021
v 0.055 -0.289 0.025
v 0.056 0.288 0.025
v 0.065 -0.289 0.025
v 0.066 0.288 0.024
v 0.073 -0.289 0.021
v 0.073 0.288 0.021
v 0.078 -0.289 0.017
v 0.079 0.288 0.016
v 0.083 -0.289 0.010
v 0.084 0.288 0.007
v 0.084 -0.289 0.003
v 0.084 0.288 -0.003
v 0.083 -0.289 -0.007
v 0.080 0.288 -0.013
v 0.078 -0.289 -0.016
v 0.073 0.288 -0.020
v 0.071 -0.289 -0.021
v 0.065 -0.289 -0.024
v 0.067 0.288 -0.023
v 0.058 0.288 -0.024
v 0.054 -0.289 -0.023
v 0.049 0.288 -0.021
v 0.045 -0.289 -0.019
v 0.041 0.288 -0.015
v 0.038 -0.289 -0.011
v 0.036 0.288 -0.006
v 0.035 -0.289 -0.002
v 0.035 0.288 0.002
v 0.021 -0.288 0.017
v 0.021 -0.288 -0.017
v 0.021 0.288 0.017
v 0.021 0.288 -0.017
v 0.001 -0.126 -0.017
v 0.023 -0.126 0.017
v 0.001 0.109 0.017
v 0.023 0.109 -0.017
vt 0.880 0.657
vt 0.881 0.782
vt 0.885 0.660
vt 0.888 0.780
vt 0.888 0.661
vt 0.886 0.780
vt 0.881 0.469
vt 0.885 0.472
vt 0.881 0.595
vt 0.889 0.472
vt 0.886 0.592
vt 0.889 0.592
vt 0.883 0.781
vt 0.883 0.593
vt 0.863 0.455
vt 0.824 0.442
vt 0.769 0.453
vt 0.731 0.497
vt 0.726 0.535
vt 0.782 0.618
vt 0.734 0.575
vt 0.851 0.616
vt 0.864 0.643
vt 0.824 0.630
vt 0.822 0.811
vt 0.857 0.801
vt 0.763 0.644
vt 0.730 0.690
vt 0.725 0.726
vt 0.739 0.772
vt 0.789 0.807
vt 0.950 0.661
vt 0.950 0.780
vt 0.950 0.591
vt 0.950 0.472
vt 0.956 0.104
vt 1.001 0.105
vt 0.955 0.112
vt 1.000 0.153
vt 0.956 0.150
vt 0.955 0.218
vt 1.001 0.205
vt 1.001 0.267
vt 0.956 0.282
vt 1.000 0.347
vt 0.955 0.324
vt 0.956 0.363
vt 0.955 0.421
vt 1.001 0.428
vt 0.955 0.477
vt 1.001 0.501
vt 0.955 0.519
vt 1.000 0.549
vt 0.955 0.545
vt 0.956 0.549
vt 0.720 0.000
vt 0.720 1.000
vt 0.677 0.000
vt 0.678 1.000
vt 0.609 0.000
vt 0.609 1.000
vt 0.566 0.000
vt 0.566 1.000
vt 0.281 1.000
vt 0.275 1.000
vt 0.276 0.193
vt 0.281 0.195
vt 0.354 0.195
vt 0.354 1.000
vt 0.483 0.195
vt 0.483 1.000
vt 0.556 1.000
vt 0.556 0.195
vt 0.561 1.002
vt 0.562 0.195
vt 0.956 0.555
vt 0.956 0.593
vt 1.001 0.556
vt 1.000 0.630
vt 0.956 0.629
vt 0.956 0.663
vt 1.001 0.692
vt 0.955 0.724
vt 1.000 0.769
vt 0.955 0.772
vt 0.956 0.808
vt 1.001 0.838
vt 0.955 0.865
vt 1.000 0.893
vt 0.955 0.928
vt 1.001 0.952
vt 0.955 0.970
vt 1.000 0.999
vt 0.955 0.996
vt 0.956 1.000
vt 0.270 1.000
vt 0.257 1.000
vt 0.270 0.000
vt 0.256 0.000
vt 0.239 1.000
vt 0.238 0.000
vt 0.221 1.000
vt 0.220 0.000
vt 0.203 1.000
vt 0.202 0.000
vt 0.189 1.000
vt 0.189 0.000
vt 0.176 1.000
vt 0.175 0.000
vt 0.162 1.000
vt 0.157 0.000
vt 0.149 1.000
vt 0.139 0.000
vt 0.131 1.000
vt 0.121 0.000
vt 0.113 1.000
vt 0.103 0.000
vt 0.099 1.000
vt 0.086 1.000
vt 0.090 0.000
vt 0.076 0.000
vt 0.068 1.000
vt 0.058 0.000
vt 0.050 1.000
vt 0.040 0.000
vt 0.032 1.000
vt 0.022 0.000
vt 0.014 1.000
vt 0.009 0.000
vt 0.000 1.000
vt 0.000 0.000
vt 0.819 0.002
vt 0.775 0.002
vt 0.819 0.065
vt 0.775 0.065
vt 0.819 0.185
vt 0.775 0.185
vt 0.819 0.247
vt 0.775 0.247
vt 0.768 0.010
vt 0.768 0.072
vt 0.723 0.010
vt 0.724 0.072
vt 0.768 0.193
vt 0.724 0.193
vt 0.768 0.256
vt 0.724 0.255
vt 0.281 0.065
vt 0.281 0.059
vt 0.362 0.062
vt 0.275 0.066
vt 0.279 0.181
vt 0.281 0.188
vt 0.363 0.187
vt 0.359 0.183
vt 0.454 0.188
vt 0.453 0.183
vt 0.459 0.182
vt 0.455 0.067
vt 0.373 0.186
vt 0.453 0.059
vt 0.372 0.060
vt 0.375 0.065
vt 0.725 0.969
vt 0.788 0.970
vt 0.724 0.848
vt 0.787 0.848
vt 0.855 1.000
vt 0.915 0.984
vt 0.954 0.917
vt 0.933 0.851
vt 0.887 0.820
vt 0.828 0.821
vt 0.951 0.404
vt 0.951 0.283
vt 0.888 0.405
vt 0.888 0.283
vt 0.795 0.433
vt 0.848 0.432
vt 0.741 0.401
vt 0.724 0.323
vt 0.775 0.260
vt 0.848 0.257
vn 0.024 -1.000 -0.004
vn 0.002 -1.000 0.003
vn -0.106 -0.994 -0.009
vn -0.016 -1.000 0.003
vn -0.036 -0.999 -0.001
vn -0.251 -0.968 -0.004
vn -0.106 -0.994 -0.009
vn -0.251 -0.968 -0.004
vn -0.036 -0.999 -0.001
vn 0.023 1.000 -0.003
vn -0.111 0.994 -0.010
vn 0.003 1.000 0.001
vn -0.111 0.994 -0.010
vn -0.036 0.999 -0.001
vn -0.248 0.969 -0.004
vn -0.014 1.000 0.000
vn -0.248 0.969 -0.004
vn -0.036 0.999 -0.001
vn -0.001 -1.000 0.001
vn -0.106 -0.994 -0.009
vn 0.002 -1.000 0.003
vn 0.005 1.000 0.002
vn 0.003 1.000 0.001
vn -0.111 0.994 -0.010
vn 0.011 1.000 -0.006
vn 0.023 1.000 -0.003
vn 0.003 1.000 0.001
vn -0.004 1.000 -0.006
vn 0.011 1.000 -0.006
vn 0.003 1.000 0.001
vn 0.006 1.000 -0.001
vn -0.004 1.000 -0.006
vn 0.003 1.000 0.001
vn 0.062 0.998 -0.029
vn 0.006 1.000 -0.001
vn 0.015 1.000 0.001
vn 0.015 1.000 0.001
vn 0.006 1.000 -0.001
vn 0.007 1.000 0.006
vn 0.007 1.000 0.006
vn 0.006 1.000 -0.001
vn 0.003 1.000 0.001
vn 0.035 0.999 0.022
vn 0.015 1.000 0.001
vn 0.007 1.000 0.006
vn -0.009 0.997 0.071
vn 0.007 1.000 0.006
vn 0.003 1.000 0.001
vn 0.024 -1.000 -0.004
vn 0.009 -1.000 -0.007
vn 0.002 -1.000 0.003
vn 0.009 -1.000 -0.007
vn -0.003 -1.000 -0.006
vn 0.002 -1.000 0.003
vn 0.004 -0.999 0.037
vn -0.105 -0.971 0.216
vn 0.002 -1.000 0.003
vn -0.003 -1.000 -0.006
vn 0.005 -1.000 -0.003
vn 0.002 -1.000 0.003
vn 0.090 -0.995 -0.040
vn 0.023 -1.000 -0.009
vn 0.005 -1.000 -0.003
vn 0.005 -1.000 -0.003
vn 0.005 -1.000 0.006
vn 0.002 -1.000 0.003
vn 0.023 -1.000 -0.009
vn 0.005 -1.000 0.006
vn 0.005 -1.000 -0.003
vn 0.005 -1.000 0.006
vn 0.004 -0.999 0.037
vn 0.002 -1.000 0.003
vn 0.018 -0.999 0.049
vn 0.004 -0.999 0.037
vn 0.005 -1.000 0.006
vn -0.036 -0.999 -0.001
vn -0.016 -1.000 0.003
vn -0.003 -1.000 0.000
vn -0.005 -1.000 0.000
vn -0.003 -1.000 0.000
vn -0.016 -1.000 0.003
vn -0.251 -0.968 -0.004
vn -0.106 -0.994 -0.009
vn -0.001 -1.000 0.001
vn -0.005 1.000 0.000
vn -0.014 1.000 0.000
vn -0.004 1.000 0.000
vn -0.036 0.999 -0.001
vn -0.004 1.000 0.000
vn -0.014 1.000 0.000
vn -0.248 0.969 -0.004
vn 0.005 1.000 0.002
vn -0.111 0.994 -0.010
vn -0.050 0.029 0.998
vn -0.177 0.036 0.984
vn -0.546 0.041 0.837
vn -0.177 0.036 0.984
vn -0.260 0.066 0.963
vn -0.546 0.041 0.837
vn -0.227 0.060 0.972
vn -0.546 0.041 0.837
vn -0.260 0.066 0.963
vn -0.227 0.060 0.972
vn -0.260 0.066 0.963
vn 0.310 0.054 0.949
vn 0.276 -0.010 0.961
vn 0.310 0.054 0.949
vn -0.260 0.066 0.963
vn 0.791 -0.016 0.612
vn 0.310 0.054 0.949
vn 0.276 -0.010 0.961
vn 0.310 0.054 0.949
vn 0.791 -0.016 0.612
vn 0.908 -0.009 0.419
vn 0.968 -0.043 -0.247
vn 0.908 -0.009 0.419
vn 0.791 -0.016 0.612
vn 0.999 0.012 0.036
vn 0.908 -0.009 0.419
vn 0.968 -0.043 -0.247
vn 0.886 0.018 -0.464
vn 0.999 0.012 0.036
vn 0.968 -0.043 -0.247
vn 0.886 0.018 -0.464
vn 0.968 -0.043 -0.247
vn 0.638 -0.012 -0.770
vn 0.396 -0.029 -0.918
vn 0.638 -0.012 -0.770
vn 0.968 -0.043 -0.247
vn 0.638 -0.012 -0.770
vn 0.396 -0.029 -0.918
vn 0.005 0.011 -1.000
vn -0.233 -0.013 -0.972
vn 0.005 0.011 -1.000
vn 0.396 -0.029 -0.918
vn 0.005 0.011 -1.000
vn -0.233 -0.013 -0.972
vn -0.487 0.053 -0.872
vn -0.233 -0.013 -0.972
vn -0.327 0.021 -0.945
vn -0.487 0.053 -0.872
vn -0.570 0.048 -0.820
vn -0.487 0.053 -0.872
vn -0.327 0.021 -0.945
vn -0.570 0.048 -0.820
vn -0.327 0.021 -0.945
vn -0.007 0.023 -1.000
vn -0.002 0.000 1.000
vn -0.004 0.000 1.000
vn -0.004 0.000 1.000
vn -0.005 0.000 1.000
vn -0.004 0.000 1.000
vn -0.004 0.000 1.000
vn -1.000 0.000 0.002
vn -1.000 0.000 0.000
vn -1.000 0.000 0.000
vn -1.000 0.000 -0.002
vn -1.000 0.000 0.000
vn -1.000 0.000 0.000
vn -0.005 0.000 -1.000
vn -0.004 0.000 -1.000
vn -0.004 0.000 -1.000
vn -0.002 0.000 -1.000
vn -0.004 0.000 -1.000
vn -0.004 0.000 -1.000
vn -0.921 0.000 -0.390
vn -0.930 -0.044 -0.364
vn -0.932 0.025 -0.363
vn -0.932 0.025 -0.363
vn -0.933 0.001 -0.360
vn -0.921 0.000 -0.390
vn 0.001 0.000 -1.000
vn 0.001 0.001 -1.000
vn 0.002 -0.002 -1.000
vn 0.002 -0.003 -1.000
vn 0.002 -0.002 -1.000
vn 0.001 0.001 -1.000
vn 1.000 0.002 -0.001
vn 1.000 0.001 0.000
vn 1.000 -0.001 0.000
vn 1.000 -0.002 0.001
vn 1.000 -0.001 0.000
vn 1.000 0.001 0.000
vn 0.002 -0.003 1.000
vn 0.002 0.002 1.000
vn 0.002 0.000 1.000
vn 0.001 0.003 1.000
vn 0.002 0.000 1.000
vn 0.002 0.002 1.000
vn -0.932 -0.025 0.362
vn -0.933 -0.001 0.361
vn -0.921 0.000 0.389
vn -0.921 0.000 0.389
vn -0.931 0.044 0.363
vn -0.932 -0.025 0.362
vn -0.220 -0.044 0.974
vn -0.419 0.035 0.907
vn -0.228 0.006 0.974
vn -0.101 0.054 0.993
vn -0.228 0.006 0.974
vn -0.419 0.035 0.907
vn -0.419 0.035 0.907
vn -0.087 -0.023 0.996
vn -0.101 0.054 0.993
vn -0.087 -0.023 0.996
vn 0.362 -0.033 0.932
vn -0.101 0.054 0.993
vn -0.101 0.054 0.993
vn 0.362 -0.033 0.932
vn 0.623 0.046 0.781
vn 0.362 -0.033 0.932
vn 0.821 0.001 0.572
vn 0.623 0.046 0.781
vn 0.991 0.056 0.124
vn 0.623 0.046 0.781
vn 0.821 0.001 0.572
vn 0.993 -0.070 0.098
vn 0.991 0.056 0.124
vn 0.821 0.001 0.572
vn 0.929 -0.024 -0.369
vn 0.991 0.056 0.124
vn 0.993 -0.070 0.098
vn 0.822 0.027 -0.569
vn 0.991 0.056 0.124
vn 0.929 -0.024 -0.369
vn 0.551 -0.045 -0.833
vn 0.822 0.027 -0.569
vn 0.929 -0.024 -0.369
vn 0.257 0.019 -0.966
vn 0.822 0.027 -0.569
vn 0.551 -0.045 -0.833
vn 0.551 -0.045 -0.833
vn -0.001 -0.049 -0.999
vn 0.257 0.019 -0.966
vn -0.281 -0.006 -0.960
vn 0.257 0.019 -0.966
vn -0.001 -0.049 -0.999
vn -0.001 -0.049 -0.999
vn -0.487 -0.052 -0.872
vn -0.281 -0.006 -0.960
vn -0.281 -0.006 -0.960
vn -0.487 -0.052 -0.872
vn -0.327 -0.020 -0.945
vn -0.572 -0.048 -0.819
vn -0.327 -0.020 -0.945
vn -0.487 -0.052 -0.872
vn -0.572 -0.048 -0.819
vn -0.007 -0.023 -1.000
vn -0.327 -0.020 -0.945
vn -0.979 0.000 0.203
vn -0.862 0.000 0.507
vn -0.948 0.000 0.319
vn -0.788 0.000 0.615
vn -0.948 0.000 0.319
vn -0.862 0.000 0.507
vn -0.862 0.000 0.507
vn -0.621 0.000 0.784
vn -0.788 0.000 0.615
vn -0.494 0.000 0.870
vn -0.788 0.000 0.615
vn -0.621 0.000 0.784
vn -0.621 0.000 0.784
vn -0.249 0.000 0.969
vn -0.494 0.000 0.870
vn -0.098 0.000 0.995
vn -0.494 0.000 0.870
vn -0.249 0.000 0.969
vn -0.249 0.000 0.969
vn 0.139 0.000 0.990
vn -0.098 0.000 0.995
vn 0.268 0.000 0.963
vn -0.098 0.000 0.995
vn 0.139 0.000 0.990
vn 0.139 0.000 0.990
vn 0.483 0.000 0.876
vn 0.268 0.000 0.963
vn 0.576 0.000 0.818
vn 0.268 0.000 0.963
vn 0.483 0.000 0.876
vn 0.483 0.000 0.876
vn 0.728 0.000 0.685
vn 0.576 0.000 0.818
vn 0.820 0.000 0.572
vn 0.576 0.000 0.818
vn 0.728 0.000 0.685
vn 0.728 0.000 0.685
vn 0.909 0.000 0.417
vn 0.820 0.000 0.572
vn 0.967 0.000 0.256
vn 0.820 0.000 0.572
vn 0.909 0.000 0.417
vn 0.909 0.000 0.417
vn 0.999 0.000 0.040
vn 0.967 0.000 0.256
vn 0.989 0.000 -0.145
vn 0.967 0.000 0.256
vn 0.999 0.000 0.040
vn 0.999 0.000 0.040
vn 0.942 0.000 -0.336
vn 0.989 0.000 -0.145
vn 0.845 0.000 -0.535
vn 0.989 0.000 -0.145
vn 0.942 0.000 -0.336
vn 0.942 0.000 -0.336
vn 0.739 0.000 -0.674
vn 0.845 0.000 -0.535
vn 0.542 0.000 -0.841
vn 0.845 0.000 -0.535
vn 0.739 0.000 -0.674
vn 0.739 0.000 -0.674
vn 0.486 0.000 -0.874
vn 0.542 0.000 -0.841
vn 0.486 0.000 -0.874
vn 0.194 0.000 -0.981
vn 0.542 0.000 -0.841
vn 0.258 0.000 -0.966
vn 0.542 0.000 -0.841
vn 0.194 0.000 -0.981
vn -0.064 0.000 -0.998
vn 0.258 0.000 -0.966
vn 0.194 0.000 -0.981
vn 0.194 0.000 -0.981
vn -0.236 0.000 -0.972
vn -0.064 0.000 -0.998
vn -0.444 0.000 -0.896
vn -0.064 0.000 -0.998
vn -0.236 0.000 -0.972
vn -0.236 0.000 -0.972
vn -0.611 0.000 -0.792
vn -0.444 0.000 -0.896
vn -0.770 0.000 -0.638
vn -0.444 0.000 -0.896
vn -0.611 0.000 -0.792
vn -0.611 0.000 -0.792
vn -0.880 0.000 -0.475
vn -0.770 0.000 -0.638
vn -0.953 0.000 -0.304
vn -0.770 0.000 -0.638
vn -0.880 0.000 -0.475
vn -0.880 0.000 -0.475
vn -0.993 0.000 -0.117
vn -0.953 0.000 -0.304
vn -0.999 0.000 0.038
vn -0.953 0.000 -0.304
vn -0.993 0.000 -0.117
vn -0.993 0.000 -0.117
vn -0.979 0.000 0.203
vn -0.999 0.000 0.038
vn -0.948 0.000 0.319
vn -0.999 0.000 0.038
vn -0.979 0.000 0.203
vn -0.220 -0.044 0.974
vn -0.228 0.006 0.974
vn -0.006 -0.035 0.999
vn -0.012 -0.027 1.000
vn -0.006 -0.035 0.999
vn -0.228 0.006 0.974
vn -1.000 -0.030 0.001
vn -1.000 -0.032 0.001
vn -1.000 -0.032 0.001
vn -0.999 -0.033 0.002
vn -1.000 -0.032 0.001
vn -1.000 -0.032 0.001
vn -0.004 -0.029 -1.000
vn 0.001 -0.023 -1.000
vn -0.007 -0.023 -1.000
vn -0.327 -0.020 -0.945
vn -0.007 -0.023 -1.000
vn 0.001 -0.023 -1.000
vn -0.050 0.029 0.998
vn -0.002 0.027 1.000
vn -0.177 0.036 0.984
vn -0.003 0.027 1.000
vn -0.177 0.036 0.984
vn -0.002 0.027 1.000
vn -1.000 0.030 0.001
vn -1.000 0.032 0.001
vn -1.000 0.032 0.001
vn -0.999 0.033 0.002
vn -1.000 0.032 0.001
vn -1.000 0.032 0.001
vn -0.004 0.029 -1.000
vn -0.007 0.023 -1.000
vn 0.001 0.023 -1.000
vn -0.327 0.021 -0.945
vn 0.001 0.023 -1.000
vn -0.007 0.023 -1.000
vn 0.001 -0.382 -0.924
vn 0.002 -0.002 -1.000
vn 0.002 -0.003 -1.000
vn -0.921 0.000 -0.390
vn -0.955 -0.298 -0.015
vn -0.930 -0.044 -0.364
vn -0.930 -0.044 -0.364
vn -0.955 -0.298 -0.015
vn -0.932 -0.025 0.362
vn 0.001 -0.949 0.316
vn -0.030 -0.677 0.735
vn 0.001 -0.949 0.316
vn -0.049 -0.345 0.937
vn 0.002 -0.003 1.000
vn -0.030 -0.677 0.735
vn -0.058 -0.998 0.038
vn 0.009 -1.000 -0.006
vn 0.009 -1.000 -0.006
vn 0.073 -0.996 -0.048
vn 0.009 -1.000 -0.006
vn 0.009 -1.000 -0.006
vn 1.000 -0.002 0.001
vn 0.960 -0.281 0.001
vn 1.000 -0.001 0.000
vn -0.921 0.000 0.389
vn -0.954 0.298 0.015
vn -0.931 0.044 0.363
vn -0.931 0.044 0.363
vn -0.954 0.298 0.015
vn -0.932 0.025 -0.363
vn 0.000 0.379 0.925
vn 0.001 0.003 1.000
vn 0.002 0.002 1.000
vn 0.000 0.948 -0.317
vn -0.030 0.681 -0.731
vn 0.000 0.948 -0.317
vn -0.049 0.358 -0.933
vn 0.001 0.001 -1.000
vn -0.030 0.681 -0.731
vn 1.000 0.002 -0.001
vn 0.960 0.281 -0.001
vn 1.000 0.001 0.000
vn 0.073 0.996 0.048
vn 0.009 1.000 0.006
vn 0.009 1.000 0.006
vn -0.058 0.998 -0.038
vn 0.009 1.000 0.006
vn 0.009 1.000 0.006
vn 0.009 -1.000 -0.007
vn 0.024 -1.000 -0.004
vn -0.106 -0.994 -0.009
vn -0.304 -0.261 0.916
vn -0.304 -0.261 0.916
vn -0.220 -0.044 0.974
vn 0.002 -1.000 0.003
vn -0.016 -1.000 0.003
vn -0.001 -1.000 0.001
vn -0.016 -1.000 0.003
vn 0.002 -1.000 0.003
vn -0.105 -0.971 0.216
vn -0.011 1.000 0.000
vn -0.004 1.000 0.001
vn -0.007 1.000 -0.002
vn -0.008 1.000 -0.004
vn -0.007 1.000 -0.002
vn -0.004 1.000 0.001
vn -0.004 1.000 0.020
vn 0.002 1.000 0.004
vn -0.004 1.000 0.001
vn 0.022 1.000 0.004
vn 0.001 1.000 -0.001
vn 0.002 1.000 0.004
vn 0.002 1.000 0.004
vn 0.001 1.000 -0.001
vn -0.004 1.000 0.001
vn 0.012 0.999 -0.048
vn -0.004 1.000 -0.004
vn 0.001 1.000 -0.001
vn 0.001 1.000 -0.001
vn -0.004 1.000 -0.004
vn -0.004 1.000 0.001
vn -0.004 1.000 -0.004
vn -0.008 1.000 -0.004
vn -0.004 1.000 0.001
vn 0.011 1.000 -0.006
vn -0.111 0.994 -0.010
vn 0.023 1.000 -0.003
vn -0.299 0.320 0.899
vn -0.050 0.029 0.998
vn -0.299 0.320 0.899
vn 0.003 1.000 0.001
vn 0.005 1.000 0.002
vn -0.014 1.000 0.000
vn -0.011 -1.000 0.000
vn -0.007 -1.000 -0.002
vn -0.004 -1.000 0.001
vn -0.008 -1.000 -0.004
vn -0.004 -1.000 0.001
vn -0.007 -1.000 -0.002
vn -0.002 -1.000 0.017
vn -0.010 -0.999 0.041
vn -0.004 -1.000 0.001
vn 0.002 -1.000 0.001
vn -0.002 -1.000 0.017
vn -0.004 -1.000 0.001
vn 0.017 -1.000 -0.003
vn 0.002 -1.000 0.001
vn 0.001 -1.000 0.000
vn 0.001 -1.000 0.000
vn 0.002 -1.000 0.001
vn -0.004 -1.000 0.001
vn -0.006 -1.000 -0.001
vn 0.001 -1.000 0.000
vn -0.004 -1.000 0.001
vn -0.008 -1.000 -0.004
vn -0.006 -1.000 -0.001
vn -0.004 -1.000 0.001
g 
usemtl WallLight0002
f 1/1/1 8/2/2 9/3/3
f 10/4/4 11/5/5 12/6/6
f 9/3/7 12/6/8 11/5/9
f 21/7/10 22/8/11 13/9/12
f 22/8/13 23/10/14 24/11/15
f 25/12/16 24/11/17 23/10/18
f 26/13/19 9/3/20 8/2/21
f 27/14/22 13/9/23 22/8/24
f 20/15/25 21/7/26 13/9/27
f 19/16/28 20/15/29 13/9/30
f 28/17/31 19/16/32 13/9/33
f 18/18/34 28/17/35 16/19/36
f 16/19/37 28/17/38 15/20/39
f 15/20/40 28/17/41 13/9/42
f 17/21/43 16/19/44 15/20/45
f 14/22/46 15/20/47 13/9/48
f 1/1/49 2/23/50 8/2/51
f 2/23/52 3/24/53 8/2/54
f 29/25/55 7/26/56 8/2/57
f 3/24/58 30/27/59 8/2/60
f 4/28/61 5/29/62 30/27/63
f 30/27/64 31/30/65 8/2/66
f 5/29/67 31/30/68 30/27/69
f 31/30/70 29/25/71 8/2/72
f 6/31/73 29/25/74 31/30/75
f 11/5/76 10/4/77 32/32/78
f 33/33/79 32/32/80 10/4/81
f 12/6/82 9/3/83 26/13/84
f 34/34/85 25/12/86 35/35/87
f 23/10/88 35/35/89 25/12/90
f 24/11/91 27/14/92 22/8/93
f 25/36/94 36/37/95 13/38/96
f 36/37/97 37/39/98 13/38/99
f 14/40/100 13/38/101 37/39/102
f 14/40/103 37/39/104 15/41/105
f 38/42/106 15/41/107 37/39/108
f 39/43/109 15/41/110 38/42/111
f 15/41/112 39/43/113 17/44/114
f 40/45/115 17/44/116 39/43/117
f 16/46/118 17/44/119 40/45/120
f 18/47/121 16/46/122 40/45/123
f 18/47/124 40/45/125 28/48/126
f 41/49/127 28/48/128 40/45/129
f 28/48/130 41/49/131 19/50/132
f 42/51/133 19/50/134 41/49/135
f 19/50/136 42/51/137 20/52/138
f 42/51/139 43/53/140 20/52/141
f 22/54/142 20/52/143 43/53/144
f 22/54/145 43/53/146 23/55/147
f 44/56/148 45/57/149 46/58/150
f 47/59/151 46/58/152 45/57/153
f 46/58/154 47/59/155 48/60/156
f 49/61/157 48/60/158 47/59/159
f 48/60/160 49/61/161 50/62/162
f 51/63/163 50/62/164 49/61/165
f 54/64/166 53/65/167 52/66/168
f 52/66/169 55/67/170 54/64/171
f 55/67/172 56/68/173 54/64/174
f 57/69/175 54/64/176 56/68/177
f 56/68/178 58/70/179 57/69/180
f 59/71/181 57/69/182 58/70/183
f 59/71/184 58/70/185 60/72/186
f 61/73/187 60/72/188 58/70/189
f 62/74/190 60/72/191 61/73/192
f 61/73/193 63/75/194 62/74/195
f 10/76/196 7/77/197 64/78/198
f 65/79/199 64/78/200 7/77/201
f 7/77/202 29/80/203 65/79/204
f 29/80/205 6/81/206 65/79/207
f 65/79/208 6/81/209 66/82/210
f 6/81/211 31/83/212 66/82/213
f 67/84/214 66/82/215 31/83/216
f 5/85/217 67/84/218 31/83/219
f 4/86/220 67/84/221 5/85/222
f 68/87/223 67/84/224 4/86/225
f 30/88/226 68/87/227 4/86/228
f 69/89/229 68/87/230 30/88/231
f 30/88/232 3/90/233 69/89/234
f 70/91/235 69/89/236 3/90/237
f 3/90/238 2/92/239 70/91/240
f 70/91/241 2/92/242 71/93/243
f 9/94/244 71/93/245 2/92/246
f 9/94/247 11/95/248 71/93/249
f 72/96/250 73/97/251 74/98/252
f 75/99/253 74/98/254 73/97/255
f 73/97/256 76/100/257 75/99/258
f 77/101/259 75/99/260 76/100/261
f 76/100/262 78/102/263 77/101/264
f 79/103/265 77/101/266 78/102/267
f 78/102/268 80/104/269 79/103/270
f 81/105/271 79/103/272 80/104/273
f 80/104/274 82/106/275 81/105/276
f 83/107/277 81/105/278 82/106/279
f 82/106/280 84/108/281 83/107/282
f 85/109/283 83/107/284 84/108/285
f 84/108/286 86/110/287 85/109/288
f 87/111/289 85/109/290 86/110/291
f 86/110/292 88/112/293 87/111/294
f 89/113/295 87/111/296 88/112/297
f 88/112/298 90/114/299 89/113/300
f 91/115/301 89/113/302 90/114/303
f 90/114/304 92/116/305 91/115/306
f 93/117/307 91/115/308 92/116/309
f 92/116/310 94/118/311 93/117/312
f 94/118/313 95/119/314 93/117/315
f 96/120/316 93/117/317 95/119/318
f 97/121/319 96/120/320 95/119/321
f 95/119/322 98/122/323 97/121/324
f 99/123/325 97/121/326 98/122/327
f 98/122/328 100/124/329 99/123/330
f 101/125/331 99/123/332 100/124/333
f 100/124/334 102/126/335 101/125/336
f 103/127/337 101/125/338 102/126/339
f 102/126/340 104/128/341 103/127/342
f 105/129/343 103/127/344 104/128/345
f 104/128/346 72/130/347 105/129/348
f 74/131/349 105/129/350 72/130/351
f 10/132/352 64/133/353 33/134/354
f 106/135/355 33/134/356 64/133/357
f 33/134/358 106/135/359 32/136/360
f 107/137/361 32/136/362 106/135/363
f 32/136/364 107/137/365 11/138/366
f 71/139/367 11/138/368 107/137/369
f 25/140/370 34/141/371 36/142/372
f 108/143/373 36/142/374 34/141/375
f 34/141/376 35/144/377 108/143/378
f 109/145/379 108/143/380 35/144/381
f 35/144/382 23/146/383 109/145/384
f 43/147/385 109/145/386 23/146/387
f 110/148/388 54/149/389 57/150/390
f 54/149/391 110/148/392 53/151/393
f 53/151/394 110/148/395 62/152/396
f 60/153/397 62/152/398 59/154/399
f 111/155/400 59/154/401 62/152/402
f 62/152/403 110/148/404 111/155/405
f 57/150/406 111/155/407 110/148/408
f 59/154/409 111/155/410 57/150/411
f 61/156/412 112/157/413 63/158/414
f 63/158/415 112/157/416 52/159/417
f 112/157/418 61/156/419 58/160/420
f 55/161/421 52/159/422 56/162/423
f 113/163/424 56/162/425 52/159/426
f 56/162/427 113/163/428 58/160/429
f 58/160/430 113/163/431 112/157/432
f 52/159/433 112/157/434 113/163/435
f 2/23/436 1/1/437 9/3/438
f 12/6/439 26/13/440 10/4/441
f 8/2/442 10/4/443 26/13/444
f 10/4/445 8/2/446 7/26/447
f 106/164/448 64/165/449 107/166/450
f 71/167/451 107/166/452 64/165/453
f 65/168/454 66/169/455 64/165/456
f 67/170/457 68/171/458 66/169/459
f 66/169/460 68/171/461 64/165/462
f 69/172/463 70/173/464 68/171/465
f 68/171/466 70/173/467 64/165/468
f 70/173/469 71/167/470 64/165/471
f 20/15/472 22/8/473 21/7/474
f 24/11/475 25/12/476 27/14/477
f 13/9/478 27/14/479 25/12/480
f 108/174/481 109/175/482 36/176/483
f 43/177/484 36/176/485 109/175/486
f 38/178/487 37/179/488 36/176/489
f 39/180/490 38/178/491 36/176/492
f 40/181/493 39/180/494 41/182/495
f 41/182/496 39/180/497 36/176/498
f 42/183/499 41/182/500 36/176/501
f 43/177/502 42/183/503 36/176/504
