mtllib WallPainting0019.mtl
# File exported by Houdini 18.5.351 (www.sidefx.com)
# 56 points
# 324 vertices
# 108 primitives
# Bounds: [-0.014485931, -0.694000065, -0.735000312] to [0.0145140672, 0.693999946, 0.734999657]
g 
usemtl WallPainting0019
v 0.014 -0.681 0.716
v 0.015 -0.690 0.728
v 0.014 -0.681 -0.716
v 0.015 -0.690 -0.728
v 0.014 -0.677 -0.719
v 0.015 -0.686 -0.731
v 0.015 0.674 -0.719
v 0.014 0.684 -0.731
v 0.015 0.678 -0.716
v 0.014 0.689 -0.728
v 0.015 0.678 0.716
v 0.014 0.689 0.728
v 0.015 0.674 0.719
v 0.014 0.684 0.731
v 0.014 -0.677 0.719
v 0.015 -0.686 0.731
v 0.009 0.672 -0.714
v 0.008 -0.675 -0.714
v 0.009 -0.690 -0.735
v 0.008 0.689 -0.735
v 0.008 -0.675 0.714
v 0.009 0.672 0.714
v 0.008 0.689 0.735
v 0.009 -0.692 0.735
v 0.008 0.693 -0.735
v 0.009 -0.694 -0.735
v 0.008 0.693 0.735
v 0.010 0.677 0.718
v 0.010 -0.677 0.718
v 0.010 0.677 -0.718
v 0.010 -0.677 -0.718
v 0.008 0.677 0.718
v 0.008 0.677 -0.718
v 0.008 -0.677 0.718
v 0.008 -0.677 -0.718
v -0.013 -0.691 -0.735
v -0.013 -0.693 0.000
v 0.009 -0.694 0.000
v -0.013 -0.691 0.735
v -0.014 0.689 0.735
v -0.014 0.694 0.735
v -0.014 0.694 0.000
v 0.008 0.693 0.000
v -0.014 0.694 -0.735
v -0.014 0.689 -0.735
v 0.009 0.674 0.000
v 0.008 -0.677 0.000
v -0.014 -0.674 -0.714
v -0.013 0.672 -0.714
v -0.008 0.670 -0.714
v -0.012 -0.676 0.714
v -0.014 -0.676 0.000
v -0.013 0.674 0.000
v -0.013 0.674 0.714
v -0.013 0.670 0.714
v -0.014 -0.672 0.714
vt 0.480 0.989
vt 0.476 0.996
vt 0.480 0.678
vt 0.476 0.671
vt 0.481 0.676
vt 0.478 0.669
vt 0.992 0.676
vt 0.996 0.669
vt 0.993 0.678
vt 0.998 0.671
vt 0.993 0.989
vt 0.998 0.996
vt 0.992 0.991
vt 0.996 0.998
vt 0.481 0.991
vt 0.478 0.998
vt 0.991 0.678
vt 0.482 0.678
vt 0.476 0.667
vt 0.998 0.667
vt 0.482 0.988
vt 0.991 0.988
vt 0.998 1.000
vt 0.475 1.000
vt 1.000 0.667
vt 0.474 0.667
vt 1.000 1.000
vt 0.000 1.000
vt 0.000 0.517
vt 0.470 1.000
vt 0.470 0.517
vt 0.000 0.513
vt 0.000 0.000
vt 0.443 0.513
vt 0.443 0.000
vt 0.957 0.854
vt 0.957 0.855
vt 0.486 0.854
vt 0.486 0.855
vt 0.486 0.838
vt 0.486 0.837
vt 0.929 0.838
vt 0.929 0.837
vt 0.486 0.863
vt 0.957 0.863
vt 0.929 0.845
vt 0.929 0.846
vt 0.486 0.845
vt 0.486 0.846
vt 0.968 0.937
vt 0.968 0.946
vt 0.727 0.937
vt 0.727 0.946
vt 0.486 0.946
vt 0.486 0.937
vt 0.487 0.889
vt 0.487 0.881
vt 0.939 0.889
vt 0.939 0.881
vt 0.940 0.881
vt 0.940 0.889
vt 0.486 0.983
vt 0.486 0.974
vt 0.727 0.983
vt 0.727 0.974
vt 0.968 0.974
vt 0.968 0.983
vt 0.940 0.906
vt 0.940 0.914
vt 0.939 0.907
vt 0.939 0.914
vt 0.487 0.907
vt 0.488 0.914
vt 0.486 0.914
vt 0.961 0.972
vt 0.493 0.972
vt 0.723 0.963
vt 0.957 0.963
vt 0.958 0.966
vt 0.489 0.966
vt 0.490 0.963
vt 0.723 0.923
vt 0.490 0.923
vt 0.489 0.920
vt 0.958 0.920
vt 0.957 0.923
vt 0.493 0.948
vt 0.961 0.949
vt 0.927 0.874
vt 0.927 0.876
vt 0.487 0.876
vt 0.487 0.868
vt 0.927 0.868
vt 0.492 0.931
vt 0.724 0.932
vt 0.957 0.932
vt 0.723 0.954
vt 0.957 0.954
vt 0.492 0.954
vt 0.928 0.902
vt 0.927 0.894
vt 0.929 0.894
vt 0.488 0.893
vt 0.487 0.894
vt 0.487 0.901
vt 0.448 0.197
vt 0.454 0.208
vt 0.447 0.357
vt 0.456 0.208
vt 0.454 0.357
vt 0.982 0.208
vt 0.990 0.197
vt 0.448 0.513
vt 0.983 0.208
vt 0.455 0.502
vt 0.992 0.197
vt 0.983 0.353
vt 0.992 0.352
vt 0.990 0.513
vt 0.983 0.502
vt 0.992 0.513
vn 0.848 0.530 -0.001
vn 0.999 0.052 0.001
vn 0.925 0.380 0.001
vn 0.999 0.048 -0.004
vn 0.925 0.380 0.001
vn 0.999 0.052 0.001
vn 0.924 0.000 0.382
vn 0.938 0.000 -0.347
vn 0.936 0.000 0.352
vn 0.928 0.001 -0.373
vn 0.936 0.000 0.352
vn 0.938 0.000 -0.347
vn 0.903 -0.429 0.001
vn 0.999 0.034 -0.002
vn 0.963 -0.271 -0.001
vn 0.999 0.038 0.004
vn 0.963 -0.271 -0.001
vn 0.999 0.034 -0.002
vn 0.946 -0.001 -0.323
vn 0.938 0.000 0.347
vn 0.936 0.000 -0.351
vn 0.949 0.000 0.314
vn 0.936 0.000 -0.351
vn 0.938 0.000 0.347
vn 0.198 -0.001 0.980
vn 0.178 0.000 0.984
vn 0.936 0.000 0.352
vn 0.924 0.000 0.382
vn 0.936 0.000 0.352
vn 0.178 0.000 0.984
vn 0.164 0.000 -0.986
vn 0.163 0.000 -0.987
vn 0.938 0.000 -0.347
vn 0.928 0.001 -0.373
vn 0.938 0.000 -0.347
vn 0.163 0.000 -0.987
vn 0.178 0.000 -0.984
vn 0.164 0.000 -0.986
vn 0.936 0.000 -0.351
vn 0.946 -0.001 -0.323
vn 0.936 0.000 -0.351
vn 0.164 0.000 -0.986
vn 0.164 0.001 0.986
vn 0.163 0.000 0.987
vn 0.938 0.000 0.347
vn 0.949 0.000 0.314
vn 0.938 0.000 0.347
vn 0.163 0.000 0.987
vn 0.143 0.005 -0.990
vn 0.999 0.034 -0.002
vn 0.163 0.000 -0.987
vn 0.928 0.001 -0.373
vn 0.163 0.000 -0.987
vn 0.999 0.034 -0.002
vn 0.247 0.013 -0.969
vn 0.164 0.000 -0.986
vn 0.999 0.048 -0.004
vn 0.938 0.000 -0.347
vn 0.999 0.048 -0.004
vn 0.164 0.000 -0.986
vn 0.925 0.380 0.001
vn 0.924 0.000 0.382
vn 0.178 0.000 0.984
vn 0.848 0.530 -0.001
vn 0.178 0.000 -0.984
vn 0.936 0.000 -0.351
vn 0.949 0.000 0.314
vn 0.163 0.000 0.987
vn 0.999 0.052 0.001
vn 0.143 0.005 0.990
vn 0.164 0.001 0.986
vn 0.999 0.038 0.004
vn 0.938 0.000 0.347
vn 0.999 0.038 0.004
vn 0.164 0.001 0.986
vn 0.963 -0.271 -0.001
vn 0.946 -0.001 -0.323
vn 0.164 0.000 -0.986
vn 0.903 -0.429 0.001
vn 0.198 -0.001 0.980
vn 0.936 0.000 0.352
vn 1.000 0.000 0.000
vn 1.000 0.000 0.000
vn 1.000 0.000 0.000
vn 1.000 0.000 0.000
vn 1.000 0.000 0.000
vn 1.000 0.000 0.000
vn -1.000 0.000 0.000
vn -1.000 0.000 0.000
vn -1.000 0.000 0.000
vn -1.000 0.000 0.000
vn -1.000 0.000 0.000
vn -1.000 0.000 0.000
vn 0.000 -1.000 0.000
vn 0.000 -1.000 0.000
vn 0.000 -1.000 0.000
vn 0.000 -1.000 0.000
vn 0.000 -1.000 0.000
vn 0.000 -1.000 0.000
vn 0.000 0.000 -1.000
vn 0.000 0.000 -1.000
vn 0.000 0.000 -1.000
vn 0.000 0.000 -1.000
vn 0.000 0.000 -1.000
vn 0.000 0.000 -1.000
vn 0.000 1.000 0.000
vn 0.000 1.000 0.000
vn 0.000 1.000 0.000
vn 0.000 1.000 0.000
vn 0.000 1.000 0.000
vn 0.000 1.000 0.000
vn 0.000 0.000 1.000
vn 0.000 0.000 1.000
vn 0.000 0.000 1.000
vn 0.000 0.000 1.000
vn 0.000 0.000 1.000
vn 0.000 0.000 1.000
vn -0.122 -0.993 -0.003
vn 0.004 -1.000 -0.001
vn -0.053 -0.999 0.001
vn 0.156 -0.988 0.001
vn -0.053 -0.999 0.001
vn 0.004 -1.000 -0.001
vn 0.156 -0.988 0.001
vn 0.004 -1.000 0.003
vn -0.053 -0.999 0.001
vn -0.035 -0.999 0.000
vn -0.053 -0.999 0.001
vn 0.004 -1.000 0.003
vn -0.003 0.000 1.000
vn 0.163 0.000 0.987
vn -0.002 0.000 1.000
vn 0.164 0.001 0.986
vn -0.002 0.000 1.000
vn 0.163 0.000 0.987
vn 0.164 0.001 0.986
vn 0.143 0.005 0.990
vn -0.002 0.000 1.000
vn 0.000 0.000 1.000
vn -0.002 0.000 1.000
vn 0.143 0.005 0.990
vn 0.022 1.000 0.000
vn 0.107 0.994 0.000
vn 0.022 1.000 0.000
vn 0.258 0.966 0.000
vn 0.022 1.000 0.000
vn 0.107 0.994 0.000
vn 0.258 0.966 0.000
vn 0.106 0.994 0.000
vn 0.022 1.000 0.000
vn 0.022 1.000 0.000
vn 0.022 1.000 0.000
vn 0.106 0.994 0.000
vn 0.000 0.000 -1.000
vn 0.143 0.005 -0.990
vn 0.000 0.000 -1.000
vn 0.163 0.000 -0.987
vn 0.000 0.000 -1.000
vn 0.143 0.005 -0.990
vn 0.000 0.000 -1.000
vn 0.163 0.000 -0.987
vn -0.001 0.000 -1.000
vn 0.164 0.000 -0.986
vn -0.001 0.000 -1.000
vn 0.163 0.000 -0.987
vn 0.164 0.000 -0.986
vn 0.247 0.013 -0.969
vn -0.001 0.000 -1.000
vn 0.106 0.994 0.000
vn 0.258 0.966 0.000
vn 0.563 0.826 0.000
vn 0.564 0.826 0.000
vn 0.563 0.826 0.000
vn 0.258 0.966 0.000
vn 0.107 0.994 0.000
vn 0.564 0.826 0.000
vn 0.258 0.966 0.000
vn 0.149 -0.989 0.001
vn 0.206 -0.978 0.003
vn 0.903 -0.429 0.001
vn 0.903 -0.429 0.001
vn 0.963 -0.271 -0.001
vn 0.149 -0.989 0.001
vn 0.149 -0.989 0.001
vn 0.963 -0.271 -0.001
vn 0.129 -0.992 -0.003
vn 0.178 0.984 0.001
vn 0.170 0.986 -0.003
vn 0.848 0.530 -0.001
vn 0.848 0.530 -0.001
vn 0.925 0.380 0.001
vn 0.178 0.984 0.001
vn 0.178 0.984 0.001
vn 0.925 0.380 0.001
vn 0.222 0.975 0.003
vn 0.004 -1.000 0.003
vn 0.156 -0.988 0.001
vn 0.419 -0.908 0.001
vn 0.501 -0.865 0.000
vn 0.419 -0.908 0.001
vn 0.156 -0.988 0.001
vn 0.004 -1.000 -0.001
vn 0.501 -0.865 0.000
vn 0.156 -0.988 0.001
vn 0.999 0.052 0.001
vn 0.848 0.530 -0.001
vn 0.949 0.000 0.314
vn 0.936 0.000 -0.351
vn 0.949 0.000 0.314
vn 0.848 0.530 -0.001
vn 0.924 0.000 0.382
vn 0.925 0.380 0.001
vn 0.938 0.000 -0.347
vn 0.999 0.048 -0.004
vn 0.938 0.000 -0.347
vn 0.925 0.380 0.001
vn 0.946 -0.001 -0.323
vn 0.963 -0.271 -0.001
vn 0.938 0.000 0.347
vn 0.999 0.038 0.004
vn 0.938 0.000 0.347
vn 0.963 -0.271 -0.001
vn 0.936 0.000 0.352
vn 0.928 0.001 -0.373
vn 0.903 -0.429 0.001
vn 0.999 0.034 -0.002
vn 0.903 -0.429 0.001
vn 0.928 0.001 -0.373
vn -0.001 0.000 1.000
vn 0.008 0.000 1.000
vn -0.002 0.000 1.000
vn -0.002 0.000 1.000
vn 0.178 0.000 0.984
vn -0.001 0.000 1.000
vn 0.198 -0.001 0.980
vn -0.001 0.000 1.000
vn 0.178 0.000 0.984
vn 0.008 0.000 1.000
vn -0.001 0.000 1.000
vn 0.198 -0.001 0.980
vn 0.178 0.984 0.001
vn -0.017 1.000 -0.001
vn 0.170 0.986 -0.003
vn 0.178 0.984 0.001
vn 0.030 1.000 0.001
vn -0.017 1.000 -0.001
vn 0.030 1.000 0.001
vn 0.178 0.984 0.001
vn 0.030 1.000 0.003
vn 0.030 1.000 0.003
vn 0.178 0.984 0.001
vn 0.222 0.975 0.003
vn 0.149 -0.989 0.001
vn -0.022 -1.000 0.002
vn -0.022 -1.000 0.003
vn -0.022 -1.000 0.003
vn 0.206 -0.978 0.003
vn 0.149 -0.989 0.001
vn -0.072 -0.997 -0.002
vn -0.022 -1.000 0.002
vn 0.149 -0.989 0.001
vn 0.149 -0.989 0.001
vn 0.129 -0.992 -0.003
vn -0.072 -0.997 -0.002
vn 0.164 0.000 -0.986
vn -0.002 0.000 -1.000
vn -0.002 0.000 -1.000
vn -0.002 0.000 -1.000
vn 0.164 0.000 -0.986
vn -0.001 0.000 -1.000
vn -0.001 0.000 -1.000
vn -0.001 0.000 -1.000
vn 0.164 0.000 -0.986
vn 0.178 0.000 -0.984
vn -0.001 0.000 -1.000
vn 0.164 0.000 -0.986
vn -1.000 0.015 0.006
vn -1.000 0.016 0.000
vn -1.000 -0.007 0.001
vn -1.000 0.016 0.000
vn -0.035 -0.999 0.000
vn -0.999 -0.001 0.043
vn -0.999 -0.053 0.001
vn -1.000 -0.007 0.001
vn -1.000 0.016 0.000
vn -0.999 -0.001 0.043
vn -1.000 0.015 0.006
vn -1.000 0.000 0.007
vn -1.000 -0.001 -0.030
vn -1.000 0.000 0.007
vn -1.000 0.015 0.006
vn -1.000 -0.007 0.001
vn -0.999 -0.053 0.001
vn -0.999 -0.024 -0.022
vn -1.000 0.000 0.007
vn -1.000 -0.001 -0.030
vn -0.999 -0.034 0.000
vn -1.000 -0.009 -0.005
vn -0.999 -0.024 -0.022
vn -0.999 -0.053 0.001
vn -0.999 -0.034 0.000
vn -0.999 -0.034 0.000
vn -1.000 -0.001 -0.030
vn -0.999 -0.034 0.000
vn -0.999 -0.034 0.000
vn -0.999 -0.034 0.000
vn -0.999 -0.035 0.000
vn -0.999 -0.034 0.000
vn -0.999 -0.034 0.000
vn -0.999 -0.024 -0.022
vn -1.000 -0.009 -0.005
vn -1.000 0.000 -0.006
vn -1.000 -0.018 0.014
vn -1.000 0.000 -0.006
vn -1.000 -0.009 -0.005
vn -1.000 0.000 -0.006
vn -1.000 -0.018 0.014
vn -0.999 -0.036 0.000
vn -0.999 -0.034 0.000
vn -0.999 -0.035 0.000
vn -1.000 -0.018 0.014
vn -0.999 -0.036 0.000
vn -1.000 -0.018 0.014
vn -0.999 -0.035 0.000
g 
usemtl WallPainting0019
f 1/1/1 2/2/2 3/3/3
f 4/4/4 3/3/5 2/2/6
f 5/5/7 6/6/8 7/7/9
f 8/8/10 7/7/11 6/6/12
f 9/9/13 10/10/14 11/11/15
f 12/12/16 11/11/17 10/10/18
f 13/13/19 14/14/20 15/15/21
f 16/16/22 15/15/23 14/14/24
f 17/17/25 18/18/26 7/7/27
f 5/5/28 7/7/29 18/18/30
f 19/19/31 20/20/32 6/6/33
f 8/8/34 6/6/35 20/20/36
f 21/21/37 22/22/38 15/15/39
f 13/13/40 15/15/41 22/22/42
f 23/23/43 24/24/44 14/14/45
f 16/16/46 14/14/47 24/24/48
f 25/25/49 10/10/50 20/20/51
f 8/8/52 20/20/53 10/10/54
f 26/26/55 19/19/56 4/4/57
f 6/6/58 4/4/59 19/19/60
f 3/3/61 5/5/62 18/18/63
f 1/1/64 21/21/65 15/15/66
f 16/16/67 24/24/68 2/2/69
f 27/27/70 23/23/71 12/12/72
f 14/14/73 12/12/74 23/23/75
f 11/11/76 13/13/77 22/22/78
f 9/9/79 17/17/80 7/7/81
f 28/28/82 29/29/83 30/30/84
f 31/31/85 30/30/86 29/29/87
f 32/32/88 33/33/89 34/34/90
f 35/35/91 34/34/92 33/33/93
f 35/36/94 31/37/95 34/38/96
f 29/39/97 34/38/98 31/37/99
f 33/40/100 30/41/101 35/42/102
f 31/43/103 35/42/104 30/41/105
f 32/44/106 28/44/107 33/45/108
f 30/45/109 33/45/110 28/44/111
f 34/46/112 29/47/113 32/48/114
f 28/49/115 32/48/116 29/47/117
f 36/50/118 26/51/119 37/52/120
f 38/53/121 37/52/122 26/51/123
f 38/53/124 24/54/125 37/52/126
f 39/55/127 37/52/128 24/54/129
f 39/56/130 24/57/131 40/58/132
f 23/59/133 40/58/134 24/57/135
f 23/59/136 27/60/137 40/58/138
f 41/61/139 40/58/140 27/60/141
f 41/62/142 27/63/143 42/64/144
f 43/65/145 42/64/146 27/63/147
f 43/65/148 25/66/149 42/64/150
f 44/67/151 42/64/152 25/66/153
f 44/68/154 25/69/155 45/70/156
f 20/71/157 45/70/158 25/69/159
f 45/70/160 20/71/161 36/72/162
f 19/73/163 36/72/164 20/71/165
f 19/73/166 26/74/167 36/72/168
f 25/66/169 43/65/170 10/75/171
f 12/76/172 10/75/173 43/65/174
f 27/63/175 12/76/176 43/65/177
f 46/77/178 17/78/179 9/79/180
f 9/79/181 11/80/182 46/77/183
f 46/77/184 11/80/185 22/81/186
f 47/82/187 21/83/188 1/84/189
f 1/84/190 3/85/191 47/82/192
f 47/82/193 3/85/194 18/86/195
f 24/54/196 38/53/197 2/87/198
f 4/88/199 2/87/200 38/53/201
f 26/51/202 4/88/203 38/53/204
f 2/2/205 1/1/206 16/16/207
f 15/15/208 16/16/209 1/1/210
f 5/5/211 3/3/212 6/6/213
f 4/4/214 6/6/215 3/3/216
f 13/13/217 11/11/218 14/14/219
f 12/12/220 14/14/221 11/11/222
f 7/7/223 8/8/224 9/9/225
f 10/10/226 9/9/227 8/8/228
f 50/89/229 49/90/230 48/91/231
f 48/91/232 18/92/233 50/89/234
f 17/93/235 50/89/236 18/92/237
f 49/90/238 50/89/239 17/93/240
f 47/82/241 51/94/242 21/83/243
f 47/82/244 52/95/245 51/94/246
f 52/95/247 47/82/248 48/96/249
f 48/96/250 47/82/251 18/86/252
f 46/77/253 53/97/254 49/98/255
f 49/98/256 17/78/257 46/77/258
f 54/99/259 53/97/260 46/77/261
f 46/77/262 22/81/263 54/99/264
f 22/100/265 55/101/266 54/102/267
f 55/101/268 22/100/269 56/103/270
f 51/104/271 56/103/272 22/100/273
f 21/105/274 51/104/275 22/100/276
f 39/106/277 51/107/278 37/108/279
f 51/107/280 39/106/281 56/109/282
f 52/110/283 37/108/284 51/107/285
f 56/109/286 39/106/287 55/111/288
f 40/112/289 55/111/290 39/106/291
f 37/108/292 52/110/293 36/113/294
f 55/111/295 40/112/296 54/114/297
f 48/115/298 36/113/299 52/110/300
f 41/116/301 54/114/302 40/112/303
f 54/114/304 41/116/305 53/117/306
f 42/118/307 53/117/308 41/116/309
f 36/113/310 48/115/311 45/119/312
f 49/120/313 45/119/314 48/115/315
f 45/119/316 49/120/317 44/121/318
f 53/117/319 42/118/320 49/120/321
f 44/121/322 49/120/323 42/118/324
