# 3ds Max Wavefront OBJ Exporter v0.97b - (c)2007 guruware
# 创建的文件:21.04.2021 17:21:08

mtllib WallPainting0025.mtl

#
# object WallPainting0025
#
g 
usemtl WallPainting0025
v  0.0040 -0.0950 0.1070
v  0.0040 0.0980 0.1070
v  0.0040 -0.0960 0.1080
v  0.0040 0.0990 0.1080
v  0.0040 0.0980 -0.1060
v  0.0040 -0.0950 -0.1060
v  0.0040 0.0990 -0.1070
v  0.0040 -0.0960 -0.1070
v  0.0010 0.1370 0.1500
v  0.0050 0.1370 0.1500
v  0.0010 -0.1370 0.1500
v  0.0050 -0.1370 0.1500
v  0.0010 -0.1370 -0.1500
v  0.0050 -0.1370 -0.1500
v  0.0010 0.1370 -0.1500
v  0.0050 0.1370 -0.1500
v  -0.0060 -0.1480 0.1610
v  0.0050 -0.1480 0.1610
v  -0.0060 0.1480 0.1610
v  0.0050 0.1480 0.1610
v  -0.0060 0.1480 -0.1610
v  0.0050 0.1480 -0.1610
v  -0.0060 -0.1480 -0.1610
v  0.0050 -0.1480 -0.1610
v  0.0050 0.1380 -0.1510
v  0.0050 -0.1380 -0.1510
v  0.0050 -0.1470 0.1600
v  0.0050 0.1470 0.1600
v  0.0050 0.1470 -0.1600
v  0.0050 -0.1470 -0.1600
v  0.0050 -0.1380 0.1510
v  0.0050 0.1380 0.1510
v  0.0040 -0.1370 0.1500
v  0.0040 0.1370 0.1500
v  0.0040 -0.1370 -0.1500
v  0.0040 0.1370 -0.1500
# 36 vertices

vn 1.0000 0.0000 0.0000
vn 1.0000 0.0000 0.0000
vn 1.0000 0.0000 0.0000
vn 1.0000 0.0000 0.0000
vn 1.0000 0.0000 0.0000
vn 1.0000 0.0000 0.0000
vn 1.0000 0.0000 0.0000
vn 1.0000 0.0000 0.0000
vn 1.0000 0.0000 0.0000
vn 1.0000 0.0000 0.0000
vn 1.0000 0.0000 0.0000
vn 1.0000 0.0000 0.0000
vn 0.0000 0.0000 -1.0000
vn 0.1830 0.0000 -0.9830
vn 0.0000 0.0000 -1.0000
vn 0.1830 0.0000 -0.9830
vn 0.0000 0.0000 -1.0000
vn 0.1830 0.0000 -0.9830
vn 0.0000 0.0000 1.0000
vn 0.1830 0.0000 0.9830
vn 0.0000 0.0000 1.0000
vn 0.1830 0.0000 0.9830
vn 0.0000 0.0000 1.0000
vn 0.1830 0.0000 0.9830
vn 0.0000 0.0000 1.0000
vn 0.0760 0.0000 0.9970
vn 0.0000 0.0000 1.0000
vn 0.0760 0.0000 0.9970
vn 0.0000 0.0000 1.0000
vn 0.0760 0.0000 0.9970
vn 0.0000 0.0000 -1.0000
vn 0.0760 0.0000 -0.9970
vn 0.0000 0.0000 -1.0000
vn 0.0760 0.0000 -0.9970
vn 0.0000 0.0000 -1.0000
vn 0.0760 0.0000 -0.9970
vn 1.0000 0.0000 0.0000
vn 1.0000 0.0000 0.0000
vn 1.0000 0.0000 0.0000
vn 1.0000 0.0000 0.0000
vn 1.0000 0.0000 0.0000
vn 1.0000 0.0000 0.0000
vn 0.1830 0.0000 0.9830
vn 0.1830 0.0000 0.9830
vn 0.9980 -0.0320 0.0580
vn 0.9980 0.0610 0.0280
vn 0.9980 -0.0320 0.0580
vn 0.1830 0.0000 0.9830
vn 0.0000 1.0000 0.0000
vn 0.1830 0.9830 0.0000
vn 0.0000 1.0000 0.0000
vn 0.1830 0.9830 0.0000
vn 0.0000 1.0000 0.0000
vn 0.1830 0.9830 0.0000
vn 0.0000 -1.0000 0.0000
vn 0.1830 -0.9830 0.0000
vn 0.0000 -1.0000 0.0000
vn 0.1830 -0.9830 0.0000
vn 0.0000 -1.0000 0.0000
vn 0.1830 -0.9830 0.0000
vn 0.0000 1.0000 0.0000
vn 0.0760 0.9970 0.0000
vn 0.0000 1.0000 0.0000
vn 0.0760 0.9970 0.0000
vn 0.0000 1.0000 0.0000
vn 0.0760 0.9970 0.0000
vn 0.0000 -1.0000 0.0000
vn 0.0760 -0.9970 0.0000
vn 0.0000 -1.0000 0.0000
vn 0.0760 -0.9970 0.0000
vn 0.0000 -1.0000 0.0000
vn 0.0760 -0.9970 0.0000
vn 0.9980 -0.0640 0.0290
vn 0.9980 0.0330 0.0600
vn 0.0760 0.0000 0.9970
vn 0.0760 0.0000 0.9970
vn 0.0760 0.0000 0.9970
vn 0.9980 0.0330 0.0600
vn 0.9980 0.0330 0.0600
vn 0.9980 0.0640 -0.0290
vn 0.0760 0.9970 0.0000
vn 0.0760 0.9970 0.0000
vn 0.0760 0.9970 0.0000
vn 0.9980 0.0640 -0.0290
vn 0.9980 0.0640 -0.0290
vn 0.9980 -0.0330 -0.0600
vn 0.0760 0.0000 -0.9970
vn 0.0760 0.0000 -0.9970
vn 0.0760 0.0000 -0.9970
vn 0.9980 -0.0330 -0.0600
vn 0.9980 -0.0330 -0.0600
vn 0.9980 -0.0640 0.0290
vn 0.0760 -0.9970 0.0000
vn 0.0760 -0.9970 0.0000
vn 0.0760 -0.9970 0.0000
vn 0.9980 -0.0640 0.0290
vn 0.1830 0.0000 -0.9830
vn 0.1830 0.0000 -0.9830
vn 0.9980 0.0320 -0.0580
vn 0.9980 -0.0610 -0.0280
vn 0.9980 0.0320 -0.0580
vn 0.1830 0.0000 -0.9830
vn 0.1830 0.9830 0.0000
vn 0.1830 0.9830 0.0000
vn 0.9980 0.0610 0.0280
vn 0.9980 0.0320 -0.0580
vn 0.9980 0.0610 0.0280
vn 0.1830 0.9830 0.0000
vn 0.1830 -0.9830 0.0000
vn 0.1830 -0.9830 0.0000
vn 0.9980 -0.0610 -0.0280
vn 0.9980 -0.0320 0.0580
vn 0.9980 -0.0610 -0.0280
vn 0.1830 -0.9830 0.0000
vn 1.0000 0.0000 0.0000
vn 1.0000 0.0000 0.0000
vn 1.0000 0.0000 0.0000
vn 1.0000 0.0000 0.0000
vn 1.0000 0.0000 0.0000
vn 1.0000 0.0000 0.0000
vn 1.0000 0.0000 0.0000
vn 1.0000 0.0000 0.0000
vn 1.0000 0.0000 0.0000
vn 1.0000 0.0000 0.0000
vn 1.0000 0.0000 0.0000
vn 1.0000 0.0000 0.0000
vn 1.0000 0.0000 0.0000
vn 1.0000 0.0000 0.0000
vn 1.0000 0.0000 0.0000
vn 1.0000 0.0000 0.0000
vn 1.0000 0.0000 0.0000
vn 1.0000 0.0000 0.0000
vn 1.0000 0.0000 0.0000
vn 1.0000 0.0000 0.0000
vn 1.0000 0.0000 0.0000
vn 1.0000 0.0000 0.0000
vn 1.0000 0.0000 0.0000
vn 1.0000 0.0000 0.0000
vn 1.0000 0.0000 0.0000
vn 1.0000 0.0000 0.0000
vn 1.0000 0.0000 0.0000
vn 1.0000 0.0000 0.0000
vn 1.0000 0.0000 0.0000
vn 1.0000 0.0000 0.0000
vn 1.0000 0.0000 0.0000
vn 1.0000 0.0000 0.0000
vn 1.0000 0.0000 0.0000
vn 1.0000 0.0000 0.0000
vn 1.0000 0.0000 0.0000
vn 1.0000 0.0000 0.0000
vn 0.9980 -0.0610 -0.0280
vn 0.9980 0.0330 0.0600
vn 0.9980 0.0320 -0.0580
vn 0.9980 0.0330 0.0600
vn 0.9980 -0.0610 -0.0280
vn 0.9980 0.0640 -0.0290
vn 0.9980 -0.0640 0.0290
vn 0.9980 0.0320 -0.0580
vn 0.9980 0.0330 0.0600
vn 0.9980 -0.0320 0.0580
vn 0.9980 0.0640 -0.0290
vn 0.9980 -0.0610 -0.0280
vn 0.9980 0.0320 -0.0580
vn 0.9980 -0.0640 0.0290
vn 0.9980 0.0610 0.0280
vn 0.9980 0.0640 -0.0290
vn 0.9980 -0.0320 0.0580
vn 0.9980 -0.0330 -0.0600
vn 0.9980 -0.0330 -0.0600
vn 0.9980 0.0610 0.0280
vn 0.9980 -0.0640 0.0290
vn 0.9980 0.0610 0.0280
vn 0.9980 -0.0330 -0.0600
vn 0.9980 -0.0320 0.0580
vn 0.0000 0.0000 -0.0000
vn 0.0000 0.0000 -0.0000
vn 0.0000 0.0000 -0.0000
vn 0.0000 0.0000 -0.0000
# 178 vertex normals

vt 0.4490 0.9260 0.0000
vt 0.4490 0.6020 0.0000
vt 0.4510 0.9280 0.0000
vt 0.4510 0.6000 0.0000
vt 0.0920 0.6020 0.0000
vt 0.0920 0.9260 0.0000
vt 0.0900 0.6000 0.0000
vt 0.0900 0.9280 0.0000
vt 0.5360 0.0380 0.0000
vt 0.5420 0.0380 0.0000
vt 0.5360 0.4980 0.0000
vt 0.5420 0.4980 0.0000
vt 0.0450 0.4980 0.0000
vt 0.0380 0.4980 0.0000
vt 0.0450 0.0380 0.0000
vt 0.0380 0.0380 0.0000
vt 0.5780 0.5160 0.0000
vt 0.5610 0.5160 0.0000
vt 0.5780 0.0200 0.0000
vt 0.5610 0.0200 0.0000
vt 0.0020 0.0200 0.0000
vt 0.0200 0.0200 0.0000
vt 0.0020 0.5160 0.0000
vt 0.0200 0.5160 0.0000
vt 0.0360 0.0360 0.0000
vt 0.0360 0.5000 0.0000
vt 0.5430 0.4910 0.0000
vt 0.5430 0.4980 0.0000
vt 0.0380 0.4910 0.0000
vt 0.0380 0.0450 0.0000
vt 0.5430 0.0450 0.0000
vt 0.5430 0.0380 0.0000
vt 0.5600 0.0020 0.0000
vt 0.5600 0.0200 0.0000
vt 0.0200 0.0020 0.0000
vt 0.0200 0.5340 0.0000
vt 0.5600 0.5340 0.0000
vt 0.5600 0.5160 0.0000
vt 0.5590 0.5140 0.0000
vt 0.5590 0.0220 0.0000
vt 0.0220 0.0220 0.0000
vt 0.0220 0.5140 0.0000
vt 0.5440 0.5000 0.0000
vt 0.5440 0.0360 0.0000
vt 0.5230 0.9970 0.0000
vt 0.5230 0.5360 0.0000
vt 0.0180 0.9970 0.0000
vt 0.0180 0.5360 0.0000
# 48 texture coords

o WallPainting0025
g WallPainting0025
usemtl WallPainting0025
s 1
f 1/1/1 2/2/2 3/3/3 
f 4/4/4 3/3/5 2/2/6 
f 5/5/7 6/6/8 7/7/9 
f 8/8/10 7/7/11 6/6/12 
f 9/9/13 10/10/14 11/11/15 
f 12/12/16 11/11/17 10/10/18 
f 13/13/19 14/14/20 15/15/21 
f 16/16/22 15/15/23 14/14/24 
f 17/17/25 18/18/26 19/19/27 
f 20/20/28 19/19/29 18/18/30 
f 21/21/31 22/22/32 23/23/33 
f 24/24/34 23/23/35 22/22/36 
f 2/2/37 1/1/38 5/5/39 
f 6/6/40 5/5/41 1/1/42 
f 16/16/43 14/14/44 25/25/45 
f 26/26/46 25/25/47 14/14/48 
f 11/27/49 12/28/50 13/29/51 
f 14/14/52 13/29/53 12/28/54 
f 15/30/55 16/16/56 9/31/57 
f 10/32/58 9/31/59 16/16/60 
f 19/33/61 20/34/62 21/35/63 
f 22/22/64 21/35/65 20/34/66 
f 23/36/67 24/24/68 17/37/69 
f 18/38/70 17/37/71 24/24/72 
f 27/39/73 28/40/74 18/18/75 
f 20/20/76 18/18/77 28/40/78 
f 28/40/79 29/41/80 20/34/81 
f 22/22/82 20/34/83 29/41/84 
f 29/41/85 30/42/86 22/22/87 
f 24/24/88 22/22/89 30/42/90 
f 30/42/91 27/39/92 24/24/93 
f 18/38/94 24/24/95 27/39/96 
f 12/12/97 10/10/98 31/43/99 
f 32/44/100 31/43/101 10/10/102 
f 14/14/103 12/28/104 26/26/105 
f 31/43/106 26/26/107 12/28/108 
f 10/32/109 16/16/110 32/44/111 
f 25/25/112 32/44/113 16/16/114 
f 6/6/115 1/1/116 8/8/117 
f 3/3/118 8/8/119 1/1/120 
f 3/3/121 33/45/122 8/8/123 
f 33/45/124 3/3/125 34/46/126 
f 35/47/127 8/8/128 33/45/129 
f 4/4/130 34/46/131 3/3/132 
f 8/8/133 35/47/134 7/7/135 
f 34/46/136 4/4/137 36/48/138 
f 36/48/139 7/7/140 35/47/141 
f 7/7/142 36/48/143 4/4/144 
f 7/7/145 4/4/146 5/5/147 
f 2/2/148 5/5/149 4/4/150 
f 32/44/151 28/40/152 31/43/153 
f 28/40/154 32/44/155 29/41/156 
f 27/39/157 31/43/158 28/40/159 
f 25/25/160 29/41/161 32/44/162 
f 31/43/163 27/39/164 26/26/165 
f 29/41/166 25/25/167 30/42/168 
f 30/42/169 26/26/170 27/39/171 
f 26/26/172 30/42/173 25/25/174 
s off
f 21/35/175 23/23/176 17/37/177 19/19/178 
# 1 polygons - 58 triangles

