mtllib WallPainting0026.mtl
# File exported by Houdini 18.0.499 (www.sidefx.com)
# 36 points
# 174 vertices
# 58 primitives
# Bounds: [0, -0.209121987, -0.1528133] to [0.0107751889, 0.209122002, 0.1528133]
g 
usemtl WallPainting0026
v 0.010 -0.174 0.116
v 0.010 0.172 0.116
v 0.010 -0.175 0.116
v 0.010 0.173 0.116
v 0.010 0.172 -0.116
v 0.010 -0.174 -0.116
v 0.010 0.173 -0.116
v 0.010 -0.175 -0.116
v 0.006 0.199 0.143
v 0.010 0.199 0.143
v 0.006 -0.199 0.143
v 0.010 -0.199 0.143
v 0.006 -0.199 -0.143
v 0.010 -0.199 -0.143
v 0.006 0.199 -0.143
v 0.010 0.199 -0.143
v 0.000 -0.209 0.153
v 0.010 -0.209 0.153
v 0.000 0.209 0.153
v 0.010 0.209 0.153
v 0.000 0.209 -0.153
v 0.010 0.209 -0.153
v 0.000 -0.209 -0.153
v 0.010 -0.209 -0.153
v 0.011 0.208 -0.152
v 0.011 -0.208 -0.152
v 0.011 0.200 -0.144
v 0.011 -0.200 -0.144
v 0.011 -0.208 0.152
v 0.011 0.208 0.152
v 0.011 -0.200 0.144
v 0.011 0.200 0.144
v 0.010 -0.199 0.143
v 0.010 0.199 0.143
v 0.010 -0.199 -0.143
v 0.010 0.199 -0.143
vt 0.003 0.003
vt 0.003 0.997
vt 0.000 0.000
vt 0.000 1.000
vt 0.997 0.997
vt 0.997 0.003
vt 1.000 1.000
vt 1.000 0.000
vt 0.008 0.992
vt 0.008 0.008
vt 0.665 0.992
vt 0.665 0.008
vn 1.000 0.000 0.000
vn 1.000 0.000 0.000
vn 1.000 0.000 0.000
vn 1.000 0.000 0.000
vn 1.000 0.000 0.000
vn 1.000 0.000 0.000
vn 1.000 0.000 0.000
vn 1.000 0.000 0.000
vn 1.000 0.000 0.000
vn 1.000 0.000 0.000
vn 1.000 0.000 0.000
vn 1.000 0.000 0.000
vn 0.000 0.000 -1.000
vn 0.183 0.000 -0.983
vn 0.000 0.000 -1.000
vn 0.183 0.000 -0.983
vn 0.000 0.000 -1.000
vn 0.183 0.000 -0.983
vn 0.000 0.000 1.000
vn 0.183 0.000 0.983
vn 0.000 0.000 1.000
vn 0.183 0.000 0.983
vn 0.000 0.000 1.000
vn 0.183 0.000 0.983
vn 0.000 0.000 1.000
vn 0.076 0.000 0.997
vn 0.000 0.000 1.000
vn 0.076 0.000 0.997
vn 0.000 0.000 1.000
vn 0.076 0.000 0.997
vn 0.000 0.000 -1.000
vn 0.076 0.000 -0.997
vn 0.000 0.000 -1.000
vn 0.076 0.000 -0.997
vn 0.000 0.000 -1.000
vn 0.076 0.000 -0.997
vn 1.000 0.000 0.000
vn 1.000 0.000 0.000
vn 1.000 0.000 0.000
vn 1.000 0.000 0.000
vn 1.000 0.000 0.000
vn 1.000 0.000 0.000
vn 0.998 0.055 -0.038
vn 0.997 -0.025 -0.068
vn 0.076 0.000 -0.997
vn 0.076 0.000 -0.997
vn 0.076 0.000 -0.997
vn 0.997 -0.025 -0.068
vn 0.183 0.000 0.983
vn 0.183 0.000 0.983
vn 0.998 -0.024 0.066
vn 0.998 0.053 0.037
vn 0.998 -0.024 0.066
vn 0.183 0.000 0.983
vn 0.000 1.000 0.000
vn 0.183 0.983 0.000
vn 0.000 1.000 0.000
vn 0.183 0.983 0.000
vn 0.000 1.000 0.000
vn 0.183 0.983 0.000
vn 0.000 -1.000 0.000
vn 0.183 -0.983 0.000
vn 0.000 -1.000 0.000
vn 0.183 -0.983 0.000
vn 0.000 -1.000 0.000
vn 0.183 -0.983 0.000
vn 0.000 1.000 0.000
vn 0.076 0.997 0.000
vn 0.000 1.000 0.000
vn 0.076 0.997 0.000
vn 0.000 1.000 0.000
vn 0.076 0.997 0.000
vn 0.000 -1.000 0.000
vn 0.076 -0.997 0.000
vn 0.000 -1.000 0.000
vn 0.076 -0.997 0.000
vn 0.000 -1.000 0.000
vn 0.076 -0.997 0.000
vn 0.998 -0.055 0.038
vn 0.997 0.025 0.068
vn 0.076 0.000 0.997
vn 0.076 0.000 0.997
vn 0.076 0.000 0.997
vn 0.997 0.025 0.068
vn 0.997 0.025 0.068
vn 0.998 0.055 -0.038
vn 0.076 0.997 0.000
vn 0.076 0.997 0.000
vn 0.076 0.997 0.000
vn 0.998 0.055 -0.038
vn 0.997 -0.025 -0.068
vn 0.998 -0.055 0.038
vn 0.076 -0.997 0.000
vn 0.076 -0.997 0.000
vn 0.076 -0.997 0.000
vn 0.998 -0.055 0.038
vn 0.183 0.000 -0.983
vn 0.183 0.000 -0.983
vn 0.998 0.024 -0.066
vn 0.998 -0.053 -0.037
vn 0.998 0.024 -0.066
vn 0.183 0.000 -0.983
vn 0.183 0.983 0.000
vn 0.183 0.983 0.000
vn 0.998 0.053 0.037
vn 0.998 0.024 -0.066
vn 0.998 0.053 0.037
vn 0.183 0.983 0.000
vn 0.183 -0.983 0.000
vn 0.183 -0.983 0.000
vn 0.998 -0.053 -0.037
vn 0.998 -0.024 0.066
vn 0.998 -0.053 -0.037
vn 0.183 -0.983 0.000
vn 1.000 0.000 0.000
vn 1.000 0.000 0.000
vn 1.000 0.000 0.000
vn 1.000 0.000 0.000
vn 1.000 0.000 0.000
vn 1.000 0.000 0.000
vn 1.000 0.000 0.000
vn 1.000 0.000 0.000
vn 1.000 0.000 0.000
vn 1.000 0.000 0.000
vn 1.000 0.000 0.000
vn 1.000 0.000 0.000
vn 1.000 0.000 0.000
vn 1.000 0.000 0.000
vn 1.000 0.000 0.000
vn 1.000 0.000 0.000
vn 1.000 0.000 0.000
vn 1.000 0.000 0.000
vn 1.000 0.000 0.000
vn 1.000 0.000 0.000
vn 1.000 0.000 0.000
vn 1.000 0.000 0.000
vn 1.000 0.000 0.000
vn 1.000 0.000 0.000
vn 1.000 0.000 0.000
vn 1.000 0.000 0.000
vn 1.000 0.000 0.000
vn 1.000 0.000 0.000
vn 1.000 0.000 0.000
vn 1.000 0.000 0.000
vn 1.000 0.000 0.000
vn 1.000 0.000 0.000
vn 1.000 0.000 0.000
vn 1.000 0.000 0.000
vn 1.000 0.000 0.000
vn 1.000 0.000 0.000
vn 0.998 -0.053 -0.037
vn 0.997 0.025 0.068
vn 0.998 0.024 -0.066
vn 0.997 0.025 0.068
vn 0.998 -0.053 -0.037
vn 0.998 0.055 -0.038
vn 0.998 -0.055 0.038
vn 0.998 0.024 -0.066
vn 0.997 0.025 0.068
vn 0.998 -0.024 0.066
vn 0.998 0.055 -0.038
vn 0.998 -0.053 -0.037
vn 0.998 0.024 -0.066
vn 0.998 -0.055 0.038
vn 0.998 0.053 0.037
vn 0.998 0.055 -0.038
vn 0.998 -0.024 0.066
vn 0.997 -0.025 -0.068
vn 0.997 -0.025 -0.068
vn 0.998 0.053 0.037
vn 0.998 -0.055 0.038
vn 0.998 0.053 0.037
vn 0.997 -0.025 -0.068
vn 0.998 -0.024 0.066
g 
usemtl WallPainting0026
f 1/1/1 2/2/2 3/3/3
f 4/4/4 3/3/5 2/2/6
f 5/5/7 6/6/8 7/7/9
f 8/8/10 7/7/11 6/6/12
f 9/4/13 10/4/14 11/3/15
f 12/3/16 11/3/17 10/4/18
f 13/8/19 14/8/20 15/7/21
f 16/7/22 15/7/23 14/8/24
f 17/3/25 18/3/26 19/4/27
f 20/4/28 19/4/29 18/3/30
f 21/7/31 22/7/32 23/8/33
f 24/8/34 23/8/35 22/7/36
f 2/9/37 1/10/38 5/11/39
f 6/12/40 5/11/41 1/10/42
f 25/7/43 26/8/44 22/7/45
f 24/8/46 22/7/47 26/8/48
f 16/7/49 14/8/50 27/7/51
f 28/8/52 27/7/53 14/8/54
f 11/3/55 12/3/56 13/8/57
f 14/8/58 13/8/59 12/3/60
f 15/7/61 16/7/62 9/4/63
f 10/4/64 9/4/65 16/7/66
f 19/4/67 20/4/68 21/7/69
f 22/7/70 21/7/71 20/4/72
f 23/8/73 24/8/74 17/3/75
f 18/3/76 17/3/77 24/8/78
f 29/3/79 30/4/80 18/3/81
f 20/4/82 18/3/83 30/4/84
f 30/4/85 25/7/86 20/4/87
f 22/7/88 20/4/89 25/7/90
f 26/8/91 29/3/92 24/8/93
f 18/3/94 24/8/95 29/3/96
f 12/3/97 10/4/98 31/3/99
f 32/4/100 31/3/101 10/4/102
f 14/8/103 12/3/104 28/8/105
f 31/3/106 28/8/107 12/3/108
f 10/4/109 16/7/110 32/4/111
f 27/7/112 32/4/113 16/7/114
f 6/6/115 1/1/116 8/8/117
f 3/3/118 8/8/119 1/1/120
f 3/3/121 33/3/122 8/8/123
f 33/3/124 3/3/125 34/4/126
f 35/8/127 8/8/128 33/3/129
f 4/4/130 34/4/131 3/3/132
f 8/8/133 35/8/134 7/7/135
f 34/4/136 4/4/137 36/7/138
f 36/7/139 7/7/140 35/8/141
f 7/7/142 36/7/143 4/4/144
f 7/7/145 4/4/146 5/5/147
f 2/2/148 5/5/149 4/4/150
f 32/4/151 30/4/152 31/3/153
f 30/4/154 32/4/155 25/7/156
f 29/3/157 31/3/158 30/4/159
f 27/7/160 25/7/161 32/4/162
f 31/3/163 29/3/164 28/8/165
f 25/7/166 27/7/167 26/8/168
f 26/8/169 28/8/170 29/3/171
f 28/8/172 26/8/173 27/7/174
