# 3ds Max Wavefront OBJ Exporter v0.97b - (c)2007 guruware
# 创建的文件:21.04.2021 16:22:14

mtllib WallPainting0005.mtl

#
# object WallPainting0005
#
g 
usemtl WallPainting0005
v  -0.0150 0.6000 -0.3910
v  -0.0150 0.6000 0.3900
v  -0.0140 0.6020 0.3920
v  0.0150 0.6010 0.3900
v  0.0150 0.6010 -0.3900
v  0.0150 -0.6010 0.3900
v  0.0150 -0.6010 -0.3900
v  -0.0150 -0.6000 0.3910
v  -0.0150 -0.6000 -0.3910
v  -0.0050 0.6000 0.3900
v  -0.0050 -0.6000 0.3900
v  -0.0050 0.6000 -0.3900
v  -0.0050 -0.6000 -0.3900
v  -0.0150 0.6000 0.3900
v  -0.0150 -0.6000 0.3900
v  -0.0150 0.6000 -0.3900
v  -0.0150 -0.6000 -0.3900
# 17 vertices

vn -0.9590 0.1550 0.2380
vn -0.9400 0.3410 0.0000
vn -0.9590 0.1550 0.2380
vn 0.0270 1.0000 -0.0020
vn 0.0020 1.0000 -0.0010
vn 0.0020 1.0000 -0.0010
vn -0.0230 1.0000 0.0000
vn 0.0020 1.0000 -0.0010
vn 0.0020 1.0000 -0.0010
vn 1.0000 0.0000 0.0000
vn 1.0000 0.0000 0.0000
vn 1.0000 0.0000 0.0000
vn 1.0000 0.0000 0.0000
vn 1.0000 0.0000 0.0000
vn 1.0000 0.0000 0.0000
vn -0.0230 -1.0000 0.0000
vn -0.0230 -1.0000 0.0000
vn -0.0230 -1.0000 0.0000
vn -0.0230 -1.0000 0.0000
vn -0.0230 -1.0000 0.0000
vn -0.0230 -1.0000 0.0000
vn -0.9590 0.1550 0.2380
vn -0.9130 0.0000 0.4090
vn -0.9590 0.1550 0.2380
vn 0.0220 -0.0010 1.0000
vn 0.0420 0.0000 0.9990
vn 0.0220 -0.0010 1.0000
vn 0.0020 -0.0010 1.0000
vn 0.0220 -0.0010 1.0000
vn 0.0220 -0.0010 1.0000
vn 0.0020 0.0000 -1.0000
vn 0.0020 0.0000 -1.0000
vn 0.0020 0.0000 -1.0000
vn 0.0020 0.0000 -1.0000
vn 0.0020 0.0000 -1.0000
vn 0.0020 0.0000 -1.0000
vn 1.0000 0.0000 -0.0000
vn 1.0000 0.0000 -0.0000
vn 1.0000 0.0000 -0.0000
vn 1.0000 0.0000 -0.0000
vn 1.0000 0.0000 -0.0000
vn 1.0000 0.0000 -0.0000
vn -1.0000 0.0000 -0.0000
vn -1.0000 0.0000 -0.0000
vn -1.0000 0.0000 -0.0000
vn -1.0000 0.0000 -0.0000
vn -1.0000 0.0000 -0.0000
vn -1.0000 0.0000 -0.0000
vn 0.0000 0.0000 1.0000
vn 0.0000 0.0000 1.0000
vn 0.0000 0.0000 1.0000
vn 0.0000 0.0000 1.0000
vn 0.0000 1.0000 -0.0000
vn 0.0000 1.0000 -0.0000
vn 0.0000 1.0000 -0.0000
vn 0.0000 1.0000 -0.0000
vn 0.0000 0.0000 -1.0000
vn 0.0000 0.0000 -1.0000
vn 0.0000 0.0000 -1.0000
vn 0.0000 0.0000 -1.0000
vn 0.0000 -1.0000 -0.0000
vn 0.0000 -1.0000 -0.0000
vn 0.0000 -1.0000 -0.0000
vn 0.0000 -1.0000 -0.0000
# 64 vertex normals

vt -0.0010 0.9990 0.0000
vt 0.9140 0.9990 0.0000
vt 0.0000 1.0000 0.0000
vt 0.0000 0.9760 0.0000
vt 0.9140 0.9760 0.0000
vt 0.0000 0.0250 0.0000
vt 0.9140 0.0250 0.0000
vt 0.0000 0.0010 0.0000
vt 0.9140 0.0010 0.0000
vt 0.9180 0.9980 0.0000
vt 0.9190 0.0020 0.0000
vt 0.9200 0.9990 0.0000
vt 0.9560 0.0020 0.0000
vt 0.9560 0.9990 0.0000
vt 0.9990 0.9980 0.0000
vt 0.9620 0.9990 0.0000
vt 0.9990 0.0020 0.0000
vt 0.9620 0.0020 0.0000
vt 0.9236 0.9939 0.0000
vt 0.9236 0.9636 0.0000
vt 0.9527 0.9939 0.0000
vt 0.9527 0.9636 0.0000
# 22 texture coords

o WallPainting0005
g WallPainting0005
usemtl WallPainting0005
s 1
f 3/1/1 1/2/2 2/3/3 
f 3/1/4 4/4/5 1/2/6 
f 5/5/7 1/2/8 4/4/9 
f 4/4/10 6/6/11 5/5/12 
f 7/7/13 5/5/14 6/6/15 
f 6/6/16 8/8/17 7/7/18 
f 9/9/19 7/7/20 8/8/21 
f 2/10/22 8/11/23 3/12/24 
f 6/13/25 4/14/26 3/12/27 
f 8/11/28 6/13/29 3/12/30 
f 1/15/31 5/16/32 9/17/33 
f 5/16/34 7/18/35 9/17/36 
f 10/19/37 11/20/38 12/21/39 
f 13/22/40 12/21/41 11/20/42 
f 16/21/43 15/20/44 14/19/45 
f 15/20/46 16/21/47 17/22/48 
s 2
f 11/20/49 10/19/50 14/19/51 15/20/52 
s 4
f 16/21/53 14/19/54 10/19/55 12/21/56 
s 2
f 17/22/57 16/21/58 12/21/59 13/22/60 
s 4
f 15/20/61 17/22/62 13/22/63 11/20/64 
# 4 polygons - 16 triangles

