# 3ds Max Wavefront OBJ Exporter v0.97b - (c)2007 guruware
# 创建的文件:21.04.2021 17:22:53

mtllib WallPainting0026.mtl

#
# object WallPainting0026
#
g 
usemtl WallPainting0026
v  0.0050 -0.1740 0.1160
v  0.0050 0.1720 0.1160
v  0.0050 -0.1750 0.1160
v  0.0050 0.1730 0.1160
v  0.0050 0.1720 -0.1160
v  0.0050 -0.1740 -0.1160
v  0.0050 0.1730 -0.1160
v  0.0050 -0.1750 -0.1160
v  0.0010 0.1990 0.1430
v  0.0050 0.1990 0.1430
v  0.0010 -0.1990 0.1430
v  0.0050 -0.1990 0.1430
v  0.0010 -0.1990 -0.1430
v  0.0050 -0.1990 -0.1430
v  0.0010 0.1990 -0.1430
v  0.0050 0.1990 -0.1430
v  -0.0050 -0.2090 0.1530
v  0.0050 -0.2090 0.1530
v  -0.0050 0.2090 0.1530
v  0.0050 0.2090 0.1530
v  -0.0050 0.2090 -0.1530
v  0.0050 0.2090 -0.1530
v  -0.0050 -0.2090 -0.1530
v  0.0050 -0.2090 -0.1530
v  0.0060 0.2080 -0.1520
v  0.0060 -0.2080 -0.1520
v  0.0060 0.2000 -0.1440
v  0.0060 -0.2000 -0.1440
v  0.0060 -0.2080 0.1520
v  0.0060 0.2080 0.1520
v  0.0060 -0.2000 0.1440
v  0.0060 0.2000 0.1440
v  0.0050 -0.1990 0.1430
v  0.0050 0.1990 0.1430
v  0.0050 -0.1990 -0.1430
v  0.0050 0.1990 -0.1430
# 36 vertices

vn 1.0000 0.0000 0.0000
vn 1.0000 0.0000 0.0000
vn 1.0000 0.0000 0.0000
vn 1.0000 0.0000 0.0000
vn 1.0000 0.0000 0.0000
vn 1.0000 0.0000 0.0000
vn 1.0000 0.0000 0.0000
vn 1.0000 0.0000 0.0000
vn 1.0000 0.0000 0.0000
vn 1.0000 0.0000 0.0000
vn 1.0000 0.0000 0.0000
vn 1.0000 0.0000 0.0000
vn 0.0000 0.0000 -1.0000
vn 0.1830 0.0000 -0.9830
vn 0.0000 0.0000 -1.0000
vn 0.1830 0.0000 -0.9830
vn 0.0000 0.0000 -1.0000
vn 0.1830 0.0000 -0.9830
vn 0.0000 0.0000 1.0000
vn 0.1830 0.0000 0.9830
vn 0.0000 0.0000 1.0000
vn 0.1830 0.0000 0.9830
vn 0.0000 0.0000 1.0000
vn 0.1830 0.0000 0.9830
vn 0.0000 0.0000 1.0000
vn 0.0760 0.0000 0.9970
vn 0.0000 0.0000 1.0000
vn 0.0760 0.0000 0.9970
vn 0.0000 0.0000 1.0000
vn 0.0760 0.0000 0.9970
vn 0.0000 0.0000 -1.0000
vn 0.0760 0.0000 -0.9970
vn 0.0000 0.0000 -1.0000
vn 0.0760 0.0000 -0.9970
vn 0.0000 0.0000 -1.0000
vn 0.0760 0.0000 -0.9970
vn 1.0000 0.0000 0.0000
vn 1.0000 0.0000 0.0000
vn 1.0000 0.0000 0.0000
vn 1.0000 0.0000 0.0000
vn 1.0000 0.0000 0.0000
vn 1.0000 0.0000 0.0000
vn 0.9980 0.0550 -0.0380
vn 0.9970 -0.0250 -0.0680
vn 0.0760 0.0000 -0.9970
vn 0.0760 0.0000 -0.9970
vn 0.0760 0.0000 -0.9970
vn 0.9970 -0.0250 -0.0680
vn 0.1830 0.0000 0.9830
vn 0.1830 0.0000 0.9830
vn 0.9980 -0.0240 0.0660
vn 0.9980 0.0530 0.0370
vn 0.9980 -0.0240 0.0660
vn 0.1830 0.0000 0.9830
vn 0.0000 1.0000 0.0000
vn 0.1830 0.9830 0.0000
vn 0.0000 1.0000 0.0000
vn 0.1830 0.9830 0.0000
vn 0.0000 1.0000 0.0000
vn 0.1830 0.9830 0.0000
vn 0.0000 -1.0000 0.0000
vn 0.1830 -0.9830 0.0000
vn 0.0000 -1.0000 0.0000
vn 0.1830 -0.9830 0.0000
vn 0.0000 -1.0000 0.0000
vn 0.1830 -0.9830 0.0000
vn 0.0000 1.0000 0.0000
vn 0.0760 0.9970 0.0000
vn 0.0000 1.0000 0.0000
vn 0.0760 0.9970 0.0000
vn 0.0000 1.0000 0.0000
vn 0.0760 0.9970 0.0000
vn 0.0000 -1.0000 0.0000
vn 0.0760 -0.9970 0.0000
vn 0.0000 -1.0000 0.0000
vn 0.0760 -0.9970 0.0000
vn 0.0000 -1.0000 0.0000
vn 0.0760 -0.9970 0.0000
vn 0.9980 -0.0550 0.0380
vn 0.9970 0.0250 0.0680
vn 0.0760 0.0000 0.9970
vn 0.0760 0.0000 0.9970
vn 0.0760 0.0000 0.9970
vn 0.9970 0.0250 0.0680
vn 0.9970 0.0250 0.0680
vn 0.9980 0.0550 -0.0380
vn 0.0760 0.9970 0.0000
vn 0.0760 0.9970 0.0000
vn 0.0760 0.9970 0.0000
vn 0.9980 0.0550 -0.0380
vn 0.9970 -0.0250 -0.0680
vn 0.9980 -0.0550 0.0380
vn 0.0760 -0.9970 0.0000
vn 0.0760 -0.9970 0.0000
vn 0.0760 -0.9970 0.0000
vn 0.9980 -0.0550 0.0380
vn 0.1830 0.0000 -0.9830
vn 0.1830 0.0000 -0.9830
vn 0.9980 0.0240 -0.0660
vn 0.9980 -0.0530 -0.0370
vn 0.9980 0.0240 -0.0660
vn 0.1830 0.0000 -0.9830
vn 0.1830 0.9830 0.0000
vn 0.1830 0.9830 0.0000
vn 0.9980 0.0530 0.0370
vn 0.9980 0.0240 -0.0660
vn 0.9980 0.0530 0.0370
vn 0.1830 0.9830 0.0000
vn 0.1830 -0.9830 0.0000
vn 0.1830 -0.9830 0.0000
vn 0.9980 -0.0530 -0.0370
vn 0.9980 -0.0240 0.0660
vn 0.9980 -0.0530 -0.0370
vn 0.1830 -0.9830 0.0000
vn 1.0000 0.0000 0.0000
vn 1.0000 0.0000 0.0000
vn 1.0000 0.0000 0.0000
vn 1.0000 0.0000 0.0000
vn 1.0000 0.0000 0.0000
vn 1.0000 0.0000 0.0000
vn 1.0000 0.0000 0.0000
vn 1.0000 0.0000 0.0000
vn 1.0000 0.0000 0.0000
vn 1.0000 0.0000 0.0000
vn 1.0000 0.0000 0.0000
vn 1.0000 0.0000 0.0000
vn 1.0000 0.0000 0.0000
vn 1.0000 0.0000 0.0000
vn 1.0000 0.0000 0.0000
vn 1.0000 0.0000 0.0000
vn 1.0000 0.0000 0.0000
vn 1.0000 0.0000 0.0000
vn 1.0000 0.0000 0.0000
vn 1.0000 0.0000 0.0000
vn 1.0000 0.0000 0.0000
vn 1.0000 0.0000 0.0000
vn 1.0000 0.0000 0.0000
vn 1.0000 0.0000 0.0000
vn 1.0000 0.0000 0.0000
vn 1.0000 0.0000 0.0000
vn 1.0000 0.0000 0.0000
vn 1.0000 0.0000 0.0000
vn 1.0000 0.0000 0.0000
vn 1.0000 0.0000 0.0000
vn 1.0000 0.0000 0.0000
vn 1.0000 0.0000 0.0000
vn 1.0000 0.0000 0.0000
vn 1.0000 0.0000 0.0000
vn 1.0000 0.0000 0.0000
vn 1.0000 0.0000 0.0000
vn 0.9980 -0.0530 -0.0370
vn 0.9970 0.0250 0.0680
vn 0.9980 0.0240 -0.0660
vn 0.9970 0.0250 0.0680
vn 0.9980 -0.0530 -0.0370
vn 0.9980 0.0550 -0.0380
vn 0.9980 -0.0550 0.0380
vn 0.9980 0.0240 -0.0660
vn 0.9970 0.0250 0.0680
vn 0.9980 -0.0240 0.0660
vn 0.9980 0.0550 -0.0380
vn 0.9980 -0.0530 -0.0370
vn 0.9980 0.0240 -0.0660
vn 0.9980 -0.0550 0.0380
vn 0.9980 0.0530 0.0370
vn 0.9980 0.0550 -0.0380
vn 0.9980 -0.0240 0.0660
vn 0.9970 -0.0250 -0.0680
vn 0.9970 -0.0250 -0.0680
vn 0.9980 0.0530 0.0370
vn 0.9980 -0.0550 0.0380
vn 0.9980 0.0530 0.0370
vn 0.9970 -0.0250 -0.0680
vn 0.9980 -0.0240 0.0660
vn 0.0000 0.0000 -0.0000
vn 0.0000 0.0000 -0.0000
vn 0.0000 0.0000 -0.0000
vn 0.0000 0.0000 -0.0000
# 178 vertex normals

vt 0.6210 0.5770 0.0000
vt 0.0610 0.5770 0.0000
vt 0.6230 0.5750 0.0000
vt 0.0600 0.5750 0.0000
vt 0.0610 0.9510 0.0000
vt 0.6210 0.9510 0.0000
vt 0.0600 0.9520 0.0000
vt 0.6230 0.9520 0.0000
vt 0.6800 0.4910 0.0000
vt 0.6800 0.4970 0.0000
vt 0.0350 0.4910 0.0000
vt 0.0350 0.4970 0.0000
vt 0.0350 0.0410 0.0000
vt 0.0350 0.0350 0.0000
vt 0.6800 0.0410 0.0000
vt 0.6800 0.0350 0.0000
vt 0.0190 0.5300 0.0000
vt 0.0190 0.5140 0.0000
vt 0.6960 0.5300 0.0000
vt 0.6960 0.5140 0.0000
vt 0.6960 0.0020 0.0000
vt 0.6960 0.0180 0.0000
vt 0.0190 0.0020 0.0000
vt 0.0190 0.0180 0.0000
vt 0.6940 0.0200 0.0000
vt 0.0200 0.0200 0.0000
vt 0.6810 0.0330 0.0000
vt 0.0330 0.0330 0.0000
vt 0.0410 0.4980 0.0000
vt 0.0350 0.4980 0.0000
vt 0.0410 0.0350 0.0000
vt 0.6740 0.0350 0.0000
vt 0.6790 0.0350 0.0000
vt 0.6740 0.4980 0.0000
vt 0.6790 0.4980 0.0000
vt 0.7120 0.5140 0.0000
vt 0.7120 0.0190 0.0000
vt 0.6960 0.0190 0.0000
vt 0.0020 0.0190 0.0000
vt 0.0180 0.0190 0.0000
vt 0.0020 0.5140 0.0000
vt 0.0180 0.5140 0.0000
vt 0.0200 0.5120 0.0000
vt 0.6940 0.5120 0.0000
vt 0.0330 0.4990 0.0000
vt 0.6810 0.4990 0.0000
vt 0.6620 0.5320 0.0000
vt 0.0170 0.5320 0.0000
vt 0.6620 0.9950 0.0000
vt 0.0170 0.9950 0.0000
# 50 texture coords

o WallPainting0026
g WallPainting0026
usemtl WallPainting0026
s 1
f 1/1/1 2/2/2 3/3/3 
f 4/4/4 3/3/5 2/2/6 
f 5/5/7 6/6/8 7/7/9 
f 8/8/10 7/7/11 6/6/12 
f 9/9/13 10/10/14 11/11/15 
f 12/12/16 11/11/17 10/10/18 
f 13/13/19 14/14/20 15/15/21 
f 16/16/22 15/15/23 14/14/24 
f 17/17/25 18/18/26 19/19/27 
f 20/20/28 19/19/29 18/18/30 
f 21/21/31 22/22/32 23/23/33 
f 24/24/34 23/23/35 22/22/36 
f 2/2/37 1/1/38 5/5/39 
f 6/6/40 5/5/41 1/1/42 
f 25/25/43 26/26/44 22/22/45 
f 24/24/46 22/22/47 26/26/48 
f 16/16/49 14/14/50 27/27/51 
f 28/28/52 27/27/53 14/14/54 
f 11/29/55 12/30/56 13/31/57 
f 14/14/58 13/31/59 12/30/60 
f 15/32/61 16/33/62 9/34/63 
f 10/35/64 9/34/65 16/33/66 
f 19/36/67 20/20/68 21/37/69 
f 22/38/70 21/37/71 20/20/72 
f 23/39/73 24/40/74 17/41/75 
f 18/42/76 17/41/77 24/40/78 
f 29/43/79 30/44/80 18/18/81 
f 20/20/82 18/18/83 30/44/84 
f 30/44/85 25/25/86 20/20/87 
f 22/38/88 20/20/89 25/25/90 
f 26/26/91 29/43/92 24/40/93 
f 18/42/94 24/40/95 29/43/96 
f 12/12/97 10/10/98 31/45/99 
f 32/46/100 31/45/101 10/10/102 
f 14/14/103 12/30/104 28/28/105 
f 31/45/106 28/28/107 12/30/108 
f 10/35/109 16/33/110 32/46/111 
f 27/27/112 32/46/113 16/33/114 
f 6/6/115 1/1/116 8/8/117 
f 3/3/118 8/8/119 1/1/120 
f 3/3/121 33/47/122 8/8/123 
f 33/47/124 3/3/125 34/48/126 
f 35/49/127 8/8/128 33/47/129 
f 4/4/130 34/48/131 3/3/132 
f 8/8/133 35/49/134 7/7/135 
f 34/48/136 4/4/137 36/50/138 
f 36/50/139 7/7/140 35/49/141 
f 7/7/142 36/50/143 4/4/144 
f 7/7/145 4/4/146 5/5/147 
f 2/2/148 5/5/149 4/4/150 
f 32/46/151 30/44/152 31/45/153 
f 30/44/154 32/46/155 25/25/156 
f 29/43/157 31/45/158 30/44/159 
f 27/27/160 25/25/161 32/46/162 
f 31/45/163 29/43/164 28/28/165 
f 25/25/166 27/27/167 26/26/168 
f 26/26/169 28/28/170 29/43/171 
f 28/28/172 26/26/173 27/27/174 
s off
f 21/37/175 23/23/176 17/41/177 19/19/178 
# 1 polygons - 58 triangles

