# 3ds Max Wavefront OBJ Exporter v0.97b - (c)2007 guruware
# 创建的文件:21.04.2021 17:29:00

mtllib WallPainting0002.mtl

#
# object WallPainting0002
#
g 
usemtl WallPainting0002
v  -0.0150 0.5590 0.3810
v  -0.0150 0.5590 0.9000
v  -0.0150 0.1160 0.9000
v  -0.0150 0.1160 0.3810
v  0.0150 0.5590 0.3810
v  0.0150 0.5590 0.9000
v  0.0150 0.1160 0.9000
v  0.0150 0.1160 0.3810
v  -0.0150 0.1500 0.4150
v  -0.0150 0.1500 0.8660
v  -0.0150 0.5250 0.8660
v  -0.0150 0.5250 0.4150
v  0.0150 0.1500 0.4150
v  0.0150 0.1500 0.8660
v  0.0150 0.5250 0.8660
v  0.0150 0.5250 0.4150
v  -0.0150 0.1960 -0.2600
v  -0.0150 0.1960 0.2590
v  -0.0150 -0.2470 0.2590
v  -0.0150 -0.2470 -0.2600
v  0.0150 0.1960 -0.2600
v  0.0150 0.1960 0.2590
v  0.0150 -0.2470 0.2590
v  0.0150 -0.2470 -0.2600
v  -0.0150 -0.2130 -0.2260
v  -0.0150 -0.2130 0.2250
v  -0.0150 0.1620 0.2250
v  -0.0150 0.1620 -0.2260
v  0.0150 -0.2130 -0.2260
v  0.0150 -0.2130 0.2250
v  0.0150 0.1620 0.2250
v  0.0150 0.1620 -0.2260
v  -0.0150 -0.1160 -0.9000
v  -0.0150 -0.1160 -0.3810
v  -0.0150 -0.5590 -0.3810
v  -0.0150 -0.5590 -0.9000
v  0.0150 -0.1160 -0.9000
v  0.0150 -0.1160 -0.3810
v  0.0150 -0.5590 -0.3810
v  0.0150 -0.5590 -0.9000
v  -0.0150 -0.5250 -0.8660
v  -0.0150 -0.5250 -0.4150
v  -0.0150 -0.1500 -0.4150
v  -0.0150 -0.1500 -0.8660
v  0.0150 -0.5250 -0.8660
v  0.0150 -0.5250 -0.4150
v  0.0150 -0.1500 -0.4150
v  0.0150 -0.1500 -0.8660
v  0.0010 0.2460 0.7850
v  0.0030 0.2470 0.5050
v  0.0010 0.4390 0.5040
v  0.0010 0.4390 0.7840
v  0.0010 -0.1160 0.1430
v  0.0020 -0.1150 -0.1370
v  0.0010 0.0760 -0.1380
v  0.0010 0.0760 0.1430
v  0.0010 -0.4280 -0.4970
v  0.0020 -0.4270 -0.7760
v  0.0010 -0.2350 -0.7770
v  0.0010 -0.2360 -0.4970
v  0.0040 0.1510 0.4170
v  0.0040 0.1510 0.8650
v  0.0040 0.5230 0.4170
v  0.0040 0.5230 0.8650
v  0.0040 -0.2110 -0.2250
v  0.0040 -0.2110 0.2230
v  0.0040 0.1610 -0.2250
v  0.0040 0.1610 0.2230
v  0.0040 -0.5230 -0.8650
v  0.0040 -0.5230 -0.4170
v  0.0040 -0.1510 -0.8650
v  0.0040 -0.1510 -0.4170
v  -0.0149 -0.5250 -0.8660
v  -0.0150 -0.5250 -0.4150
v  -0.0149 -0.1500 -0.8660
v  -0.0150 -0.1500 -0.4150
v  -0.0149 -0.2130 -0.2260
v  -0.0150 -0.2130 0.2250
v  -0.0149 0.1620 -0.2260
v  -0.0150 0.1620 0.2250
v  -0.0149 0.1500 0.4150
v  -0.0150 0.1500 0.8660
v  -0.0149 0.5250 0.4150
v  -0.0150 0.5250 0.8660
v  -0.0049 -0.5250 -0.8660
v  -0.0050 -0.5250 -0.4150
v  -0.0049 -0.1500 -0.8660
v  -0.0050 -0.1500 -0.4150
v  -0.0049 -0.2130 -0.2260
v  -0.0050 -0.2130 0.2250
v  -0.0049 0.1620 -0.2260
v  -0.0050 0.1620 0.2250
v  -0.0049 0.1500 0.4150
v  -0.0050 0.1500 0.8660
v  -0.0049 0.5250 0.4150
v  -0.0050 0.5250 0.8660
# 96 vertices

vn 0.0000 1.0000 0.0000
vn 0.0000 1.0000 0.0000
vn 0.0000 1.0000 0.0000
vn 0.0000 1.0000 0.0000
vn 0.0000 1.0000 0.0000
vn 0.0000 1.0000 0.0000
vn 0.0000 0.0000 1.0000
vn 0.0000 0.0000 1.0000
vn 0.0000 0.0000 1.0000
vn 0.0000 0.0000 1.0000
vn 0.0000 0.0000 1.0000
vn 0.0000 0.0000 1.0000
vn 0.0000 -1.0000 0.0000
vn 0.0000 -1.0000 0.0000
vn 0.0000 -1.0000 0.0000
vn 0.0000 -1.0000 0.0000
vn 0.0000 -1.0000 0.0000
vn 0.0000 -1.0000 0.0000
vn 0.0000 0.0000 -1.0000
vn 0.0000 0.0000 -1.0000
vn 0.0000 0.0000 -1.0000
vn 0.0000 0.0000 -1.0000
vn 0.0000 0.0000 -1.0000
vn 0.0000 0.0000 -1.0000
vn -0.0010 1.0000 0.0000
vn 0.0000 1.0000 0.0000
vn 0.0000 1.0000 0.0000
vn 0.0000 1.0000 0.0000
vn 0.0000 1.0000 0.0000
vn 0.0000 1.0000 0.0000
vn 0.0000 0.0000 -1.0000
vn -0.0010 0.0000 -1.0000
vn 0.0000 0.0000 -1.0000
vn 0.0000 0.0000 -1.0000
vn 0.0010 0.0000 -1.0000
vn 0.0000 0.0000 -1.0000
vn 0.0010 -1.0000 0.0000
vn 0.0000 -1.0000 0.0000
vn 0.0000 -1.0000 0.0000
vn 0.0000 -1.0000 0.0000
vn 0.0000 -1.0000 0.0000
vn 0.0000 -1.0000 0.0000
vn 0.0000 0.0000 1.0000
vn 0.0000 0.0000 1.0000
vn 0.0000 0.0000 1.0000
vn 0.0000 0.0000 1.0000
vn 0.0000 0.0000 1.0000
vn 0.0000 0.0000 1.0000
vn 1.0000 0.0000 0.0000
vn 1.0000 0.0000 0.0000
vn 1.0000 0.0000 0.0000
vn 1.0000 0.0000 0.0000
vn 1.0000 0.0000 0.0000
vn 1.0000 -0.0010 0.0000
vn 1.0000 0.0000 0.0000
vn 1.0000 0.0000 0.0000
vn 1.0000 0.0000 0.0000
vn 1.0000 0.0000 0.0000
vn 1.0000 0.0000 0.0000
vn 1.0000 0.0000 0.0000
vn 1.0000 0.0000 0.0000
vn 1.0000 0.0000 0.0000
vn 1.0000 0.0000 0.0000
vn 1.0000 0.0000 0.0000
vn 1.0000 -0.0010 0.0000
vn 1.0000 0.0000 0.0000
vn 1.0000 -0.0010 0.0000
vn 1.0000 0.0000 0.0000
vn 1.0000 -0.0010 0.0000
vn 1.0000 -0.0010 0.0000
vn 1.0000 0.0000 0.0000
vn 1.0000 -0.0010 0.0000
vn -1.0000 0.0010 0.0000
vn -1.0000 0.0000 0.0000
vn -1.0000 0.0000 0.0000
vn -1.0000 0.0000 0.0000
vn -1.0000 0.0000 0.0000
vn -1.0000 0.0000 0.0000
vn -1.0000 0.0000 0.0000
vn -1.0000 0.0010 0.0000
vn -1.0000 0.0010 0.0000
vn -1.0000 0.0010 0.0000
vn -1.0000 0.0000 0.0000
vn -1.0000 0.0010 0.0000
vn -1.0000 0.0000 0.0000
vn -1.0000 0.0010 0.0000
vn -1.0000 0.0000 0.0000
vn -1.0000 0.0000 0.0000
vn -1.0000 0.0000 0.0000
vn -1.0000 0.0000 0.0000
vn -1.0000 0.0000 0.0000
vn -1.0000 0.0000 0.0000
vn -1.0000 0.0000 0.0000
vn -1.0000 0.0000 0.0000
vn -1.0000 0.0000 0.0000
vn -1.0000 0.0000 0.0000
vn 0.0000 1.0000 0.0000
vn 0.0000 1.0000 0.0000
vn 0.0000 1.0000 0.0000
vn 0.0000 1.0000 0.0000
vn 0.0000 1.0000 0.0000
vn 0.0000 1.0000 0.0000
vn 0.0000 0.0000 1.0000
vn 0.0000 0.0000 1.0000
vn 0.0000 0.0000 1.0000
vn 0.0000 0.0000 1.0000
vn 0.0000 0.0000 1.0000
vn 0.0000 0.0000 1.0000
vn 0.0000 -1.0000 0.0000
vn 0.0000 -1.0000 0.0000
vn 0.0000 -1.0000 0.0000
vn 0.0000 -1.0000 0.0000
vn 0.0000 -1.0000 0.0000
vn 0.0000 -1.0000 0.0000
vn 0.0000 0.0000 -1.0000
vn 0.0000 0.0000 -1.0000
vn 0.0000 0.0000 -1.0000
vn 0.0000 0.0000 -1.0000
vn 0.0000 0.0000 -1.0000
vn 0.0000 0.0000 -1.0000
vn -0.0010 1.0000 0.0000
vn 0.0000 1.0000 0.0000
vn 0.0000 1.0000 0.0000
vn 0.0000 1.0000 0.0000
vn 0.0000 1.0000 0.0000
vn 0.0000 1.0000 0.0000
vn 0.0000 0.0000 -1.0000
vn -0.0010 0.0000 -1.0000
vn 0.0000 0.0000 -1.0000
vn 0.0000 0.0000 -1.0000
vn 0.0010 0.0000 -1.0000
vn 0.0000 0.0000 -1.0000
vn 0.0010 -1.0000 0.0000
vn 0.0000 -1.0000 0.0000
vn 0.0000 -1.0000 0.0000
vn 0.0000 -1.0000 0.0000
vn 0.0000 -1.0000 0.0000
vn 0.0000 -1.0000 0.0000
vn 0.0000 0.0000 1.0000
vn 0.0000 0.0000 1.0000
vn 0.0000 0.0000 1.0000
vn 0.0000 0.0000 1.0000
vn 0.0000 0.0000 1.0000
vn 0.0000 0.0000 1.0000
vn 1.0000 0.0000 0.0000
vn 1.0000 0.0000 0.0000
vn 1.0000 0.0000 0.0000
vn 1.0000 0.0000 0.0000
vn 1.0000 0.0000 0.0000
vn 1.0000 -0.0010 0.0000
vn 1.0000 0.0000 0.0000
vn 1.0000 0.0000 0.0000
vn 1.0000 0.0000 0.0000
vn 1.0000 0.0000 0.0000
vn 1.0000 0.0000 0.0000
vn 1.0000 0.0000 0.0000
vn 1.0000 0.0000 0.0000
vn 1.0000 0.0000 0.0000
vn 1.0000 0.0000 0.0000
vn 1.0000 0.0000 0.0000
vn 1.0000 -0.0010 0.0000
vn 1.0000 0.0000 0.0000
vn 1.0000 -0.0010 0.0000
vn 1.0000 0.0000 0.0000
vn 1.0000 -0.0010 0.0000
vn 1.0000 -0.0010 0.0000
vn 1.0000 0.0000 0.0000
vn 1.0000 -0.0010 0.0000
vn -1.0000 0.0010 0.0000
vn -1.0000 0.0000 0.0000
vn -1.0000 0.0000 0.0000
vn -1.0000 0.0000 0.0000
vn -1.0000 0.0000 0.0000
vn -1.0000 0.0000 0.0000
vn -1.0000 0.0000 0.0000
vn -1.0000 0.0010 0.0000
vn -1.0000 0.0010 0.0000
vn -1.0000 0.0010 0.0000
vn -1.0000 0.0000 0.0000
vn -1.0000 0.0010 0.0000
vn -1.0000 0.0000 0.0000
vn -1.0000 0.0010 0.0000
vn -1.0000 0.0000 0.0000
vn -1.0000 0.0000 0.0000
vn -1.0000 0.0000 0.0000
vn -1.0000 0.0000 0.0000
vn -1.0000 0.0000 0.0000
vn -1.0000 0.0000 0.0000
vn -1.0000 0.0000 0.0000
vn -1.0000 0.0000 0.0000
vn -1.0000 0.0000 0.0000
vn -1.0000 0.0000 0.0000
vn 0.0000 1.0000 0.0000
vn 0.0000 1.0000 0.0000
vn 0.0000 1.0000 0.0000
vn 0.0000 1.0000 0.0000
vn 0.0000 1.0000 0.0000
vn 0.0000 1.0000 0.0000
vn 0.0000 0.0000 1.0000
vn 0.0000 0.0000 1.0000
vn 0.0000 0.0000 1.0000
vn 0.0000 0.0000 1.0000
vn 0.0000 0.0000 1.0000
vn 0.0000 0.0000 1.0000
vn 0.0000 -1.0000 0.0000
vn 0.0000 -1.0000 0.0000
vn 0.0000 -1.0000 0.0000
vn 0.0000 -1.0000 0.0000
vn 0.0000 -1.0000 0.0000
vn 0.0000 -1.0000 0.0000
vn 0.0000 0.0000 -1.0000
vn 0.0000 0.0000 -1.0000
vn 0.0000 0.0000 -1.0000
vn 0.0000 0.0000 -1.0000
vn 0.0000 0.0000 -1.0000
vn 0.0000 0.0000 -1.0000
vn -0.0010 1.0000 0.0000
vn 0.0000 1.0000 0.0000
vn 0.0000 1.0000 0.0000
vn 0.0000 1.0000 0.0000
vn 0.0000 1.0000 0.0000
vn 0.0000 1.0000 0.0000
vn 0.0000 0.0000 -1.0000
vn -0.0010 0.0000 -1.0000
vn 0.0000 0.0000 -1.0000
vn 0.0000 0.0000 -1.0000
vn 0.0010 0.0000 -1.0000
vn 0.0000 0.0000 -1.0000
vn 0.0010 -1.0000 0.0000
vn 0.0000 -1.0000 0.0000
vn 0.0000 -1.0000 0.0000
vn 0.0000 -1.0000 0.0000
vn 0.0000 -1.0000 0.0000
vn 0.0000 -1.0000 0.0000
vn 0.0000 0.0000 1.0000
vn 0.0000 0.0000 1.0000
vn 0.0000 0.0000 1.0000
vn 0.0000 0.0000 1.0000
vn 0.0000 0.0000 1.0000
vn 0.0000 0.0000 1.0000
vn 1.0000 0.0000 0.0000
vn 1.0000 0.0000 0.0000
vn 1.0000 0.0000 0.0000
vn 1.0000 0.0000 0.0000
vn 1.0000 0.0000 0.0000
vn 1.0000 -0.0010 0.0000
vn 1.0000 0.0000 0.0000
vn 1.0000 0.0000 0.0000
vn 1.0000 0.0000 0.0000
vn 1.0000 0.0000 0.0000
vn 1.0000 0.0000 0.0000
vn 1.0000 0.0000 0.0000
vn 1.0000 0.0000 0.0000
vn 1.0000 0.0000 0.0000
vn 1.0000 0.0000 0.0000
vn 1.0000 0.0000 0.0000
vn 1.0000 -0.0010 0.0000
vn 1.0000 0.0000 0.0000
vn 1.0000 -0.0010 0.0000
vn 1.0000 0.0000 0.0000
vn 1.0000 -0.0010 0.0000
vn 1.0000 -0.0010 0.0000
vn 1.0000 0.0000 0.0000
vn 1.0000 -0.0010 0.0000
vn -1.0000 0.0010 0.0000
vn -1.0000 0.0000 0.0000
vn -1.0000 0.0000 0.0000
vn -1.0000 0.0000 0.0000
vn -1.0000 0.0000 0.0000
vn -1.0000 0.0000 0.0000
vn -1.0000 0.0000 0.0000
vn -1.0000 0.0010 0.0000
vn -1.0000 0.0010 0.0000
vn -1.0000 0.0010 0.0000
vn -1.0000 0.0000 0.0000
vn -1.0000 0.0010 0.0000
vn -1.0000 0.0000 0.0000
vn -1.0000 0.0010 0.0000
vn -1.0000 0.0000 0.0000
vn -1.0000 0.0000 0.0000
vn -1.0000 0.0000 0.0000
vn -1.0000 0.0000 0.0000
vn -1.0000 0.0000 0.0000
vn -1.0000 0.0000 0.0000
vn -1.0000 0.0000 0.0000
vn -1.0000 0.0000 0.0000
vn -1.0000 0.0000 0.0000
vn -1.0000 0.0000 0.0000
vn 1.0000 0.0080 -0.0080
vn 1.0000 -0.0100 0.0060
vn 1.0000 -0.0100 -0.0070
vn 1.0000 0.0080 -0.0080
vn 1.0000 0.0140 0.0110
vn 1.0000 -0.0100 0.0060
vn 1.0000 0.0080 -0.0080
vn 1.0000 -0.0100 0.0060
vn 1.0000 -0.0100 -0.0070
vn 1.0000 0.0080 -0.0080
vn 1.0000 0.0140 0.0110
vn 1.0000 -0.0100 0.0060
vn 1.0000 0.0080 -0.0080
vn 1.0000 -0.0100 0.0060
vn 1.0000 -0.0100 -0.0070
vn 1.0000 0.0080 -0.0080
vn 1.0000 0.0140 0.0110
vn 1.0000 -0.0100 0.0060
vn 1.0000 0.0110 0.0090
vn 1.0000 0.0140 0.0110
vn 1.0000 0.0190 -0.0110
vn 1.0000 0.0140 0.0110
vn 1.0000 0.0110 0.0090
vn 1.0000 -0.0150 0.0160
vn 1.0000 0.0140 0.0110
vn 1.0000 0.0080 -0.0080
vn 1.0000 0.0190 -0.0110
vn 1.0000 -0.0150 0.0160
vn 1.0000 -0.0100 0.0060
vn 1.0000 0.0140 0.0110
vn 1.0000 0.0190 -0.0110
vn 1.0000 0.0080 -0.0080
vn 1.0000 -0.0220 -0.0170
vn 1.0000 -0.0100 0.0060
vn 1.0000 -0.0150 0.0160
vn 1.0000 -0.0220 -0.0170
vn 1.0000 0.0080 -0.0080
vn 1.0000 -0.0100 -0.0070
vn 1.0000 -0.0220 -0.0170
vn 1.0000 -0.0220 -0.0170
vn 1.0000 -0.0100 -0.0070
vn 1.0000 -0.0100 0.0060
vn 1.0000 0.0110 0.0090
vn 1.0000 0.0140 0.0110
vn 1.0000 0.0190 -0.0110
vn 1.0000 0.0140 0.0110
vn 1.0000 0.0110 0.0090
vn 1.0000 -0.0150 0.0160
vn 1.0000 0.0140 0.0110
vn 1.0000 0.0080 -0.0080
vn 1.0000 0.0190 -0.0110
vn 1.0000 -0.0150 0.0160
vn 1.0000 -0.0100 0.0060
vn 1.0000 0.0140 0.0110
vn 1.0000 0.0190 -0.0110
vn 1.0000 0.0080 -0.0080
vn 1.0000 -0.0220 -0.0170
vn 1.0000 -0.0100 0.0060
vn 1.0000 -0.0150 0.0160
vn 1.0000 -0.0220 -0.0170
vn 1.0000 0.0080 -0.0080
vn 1.0000 -0.0100 -0.0070
vn 1.0000 -0.0220 -0.0170
vn 1.0000 -0.0220 -0.0170
vn 1.0000 -0.0100 -0.0070
vn 1.0000 -0.0100 0.0060
vn 1.0000 0.0110 0.0090
vn 1.0000 0.0140 0.0110
vn 1.0000 0.0190 -0.0110
vn 1.0000 0.0140 0.0110
vn 1.0000 0.0110 0.0090
vn 1.0000 -0.0150 0.0160
vn 1.0000 0.0140 0.0110
vn 1.0000 0.0080 -0.0080
vn 1.0000 0.0190 -0.0110
vn 1.0000 -0.0150 0.0160
vn 1.0000 -0.0100 0.0060
vn 1.0000 0.0140 0.0110
vn 1.0000 0.0190 -0.0110
vn 1.0000 0.0080 -0.0080
vn 1.0000 -0.0220 -0.0170
vn 1.0000 -0.0100 0.0060
vn 1.0000 -0.0150 0.0160
vn 1.0000 -0.0220 -0.0170
vn 1.0000 0.0080 -0.0080
vn 1.0000 -0.0100 -0.0070
vn 1.0000 -0.0220 -0.0170
vn 1.0000 -0.0220 -0.0170
vn 1.0000 -0.0100 -0.0070
vn 1.0000 -0.0100 0.0060
vn -1.0000 -0.0000 -0.0000
vn -1.0000 -0.0000 -0.0000
vn -1.0000 -0.0000 -0.0000
vn -1.0000 -0.0000 -0.0000
vn -1.0000 -0.0000 -0.0000
vn -1.0000 -0.0000 -0.0000
vn -1.0000 -0.0000 -0.0000
vn -1.0000 -0.0000 -0.0000
vn -1.0000 -0.0000 -0.0000
vn -1.0000 -0.0000 -0.0000
vn -1.0000 -0.0000 -0.0000
vn -1.0000 -0.0000 -0.0000
vn 1.0000 0.0000 0.0000
vn 1.0000 0.0000 0.0000
vn 1.0000 0.0000 0.0000
vn 1.0000 0.0000 0.0000
vn 1.0000 0.0000 0.0000
vn 1.0000 0.0000 0.0000
vn 1.0000 0.0000 0.0000
vn 1.0000 0.0000 0.0000
vn 1.0000 0.0000 0.0000
vn 1.0000 0.0000 0.0000
vn 1.0000 0.0000 0.0000
vn 1.0000 0.0000 0.0000
vn 0.0000 -1.0000 -0.0000
vn 0.0000 -1.0000 -0.0000
vn 0.0000 -1.0000 -0.0000
vn 0.0000 -1.0000 -0.0000
vn 0.0000 0.0000 1.0000
vn 0.0000 0.0000 1.0000
vn 0.0000 0.0000 1.0000
vn 0.0000 0.0000 1.0000
vn 0.0000 1.0000 -0.0000
vn 0.0000 1.0000 -0.0000
vn 0.0000 1.0000 -0.0000
vn 0.0000 1.0000 -0.0000
vn 0.0000 0.0000 -1.0000
vn 0.0000 0.0000 -1.0000
vn 0.0000 0.0000 -1.0000
vn 0.0000 0.0000 -1.0000
vn 0.0000 -1.0000 -0.0000
vn 0.0000 -1.0000 -0.0000
vn 0.0000 -1.0000 -0.0000
vn 0.0000 -1.0000 -0.0000
vn 0.0000 0.0000 1.0000
vn 0.0000 0.0000 1.0000
vn 0.0000 0.0000 1.0000
vn 0.0000 0.0000 1.0000
vn 0.0000 1.0000 -0.0000
vn 0.0000 1.0000 -0.0000
vn 0.0000 1.0000 -0.0000
vn 0.0000 1.0000 -0.0000
vn 0.0000 0.0000 -1.0000
vn 0.0000 0.0000 -1.0000
vn 0.0000 0.0000 -1.0000
vn 0.0000 0.0000 -1.0000
vn 0.0000 -1.0000 -0.0000
vn 0.0000 -1.0000 -0.0000
vn 0.0000 -1.0000 -0.0000
vn 0.0000 -1.0000 -0.0000
vn 0.0000 0.0000 1.0000
vn 0.0000 0.0000 1.0000
vn 0.0000 0.0000 1.0000
vn 0.0000 0.0000 1.0000
vn 0.0000 1.0000 -0.0000
vn 0.0000 1.0000 -0.0000
vn 0.0000 1.0000 -0.0000
vn 0.0000 1.0000 -0.0000
vn 0.0000 0.0000 -1.0000
vn 0.0000 0.0000 -1.0000
vn 0.0000 0.0000 -1.0000
vn 0.0000 0.0000 -1.0000
# 450 vertex normals

vt 0.4130 0.0150 0.0000
vt 0.4290 0.0150 0.0000
vt 0.4130 0.2930 0.0000
vt 0.4290 0.2930 0.0000
vt 0.5540 0.2420 0.0000
vt 0.5540 0.0050 0.0000
vt 0.5710 0.0050 0.0000
vt 0.5710 0.2420 0.0000
vt 0.4370 0.2700 0.0000
vt 0.4530 0.2700 0.0000
vt 0.4370 0.5480 0.0000
vt 0.4530 0.5480 0.0000
vt 0.5310 0.2730 0.0000
vt 0.7690 0.2730 0.0000
vt 0.7690 0.2890 0.0000
vt 0.5310 0.2890 0.0000
vt 0.7720 0.3440 0.0000
vt 0.7720 0.3600 0.0000
vt 0.5290 0.3440 0.0000
vt 0.5290 0.3600 0.0000
vt 0.7730 0.4780 0.0000
vt 0.7730 0.4620 0.0000
vt 0.9750 0.4620 0.0000
vt 0.9750 0.4780 0.0000
vt 0.7720 0.4140 0.0000
vt 0.7720 0.4310 0.0000
vt 0.5290 0.4140 0.0000
vt 0.5290 0.4310 0.0000
vt 0.5780 0.2440 0.0000
vt 0.5780 0.0430 0.0000
vt 0.5940 0.0430 0.0000
vt 0.5940 0.2440 0.0000
vt 0.9820 0.5250 0.0000
vt 0.9640 0.5060 0.0000
vt 0.7620 0.5060 0.0000
vt 0.7440 0.5250 0.0000
vt 0.3660 0.0150 0.0000
vt 0.3850 0.0330 0.0000
vt 0.3850 0.2750 0.0000
vt 0.3660 0.2930 0.0000
vt 0.4550 0.2620 0.0000
vt 0.4370 0.0420 0.0000
vt 0.4550 0.0240 0.0000
vt 0.4370 0.2440 0.0000
vt 0.6780 0.6240 0.0000
vt 0.6960 0.6420 0.0000
vt 0.4170 0.6420 0.0000
vt 0.4360 0.6240 0.0000
vt 0.7460 0.5010 0.0000
vt 0.7280 0.4830 0.0000
vt 0.5080 0.5010 0.0000
vt 0.5260 0.4830 0.0000
vt 0.6970 0.6240 0.0000
vt 0.7150 0.6420 0.0000
vt 0.9760 0.6240 0.0000
vt 0.9570 0.6420 0.0000
vt 0.5260 0.5300 0.0000
vt 0.7280 0.5300 0.0000
vt 0.7460 0.5480 0.0000
vt 0.5080 0.5480 0.0000
vt 0.5810 0.6890 0.0000
vt 0.5630 0.6710 0.0000
vt 0.8240 0.6890 0.0000
vt 0.8420 0.6710 0.0000
vt 0.4600 0.2700 0.0000
vt 0.4770 0.2700 0.0000
vt 0.4600 0.5480 0.0000
vt 0.4770 0.5480 0.0000
vt 0.5080 0.2380 0.0000
vt 0.5080 0.0000 0.0000
vt 0.5240 0.0000 0.0000
vt 0.5240 0.2380 0.0000
vt 0.9840 0.5790 0.0000
vt 0.9840 0.5950 0.0000
vt 0.7040 0.5790 0.0000
vt 0.7040 0.5950 0.0000
vt 0.5310 0.2500 0.0000
vt 0.7690 0.2500 0.0000
vt 0.7690 0.2660 0.0000
vt 0.5310 0.2660 0.0000
vt 0.7720 0.3910 0.0000
vt 0.7720 0.4070 0.0000
vt 0.5290 0.3910 0.0000
vt 0.5290 0.4070 0.0000
vt 0.6180 0.2440 0.0000
vt 0.6020 0.2440 0.0000
vt 0.6020 0.0430 0.0000
vt 0.6180 0.0430 0.0000
vt 0.7720 0.3200 0.0000
vt 0.7720 0.3370 0.0000
vt 0.5290 0.3200 0.0000
vt 0.5290 0.3370 0.0000
vt 0.7730 0.4140 0.0000
vt 0.9750 0.4140 0.0000
vt 0.9750 0.4310 0.0000
vt 0.7730 0.4310 0.0000
vt 0.5080 0.2440 0.0000
vt 0.5260 0.2620 0.0000
vt 0.5260 0.4630 0.0000
vt 0.5080 0.4810 0.0000
vt 0.6960 0.5770 0.0000
vt 0.6780 0.5950 0.0000
vt 0.4360 0.5950 0.0000
vt 0.4170 0.5770 0.0000
vt 0.7440 0.5300 0.0000
vt 0.9640 0.5480 0.0000
vt 0.9820 0.5300 0.0000
vt 0.7620 0.5480 0.0000
vt 0.3420 0.0330 0.0000
vt 0.3610 0.0150 0.0000
vt 0.3610 0.2930 0.0000
vt 0.3430 0.2750 0.0000
vt 0.7700 0.4590 0.0000
vt 0.7510 0.4780 0.0000
vt 0.5310 0.4590 0.0000
vt 0.5490 0.4780 0.0000
vt 0.4170 0.6190 0.0000
vt 0.4360 0.6010 0.0000
vt 0.6960 0.6190 0.0000
vt 0.6780 0.6010 0.0000
vt 0.7230 0.5530 0.0000
vt 0.9240 0.5530 0.0000
vt 0.9430 0.5720 0.0000
vt 0.7050 0.5720 0.0000
vt 0.4360 0.6660 0.0000
vt 0.4170 0.6480 0.0000
vt 0.6780 0.6660 0.0000
vt 0.6960 0.6480 0.0000
vt 0.4840 0.2700 0.0000
vt 0.5000 0.2700 0.0000
vt 0.4840 0.5480 0.0000
vt 0.5000 0.5480 0.0000
vt 0.5310 0.2420 0.0000
vt 0.5310 0.0050 0.0000
vt 0.5480 0.0050 0.0000
vt 0.5480 0.2420 0.0000
vt 0.6960 0.5560 0.0000
vt 0.6960 0.5720 0.0000
vt 0.4170 0.5560 0.0000
vt 0.4170 0.5720 0.0000
vt 0.5310 0.2970 0.0000
vt 0.7690 0.2970 0.0000
vt 0.7690 0.3130 0.0000
vt 0.5310 0.3130 0.0000
vt 0.7720 0.3670 0.0000
vt 0.7720 0.3840 0.0000
vt 0.5290 0.3670 0.0000
vt 0.5290 0.3840 0.0000
vt 0.7730 0.4540 0.0000
vt 0.7730 0.4380 0.0000
vt 0.9750 0.4380 0.0000
vt 0.9750 0.4540 0.0000
vt 0.7720 0.4380 0.0000
vt 0.7720 0.4540 0.0000
vt 0.5290 0.4380 0.0000
vt 0.5290 0.4540 0.0000
vt 0.7730 0.3910 0.0000
vt 0.9750 0.3910 0.0000
vt 0.9750 0.4070 0.0000
vt 0.7730 0.4070 0.0000
vt 0.9820 0.4830 0.0000
vt 0.9640 0.5010 0.0000
vt 0.7620 0.5010 0.0000
vt 0.7440 0.4830 0.0000
vt 0.3900 0.0150 0.0000
vt 0.4080 0.0330 0.0000
vt 0.4080 0.2750 0.0000
vt 0.3900 0.2930 0.0000
vt 0.5080 0.5060 0.0000
vt 0.7280 0.5250 0.0000
vt 0.7460 0.5060 0.0000
vt 0.5260 0.5250 0.0000
vt 0.3190 0.0330 0.0000
vt 0.3370 0.0150 0.0000
vt 0.3370 0.2930 0.0000
vt 0.3190 0.2750 0.0000
vt 0.4840 0.0240 0.0000
vt 0.5020 0.0420 0.0000
vt 0.4840 0.2620 0.0000
vt 0.5020 0.2440 0.0000
vt 0.6970 0.6010 0.0000
vt 0.7150 0.6190 0.0000
vt 0.9760 0.6010 0.0000
vt 0.9570 0.6190 0.0000
vt 0.4610 0.2440 0.0000
vt 0.4610 0.0420 0.0000
vt 0.4790 0.0240 0.0000
vt 0.4790 0.2620 0.0000
vt 0.7150 0.6480 0.0000
vt 0.6970 0.6660 0.0000
vt 0.9570 0.6480 0.0000
vt 0.9760 0.6660 0.0000
vt 0.7540 0.6930 0.0000
vt 0.9050 0.7970 0.0000
vt 0.7540 0.7970 0.0000
vt 0.9050 0.6940 0.0000
vt 0.4160 0.6850 0.0000
vt 0.5670 0.7890 0.0000
vt 0.4160 0.7890 0.0000
vt 0.5670 0.6860 0.0000
vt 0.3150 0.1440 0.0000
vt 0.2120 0.2940 0.0000
vt 0.2120 0.1440 0.0000
vt 0.3150 0.2940 0.0000
vt 0.4120 0.5410 0.0000
vt 0.3610 0.4940 0.0000
vt 0.4120 0.3010 0.0000
vt 0.2120 0.5410 0.0000
vt 0.3610 0.3440 0.0000
vt 0.2580 0.4940 0.0000
vt 0.2120 0.3010 0.0000
vt 0.2580 0.3440 0.0000
vt 0.4120 0.7880 0.0000
vt 0.3610 0.7410 0.0000
vt 0.4120 0.5480 0.0000
vt 0.2120 0.7880 0.0000
vt 0.3610 0.5910 0.0000
vt 0.2580 0.7410 0.0000
vt 0.2120 0.5480 0.0000
vt 0.2580 0.5910 0.0000
vt 0.9960 0.8010 0.0000
vt 0.9480 0.8520 0.0000
vt 0.7550 0.8010 0.0000
vt 0.9960 1.0000 0.0000
vt 0.7980 0.8510 0.0000
vt 0.9490 0.9550 0.0000
vt 0.7550 1.0000 0.0000
vt 0.7980 0.9550 0.0000
vt 0.5111 0.2653 0.0000
vt 0.5245 0.2653 0.0000
vt 0.5111 0.2764 0.0000
vt 0.5245 0.2764 0.0000
vt 0.5111 0.2653 0.0000
vt 0.5245 0.2653 0.0000
vt 0.5111 0.2764 0.0000
vt 0.5245 0.2764 0.0000
vt 0.5111 0.2653 0.0000
vt 0.5245 0.2653 0.0000
vt 0.5111 0.2764 0.0000
vt 0.5245 0.2764 0.0000
# 240 texture coords

o WallPainting0002
g WallPainting0002
usemtl WallPainting0002
s 1
f 2/1/1 6/2/2 1/3/3 
f 6/2/4 5/4/5 1/3/6 
f 7/5/7 6/6/8 2/7/9 
f 2/7/10 3/8/11 7/5/12 
f 7/9/13 3/10/14 8/11/15 
f 3/10/16 4/12/17 8/11/18 
f 4/13/19 1/14/20 5/15/21 
f 5/15/22 8/16/23 4/13/24 
f 10/17/25 14/18/26 9/19/27 
f 14/18/28 13/20/29 9/19/30 
f 14/21/31 10/22/32 11/23/33 
f 11/23/34 15/24/35 14/21/36 
f 15/25/37 11/26/38 16/27/39 
f 11/26/40 12/28/41 16/27/42 
f 13/29/43 16/30/44 12/31/45 
f 12/31/46 9/32/47 13/29/48 
f 5/33/49 16/34/50 13/35/51 
f 5/33/52 13/35/53 8/36/54 
f 6/37/55 15/38/56 16/39/57 
f 6/37/58 16/39/59 5/40/60 
f 7/41/61 15/42/62 6/43/63 
f 7/41/64 14/44/65 15/42/66 
f 14/45/67 7/46/68 8/47/69 
f 8/47/70 13/48/71 14/45/72 
f 2/49/73 11/50/74 3/51/75 
f 11/50/76 10/52/77 3/51/78 
f 1/53/79 12/54/80 2/55/81 
f 12/54/82 11/56/83 2/55/84 
f 9/57/85 12/58/86 1/59/87 
f 4/60/88 9/57/89 1/59/90 
f 9/61/91 4/62/92 10/63/93 
f 4/62/94 3/64/95 10/63/96 
f 18/65/97 22/66/98 17/67/99 
f 22/66/100 21/68/101 17/67/102 
f 23/69/103 22/70/104 18/71/105 
f 18/71/106 19/72/107 23/69/108 
f 23/73/109 19/74/110 24/75/111 
f 19/74/112 20/76/113 24/75/114 
f 20/77/115 17/78/116 21/79/117 
f 21/79/118 24/80/119 20/77/120 
f 26/81/121 30/82/122 25/83/123 
f 30/82/124 29/84/125 25/83/126 
f 30/85/127 26/86/128 27/87/129 
f 27/87/130 31/88/131 30/85/132 
f 31/89/133 27/90/134 32/91/135 
f 27/90/136 28/92/137 32/91/138 
f 29/93/139 32/94/140 28/95/141 
f 28/95/142 25/96/143 29/93/144 
f 21/97/145 32/98/146 29/99/147 
f 21/97/148 29/99/149 24/100/150 
f 22/101/151 31/102/152 32/103/153 
f 22/101/154 32/103/155 21/104/156 
f 23/105/157 31/106/158 22/107/159 
f 23/105/160 30/108/161 31/106/162 
f 30/109/163 23/110/164 24/111/165 
f 24/111/166 29/112/167 30/109/168 
f 18/113/169 27/114/170 19/115/171 
f 27/114/172 26/116/173 19/115/174 
f 17/117/175 28/118/176 18/119/177 
f 28/118/178 27/120/179 18/119/180 
f 25/121/181 28/122/182 17/123/183 
f 20/124/184 25/121/185 17/123/186 
f 25/125/187 20/126/188 26/127/189 
f 20/126/190 19/128/191 26/127/192 
f 34/129/193 38/130/194 33/131/195 
f 38/130/196 37/132/197 33/131/198 
f 39/133/199 38/134/200 34/135/201 
f 34/135/202 35/136/203 39/133/204 
f 39/137/205 35/138/206 40/139/207 
f 35/138/208 36/140/209 40/139/210 
f 36/141/211 33/142/212 37/143/213 
f 37/143/214 40/144/215 36/141/216 
f 42/145/217 46/146/218 41/147/219 
f 46/146/220 45/148/221 41/147/222 
f 46/149/223 42/150/224 43/151/225 
f 43/151/226 47/152/227 46/149/228 
f 47/153/229 43/154/230 48/155/231 
f 43/154/232 44/156/233 48/155/234 
f 45/157/235 48/158/236 44/159/237 
f 44/159/238 41/160/239 45/157/240 
f 37/161/241 48/162/242 45/163/243 
f 37/161/244 45/163/245 40/164/246 
f 38/165/247 47/166/248 48/167/249 
f 38/165/250 48/167/251 37/168/252 
f 39/169/253 47/170/254 38/171/255 
f 39/169/256 46/172/257 47/170/258 
f 46/173/259 39/174/260 40/175/261 
f 40/175/262 45/176/263 46/173/264 
f 34/177/265 43/178/266 35/179/267 
f 43/178/268 42/180/269 35/179/270 
f 33/181/271 44/182/272 34/183/273 
f 44/182/274 43/184/275 34/183/276 
f 41/185/277 44/186/278 33/187/279 
f 36/188/280 41/185/281 33/187/282 
f 41/189/283 36/190/284 42/191/285 
f 36/190/286 35/192/287 42/191/288 
f 49/193/289 51/194/290 52/195/291 
f 49/193/292 50/196/293 51/194/294 
f 53/197/295 55/198/296 56/199/297 
f 53/197/298 54/200/299 55/198/300 
f 57/201/301 59/202/302 60/203/303 
f 57/201/304 58/204/305 59/202/306 
f 61/205/307 50/206/308 62/207/309 
f 50/206/310 61/205/311 63/208/312 
f 50/206/313 49/209/314 62/207/315 
f 63/208/316 51/210/317 50/206/318 
f 62/207/319 49/209/320 64/211/321 
f 51/210/322 63/208/323 64/211/324 
f 49/209/325 52/212/326 64/211/327 
f 64/211/328 52/212/329 51/210/330 
f 65/213/331 54/214/332 66/215/333 
f 54/214/334 65/213/335 67/216/336 
f 54/214/337 53/217/338 66/215/339 
f 67/216/340 55/218/341 54/214/342 
f 66/215/343 53/217/344 68/219/345 
f 55/218/346 67/216/347 68/219/348 
f 53/217/349 56/220/350 68/219/351 
f 68/219/352 56/220/353 55/218/354 
f 69/221/355 58/222/356 70/223/357 
f 58/222/358 69/221/359 71/224/360 
f 58/222/361 57/225/362 70/223/363 
f 71/224/364 59/226/365 58/222/366 
f 70/223/367 57/225/368 72/227/369 
f 59/226/370 71/224/371 72/227/372 
f 57/225/373 60/228/374 72/227/375 
f 72/227/376 60/228/377 59/226/378 
f 76/232/379 75/231/380 73/229/381 74/230/382 
f 80/236/383 79/235/384 77/233/385 78/234/386 
f 84/240/387 83/239/388 81/237/389 82/238/390 
f 85/229/391 87/231/392 88/232/393 86/230/394 
f 89/233/395 91/235/396 92/236/397 90/234/398 
f 93/237/399 95/239/400 96/240/401 94/238/402 
s 2
f 85/229/403 86/230/404 74/230/405 73/229/406 
s 4
f 86/230/407 88/232/408 76/232/409 74/230/410 
s 2
f 88/232/411 87/231/412 75/231/413 76/232/414 
s 4
f 87/231/415 85/229/416 73/229/417 75/231/418 
s 2
f 89/233/419 90/234/420 78/234/421 77/233/422 
s 4
f 90/234/423 92/236/424 80/236/425 78/234/426 
s 2
f 92/236/427 91/235/428 79/235/429 80/236/430 
s 4
f 91/235/431 89/233/432 77/233/433 79/235/434 
s 2
f 93/237/435 94/238/436 82/238/437 81/237/438 
s 4
f 94/238/439 96/240/440 84/240/441 82/238/442 
s 2
f 96/240/443 95/239/444 83/239/445 84/240/446 
s 4
f 95/239/447 93/237/448 81/237/449 83/239/450 
# 18 polygons - 126 triangles

