mtllib WallPainting0024.mtl
# File exported by Houdini 18.5.351 (www.sidefx.com)
# 48 points
# 276 vertices
# 92 primitives
# Bounds: [-0.0134129832, -0.242999986, -0.206] to [0.0135870166, 0.242999986, 0.206]
g 
usemtl WallPainting0024
v -0.004 -0.170 -0.126
v -0.004 0.170 -0.126
v -0.004 -0.170 0.126
v -0.004 0.170 0.126
v 0.014 -0.224 0.186
v 0.013 0.224 0.186
v 0.014 -0.224 0.186
v 0.013 0.224 0.186
v 0.014 -0.224 0.186
v 0.013 0.224 0.186
v 0.013 0.224 -0.186
v 0.014 -0.224 -0.186
v 0.013 0.224 -0.186
v 0.014 -0.224 -0.186
v 0.013 0.224 -0.186
v 0.014 -0.224 -0.186
v 0.014 -0.243 0.205
v 0.013 0.243 0.205
v 0.014 -0.243 0.205
v 0.013 0.243 0.205
v 0.013 0.243 -0.205
v 0.014 -0.243 -0.205
v 0.013 0.243 -0.205
v 0.014 -0.243 -0.205
v 0.014 -0.243 0.206
v 0.013 0.243 0.206
v 0.013 0.243 -0.206
v 0.014 -0.243 -0.206
v 0.013 -0.224 0.186
v 0.002 -0.224 0.186
v 0.013 0.224 0.186
v 0.001 0.224 0.186
v 0.013 -0.224 -0.186
v 0.002 -0.224 -0.186
v 0.013 0.224 -0.186
v 0.001 0.224 -0.186
v 0.013 0.243 0.206
v -0.013 0.243 0.206
v 0.013 -0.243 0.206
v -0.012 -0.243 0.206
v 0.013 0.243 -0.206
v -0.013 0.243 -0.206
v 0.013 -0.243 -0.206
v -0.012 -0.243 -0.206
v 0.002 -0.170 0.126
v 0.001 0.170 0.126
v 0.002 -0.170 -0.126
v 0.001 0.170 -0.126
vt 0.423 0.562
vt 0.423 1.000
vt 0.000 0.562
vt 0.000 1.000
vt 0.979 0.617
vt 0.979 1.000
vt 0.979 0.616
vt 0.020 0.196
vt 0.020 0.536
vt 0.020 0.537
vt 0.979 0.227
vt 0.979 0.610
vt 0.386 0.536
vt 0.386 0.196
vt 0.386 0.537
vt 0.000 0.177
vt 0.000 0.555
vt 0.406 0.555
vt 0.406 0.177
vt 0.916 0.642
vt 0.916 0.225
vt 0.883 0.642
vt 0.883 0.225
vt 0.980 0.617
vt 0.991 0.617
vt 0.980 1.000
vt 0.991 1.000
vt 0.028 0.213
vt 0.039 0.213
vt 0.028 0.531
vt 0.039 0.531
vt 0.980 0.227
vt 0.991 0.227
vt 0.980 0.610
vt 0.991 0.610
vt 0.046 0.213
vt 0.058 0.213
vt 0.046 0.531
vt 0.058 0.531
vt 0.027 0.213
vt 0.027 0.532
vt 0.046 0.532
vt 0.941 0.225
vt 0.941 0.642
vt 0.920 0.648
vt 0.946 0.648
vt 0.920 1.000
vt 0.946 1.000
vt 0.884 0.225
vt 0.909 0.225
vt 0.884 0.642
vt 0.909 0.642
vt 0.948 0.290
vt 0.973 0.290
vt 0.948 0.642
vt 0.973 0.642
vt 0.915 0.648
vt 0.915 1.000
vt 0.430 0.648
vt 0.430 1.000
vt 0.947 0.642
vt 0.947 0.290
vt 0.442 0.200
vt 0.442 0.638
vt 0.865 0.200
vt 0.865 0.638
vn 1.000 0.000 0.000
vn 1.000 0.000 0.000
vn 1.000 0.000 0.000
vn 1.000 0.000 0.000
vn 1.000 0.000 0.000
vn 1.000 0.000 0.000
vn 0.159 0.000 -0.987
vn 0.257 0.000 -0.966
vn 0.550 0.001 -0.835
vn 0.737 0.001 -0.676
vn 0.550 0.001 -0.835
vn 0.257 0.000 -0.966
vn 0.550 0.001 -0.835
vn 0.737 0.001 -0.676
vn 1.000 0.003 -0.002
vn 1.000 0.000 -0.001
vn 1.000 0.003 -0.002
vn 0.737 0.001 -0.676
vn 0.159 0.000 0.987
vn 0.258 0.000 0.966
vn 0.550 0.001 0.835
vn 0.736 0.001 0.677
vn 0.550 0.001 0.835
vn 0.258 0.000 0.966
vn 0.550 0.001 0.835
vn 0.736 0.001 0.677
vn 1.000 0.001 0.002
vn 1.000 0.004 0.001
vn 1.000 0.001 0.002
vn 0.736 0.001 0.677
vn 1.000 -0.001 0.001
vn 1.000 0.003 0.002
vn 0.736 0.001 0.676
vn 0.550 0.001 0.835
vn 0.736 0.001 0.676
vn 1.000 0.003 0.002
vn 1.000 0.004 -0.001
vn 1.000 0.001 -0.002
vn 0.736 0.001 -0.677
vn 0.550 0.001 -0.835
vn 0.736 0.001 -0.677
vn 1.000 0.001 -0.002
vn 1.000 0.002 0.000
vn 1.000 0.002 0.000
vn 1.000 0.002 0.000
vn 1.000 0.002 0.000
vn 1.000 0.002 0.000
vn 1.000 0.002 0.000
vn 1.000 0.002 0.000
vn 1.000 0.002 0.000
vn 1.000 0.002 0.000
vn 1.000 0.002 0.000
vn 1.000 0.002 0.000
vn 1.000 0.002 0.000
vn 0.000 0.000 -1.000
vn 0.000 0.000 -1.000
vn 0.000 0.000 -1.000
vn 0.000 0.000 -1.000
vn 0.000 0.000 -1.000
vn 0.000 0.000 -1.000
vn 0.000 1.000 0.000
vn 0.000 1.000 0.000
vn 0.000 1.000 0.000
vn 0.000 1.000 0.000
vn 0.000 1.000 0.000
vn 0.000 1.000 0.000
vn 0.000 0.000 1.000
vn 0.000 0.000 1.000
vn 0.000 0.000 1.000
vn 0.000 0.000 1.000
vn 0.000 0.000 1.000
vn 0.000 0.000 1.000
vn 0.000 -1.000 0.000
vn 0.000 -1.000 0.000
vn 0.000 -1.000 0.000
vn 0.000 -1.000 0.000
vn 0.000 -1.000 0.000
vn 0.000 -1.000 0.000
vn 0.000 0.000 -1.000
vn 0.000 0.000 -1.000
vn 0.000 0.000 -1.000
vn 0.257 0.000 -0.966
vn 0.159 0.000 -0.987
vn 0.002 0.000 -1.000
vn 0.000 1.000 0.000
vn 0.000 1.000 0.000
vn 0.000 1.000 0.000
vn 0.000 1.000 0.000
vn 0.000 1.000 0.000
vn 0.000 1.000 0.000
vn 0.002 0.000 1.000
vn 0.002 0.000 1.000
vn 0.159 0.000 0.987
vn 0.000 0.000 1.000
vn 0.000 0.000 1.000
vn 0.000 0.000 1.000
vn 0.003 -1.000 0.000
vn 0.003 -1.000 0.000
vn 0.160 -0.987 0.000
vn 0.258 -0.966 0.000
vn 0.160 -0.987 0.000
vn 0.003 -1.000 0.000
vn 0.158 0.987 0.000
vn 0.257 0.966 0.000
vn 0.549 0.836 0.000
vn 0.736 0.677 0.000
vn 0.549 0.836 0.000
vn 0.257 0.966 0.000
vn 0.549 0.836 0.000
vn 0.736 0.677 0.000
vn 1.000 0.004 0.001
vn 1.000 0.003 -0.002
vn 1.000 0.004 0.001
vn 0.736 0.677 0.000
vn 0.160 -0.987 0.000
vn 0.258 -0.966 0.000
vn 0.550 -0.835 0.000
vn 0.737 -0.676 0.000
vn 0.550 -0.835 0.000
vn 0.258 -0.966 0.000
vn 0.550 -0.835 0.000
vn 0.737 -0.676 0.000
vn 1.000 0.000 -0.001
vn 1.000 0.001 0.002
vn 1.000 0.000 -0.001
vn 0.737 -0.676 0.000
vn 0.000 0.000 1.000
vn 0.000 0.000 1.000
vn 0.000 0.000 1.000
vn 0.000 0.000 1.000
vn 0.000 0.000 1.000
vn 0.000 0.000 1.000
vn 0.000 1.000 0.000
vn 0.000 1.000 0.000
vn 0.000 1.000 0.000
vn 0.000 1.000 0.000
vn 0.000 1.000 0.000
vn 0.000 1.000 0.000
vn 0.000 0.000 -1.000
vn 0.000 0.000 -1.000
vn 0.000 0.000 -1.000
vn 0.000 0.000 -1.000
vn 0.000 0.000 -1.000
vn 0.000 0.000 -1.000
vn 0.000 -1.000 0.000
vn 0.000 -1.000 0.000
vn 0.000 -1.000 0.000
vn 0.000 -1.000 0.000
vn 0.000 -1.000 0.000
vn 0.000 -1.000 0.000
vn -1.000 -0.002 0.000
vn -1.000 -0.002 0.000
vn -1.000 -0.002 0.000
vn -1.000 -0.002 0.000
vn -1.000 -0.002 0.000
vn -1.000 -0.002 0.000
vn 1.000 0.003 0.002
vn 1.000 0.004 -0.001
vn 0.735 0.678 0.000
vn 0.549 0.836 0.000
vn 0.735 0.678 0.000
vn 1.000 0.004 -0.001
vn 1.000 0.001 -0.002
vn 1.000 -0.001 0.001
vn 0.737 -0.676 0.000
vn 0.550 -0.835 0.000
vn 0.737 -0.676 0.000
vn 1.000 -0.001 0.001
vn 0.000 0.000 1.000
vn 0.000 0.000 1.000
vn 0.000 0.000 1.000
vn 0.001 0.000 1.000
vn 0.001 0.000 1.000
vn 0.159 0.000 0.987
vn 0.735 0.678 0.000
vn 0.549 0.836 0.000
vn 0.257 0.966 0.000
vn 0.158 0.987 0.000
vn 0.257 0.966 0.000
vn 0.549 0.836 0.000
vn 0.257 0.966 0.000
vn 0.158 0.987 0.000
vn 0.000 1.000 0.000
vn 0.000 1.000 0.000
vn 0.000 1.000 0.000
vn 0.158 0.987 0.000
vn 0.257 0.000 -0.966
vn 0.159 0.000 -0.987
vn 0.001 0.000 -1.000
vn 0.000 0.000 -1.000
vn 0.000 0.000 -1.000
vn 0.000 0.000 -1.000
vn 0.737 -0.676 0.000
vn 0.550 -0.835 0.000
vn 0.258 -0.966 0.000
vn 0.160 -0.987 0.000
vn 0.258 -0.966 0.000
vn 0.550 -0.835 0.000
vn 0.000 -1.000 0.000
vn 0.000 -1.000 0.000
vn 0.000 -1.000 0.000
vn 0.000 -1.000 0.000
vn 0.000 -1.000 0.000
vn 0.000 -1.000 0.000
vn 0.000 0.000 -1.000
vn 0.000 0.000 -1.000
vn 0.000 0.000 -1.000
vn 0.000 0.000 -1.000
vn 0.000 0.000 -1.000
vn 0.000 0.000 -1.000
vn 0.000 1.000 0.000
vn 0.000 1.000 0.000
vn 0.000 1.000 0.000
vn 0.000 1.000 0.000
vn 0.000 1.000 0.000
vn 0.000 1.000 0.000
vn 0.000 0.000 1.000
vn 0.000 0.000 1.000
vn 0.000 0.000 1.000
vn 0.000 0.000 1.000
vn 0.000 0.000 1.000
vn 0.000 0.000 1.000
vn 0.000 -1.000 0.000
vn 0.000 -1.000 0.000
vn 0.000 -1.000 0.000
vn 0.000 -1.000 0.000
vn 0.000 -1.000 0.000
vn 0.000 -1.000 0.000
vn 1.000 0.001 0.001
vn 1.000 0.002 0.000
vn 1.000 0.001 0.000
vn 1.000 0.002 0.000
vn 1.000 0.001 0.001
vn 1.000 0.001 -0.001
vn 1.000 0.001 -0.001
vn 1.000 0.001 0.000
vn 1.000 0.002 0.000
vn 1.000 0.001 0.000
vn 1.000 0.001 -0.001
vn 1.000 0.001 0.001
vn 1.000 0.001 0.000
vn 1.000 0.001 -0.001
vn 1.000 0.001 0.001
vn 1.000 0.001 -0.001
vn 1.000 0.001 0.000
vn 1.000 0.002 0.000
vn 1.000 0.002 0.000
vn 1.000 0.001 0.001
vn 1.000 0.001 -0.001
vn 1.000 0.001 0.001
vn 1.000 0.002 0.000
vn 1.000 0.001 0.000
vn 1.000 0.001 0.001
vn 1.000 0.002 0.000
vn 1.000 0.002 0.000
vn 1.000 0.002 0.000
vn 1.000 0.001 0.001
vn 1.000 0.001 -0.001
vn 1.000 0.001 -0.001
vn 1.000 0.002 0.000
vn 1.000 0.002 0.000
vn 1.000 0.002 0.000
vn 1.000 0.001 -0.001
vn 1.000 0.001 0.001
vn 1.000 0.002 0.000
vn 1.000 0.001 -0.001
vn 1.000 0.001 0.001
vn 1.000 0.001 -0.001
vn 1.000 0.002 0.000
vn 1.000 0.002 0.000
vn 1.000 0.002 0.000
vn 1.000 0.001 0.001
vn 1.000 0.001 -0.001
vn 1.000 0.001 0.001
vn 1.000 0.002 0.000
vn 1.000 0.002 0.000
g 
usemtl WallPainting0024
f 1/1/1 2/2/2 3/3/3
f 4/4/4 3/3/5 2/2/6
f 5/5/7 6/6/8 7/7/9
f 8/6/10 7/7/11 6/6/12
f 7/8/13 8/9/14 9/8/15
f 10/10/16 9/8/17 8/9/18
f 11/11/19 12/12/20 13/11/21
f 14/12/22 13/11/23 12/12/24
f 13/13/25 14/14/26 15/15/27
f 16/14/28 15/15/29 14/14/30
f 17/16/31 18/17/32 19/16/33
f 20/17/34 19/16/35 18/17/36
f 21/18/37 22/19/38 23/18/39
f 24/19/40 23/18/41 22/19/42
f 19/20/43 20/21/44 25/20/45
f 26/21/46 25/20/47 20/21/48
f 23/22/49 24/23/50 27/22/51
f 28/23/52 27/22/53 24/23/54
f 29/24/55 30/25/56 31/26/57
f 32/27/58 31/26/59 30/25/60
f 33/28/61 34/29/62 29/30/63
f 30/31/64 29/30/65 34/29/66
f 35/32/67 36/33/68 33/34/69
f 34/35/70 33/34/71 36/33/72
f 31/36/73 32/37/74 35/38/75
f 36/39/76 35/38/77 32/37/78
f 29/24/79 31/26/80 5/5/81
f 6/6/82 5/5/83 31/26/84
f 33/28/85 29/30/86 12/28/87
f 5/30/88 12/28/89 29/30/90
f 35/32/91 33/34/92 11/11/93
f 12/12/94 11/11/95 33/34/96
f 31/36/97 35/38/98 6/36/99
f 11/38/100 6/36/101 35/38/102
f 12/28/103 5/30/104 14/40/105
f 7/41/106 14/40/107 5/30/108
f 14/14/109 7/8/110 16/14/111
f 9/8/112 16/14/113 7/8/114
f 6/36/115 11/38/116 8/36/117
f 13/42/118 8/36/119 11/38/120
f 8/9/121 13/13/122 10/10/123
f 15/15/124 10/10/125 13/13/126
f 37/21/127 38/43/128 39/20/129
f 40/44/130 39/20/131 38/43/132
f 41/45/133 42/46/134 37/47/135
f 38/48/136 37/47/137 42/46/138
f 43/49/139 44/50/140 41/51/141
f 42/52/142 41/51/143 44/50/144
f 39/53/145 40/54/146 43/55/147
f 44/56/148 43/55/149 40/54/150
f 44/57/151 40/58/152 42/59/153
f 38/60/154 42/59/155 40/58/156
f 18/17/157 21/18/158 20/17/159
f 23/18/160 20/17/161 21/18/162
f 22/19/163 17/16/164 24/19/165
f 19/16/166 24/19/167 17/16/168
f 25/20/169 26/21/170 39/20/171
f 37/21/172 39/20/173 26/21/174
f 20/47/175 23/45/176 26/47/177
f 27/45/178 26/47/179 23/45/180
f 26/47/181 27/45/182 37/47/183
f 41/45/184 37/47/185 27/45/186
f 27/22/187 28/23/188 41/51/189
f 43/49/190 41/51/191 28/23/192
f 24/61/193 19/62/194 28/55/195
f 25/53/196 28/55/197 19/62/198
f 28/55/199 25/53/200 43/55/201
f 39/53/202 43/55/203 25/53/204
f 45/3/205 3/3/206 46/4/207
f 4/4/208 46/4/209 3/3/210
f 47/1/211 1/1/212 45/3/213
f 3/3/214 45/3/215 1/1/216
f 48/2/217 2/2/218 47/1/219
f 1/1/220 47/1/221 2/2/222
f 46/4/223 4/4/224 48/2/225
f 2/2/226 48/2/227 4/4/228
f 17/16/229 9/8/230 18/17/231
f 9/8/232 17/16/233 16/14/234
f 10/10/235 18/17/236 9/8/237
f 22/19/238 16/14/239 17/16/240
f 18/17/241 10/10/242 21/18/243
f 16/14/244 22/19/245 15/15/246
f 15/15/247 21/18/248 10/10/249
f 21/18/250 15/15/251 22/19/252
f 30/63/253 45/63/254 32/64/255
f 45/63/256 30/63/257 47/65/258
f 46/64/259 32/64/260 45/63/261
f 34/65/262 47/65/263 30/63/264
f 32/64/265 46/64/266 36/66/267
f 47/65/268 34/65/269 48/66/270
f 48/66/271 36/66/272 46/64/273
f 36/66/274 48/66/275 34/65/276
