mtllib WallPainting0014.mtl
# File exported by Houdini 18.0.499 (www.sidefx.com)
# 47 points
# 270 vertices
# 90 primitives
# Bounds: [2.72672914e-05, -0.828229487, -0.877626538] to [0.0345779397, 0.828229487, 0.877626538]
g 
usemtl WallPainting0014
v 0.001 -0.813 -0.858
v 0.000 -0.824 -0.872
v 0.001 -0.812 0.857
v 0.000 -0.824 0.872
v 0.000 0.804 0.858
v 0.001 0.817 0.872
v 0.000 0.809 0.855
v 0.001 0.822 0.869
v 0.000 0.809 -0.855
v 0.001 0.822 -0.869
v 0.000 0.804 -0.858
v 0.001 0.817 -0.872
v 0.007 0.802 0.852
v 0.009 -0.806 0.852
v 0.007 -0.826 0.878
v 0.008 0.825 0.878
v 0.009 -0.806 -0.852
v 0.008 0.802 -0.852
v 0.008 0.825 -0.878
v 0.008 -0.826 -0.878
v 0.006 0.808 -0.857
v 0.006 -0.808 -0.857
v 0.006 0.808 0.857
v 0.006 -0.808 0.857
v 0.008 0.808 -0.857
v 0.008 0.808 0.857
v 0.008 -0.808 -0.857
v 0.008 -0.808 0.857
v 0.033 -0.825 0.878
v 0.033 -0.827 0.000
v 0.007 -0.828 0.000
v 0.033 -0.825 -0.878
v 0.034 0.825 -0.878
v 0.034 0.828 0.000
v 0.008 0.828 0.000
v 0.034 0.825 0.878
v 0.008 0.804 0.000
v 0.008 -0.808 0.000
v 0.034 -0.805 0.852
v 0.033 0.802 0.852
v 0.028 0.799 0.852
v 0.034 0.805 0.000
v 0.034 0.805 -0.852
v 0.032 -0.807 -0.852
v 0.034 -0.807 0.000
v 0.034 0.800 -0.852
v 0.035 -0.803 -0.852
vt 0.480 0.991
vt 0.476 0.997
vt 0.480 0.676
vt 0.476 0.669
vt 0.992 0.676
vt 0.996 0.669
vt 0.993 0.678
vt 0.998 0.671
vt 0.993 0.989
vt 0.998 0.996
vt 0.992 0.991
vt 0.996 0.998
vt 0.991 0.678
vt 0.482 0.678
vt 0.475 0.667
vt 0.999 0.667
vt 0.482 0.988
vt 0.991 0.988
vt 0.999 1.000
vt 0.475 1.000
vt 0.000 0.000
vt 0.443 0.000
vt 0.000 0.513
vt 0.443 0.513
vt 0.470 1.000
vt 0.000 1.000
vt 0.470 0.517
vt 0.000 0.517
vt 0.957 0.854
vt 0.957 0.855
vt 0.486 0.854
vt 0.486 0.855
vt 0.486 0.838
vt 0.486 0.837
vt 0.929 0.838
vt 0.929 0.837
vt 0.486 0.863
vt 0.486 0.863
vt 0.957 0.863
vt 0.957 0.863
vt 0.929 0.845
vt 0.929 0.846
vt 0.486 0.845
vt 0.486 0.846
vt 0.968 0.937
vt 0.968 0.946
vt 0.727 0.937
vt 0.727 0.946
vt 0.486 0.946
vt 0.486 0.937
vt 0.486 0.983
vt 0.486 0.974
vt 0.727 0.983
vt 0.727 0.974
vt 0.968 0.974
vt 0.968 0.983
vt 0.940 0.907
vt 0.940 0.914
vt 0.487 0.907
vt 0.487 0.914
vt 0.487 0.889
vt 0.487 0.881
vt 0.940 0.889
vt 0.940 0.881
vt 0.961 0.972
vt 0.493 0.972
vt 0.723 0.963
vt 0.957 0.963
vt 0.958 0.966
vt 0.489 0.966
vt 0.490 0.963
vt 0.723 0.923
vt 0.490 0.923
vt 0.489 0.920
vt 0.959 0.920
vt 0.957 0.923
vt 0.492 0.948
vt 0.962 0.949
vt 0.927 0.874
vt 0.927 0.876
vt 0.487 0.876
vt 0.487 0.868
vt 0.927 0.868
vt 0.723 0.954
vt 0.957 0.954
vt 0.492 0.954
vt 0.492 0.931
vt 0.724 0.932
vt 0.957 0.932
vt 0.928 0.902
vt 0.927 0.894
vt 0.929 0.894
vt 0.488 0.893
vt 0.487 0.894
vt 0.487 0.901
vt 0.448 0.197
vt 0.454 0.208
vt 0.447 0.357
vt 0.456 0.208
vt 0.454 0.357
vt 0.982 0.208
vt 0.991 0.197
vt 0.448 0.513
vt 0.983 0.208
vt 0.455 0.502
vt 0.983 0.353
vt 0.992 0.352
vt 0.991 0.513
vt 0.983 0.502
vn -0.959 0.016 0.282
vn -0.988 0.029 -0.150
vn -0.982 0.028 -0.184
vn -0.961 0.007 0.277
vn -0.982 0.028 -0.184
vn -0.988 0.029 -0.150
vn -0.982 0.028 -0.184
vn -0.961 0.007 0.277
vn -0.936 0.000 -0.353
vn -0.928 0.001 0.373
vn -0.936 0.000 -0.353
vn -0.961 0.007 0.277
vn -0.903 -0.429 -0.001
vn -0.965 0.262 0.001
vn -0.963 -0.271 0.001
vn -0.915 0.403 -0.001
vn -0.963 -0.271 0.001
vn -0.965 0.262 0.001
vn -0.946 -0.001 0.323
vn -0.937 0.001 -0.349
vn -0.959 0.016 0.282
vn -0.988 0.029 -0.150
vn -0.959 0.016 0.282
vn -0.937 0.001 -0.349
vn -0.198 -0.001 -0.980
vn -0.175 0.000 -0.985
vn -0.936 0.000 -0.353
vn -0.982 0.028 -0.184
vn -0.936 0.000 -0.353
vn -0.175 0.000 -0.985
vn -0.162 0.000 0.987
vn -0.163 0.000 0.987
vn -0.961 0.007 0.277
vn -0.928 0.001 0.373
vn -0.961 0.007 0.277
vn -0.163 0.000 0.987
vn -0.176 0.000 0.984
vn -0.164 0.000 0.987
vn -0.959 0.016 0.282
vn -0.946 -0.001 0.323
vn -0.959 0.016 0.282
vn -0.164 0.000 0.987
vn -0.165 0.001 -0.986
vn -0.161 0.000 -0.987
vn -0.937 0.001 -0.349
vn -0.988 0.029 -0.150
vn -0.937 0.001 -0.349
vn -0.161 0.000 -0.987
vn -0.903 -0.429 -0.001
vn -0.198 -0.001 -0.980
vn -0.936 0.000 -0.353
vn -0.928 0.001 0.373
vn -0.163 0.000 0.987
vn -0.965 0.262 0.001
vn -0.937 0.001 -0.349
vn -0.915 0.403 -0.001
vn -0.165 0.001 -0.986
vn -0.963 -0.271 0.001
vn -0.946 -0.001 0.323
vn -0.164 0.000 0.987
vn -1.000 0.000 0.000
vn -1.000 0.000 0.000
vn -1.000 0.000 0.000
vn -1.000 0.000 0.000
vn -1.000 0.000 0.000
vn -1.000 0.000 0.000
vn 1.000 0.000 0.000
vn 1.000 0.000 0.000
vn 1.000 0.000 0.000
vn 1.000 0.000 0.000
vn 1.000 0.000 0.000
vn 1.000 0.000 0.000
vn 0.000 -1.000 0.000
vn 0.000 -1.000 0.000
vn 0.000 -1.000 0.000
vn 0.000 -1.000 0.000
vn 0.000 -1.000 0.000
vn 0.000 -1.000 0.000
vn 0.000 0.000 1.000
vn 0.000 0.000 1.000
vn 0.000 0.000 1.000
vn 0.000 0.000 1.000
vn 0.000 0.000 1.000
vn 0.000 0.000 1.000
vn 0.000 1.000 0.000
vn 0.000 1.000 0.000
vn 0.000 1.000 0.000
vn 0.000 1.000 0.000
vn 0.000 1.000 0.000
vn 0.000 1.000 0.000
vn 0.000 0.000 -1.000
vn 0.000 0.000 -1.000
vn 0.000 0.000 -1.000
vn 0.000 0.000 -1.000
vn 0.000 0.000 -1.000
vn 0.000 0.000 -1.000
vn 0.030 -1.000 0.003
vn -0.006 -1.000 0.003
vn 0.030 -1.000 0.000
vn -0.129 -0.992 0.000
vn 0.030 -1.000 0.000
vn -0.006 -1.000 0.003
vn -0.129 -0.992 0.000
vn -0.004 -1.000 -0.003
vn 0.030 -1.000 0.000
vn 0.035 -0.999 0.000
vn 0.030 -1.000 0.000
vn -0.004 -1.000 -0.003
vn -0.022 1.000 -0.003
vn -0.061 0.998 -0.003
vn -0.022 1.000 0.000
vn -0.196 0.981 0.000
vn -0.022 1.000 0.000
vn -0.061 0.998 -0.003
vn -0.196 0.981 0.000
vn -0.060 0.998 0.003
vn -0.022 1.000 0.000
vn -0.022 1.000 0.003
vn -0.022 1.000 0.000
vn -0.060 0.998 0.003
vn -0.001 0.000 1.000
vn -0.163 0.000 0.987
vn 0.002 0.000 1.000
vn -0.162 0.000 0.987
vn 0.002 0.000 1.000
vn -0.163 0.000 0.987
vn 0.003 0.000 -1.000
vn -0.161 0.000 -0.987
vn 0.000 0.000 -1.000
vn -0.165 0.001 -0.986
vn 0.000 0.000 -1.000
vn -0.161 0.000 -0.987
vn -0.060 0.998 0.003
vn -0.196 0.981 0.000
vn -0.311 0.950 0.003
vn -0.915 0.403 -0.001
vn -0.965 0.262 0.001
vn -0.196 0.981 0.000
vn -0.061 0.998 -0.003
vn -0.315 0.949 -0.003
vn -0.196 0.981 0.000
vn -0.149 -0.989 -0.001
vn -0.206 -0.978 -0.003
vn -0.903 -0.429 -0.001
vn -0.903 -0.429 -0.001
vn -0.963 -0.271 0.001
vn -0.149 -0.989 -0.001
vn -0.149 -0.989 -0.001
vn -0.963 -0.271 0.001
vn -0.129 -0.992 0.003
vn -0.180 0.984 -0.001
vn -0.174 0.985 0.003
vn -0.580 0.815 0.001
vn -0.580 0.815 0.001
vn -0.573 0.820 -0.001
vn -0.180 0.984 -0.001
vn -0.180 0.984 -0.001
vn -0.573 0.820 -0.001
vn -0.221 0.975 -0.003
vn -0.004 -1.000 -0.003
vn -0.129 -0.992 0.000
vn -0.423 -0.906 -0.001
vn -0.432 -0.902 0.001
vn -0.423 -0.906 -0.001
vn -0.129 -0.992 0.000
vn -0.006 -1.000 0.003
vn -0.432 -0.902 0.001
vn -0.129 -0.992 0.000
vn -0.965 0.262 0.001
vn -0.903 -0.429 -0.001
vn -0.928 0.001 0.373
vn -0.936 0.000 -0.353
vn -0.928 0.001 0.373
vn -0.903 -0.429 -0.001
vn -0.946 -0.001 0.323
vn -0.963 -0.271 0.001
vn -0.937 0.001 -0.349
vn -0.915 0.403 -0.001
vn -0.937 0.001 -0.349
vn -0.963 -0.271 0.001
vn 0.001 0.000 -1.000
vn -0.008 0.000 -1.000
vn 0.002 0.000 -1.000
vn 0.002 0.000 -1.000
vn -0.175 0.000 -0.985
vn 0.001 0.000 -1.000
vn -0.198 -0.001 -0.980
vn 0.001 0.000 -1.000
vn -0.175 0.000 -0.985
vn -0.008 0.000 -1.000
vn 0.001 0.000 -1.000
vn -0.198 -0.001 -0.980
vn -0.149 -0.989 -0.001
vn 0.022 -1.000 -0.002
vn 0.022 -1.000 -0.003
vn 0.022 -1.000 -0.003
vn -0.206 -0.978 -0.003
vn -0.149 -0.989 -0.001
vn 0.072 -0.997 0.002
vn 0.022 -1.000 -0.002
vn -0.149 -0.989 -0.001
vn -0.149 -0.989 -0.001
vn -0.129 -0.992 0.003
vn 0.072 -0.997 0.002
vn -0.180 0.984 -0.001
vn 0.017 1.000 0.001
vn -0.174 0.985 0.003
vn -0.180 0.984 -0.001
vn -0.030 1.000 -0.001
vn 0.017 1.000 0.001
vn -0.030 1.000 -0.001
vn -0.180 0.984 -0.001
vn -0.030 1.000 -0.003
vn -0.030 1.000 -0.003
vn -0.180 0.984 -0.001
vn -0.221 0.975 -0.003
vn -0.164 0.000 0.987
vn 0.002 0.000 1.000
vn 0.002 0.000 1.000
vn 0.002 0.000 1.000
vn -0.164 0.000 0.987
vn 0.001 0.000 1.000
vn 0.001 0.000 1.000
vn 0.001 0.000 1.000
vn -0.164 0.000 0.987
vn -0.176 0.000 0.984
vn 0.001 0.000 1.000
vn -0.164 0.000 0.987
vn 1.000 0.015 -0.005
vn 1.000 0.016 0.000
vn 1.000 -0.007 -0.001
vn 1.000 0.016 0.000
vn 0.035 -0.999 0.000
vn 0.999 -0.001 -0.043
vn 0.999 -0.053 -0.001
vn 1.000 -0.007 -0.001
vn 1.000 0.016 0.000
vn 0.999 -0.001 -0.043
vn 1.000 0.015 -0.005
vn 1.000 0.000 -0.006
vn 1.000 -0.016 0.017
vn 1.000 0.000 -0.006
vn 1.000 0.015 -0.005
vn 1.000 -0.007 -0.001
vn 0.999 -0.053 -0.001
vn 0.999 -0.024 0.022
vn 1.000 0.000 -0.006
vn 1.000 -0.016 0.017
vn 0.999 -0.032 0.000
vn 1.000 -0.009 0.004
vn 0.999 -0.024 0.022
vn 0.999 -0.053 -0.001
vn 0.999 -0.032 0.000
vn 1.000 -0.016 0.017
vn 0.999 -0.033 0.000
vn 0.999 -0.034 0.000
vn 0.999 -0.033 0.000
vn 1.000 -0.016 0.017
vn 0.999 -0.024 0.022
vn 1.000 -0.009 0.004
vn 1.000 -0.007 0.004
vn 1.000 -0.016 -0.016
vn 1.000 -0.007 0.004
vn 1.000 -0.009 0.004
vn 0.999 -0.033 0.000
vn 0.999 -0.034 0.000
vn 1.000 -0.016 -0.016
vn 1.000 -0.007 0.004
vn 1.000 -0.016 -0.016
vn 0.999 -0.034 0.000
g 
usemtl WallPainting0014
f 1/1/1 2/2/2 3/3/3
f 4/4/4 3/3/5 2/2/6
f 3/3/7 4/4/8 5/5/9
f 6/6/10 5/5/11 4/4/12
f 7/7/13 8/8/14 9/9/15
f 10/10/16 9/9/17 8/8/18
f 11/11/19 12/12/20 1/1/21
f 2/2/22 1/1/23 12/12/24
f 13/13/25 14/14/26 5/5/27
f 3/3/28 5/5/29 14/14/30
f 15/15/31 16/16/32 4/4/33
f 6/6/34 4/4/35 16/16/36
f 17/17/37 18/18/38 1/1/39
f 11/11/40 1/1/41 18/18/42
f 19/19/43 20/20/44 12/12/45
f 2/2/46 12/12/47 20/20/48
f 7/7/49 13/13/50 5/5/51
f 6/6/52 16/16/53 8/8/54
f 12/12/55 10/10/56 19/19/57
f 9/9/58 11/11/59 18/18/60
f 21/21/61 22/22/62 23/23/63
f 24/24/64 23/23/65 22/22/66
f 25/25/67 26/26/68 27/27/69
f 28/28/70 27/27/71 26/26/72
f 28/29/73 24/30/74 27/31/75
f 22/32/76 27/31/77 24/30/78
f 26/33/79 23/34/80 28/35/81
f 24/36/82 28/35/83 23/34/84
f 25/37/85 21/38/86 26/39/87
f 23/40/88 26/39/89 21/38/90
f 27/41/91 22/42/92 25/43/93
f 21/44/94 25/43/95 22/42/96
f 29/45/97 15/46/98 30/47/99
f 31/48/100 30/47/101 15/46/102
f 31/48/103 20/49/104 30/47/105
f 32/50/106 30/47/107 20/49/108
f 33/51/109 19/52/110 34/53/111
f 35/54/112 34/53/113 19/52/114
f 35/54/115 16/55/116 34/53/117
f 36/56/118 34/53/119 16/55/120
f 36/57/121 16/58/122 29/59/123
f 15/60/124 29/59/125 16/58/126
f 32/61/127 20/62/128 33/63/129
f 19/64/130 33/63/131 20/62/132
f 16/55/133 35/54/134 8/65/135
f 10/66/136 8/65/137 35/54/138
f 19/52/139 10/66/140 35/54/141
f 37/67/142 13/68/143 7/69/144
f 7/69/145 9/70/146 37/67/147
f 37/67/148 9/70/149 18/71/150
f 38/72/151 17/73/152 1/74/153
f 1/74/154 3/75/155 38/72/156
f 38/72/157 3/75/158 14/76/159
f 20/49/160 31/48/161 2/77/162
f 4/78/163 2/77/164 31/48/165
f 15/46/166 4/78/167 31/48/168
f 8/8/169 7/7/170 6/6/171
f 5/5/172 6/6/173 7/7/174
f 11/11/175 9/9/176 12/12/177
f 10/10/178 12/12/179 9/9/180
f 41/79/181 40/80/182 39/81/183
f 39/81/184 14/82/185 41/79/186
f 13/83/187 41/79/188 14/82/189
f 40/80/190 41/79/191 13/83/192
f 37/67/193 42/84/194 40/85/195
f 40/85/196 13/68/197 37/67/198
f 43/86/199 42/84/200 37/67/201
f 37/67/202 18/71/203 43/86/204
f 38/72/205 44/87/206 17/73/207
f 38/72/208 45/88/209 44/87/210
f 45/88/211 38/72/212 39/89/213
f 39/89/214 38/72/215 14/76/216
f 18/90/217 46/91/218 43/92/219
f 46/91/220 18/90/221 47/93/222
f 44/94/223 47/93/224 18/90/225
f 17/95/226 44/94/227 18/90/228
f 32/96/229 44/97/230 30/98/231
f 44/97/232 32/96/233 47/99/234
f 45/100/235 30/98/236 44/97/237
f 47/99/238 32/96/239 46/101/240
f 33/102/241 46/101/242 32/96/243
f 30/98/244 45/100/245 29/103/246
f 46/101/247 33/102/248 43/104/249
f 39/105/250 29/103/251 45/100/252
f 43/104/253 33/102/254 42/106/255
f 34/107/256 42/106/257 33/102/258
f 29/103/259 39/105/260 36/108/261
f 40/109/262 36/108/263 39/105/264
f 42/106/265 34/107/266 40/109/267
f 36/108/268 40/109/269 34/107/270
