mtllib WallPainting0007.mtl
# File exported by Houdini 18.5.351 (www.sidefx.com)
# 9 points
# 36 vertices
# 12 primitives
# Bounds: [-0.0150035573, -0.601000011, -0.390999973] to [0.014996442, 0.601999998, 0.39199999]
g 
usemtl WallPainting0007
v -0.015 0.600 -0.391
v -0.015 0.600 0.390
v -0.014 0.602 0.392
v 0.015 0.601 0.390
v 0.015 0.601 -0.390
v 0.015 -0.601 0.390
v 0.015 -0.601 -0.390
v -0.015 -0.600 0.391
v -0.015 -0.600 -0.391
vt -0.001 0.999
vt 0.914 0.999
vt 0.000 1.000
vt 0.000 0.976
vt 0.914 0.976
vt 0.000 0.025
vt 0.914 0.025
vt 0.000 0.001
vt 0.914 0.001
vt 0.918 0.998
vt 0.919 0.002
vt 0.920 0.999
vt 0.956 0.002
vt 0.956 0.999
vt 0.999 0.998
vt 0.962 0.999
vt 0.999 0.002
vt 0.962 0.002
vn -0.959 0.155 0.238
vn -0.940 0.341 0.000
vn -0.959 0.155 0.238
vn 0.027 1.000 -0.002
vn 0.002 1.000 -0.001
vn 0.002 1.000 -0.001
vn -0.023 1.000 0.000
vn 0.002 1.000 -0.001
vn 0.002 1.000 -0.001
vn 1.000 0.000 0.000
vn 1.000 0.000 0.000
vn 1.000 0.000 0.000
vn 1.000 0.000 0.000
vn 1.000 0.000 0.000
vn 1.000 0.000 0.000
vn -0.023 -1.000 0.000
vn -0.023 -1.000 0.000
vn -0.023 -1.000 0.000
vn -0.023 -1.000 0.000
vn -0.023 -1.000 0.000
vn -0.023 -1.000 0.000
vn -0.959 0.155 0.238
vn -0.913 0.000 0.409
vn -0.959 0.155 0.238
vn 0.022 -0.001 1.000
vn 0.042 0.000 0.999
vn 0.022 -0.001 1.000
vn 0.002 -0.001 1.000
vn 0.022 -0.001 1.000
vn 0.022 -0.001 1.000
vn 0.002 0.000 -1.000
vn 0.002 0.000 -1.000
vn 0.002 0.000 -1.000
vn 0.002 0.000 -1.000
vn 0.002 0.000 -1.000
vn 0.002 0.000 -1.000
g 
usemtl WallPainting0007
f 3/1/1 1/2/2 2/3/3
f 3/1/4 4/4/5 1/2/6
f 5/5/7 1/2/8 4/4/9
f 4/4/10 6/6/11 5/5/12
f 7/7/13 5/5/14 6/6/15
f 6/6/16 8/8/17 7/7/18
f 9/9/19 7/7/20 8/8/21
f 2/10/22 8/11/23 3/12/24
f 6/13/25 4/14/26 3/12/27
f 8/11/28 6/13/29 3/12/30
f 1/15/31 5/16/32 9/17/33
f 5/16/34 7/18/35 9/17/36
