mtllib WallPainting0025.mtl
# File exported by Houdini 18.5.351 (www.sidefx.com)
# 36 points
# 174 vertices
# 58 primitives
# Bounds: [-0.00569511857, -0.147999987, -0.160999998] to [0.00530488137, 0.148000002, 0.160999998]
g 
usemtl WallPainting0025
v 0.004 -0.095 0.107
v 0.004 0.098 0.107
v 0.004 -0.096 0.108
v 0.004 0.099 0.108
v 0.004 0.098 -0.106
v 0.004 -0.095 -0.106
v 0.004 0.099 -0.107
v 0.004 -0.096 -0.107
v 0.001 0.137 0.150
v 0.005 0.137 0.150
v 0.001 -0.137 0.150
v 0.005 -0.137 0.150
v 0.001 -0.137 -0.150
v 0.005 -0.137 -0.150
v 0.001 0.137 -0.150
v 0.005 0.137 -0.150
v -0.006 -0.148 0.161
v 0.005 -0.148 0.161
v -0.006 0.148 0.161
v 0.005 0.148 0.161
v -0.006 0.148 -0.161
v 0.005 0.148 -0.161
v -0.006 -0.148 -0.161
v 0.005 -0.148 -0.161
v 0.005 0.138 -0.151
v 0.005 -0.138 -0.151
v 0.005 -0.147 0.160
v 0.005 0.147 0.160
v 0.005 0.147 -0.160
v 0.005 -0.147 -0.160
v 0.005 -0.138 0.151
v 0.005 0.138 0.151
v 0.004 -0.137 0.150
v 0.004 0.137 0.150
v 0.004 -0.137 -0.150
v 0.004 0.137 -0.150
vt 0.449 0.926
vt 0.449 0.602
vt 0.451 0.928
vt 0.451 0.600
vt 0.092 0.602
vt 0.092 0.926
vt 0.090 0.600
vt 0.090 0.928
vt 0.536 0.038
vt 0.542 0.038
vt 0.536 0.498
vt 0.542 0.498
vt 0.045 0.498
vt 0.038 0.498
vt 0.045 0.038
vt 0.038 0.038
vt 0.578 0.516
vt 0.561 0.516
vt 0.578 0.020
vt 0.561 0.020
vt 0.002 0.020
vt 0.020 0.020
vt 0.002 0.516
vt 0.020 0.516
vt 0.036 0.036
vt 0.036 0.500
vt 0.543 0.491
vt 0.543 0.498
vt 0.038 0.491
vt 0.038 0.045
vt 0.543 0.045
vt 0.543 0.038
vt 0.560 0.002
vt 0.560 0.020
vt 0.020 0.002
vt 0.020 0.534
vt 0.560 0.534
vt 0.560 0.516
vt 0.559 0.514
vt 0.559 0.022
vt 0.022 0.022
vt 0.022 0.514
vt 0.544 0.500
vt 0.544 0.036
vt 0.523 0.997
vt 0.523 0.536
vt 0.018 0.997
vt 0.018 0.536
vn 1.000 0.000 0.000
vn 1.000 0.000 0.000
vn 1.000 0.000 0.000
vn 1.000 0.000 0.000
vn 1.000 0.000 0.000
vn 1.000 0.000 0.000
vn 1.000 0.000 0.000
vn 1.000 0.000 0.000
vn 1.000 0.000 0.000
vn 1.000 0.000 0.000
vn 1.000 0.000 0.000
vn 1.000 0.000 0.000
vn 0.000 0.000 -1.000
vn 0.183 0.000 -0.983
vn 0.000 0.000 -1.000
vn 0.183 0.000 -0.983
vn 0.000 0.000 -1.000
vn 0.183 0.000 -0.983
vn 0.000 0.000 1.000
vn 0.183 0.000 0.983
vn 0.000 0.000 1.000
vn 0.183 0.000 0.983
vn 0.000 0.000 1.000
vn 0.183 0.000 0.983
vn 0.000 0.000 1.000
vn 0.076 0.000 0.997
vn 0.000 0.000 1.000
vn 0.076 0.000 0.997
vn 0.000 0.000 1.000
vn 0.076 0.000 0.997
vn 0.000 0.000 -1.000
vn 0.076 0.000 -0.997
vn 0.000 0.000 -1.000
vn 0.076 0.000 -0.997
vn 0.000 0.000 -1.000
vn 0.076 0.000 -0.997
vn 1.000 0.000 0.000
vn 1.000 0.000 0.000
vn 1.000 0.000 0.000
vn 1.000 0.000 0.000
vn 1.000 0.000 0.000
vn 1.000 0.000 0.000
vn 0.183 0.000 0.983
vn 0.183 0.000 0.983
vn 0.998 -0.032 0.058
vn 0.998 0.061 0.028
vn 0.998 -0.032 0.058
vn 0.183 0.000 0.983
vn 0.000 1.000 0.000
vn 0.183 0.983 0.000
vn 0.000 1.000 0.000
vn 0.183 0.983 0.000
vn 0.000 1.000 0.000
vn 0.183 0.983 0.000
vn 0.000 -1.000 0.000
vn 0.183 -0.983 0.000
vn 0.000 -1.000 0.000
vn 0.183 -0.983 0.000
vn 0.000 -1.000 0.000
vn 0.183 -0.983 0.000
vn 0.000 1.000 0.000
vn 0.076 0.997 0.000
vn 0.000 1.000 0.000
vn 0.076 0.997 0.000
vn 0.000 1.000 0.000
vn 0.076 0.997 0.000
vn 0.000 -1.000 0.000
vn 0.076 -0.997 0.000
vn 0.000 -1.000 0.000
vn 0.076 -0.997 0.000
vn 0.000 -1.000 0.000
vn 0.076 -0.997 0.000
vn 0.998 -0.064 0.029
vn 0.998 0.033 0.060
vn 0.076 0.000 0.997
vn 0.076 0.000 0.997
vn 0.076 0.000 0.997
vn 0.998 0.033 0.060
vn 0.998 0.033 0.060
vn 0.998 0.064 -0.029
vn 0.076 0.997 0.000
vn 0.076 0.997 0.000
vn 0.076 0.997 0.000
vn 0.998 0.064 -0.029
vn 0.998 0.064 -0.029
vn 0.998 -0.033 -0.060
vn 0.076 0.000 -0.997
vn 0.076 0.000 -0.997
vn 0.076 0.000 -0.997
vn 0.998 -0.033 -0.060
vn 0.998 -0.033 -0.060
vn 0.998 -0.064 0.029
vn 0.076 -0.997 0.000
vn 0.076 -0.997 0.000
vn 0.076 -0.997 0.000
vn 0.998 -0.064 0.029
vn 0.183 0.000 -0.983
vn 0.183 0.000 -0.983
vn 0.998 0.032 -0.058
vn 0.998 -0.061 -0.028
vn 0.998 0.032 -0.058
vn 0.183 0.000 -0.983
vn 0.183 0.983 0.000
vn 0.183 0.983 0.000
vn 0.998 0.061 0.028
vn 0.998 0.032 -0.058
vn 0.998 0.061 0.028
vn 0.183 0.983 0.000
vn 0.183 -0.983 0.000
vn 0.183 -0.983 0.000
vn 0.998 -0.061 -0.028
vn 0.998 -0.032 0.058
vn 0.998 -0.061 -0.028
vn 0.183 -0.983 0.000
vn 1.000 0.000 0.000
vn 1.000 0.000 0.000
vn 1.000 0.000 0.000
vn 1.000 0.000 0.000
vn 1.000 0.000 0.000
vn 1.000 0.000 0.000
vn 1.000 0.000 0.000
vn 1.000 0.000 0.000
vn 1.000 0.000 0.000
vn 1.000 0.000 0.000
vn 1.000 0.000 0.000
vn 1.000 0.000 0.000
vn 1.000 0.000 0.000
vn 1.000 0.000 0.000
vn 1.000 0.000 0.000
vn 1.000 0.000 0.000
vn 1.000 0.000 0.000
vn 1.000 0.000 0.000
vn 1.000 0.000 0.000
vn 1.000 0.000 0.000
vn 1.000 0.000 0.000
vn 1.000 0.000 0.000
vn 1.000 0.000 0.000
vn 1.000 0.000 0.000
vn 1.000 0.000 0.000
vn 1.000 0.000 0.000
vn 1.000 0.000 0.000
vn 1.000 0.000 0.000
vn 1.000 0.000 0.000
vn 1.000 0.000 0.000
vn 1.000 0.000 0.000
vn 1.000 0.000 0.000
vn 1.000 0.000 0.000
vn 1.000 0.000 0.000
vn 1.000 0.000 0.000
vn 1.000 0.000 0.000
vn 0.998 -0.061 -0.028
vn 0.998 0.033 0.060
vn 0.998 0.032 -0.058
vn 0.998 0.033 0.060
vn 0.998 -0.061 -0.028
vn 0.998 0.064 -0.029
vn 0.998 -0.064 0.029
vn 0.998 0.032 -0.058
vn 0.998 0.033 0.060
vn 0.998 -0.032 0.058
vn 0.998 0.064 -0.029
vn 0.998 -0.061 -0.028
vn 0.998 0.032 -0.058
vn 0.998 -0.064 0.029
vn 0.998 0.061 0.028
vn 0.998 0.064 -0.029
vn 0.998 -0.032 0.058
vn 0.998 -0.033 -0.060
vn 0.998 -0.033 -0.060
vn 0.998 0.061 0.028
vn 0.998 -0.064 0.029
vn 0.998 0.061 0.028
vn 0.998 -0.033 -0.060
vn 0.998 -0.032 0.058
g 
usemtl WallPainting0025
f 1/1/1 2/2/2 3/3/3
f 4/4/4 3/3/5 2/2/6
f 5/5/7 6/6/8 7/7/9
f 8/8/10 7/7/11 6/6/12
f 9/9/13 10/10/14 11/11/15
f 12/12/16 11/11/17 10/10/18
f 13/13/19 14/14/20 15/15/21
f 16/16/22 15/15/23 14/14/24
f 17/17/25 18/18/26 19/19/27
f 20/20/28 19/19/29 18/18/30
f 21/21/31 22/22/32 23/23/33
f 24/24/34 23/23/35 22/22/36
f 2/2/37 1/1/38 5/5/39
f 6/6/40 5/5/41 1/1/42
f 16/16/43 14/14/44 25/25/45
f 26/26/46 25/25/47 14/14/48
f 11/27/49 12/28/50 13/29/51
f 14/14/52 13/29/53 12/28/54
f 15/30/55 16/16/56 9/31/57
f 10/32/58 9/31/59 16/16/60
f 19/33/61 20/34/62 21/35/63
f 22/22/64 21/35/65 20/34/66
f 23/36/67 24/24/68 17/37/69
f 18/38/70 17/37/71 24/24/72
f 27/39/73 28/40/74 18/18/75
f 20/20/76 18/18/77 28/40/78
f 28/40/79 29/41/80 20/34/81
f 22/22/82 20/34/83 29/41/84
f 29/41/85 30/42/86 22/22/87
f 24/24/88 22/22/89 30/42/90
f 30/42/91 27/39/92 24/24/93
f 18/38/94 24/24/95 27/39/96
f 12/12/97 10/10/98 31/43/99
f 32/44/100 31/43/101 10/10/102
f 14/14/103 12/28/104 26/26/105
f 31/43/106 26/26/107 12/28/108
f 10/32/109 16/16/110 32/44/111
f 25/25/112 32/44/113 16/16/114
f 6/6/115 1/1/116 8/8/117
f 3/3/118 8/8/119 1/1/120
f 3/3/121 33/45/122 8/8/123
f 33/45/124 3/3/125 34/46/126
f 35/47/127 8/8/128 33/45/129
f 4/4/130 34/46/131 3/3/132
f 8/8/133 35/47/134 7/7/135
f 34/46/136 4/4/137 36/48/138
f 36/48/139 7/7/140 35/47/141
f 7/7/142 36/48/143 4/4/144
f 7/7/145 4/4/146 5/5/147
f 2/2/148 5/5/149 4/4/150
f 32/44/151 28/40/152 31/43/153
f 28/40/154 32/44/155 29/41/156
f 27/39/157 31/43/158 28/40/159
f 25/25/160 29/41/161 32/44/162
f 31/43/163 27/39/164 26/26/165
f 29/41/166 25/25/167 30/42/168
f 30/42/169 26/26/170 27/39/171
f 26/26/172 30/42/173 25/25/174
