mtllib Window2_0001.mtl
# File exported by Houdini 18.5.351 (www.sidefx.com)
# 48 points
# 288 vertices
# 96 primitives
# Bounds: [-0.0299398843, -0.8919999, -1.20799994] to [0.0300601143, 0.892000198, 1.20799994]
g 
usemtl Window2_0001
v -0.030 -0.842 1.158
v -0.030 0.842 1.158
v 0.030 -0.842 1.158
v 0.030 0.842 1.158
v 0.030 0.892 1.208
v 0.030 -0.892 1.208
v -0.030 -0.842 0.050
v 0.030 -0.842 0.050
v -0.030 0.842 0.050
v 0.030 0.842 0.050
v 0.030 0.892 0.000
v 0.030 -0.892 0.000
v 0.030 -0.842 -1.158
v -0.030 0.842 -1.158
v -0.030 -0.842 -1.158
v 0.030 0.842 -1.158
v 0.030 0.892 -1.208
v 0.030 -0.892 -1.208
v -0.030 -0.842 -0.050
v -0.030 0.842 -0.050
v 0.030 -0.842 -0.050
v 0.030 0.842 -0.050
v 0.030 0.892 0.000
v 0.030 -0.892 0.000
v -0.030 -0.892 1.208
v -0.030 -0.887 1.208
v -0.030 0.885 1.208
v -0.030 0.892 1.208
v -0.030 -0.892 0.000
v -0.030 -0.887 0.000
v -0.030 0.885 0.000
v -0.030 0.892 0.000
v -0.030 0.892 1.199
v -0.030 0.892 0.009
v -0.030 -0.892 0.009
v -0.030 -0.892 1.199
v -0.030 -0.892 -1.208
v -0.030 -0.887 -1.208
v -0.030 0.885 -1.208
v -0.030 0.892 -1.208
v -0.030 -0.892 0.000
v -0.030 -0.887 0.000
v -0.030 0.885 0.000
v -0.030 0.892 0.000
v -0.030 0.892 -0.009
v -0.030 0.892 -1.199
v -0.030 -0.892 -0.009
v -0.030 -0.892 -1.199
vt 0.847 0.779
vt 0.531 0.779
vt 0.847 0.768
vt 0.531 0.768
vt 0.521 0.758
vt 0.856 0.758
vt 0.878 0.803
vt 0.878 0.815
vt 0.562 0.803
vt 0.562 0.815
vt 0.553 0.824
vt 0.888 0.824
vt 0.981 0.968
vt 0.982 0.979
vt 0.774 0.968
vt 0.774 0.979
vt 0.991 0.989
vt 0.765 0.989
vt 0.129 0.782
vt 0.356 0.782
vt 0.139 0.791
vt 0.346 0.791
vt 0.139 0.802
vt 0.346 0.802
vt 0.138 0.383
vt 0.127 0.067
vt 0.127 0.383
vt 0.138 0.067
vt 0.147 0.058
vt 0.147 0.393
vt 0.878 0.850
vt 0.562 0.850
vt 0.878 0.862
vt 0.562 0.862
vt 0.553 0.871
vt 0.888 0.871
vt 0.326 0.697
vt 0.326 0.489
vt 0.315 0.697
vt 0.315 0.489
vt 0.305 0.479
vt 0.305 0.706
vt 0.765 0.923
vt 0.774 0.932
vt 0.991 0.923
vt 0.982 0.932
vt 0.774 0.944
vt 0.982 0.944
vt 0.856 0.788
vt 0.855 0.788
vt 0.523 0.788
vt 0.521 0.788
vt 0.888 0.835
vt 0.887 0.835
vt 0.554 0.835
vt 0.553 0.835
vt 0.765 1.000
vt 0.766 1.000
vt 0.989 1.000
vt 0.991 1.000
vt 0.356 0.812
vt 0.354 0.812
vt 0.131 0.812
vt 0.129 0.812
vt 0.159 0.393
vt 0.159 0.391
vt 0.159 0.059
vt 0.159 0.058
vt 0.888 0.841
vt 0.887 0.841
vt 0.554 0.841
vt 0.553 0.841
vt 0.553 0.882
vt 0.554 0.882
vt 0.887 0.882
vt 0.888 0.882
vt 0.335 0.706
vt 0.335 0.704
vt 0.335 0.481
vt 0.335 0.479
vt 0.991 0.912
vt 0.990 0.912
vt 0.766 0.912
vt 0.765 0.912
vt 0.765 0.953
vt 0.766 0.953
vt 0.990 0.953
vt 0.991 0.953
vt 0.856 0.747
vt 0.855 0.747
vt 0.523 0.747
vt 0.521 0.747
vt 0.887 0.794
vt 0.888 0.794
vt 0.554 0.794
vt 0.553 0.794
vt 0.765 0.958
vt 0.766 0.958
vt 0.989 0.958
vt 0.991 0.958
vt 0.356 0.771
vt 0.354 0.771
vt 0.131 0.771
vt 0.129 0.771
vt 0.118 0.391
vt 0.118 0.393
vt 0.118 0.059
vt 0.118 0.058
vt 0.294 0.479
vt 0.294 0.481
vt 0.294 0.704
vt 0.294 0.706
vn 0.000 0.000 -1.000
vn 0.000 0.000 -1.000
vn 0.000 0.000 -1.000
vn 0.000 0.000 -1.000
vn 0.000 0.000 -1.000
vn 0.000 0.000 -1.000
vn 1.000 0.000 0.000
vn 1.000 0.000 0.000
vn 1.000 0.000 0.000
vn 1.000 0.000 0.000
vn 1.000 0.000 0.000
vn 1.000 0.000 0.000
vn 0.000 0.000 1.000
vn 0.000 0.000 1.000
vn 0.000 0.000 1.000
vn 0.000 0.000 1.000
vn 0.000 0.000 1.000
vn 0.000 0.000 1.000
vn 1.000 0.000 0.000
vn 1.000 0.000 0.000
vn 1.000 0.000 0.000
vn 1.000 0.000 0.000
vn 1.000 0.000 0.000
vn 1.000 0.000 0.000
vn 0.000 -1.000 0.000
vn 0.000 -1.000 0.000
vn 0.000 -1.000 0.000
vn 0.000 -1.000 0.000
vn 0.000 -1.000 0.000
vn 0.000 -1.000 0.000
vn 1.000 0.000 0.000
vn 1.000 0.000 0.000
vn 1.000 0.000 0.000
vn 1.000 0.000 0.000
vn 1.000 0.000 0.000
vn 1.000 0.000 0.000
vn 1.000 0.000 0.000
vn 1.000 0.000 0.000
vn 1.000 0.000 0.000
vn 1.000 0.000 0.000
vn 1.000 0.000 0.000
vn 1.000 0.000 0.000
vn 0.000 1.000 0.000
vn 0.000 1.000 0.000
vn 0.000 1.000 0.000
vn 0.000 1.000 0.000
vn 0.000 1.000 0.000
vn 0.000 1.000 0.000
vn 0.000 0.000 1.000
vn 0.000 0.000 1.000
vn 0.000 0.000 1.000
vn 0.000 0.000 1.000
vn 0.000 0.000 1.000
vn 0.000 0.000 1.000
vn 1.000 0.000 0.000
vn 1.000 0.000 0.000
vn 1.000 0.000 0.000
vn 1.000 0.000 0.000
vn 1.000 0.000 0.000
vn 1.000 0.000 0.000
vn 0.000 0.000 -1.000
vn 0.000 0.000 -1.000
vn 0.000 0.000 -1.000
vn 0.000 0.000 -1.000
vn 0.000 0.000 -1.000
vn 0.000 0.000 -1.000
vn 1.000 0.000 0.000
vn 1.000 0.000 0.000
vn 1.000 0.000 0.000
vn 1.000 0.000 0.000
vn 1.000 0.000 0.000
vn 1.000 0.000 0.000
vn 0.000 -1.000 0.000
vn 0.000 -1.000 0.000
vn 0.000 -1.000 0.000
vn 0.000 -1.000 0.000
vn 0.000 -1.000 0.000
vn 0.000 -1.000 0.000
vn 1.000 0.000 0.000
vn 1.000 0.000 0.000
vn 1.000 0.000 0.000
vn 1.000 0.000 0.000
vn 1.000 0.000 0.000
vn 1.000 0.000 0.000
vn 1.000 0.000 0.000
vn 1.000 0.000 0.000
vn 1.000 0.000 0.000
vn 1.000 0.000 0.000
vn 1.000 0.000 0.000
vn 1.000 0.000 0.000
vn 0.000 1.000 0.000
vn 0.000 1.000 0.000
vn 0.000 1.000 0.000
vn 0.000 1.000 0.000
vn 0.000 1.000 0.000
vn 0.000 1.000 0.000
vn -1.000 0.000 0.000
vn -1.000 0.000 0.000
vn -1.000 0.000 0.000
vn -1.000 0.000 0.000
vn -1.000 0.000 0.000
vn -1.000 0.000 0.000
vn -1.000 0.000 0.000
vn -1.000 0.000 0.000
vn -1.000 0.000 0.000
vn -1.000 0.000 0.000
vn -1.000 0.000 0.000
vn -1.000 0.000 0.000
vn 0.000 0.000 -1.000
vn 0.000 0.000 -1.000
vn 0.000 0.000 -1.000
vn 0.000 0.000 -1.000
vn 0.000 0.000 -1.000
vn 0.000 0.000 -1.000
vn 0.000 0.000 -1.000
vn 0.000 0.000 -1.000
vn 0.000 0.000 -1.000
vn 0.000 0.000 -1.000
vn 0.000 0.000 -1.000
vn 0.000 0.000 -1.000
vn 0.000 1.000 0.000
vn 0.000 1.000 0.000
vn 0.000 1.000 0.000
vn 0.000 1.000 0.000
vn 0.000 1.000 0.000
vn 0.000 1.000 0.000
vn 0.000 1.000 0.000
vn 0.000 1.000 0.000
vn 0.000 1.000 0.000
vn 0.000 1.000 0.000
vn 0.000 1.000 0.000
vn 0.000 1.000 0.000
vn -1.000 0.000 0.000
vn -1.000 0.000 0.000
vn -1.000 0.000 0.000
vn -1.000 0.000 0.000
vn -1.000 0.000 0.000
vn -1.000 0.000 0.000
vn -1.000 0.000 0.000
vn -1.000 0.000 0.000
vn -1.000 0.000 0.000
vn -1.000 0.000 0.000
vn -1.000 0.000 0.000
vn -1.000 0.000 0.000
vn 0.000 0.000 -1.000
vn 0.000 0.000 -1.000
vn 0.000 0.000 -1.000
vn 0.000 0.000 -1.000
vn 0.000 0.000 -1.000
vn 0.000 0.000 -1.000
vn 0.000 0.000 -1.000
vn 0.000 0.000 -1.000
vn 0.000 0.000 -1.000
vn 0.000 0.000 -1.000
vn 0.000 0.000 -1.000
vn 0.000 0.000 -1.000
vn -1.000 0.000 0.000
vn -1.000 0.000 0.000
vn -1.000 0.000 0.000
vn -1.000 0.000 0.000
vn -1.000 0.000 0.000
vn -1.000 0.000 0.000
vn -1.000 0.000 0.000
vn -1.000 0.000 0.000
vn -1.000 0.000 0.000
vn -1.000 0.000 0.000
vn -1.000 0.000 0.000
vn -1.000 0.000 0.000
vn 0.000 0.000 1.000
vn 0.000 0.000 1.000
vn 0.000 0.000 1.000
vn 0.000 0.000 1.000
vn 0.000 0.000 1.000
vn 0.000 0.000 1.000
vn 0.000 0.000 1.000
vn 0.000 0.000 1.000
vn 0.000 0.000 1.000
vn 0.000 0.000 1.000
vn 0.000 0.000 1.000
vn 0.000 0.000 1.000
vn -1.000 0.000 0.000
vn -1.000 0.000 0.000
vn -1.000 0.000 0.000
vn -1.000 0.000 0.000
vn -1.000 0.000 0.000
vn -1.000 0.000 0.000
vn -1.000 0.000 0.000
vn -1.000 0.000 0.000
vn -1.000 0.000 0.000
vn -1.000 0.000 0.000
vn -1.000 0.000 0.000
vn -1.000 0.000 0.000
vn 0.000 -1.000 0.000
vn 0.000 -1.000 0.000
vn 0.000 -1.000 0.000
vn 0.000 -1.000 0.000
vn 0.000 -1.000 0.000
vn 0.000 -1.000 0.000
vn 0.000 -1.000 0.000
vn 0.000 -1.000 0.000
vn 0.000 -1.000 0.000
vn 0.000 -1.000 0.000
vn 0.000 -1.000 0.000
vn 0.000 -1.000 0.000
vn -1.000 0.000 0.000
vn -1.000 0.000 0.000
vn -1.000 0.000 0.000
vn -1.000 0.000 0.000
vn -1.000 0.000 0.000
vn -1.000 0.000 0.000
vn -1.000 0.000 0.000
vn -1.000 0.000 0.000
vn -1.000 0.000 0.000
vn -1.000 0.000 0.000
vn -1.000 0.000 0.000
vn -1.000 0.000 0.000
vn 0.000 0.000 1.000
vn 0.000 0.000 1.000
vn 0.000 0.000 1.000
vn 0.000 0.000 1.000
vn 0.000 0.000 1.000
vn 0.000 0.000 1.000
vn 0.000 0.000 1.000
vn 0.000 0.000 1.000
vn 0.000 0.000 1.000
vn 0.000 0.000 1.000
vn 0.000 0.000 1.000
vn 0.000 0.000 1.000
vn -1.000 0.000 0.000
vn -1.000 0.000 0.000
vn -1.000 0.000 0.000
vn -1.000 0.000 0.000
vn -1.000 0.000 0.000
vn -1.000 0.000 0.000
vn -1.000 0.000 0.000
vn -1.000 0.000 0.000
vn -1.000 0.000 0.000
vn -1.000 0.000 0.000
vn -1.000 0.000 0.000
vn -1.000 0.000 0.000
vn -1.000 0.000 0.000
vn -1.000 0.000 0.000
vn -1.000 0.000 0.000
vn -1.000 0.000 0.000
vn -1.000 0.000 0.000
vn -1.000 0.000 0.000
vn -1.000 0.000 0.000
vn -1.000 0.000 0.000
vn -1.000 0.000 0.000
vn -1.000 0.000 0.000
vn -1.000 0.000 0.000
vn -1.000 0.000 0.000
vn 0.000 -1.000 0.000
vn 0.000 -1.000 0.000
vn 0.000 -1.000 0.000
vn 0.000 -1.000 0.000
vn 0.000 -1.000 0.000
vn 0.000 -1.000 0.000
vn 0.000 -1.000 0.000
vn 0.000 -1.000 0.000
vn 0.000 -1.000 0.000
vn 0.000 -1.000 0.000
vn 0.000 -1.000 0.000
vn 0.000 -1.000 0.000
vn -1.000 0.000 0.000
vn -1.000 0.000 0.000
vn -1.000 0.000 0.000
vn -1.000 0.000 0.000
vn -1.000 0.000 0.000
vn -1.000 0.000 0.000
vn -1.000 0.000 0.000
vn -1.000 0.000 0.000
vn -1.000 0.000 0.000
vn -1.000 0.000 0.000
vn -1.000 0.000 0.000
vn -1.000 0.000 0.000
vn 0.000 1.000 0.000
vn 0.000 1.000 0.000
vn 0.000 1.000 0.000
vn 0.000 1.000 0.000
vn 0.000 1.000 0.000
vn 0.000 1.000 0.000
vn 0.000 1.000 0.000
vn 0.000 1.000 0.000
vn 0.000 1.000 0.000
vn 0.000 1.000 0.000
vn 0.000 1.000 0.000
vn 0.000 1.000 0.000
g 
usemtl Window2_0001
f 1/1/1 2/2/2 3/3/3
f 2/2/4 4/4/5 3/3/6
f 4/4/7 5/5/8 3/3/9
f 6/6/10 3/3/11 5/5/12
f 7/7/13 8/8/14 9/9/15
f 10/10/16 9/9/17 8/8/18
f 10/10/19 8/8/20 11/11/21
f 12/12/22 11/11/23 8/8/24
f 9/13/25 10/14/26 2/15/27
f 4/16/28 2/15/29 10/14/30
f 10/14/31 11/17/32 4/16/33
f 4/16/34 11/17/35 5/18/36
f 6/19/37 12/20/38 3/21/39
f 8/22/40 3/21/41 12/20/42
f 3/21/43 8/22/44 1/23/45
f 7/24/46 1/23/47 8/22/48
f 13/25/49 14/26/50 15/27/51
f 14/26/52 13/25/53 16/28/54
f 16/28/55 13/25/56 17/29/57
f 18/30/58 17/29/59 13/25/60
f 19/31/61 20/32/62 21/33/63
f 22/34/64 21/33/65 20/32/66
f 22/34/67 23/35/68 21/33/69
f 21/33/70 23/35/71 24/36/72
f 20/37/73 14/38/74 22/39/75
f 16/40/76 22/39/77 14/38/78
f 16/40/79 17/41/80 22/39/81
f 22/39/82 17/41/83 23/42/84
f 18/43/85 13/44/86 24/45/87
f 24/45/88 13/44/89 21/46/90
f 13/44/91 15/47/92 21/46/93
f 21/46/94 15/47/95 19/48/96
f 25/49/97 26/50/98 1/1/99
f 26/50/100 27/51/101 1/1/102
f 2/2/103 1/1/104 27/51/105
f 2/2/106 27/51/107 28/52/108
f 29/53/109 30/54/110 12/12/111
f 30/54/112 31/55/113 12/12/114
f 11/11/115 12/12/116 31/55/117
f 11/11/118 31/55/119 32/56/120
f 28/57/121 5/18/122 33/58/123
f 5/18/124 11/17/125 33/58/126
f 34/59/127 33/58/128 11/17/129
f 11/17/130 32/60/131 34/59/132
f 7/24/133 29/61/134 35/62/135
f 7/24/136 35/62/137 1/23/138
f 36/63/139 1/23/140 35/62/141
f 1/23/142 36/63/143 25/64/144
f 37/65/145 38/66/146 18/30/147
f 38/66/148 39/67/149 18/30/150
f 17/29/151 18/30/152 39/67/153
f 40/68/154 17/29/155 39/67/156
f 41/69/157 42/70/158 19/31/159
f 19/31/160 42/70/161 43/71/162
f 20/32/163 19/31/164 43/71/165
f 20/32/166 43/71/167 44/72/168
f 23/35/169 44/73/170 43/74/171
f 23/35/172 43/74/173 24/36/174
f 42/75/175 24/36/176 43/74/177
f 41/76/178 24/36/179 42/75/180
f 20/37/181 44/77/182 45/78/183
f 20/37/184 45/78/185 14/38/186
f 14/38/187 45/78/188 46/79/189
f 14/38/190 46/79/191 40/80/192
f 41/81/193 47/82/194 24/45/195
f 47/82/196 48/83/197 24/45/198
f 18/43/199 24/45/200 48/83/201
f 48/83/202 37/84/203 18/43/204
f 37/85/205 48/86/206 15/47/207
f 48/86/208 47/87/209 15/47/210
f 19/48/211 15/47/212 47/87/213
f 19/48/214 47/87/215 41/88/216
f 25/89/217 6/6/218 26/90/219
f 26/90/220 6/6/221 27/91/222
f 5/5/223 27/91/224 6/6/225
f 28/92/226 27/91/227 5/5/228
f 7/7/229 30/93/230 29/94/231
f 7/7/232 31/95/233 30/93/234
f 9/9/235 31/95/236 7/7/237
f 31/95/238 9/9/239 32/96/240
f 2/15/241 28/97/242 33/98/243
f 2/15/244 33/98/245 34/99/246
f 9/13/247 2/15/248 34/99/249
f 9/13/250 34/99/251 32/100/252
f 29/101/253 12/20/254 35/102/255
f 35/102/256 12/20/257 36/103/258
f 6/19/259 36/103/260 12/20/261
f 36/103/262 6/19/263 25/104/264
f 15/27/265 38/105/266 37/106/267
f 38/105/268 15/27/269 39/107/270
f 14/26/271 39/107/272 15/27/273
f 39/107/274 14/26/275 40/108/276
f 40/109/277 46/110/278 17/41/279
f 17/41/280 46/110/281 23/42/282
f 23/42/283 46/110/284 45/111/285
f 23/42/286 45/111/287 44/112/288
