mtllib Window4_0001.mtl
# File exported by Houdini 18.5.351 (www.sidefx.com)
# 96 points
# 576 vertices
# 192 primitives
# Bounds: [-0.0302929021, -0.89199996, -2.41799998] to [0.0297071002, 0.892000079, 2.41799998]
g 
usemtl Window4_0001
v -0.030 -0.842 -0.052
v -0.030 0.842 -0.052
v 0.030 -0.842 -0.052
v 0.030 0.842 -0.052
v 0.030 0.892 -0.002
v 0.030 -0.892 -0.002
v -0.030 -0.842 -1.160
v 0.030 -0.842 -1.160
v -0.030 0.842 -1.160
v 0.030 0.842 -1.160
v 0.030 0.892 -1.210
v 0.030 -0.892 -1.210
v 0.030 -0.842 -2.368
v -0.030 0.842 -2.368
v -0.030 -0.842 -2.368
v 0.030 0.842 -2.368
v 0.030 0.892 -2.418
v 0.030 -0.892 -2.418
v -0.030 -0.842 -1.260
v -0.030 0.842 -1.260
v 0.030 -0.842 -1.260
v 0.030 0.842 -1.260
v 0.030 0.892 -1.210
v 0.030 -0.892 -1.210
v -0.030 -0.842 2.368
v -0.030 0.842 2.368
v 0.030 -0.842 2.368
v 0.030 0.842 2.368
v 0.030 0.892 2.418
v 0.030 -0.892 2.418
v -0.030 -0.842 1.260
v 0.030 -0.842 1.260
v -0.030 0.842 1.260
v 0.030 0.842 1.260
v 0.030 0.892 1.210
v 0.030 -0.892 1.210
v 0.030 -0.842 0.052
v -0.030 0.842 0.052
v -0.030 -0.842 0.052
v 0.030 0.842 0.052
v 0.030 0.892 0.002
v 0.030 -0.892 0.002
v -0.030 -0.842 1.160
v -0.030 0.842 1.160
v 0.030 -0.842 1.160
v 0.030 0.842 1.160
v 0.030 0.892 1.210
v 0.030 -0.892 1.210
v -0.030 -0.892 -0.002
v -0.030 -0.887 -0.002
v -0.030 0.885 -0.002
v -0.030 0.892 -0.002
v -0.030 -0.892 -1.210
v -0.030 -0.887 -1.210
v -0.030 0.885 -1.210
v -0.030 0.892 -1.210
v -0.030 0.892 -0.011
v -0.030 0.892 -1.201
v -0.030 -0.892 -1.201
v -0.030 -0.892 -0.011
v -0.030 -0.892 -2.418
v -0.030 -0.887 -2.418
v -0.030 0.885 -2.418
v -0.030 0.892 -2.418
v -0.030 -0.892 -1.210
v -0.030 -0.887 -1.210
v -0.030 0.885 -1.210
v -0.030 0.892 -1.210
v -0.030 0.892 -1.219
v -0.030 0.892 -2.409
v -0.030 -0.892 -1.219
v -0.030 -0.892 -2.409
v -0.030 -0.892 2.418
v -0.030 -0.887 2.418
v -0.030 0.885 2.418
v -0.030 0.892 2.418
v -0.030 -0.892 1.210
v -0.030 -0.887 1.210
v -0.030 0.885 1.210
v -0.030 0.892 1.210
v -0.030 0.892 2.409
v -0.030 0.892 1.219
v -0.030 -0.892 1.219
v -0.030 -0.892 2.409
v -0.030 -0.892 0.002
v -0.030 -0.887 0.002
v -0.030 0.885 0.002
v -0.030 0.892 0.002
v -0.030 -0.892 1.210
v -0.030 -0.887 1.210
v -0.030 0.885 1.210
v -0.030 0.892 1.210
v -0.030 0.892 1.201
v -0.030 0.892 0.011
v -0.030 -0.892 1.201
v -0.030 -0.892 0.011
vt 0.777 0.857
vt 0.582 0.857
vt 0.777 0.850
vt 0.582 0.850
vt 0.576 0.844
vt 0.783 0.844
vt 0.094 0.269
vt 0.087 0.269
vt 0.094 0.073
vt 0.087 0.073
vt 0.082 0.067
vt 0.082 0.275
vt 0.984 0.874
vt 0.984 0.881
vt 0.856 0.874
vt 0.856 0.881
vt 0.850 0.887
vt 0.990 0.887
vt 0.218 0.334
vt 0.218 0.475
vt 0.213 0.340
vt 0.213 0.469
vt 0.206 0.340
vt 0.206 0.469
vt 0.973 0.913
vt 0.777 0.920
vt 0.973 0.920
vt 0.777 0.913
vt 0.772 0.907
vt 0.979 0.907
vt 0.125 0.402
vt 0.125 0.207
vt 0.119 0.402
vt 0.119 0.207
vt 0.113 0.201
vt 0.113 0.408
vt 0.020 0.136
vt 0.020 0.007
vt 0.013 0.136
vt 0.013 0.007
vt 0.007 0.001
vt 0.007 0.142
vt 0.187 0.072
vt 0.181 0.078
vt 0.187 0.212
vt 0.181 0.206
vt 0.174 0.078
vt 0.174 0.206
vt 0.565 0.861
vt 0.370 0.861
vt 0.565 0.854
vt 0.370 0.854
vt 0.364 0.848
vt 0.571 0.848
vt 0.153 0.657
vt 0.146 0.657
vt 0.153 0.461
vt 0.146 0.461
vt 0.140 0.456
vt 0.140 0.663
vt 0.125 0.190
vt 0.119 0.190
vt 0.125 0.062
vt 0.119 0.062
vt 0.113 0.056
vt 0.113 0.196
vt 0.218 0.479
vt 0.218 0.620
vt 0.213 0.485
vt 0.213 0.614
vt 0.206 0.485
vt 0.206 0.614
vt 0.840 0.881
vt 0.645 0.888
vt 0.840 0.888
vt 0.645 0.881
vt 0.639 0.876
vt 0.846 0.876
vt 0.157 0.445
vt 0.157 0.250
vt 0.150 0.445
vt 0.150 0.250
vt 0.144 0.244
vt 0.144 0.451
vt 0.051 0.136
vt 0.051 0.007
vt 0.044 0.136
vt 0.044 0.007
vt 0.038 0.001
vt 0.038 0.142
vt 0.214 0.625
vt 0.209 0.630
vt 0.214 0.765
vt 0.209 0.759
vt 0.202 0.630
vt 0.202 0.759
vt 0.783 0.863
vt 0.782 0.863
vt 0.577 0.863
vt 0.576 0.863
vt 0.075 0.275
vt 0.075 0.274
vt 0.075 0.068
vt 0.074 0.067
vt 0.850 0.894
vt 0.851 0.894
vt 0.989 0.894
vt 0.990 0.894
vt 0.200 0.475
vt 0.200 0.474
vt 0.200 0.335
vt 0.200 0.334
vt 0.979 0.900
vt 0.978 0.900
vt 0.773 0.900
vt 0.772 0.900
vt 0.131 0.408
vt 0.131 0.202
vt 0.131 0.201
vt 0.106 0.201
vt 0.106 0.202
vt 0.106 0.408
vt 0.026 0.142
vt 0.026 0.141
vt 0.026 0.002
vt 0.026 0.001
vt 0.194 0.212
vt 0.194 0.211
vt 0.194 0.073
vt 0.194 0.072
vt 0.168 0.072
vt 0.168 0.073
vt 0.168 0.211
vt 0.168 0.212
vt 0.571 0.867
vt 0.365 0.867
vt 0.364 0.867
vt 0.133 0.663
vt 0.133 0.662
vt 0.133 0.457
vt 0.133 0.456
vt 0.106 0.056
vt 0.106 0.057
vt 0.106 0.195
vt 0.106 0.196
vt 0.200 0.620
vt 0.200 0.619
vt 0.200 0.480
vt 0.200 0.479
vt 0.846 0.869
vt 0.845 0.869
vt 0.640 0.869
vt 0.639 0.869
vt 0.163 0.451
vt 0.163 0.245
vt 0.163 0.244
vt 0.137 0.244
vt 0.137 0.245
vt 0.137 0.451
vt 0.057 0.142
vt 0.057 0.141
vt 0.057 0.002
vt 0.057 0.001
vt 0.221 0.765
vt 0.221 0.764
vt 0.221 0.626
vt 0.221 0.625
vt 0.196 0.625
vt 0.196 0.626
vt 0.196 0.764
vt 0.196 0.765
vt 0.783 0.837
vt 0.782 0.837
vt 0.577 0.837
vt 0.576 0.837
vt 0.100 0.274
vt 0.100 0.275
vt 0.100 0.068
vt 0.100 0.067
vt 0.850 0.869
vt 0.851 0.869
vt 0.989 0.869
vt 0.990 0.869
vt 0.225 0.475
vt 0.225 0.474
vt 0.225 0.335
vt 0.225 0.334
vt 0.978 0.926
vt 0.979 0.926
vt 0.772 0.926
vt 0.000 0.001
vt 0.000 0.002
vt 0.000 0.141
vt 0.000 0.142
vt 0.571 0.841
vt 0.365 0.841
vt 0.364 0.841
vt 0.159 0.662
vt 0.159 0.663
vt 0.159 0.457
vt 0.159 0.456
vt 0.131 0.056
vt 0.131 0.057
vt 0.131 0.195
vt 0.131 0.196
vt 0.225 0.620
vt 0.225 0.619
vt 0.225 0.480
vt 0.225 0.479
vt 0.845 0.894
vt 0.846 0.894
vt 0.640 0.894
vt 0.639 0.894
vt 0.031 0.001
vt 0.031 0.002
vt 0.031 0.141
vt 0.031 0.142
vn 0.000 0.000 -1.000
vn 0.000 0.000 -1.000
vn 0.000 0.000 -1.000
vn 0.000 0.000 -1.000
vn 0.000 0.000 -1.000
vn 0.000 0.000 -1.000
vn 1.000 0.000 0.000
vn 1.000 0.000 0.000
vn 1.000 0.000 0.000
vn 1.000 0.000 0.000
vn 1.000 0.000 0.000
vn 1.000 0.000 0.000
vn 0.000 0.000 1.000
vn 0.000 0.000 1.000
vn 0.000 0.000 1.000
vn 0.000 0.000 1.000
vn 0.000 0.000 1.000
vn 0.000 0.000 1.000
vn 1.000 0.000 0.000
vn 1.000 0.000 0.000
vn 1.000 0.000 0.000
vn 1.000 0.000 0.000
vn 1.000 0.000 0.000
vn 1.000 0.000 0.000
vn 0.000 -1.000 0.000
vn 0.000 -1.000 0.000
vn 0.000 -1.000 0.000
vn 0.000 -1.000 0.000
vn 0.000 -1.000 0.000
vn 0.000 -1.000 0.000
vn 1.000 0.000 0.000
vn 1.000 0.000 0.000
vn 1.000 0.000 0.000
vn 1.000 0.000 0.000
vn 1.000 0.000 0.000
vn 1.000 0.000 0.000
vn 1.000 0.000 0.000
vn 1.000 0.000 0.000
vn 1.000 0.000 0.000
vn 1.000 0.000 0.000
vn 1.000 0.000 0.000
vn 1.000 0.000 0.000
vn 0.000 1.000 0.000
vn 0.000 1.000 0.000
vn 0.000 1.000 0.000
vn 0.000 1.000 0.000
vn 0.000 1.000 0.000
vn 0.000 1.000 0.000
vn 0.000 0.000 1.000
vn 0.000 0.000 1.000
vn 0.000 0.000 1.000
vn 0.000 0.000 1.000
vn 0.000 0.000 1.000
vn 0.000 0.000 1.000
vn 1.000 0.000 0.000
vn 1.000 0.000 0.000
vn 1.000 0.000 0.000
vn 1.000 0.000 0.000
vn 1.000 0.000 0.000
vn 1.000 0.000 0.000
vn 0.000 0.000 -1.000
vn 0.000 0.000 -1.000
vn 0.000 0.000 -1.000
vn 0.000 0.000 -1.000
vn 0.000 0.000 -1.000
vn 0.000 0.000 -1.000
vn 1.000 0.000 0.000
vn 1.000 0.000 0.000
vn 1.000 0.000 0.000
vn 1.000 0.000 0.000
vn 1.000 0.000 0.000
vn 1.000 0.000 0.000
vn 0.000 -1.000 0.000
vn 0.000 -1.000 0.000
vn 0.000 -1.000 0.000
vn 0.000 -1.000 0.000
vn 0.000 -1.000 0.000
vn 0.000 -1.000 0.000
vn 1.000 0.000 0.000
vn 1.000 0.000 0.000
vn 1.000 0.000 0.000
vn 1.000 0.000 0.000
vn 1.000 0.000 0.000
vn 1.000 0.000 0.000
vn 1.000 0.000 0.000
vn 1.000 0.000 0.000
vn 1.000 0.000 0.000
vn 1.000 0.000 0.000
vn 1.000 0.000 0.000
vn 1.000 0.000 0.000
vn 0.000 1.000 0.000
vn 0.000 1.000 0.000
vn 0.000 1.000 0.000
vn 0.000 1.000 0.000
vn 0.000 1.000 0.000
vn 0.000 1.000 0.000
vn 0.000 0.000 -1.000
vn 0.000 0.000 -1.000
vn 0.000 0.000 -1.000
vn 0.000 0.000 -1.000
vn 0.000 0.000 -1.000
vn 0.000 0.000 -1.000
vn 1.000 0.000 0.000
vn 1.000 0.000 0.000
vn 1.000 0.000 0.000
vn 1.000 0.000 0.000
vn 1.000 0.000 0.000
vn 1.000 0.000 0.000
vn 0.000 0.000 1.000
vn 0.000 0.000 1.000
vn 0.000 0.000 1.000
vn 0.000 0.000 1.000
vn 0.000 0.000 1.000
vn 0.000 0.000 1.000
vn 1.000 0.000 0.000
vn 1.000 0.000 0.000
vn 1.000 0.000 0.000
vn 1.000 0.000 0.000
vn 1.000 0.000 0.000
vn 1.000 0.000 0.000
vn 0.000 -1.000 0.000
vn 0.000 -1.000 0.000
vn 0.000 -1.000 0.000
vn 0.000 -1.000 0.000
vn 0.000 -1.000 0.000
vn 0.000 -1.000 0.000
vn 1.000 0.000 0.000
vn 1.000 0.000 0.000
vn 1.000 0.000 0.000
vn 1.000 0.000 0.000
vn 1.000 0.000 0.000
vn 1.000 0.000 0.000
vn 1.000 0.000 0.000
vn 1.000 0.000 0.000
vn 1.000 0.000 0.000
vn 1.000 0.000 0.000
vn 1.000 0.000 0.000
vn 1.000 0.000 0.000
vn 0.000 1.000 0.000
vn 0.000 1.000 0.000
vn 0.000 1.000 0.000
vn 0.000 1.000 0.000
vn 0.000 1.000 0.000
vn 0.000 1.000 0.000
vn 0.000 0.000 1.000
vn 0.000 0.000 1.000
vn 0.000 0.000 1.000
vn 0.000 0.000 1.000
vn 0.000 0.000 1.000
vn 0.000 0.000 1.000
vn 1.000 0.000 0.000
vn 1.000 0.000 0.000
vn 1.000 0.000 0.000
vn 1.000 0.000 0.000
vn 1.000 0.000 0.000
vn 1.000 0.000 0.000
vn 0.000 0.000 -1.000
vn 0.000 0.000 -1.000
vn 0.000 0.000 -1.000
vn 0.000 0.000 -1.000
vn 0.000 0.000 -1.000
vn 0.000 0.000 -1.000
vn 1.000 0.000 0.000
vn 1.000 0.000 0.000
vn 1.000 0.000 0.000
vn 1.000 0.000 0.000
vn 1.000 0.000 0.000
vn 1.000 0.000 0.000
vn 0.000 -1.000 0.000
vn 0.000 -1.000 0.000
vn 0.000 -1.000 0.000
vn 0.000 -1.000 0.000
vn 0.000 -1.000 0.000
vn 0.000 -1.000 0.000
vn 1.000 0.000 0.000
vn 1.000 0.000 0.000
vn 1.000 0.000 0.000
vn 1.000 0.000 0.000
vn 1.000 0.000 0.000
vn 1.000 0.000 0.000
vn 1.000 0.000 0.000
vn 1.000 0.000 0.000
vn 1.000 0.000 0.000
vn 1.000 0.000 0.000
vn 1.000 0.000 0.000
vn 1.000 0.000 0.000
vn 0.000 1.000 0.000
vn 0.000 1.000 0.000
vn 0.000 1.000 0.000
vn 0.000 1.000 0.000
vn 0.000 1.000 0.000
vn 0.000 1.000 0.000
vn -1.000 0.000 0.000
vn -1.000 0.000 0.000
vn -1.000 0.000 0.000
vn -1.000 0.000 0.000
vn -1.000 0.000 0.000
vn -1.000 0.000 0.000
vn -1.000 0.000 0.000
vn -1.000 0.000 0.000
vn -1.000 0.000 0.000
vn -1.000 0.000 0.000
vn -1.000 0.000 0.000
vn -1.000 0.000 0.000
vn 0.000 0.000 -1.000
vn 0.000 0.000 -1.000
vn 0.000 0.000 -1.000
vn 0.000 0.000 -1.000
vn 0.000 0.000 -1.000
vn 0.000 0.000 -1.000
vn 0.000 0.000 -1.000
vn 0.000 0.000 -1.000
vn 0.000 0.000 -1.000
vn 0.000 0.000 -1.000
vn 0.000 0.000 -1.000
vn 0.000 0.000 -1.000
vn 0.000 1.000 0.000
vn 0.000 1.000 0.000
vn 0.000 1.000 0.000
vn 0.000 1.000 0.000
vn 0.000 1.000 0.000
vn 0.000 1.000 0.000
vn 0.000 1.000 0.000
vn 0.000 1.000 0.000
vn 0.000 1.000 0.000
vn 0.000 1.000 0.000
vn 0.000 1.000 0.000
vn 0.000 1.000 0.000
vn -1.000 0.000 0.000
vn -1.000 0.000 0.000
vn -1.000 0.000 0.000
vn -1.000 0.000 0.000
vn -1.000 0.000 0.000
vn -1.000 0.000 0.000
vn -1.000 0.000 0.000
vn -1.000 0.000 0.000
vn -1.000 0.000 0.000
vn -1.000 0.000 0.000
vn -1.000 0.000 0.000
vn -1.000 0.000 0.000
vn 0.000 0.000 -1.000
vn 0.000 0.000 -1.000
vn 0.000 0.000 -1.000
vn 0.000 0.000 -1.000
vn 0.000 0.000 -1.000
vn 0.000 0.000 -1.000
vn 0.000 0.000 -1.000
vn 0.000 0.000 -1.000
vn 0.000 0.000 -1.000
vn 0.000 0.000 -1.000
vn 0.000 0.000 -1.000
vn 0.000 0.000 -1.000
vn -1.000 0.000 0.000
vn -1.000 0.000 0.000
vn -1.000 0.000 0.000
vn -1.000 0.000 0.000
vn -1.000 0.000 0.000
vn -1.000 0.000 0.000
vn -1.000 0.000 0.000
vn -1.000 0.000 0.000
vn -1.000 0.000 0.000
vn -1.000 0.000 0.000
vn -1.000 0.000 0.000
vn -1.000 0.000 0.000
vn 0.000 0.000 1.000
vn 0.000 0.000 1.000
vn 0.000 0.000 1.000
vn 0.000 0.000 1.000
vn 0.000 0.000 1.000
vn 0.000 0.000 1.000
vn 0.000 0.000 1.000
vn 0.000 0.000 1.000
vn 0.000 0.000 1.000
vn 0.000 0.000 1.000
vn 0.000 0.000 1.000
vn 0.000 0.000 1.000
vn -1.000 0.000 0.000
vn -1.000 0.000 0.000
vn -1.000 0.000 0.000
vn -1.000 0.000 0.000
vn -1.000 0.000 0.000
vn -1.000 0.000 0.000
vn -1.000 0.000 0.000
vn -1.000 0.000 0.000
vn -1.000 0.000 0.000
vn -1.000 0.000 0.000
vn -1.000 0.000 0.000
vn -1.000 0.000 0.000
vn 0.000 -1.000 0.000
vn 0.000 -1.000 0.000
vn 0.000 -1.000 0.000
vn 0.000 -1.000 0.000
vn 0.000 -1.000 0.000
vn 0.000 -1.000 0.000
vn 0.000 -1.000 0.000
vn 0.000 -1.000 0.000
vn 0.000 -1.000 0.000
vn 0.000 -1.000 0.000
vn 0.000 -1.000 0.000
vn 0.000 -1.000 0.000
vn -1.000 0.000 0.000
vn -1.000 0.000 0.000
vn -1.000 0.000 0.000
vn -1.000 0.000 0.000
vn -1.000 0.000 0.000
vn -1.000 0.000 0.000
vn -1.000 0.000 0.000
vn -1.000 0.000 0.000
vn -1.000 0.000 0.000
vn -1.000 0.000 0.000
vn -1.000 0.000 0.000
vn -1.000 0.000 0.000
vn -1.000 0.000 0.000
vn -1.000 0.000 0.000
vn -1.000 0.000 0.000
vn -1.000 0.000 0.000
vn -1.000 0.000 0.000
vn -1.000 0.000 0.000
vn -1.000 0.000 0.000
vn -1.000 0.000 0.000
vn -1.000 0.000 0.000
vn -1.000 0.000 0.000
vn -1.000 0.000 0.000
vn -1.000 0.000 0.000
vn 0.000 0.000 -1.000
vn 0.000 0.000 -1.000
vn 0.000 0.000 -1.000
vn 0.000 0.000 -1.000
vn 0.000 0.000 -1.000
vn 0.000 0.000 -1.000
vn 0.000 0.000 -1.000
vn 0.000 0.000 -1.000
vn 0.000 0.000 -1.000
vn 0.000 0.000 -1.000
vn 0.000 0.000 -1.000
vn 0.000 0.000 -1.000
vn 0.000 1.000 0.000
vn 0.000 1.000 0.000
vn 0.000 1.000 0.000
vn 0.000 1.000 0.000
vn 0.000 1.000 0.000
vn 0.000 1.000 0.000
vn 0.000 1.000 0.000
vn 0.000 1.000 0.000
vn 0.000 1.000 0.000
vn 0.000 1.000 0.000
vn 0.000 1.000 0.000
vn 0.000 1.000 0.000
vn -1.000 0.000 0.000
vn -1.000 0.000 0.000
vn -1.000 0.000 0.000
vn -1.000 0.000 0.000
vn -1.000 0.000 0.000
vn -1.000 0.000 0.000
vn -1.000 0.000 0.000
vn -1.000 0.000 0.000
vn -1.000 0.000 0.000
vn -1.000 0.000 0.000
vn -1.000 0.000 0.000
vn -1.000 0.000 0.000
vn 0.000 0.000 -1.000
vn 0.000 0.000 -1.000
vn 0.000 0.000 -1.000
vn 0.000 0.000 -1.000
vn 0.000 0.000 -1.000
vn 0.000 0.000 -1.000
vn 0.000 0.000 -1.000
vn 0.000 0.000 -1.000
vn 0.000 0.000 -1.000
vn 0.000 0.000 -1.000
vn 0.000 0.000 -1.000
vn 0.000 0.000 -1.000
vn -1.000 0.000 0.000
vn -1.000 0.000 0.000
vn -1.000 0.000 0.000
vn -1.000 0.000 0.000
vn -1.000 0.000 0.000
vn -1.000 0.000 0.000
vn -1.000 0.000 0.000
vn -1.000 0.000 0.000
vn -1.000 0.000 0.000
vn -1.000 0.000 0.000
vn -1.000 0.000 0.000
vn -1.000 0.000 0.000
vn 0.000 0.000 1.000
vn 0.000 0.000 1.000
vn 0.000 0.000 1.000
vn 0.000 0.000 1.000
vn 0.000 0.000 1.000
vn 0.000 0.000 1.000
vn 0.000 0.000 1.000
vn 0.000 0.000 1.000
vn 0.000 0.000 1.000
vn 0.000 0.000 1.000
vn 0.000 0.000 1.000
vn 0.000 0.000 1.000
vn -1.000 0.000 0.000
vn -1.000 0.000 0.000
vn -1.000 0.000 0.000
vn -1.000 0.000 0.000
vn -1.000 0.000 0.000
vn -1.000 0.000 0.000
vn -1.000 0.000 0.000
vn -1.000 0.000 0.000
vn -1.000 0.000 0.000
vn -1.000 0.000 0.000
vn -1.000 0.000 0.000
vn -1.000 0.000 0.000
vn 0.000 -1.000 0.000
vn 0.000 -1.000 0.000
vn 0.000 -1.000 0.000
vn 0.000 -1.000 0.000
vn 0.000 -1.000 0.000
vn 0.000 -1.000 0.000
vn 0.000 -1.000 0.000
vn 0.000 -1.000 0.000
vn 0.000 -1.000 0.000
vn 0.000 -1.000 0.000
vn 0.000 -1.000 0.000
vn 0.000 -1.000 0.000
vn -1.000 0.000 0.000
vn -1.000 0.000 0.000
vn -1.000 0.000 0.000
vn -1.000 0.000 0.000
vn -1.000 0.000 0.000
vn -1.000 0.000 0.000
vn -1.000 0.000 0.000
vn -1.000 0.000 0.000
vn -1.000 0.000 0.000
vn -1.000 0.000 0.000
vn -1.000 0.000 0.000
vn -1.000 0.000 0.000
vn 0.000 0.000 1.000
vn 0.000 0.000 1.000
vn 0.000 0.000 1.000
vn 0.000 0.000 1.000
vn 0.000 0.000 1.000
vn 0.000 0.000 1.000
vn 0.000 0.000 1.000
vn 0.000 0.000 1.000
vn 0.000 0.000 1.000
vn 0.000 0.000 1.000
vn 0.000 0.000 1.000
vn 0.000 0.000 1.000
vn -1.000 0.000 0.000
vn -1.000 0.000 0.000
vn -1.000 0.000 0.000
vn -1.000 0.000 0.000
vn -1.000 0.000 0.000
vn -1.000 0.000 0.000
vn -1.000 0.000 0.000
vn -1.000 0.000 0.000
vn -1.000 0.000 0.000
vn -1.000 0.000 0.000
vn -1.000 0.000 0.000
vn -1.000 0.000 0.000
vn -1.000 0.000 0.000
vn -1.000 0.000 0.000
vn -1.000 0.000 0.000
vn -1.000 0.000 0.000
vn -1.000 0.000 0.000
vn -1.000 0.000 0.000
vn -1.000 0.000 0.000
vn -1.000 0.000 0.000
vn -1.000 0.000 0.000
vn -1.000 0.000 0.000
vn -1.000 0.000 0.000
vn -1.000 0.000 0.000
vn 0.000 -1.000 0.000
vn 0.000 -1.000 0.000
vn 0.000 -1.000 0.000
vn 0.000 -1.000 0.000
vn 0.000 -1.000 0.000
vn 0.000 -1.000 0.000
vn 0.000 -1.000 0.000
vn 0.000 -1.000 0.000
vn 0.000 -1.000 0.000
vn 0.000 -1.000 0.000
vn 0.000 -1.000 0.000
vn 0.000 -1.000 0.000
vn -1.000 0.000 0.000
vn -1.000 0.000 0.000
vn -1.000 0.000 0.000
vn -1.000 0.000 0.000
vn -1.000 0.000 0.000
vn -1.000 0.000 0.000
vn -1.000 0.000 0.000
vn -1.000 0.000 0.000
vn -1.000 0.000 0.000
vn -1.000 0.000 0.000
vn -1.000 0.000 0.000
vn -1.000 0.000 0.000
vn 0.000 1.000 0.000
vn 0.000 1.000 0.000
vn 0.000 1.000 0.000
vn 0.000 1.000 0.000
vn 0.000 1.000 0.000
vn 0.000 1.000 0.000
vn 0.000 1.000 0.000
vn 0.000 1.000 0.000
vn 0.000 1.000 0.000
vn 0.000 1.000 0.000
vn 0.000 1.000 0.000
vn 0.000 1.000 0.000
vn 0.000 0.000 1.000
vn 0.000 0.000 1.000
vn 0.000 0.000 1.000
vn 0.000 0.000 1.000
vn 0.000 0.000 1.000
vn 0.000 0.000 1.000
vn 0.000 0.000 1.000
vn 0.000 0.000 1.000
vn 0.000 0.000 1.000
vn 0.000 0.000 1.000
vn 0.000 0.000 1.000
vn 0.000 0.000 1.000
vn -1.000 0.000 0.000
vn -1.000 0.000 0.000
vn -1.000 0.000 0.000
vn -1.000 0.000 0.000
vn -1.000 0.000 0.000
vn -1.000 0.000 0.000
vn -1.000 0.000 0.000
vn -1.000 0.000 0.000
vn -1.000 0.000 0.000
vn -1.000 0.000 0.000
vn -1.000 0.000 0.000
vn -1.000 0.000 0.000
vn -1.000 0.000 0.000
vn -1.000 0.000 0.000
vn -1.000 0.000 0.000
vn -1.000 0.000 0.000
vn -1.000 0.000 0.000
vn -1.000 0.000 0.000
vn -1.000 0.000 0.000
vn -1.000 0.000 0.000
vn -1.000 0.000 0.000
vn -1.000 0.000 0.000
vn -1.000 0.000 0.000
vn -1.000 0.000 0.000
vn 0.000 -1.000 0.000
vn 0.000 -1.000 0.000
vn 0.000 -1.000 0.000
vn 0.000 -1.000 0.000
vn 0.000 -1.000 0.000
vn 0.000 -1.000 0.000
vn 0.000 -1.000 0.000
vn 0.000 -1.000 0.000
vn 0.000 -1.000 0.000
vn 0.000 -1.000 0.000
vn 0.000 -1.000 0.000
vn 0.000 -1.000 0.000
vn -1.000 0.000 0.000
vn -1.000 0.000 0.000
vn -1.000 0.000 0.000
vn -1.000 0.000 0.000
vn -1.000 0.000 0.000
vn -1.000 0.000 0.000
vn -1.000 0.000 0.000
vn -1.000 0.000 0.000
vn -1.000 0.000 0.000
vn -1.000 0.000 0.000
vn -1.000 0.000 0.000
vn -1.000 0.000 0.000
vn 0.000 1.000 0.000
vn 0.000 1.000 0.000
vn 0.000 1.000 0.000
vn 0.000 1.000 0.000
vn 0.000 1.000 0.000
vn 0.000 1.000 0.000
vn 0.000 1.000 0.000
vn 0.000 1.000 0.000
vn 0.000 1.000 0.000
vn 0.000 1.000 0.000
vn 0.000 1.000 0.000
vn 0.000 1.000 0.000
g 
usemtl Window4_0001
f 1/1/1 2/2/2 3/3/3
f 2/2/4 4/4/5 3/3/6
f 4/4/7 5/5/8 3/3/9
f 6/6/10 3/3/11 5/5/12
f 7/7/13 8/8/14 9/9/15
f 10/10/16 9/9/17 8/8/18
f 10/10/19 8/8/20 11/11/21
f 12/12/22 11/11/23 8/8/24
f 9/13/25 10/14/26 2/15/27
f 4/16/28 2/15/29 10/14/30
f 4/16/31 10/14/32 5/17/33
f 10/14/34 11/18/35 5/17/36
f 6/19/37 12/20/38 3/21/39
f 8/22/40 3/21/41 12/20/42
f 3/21/43 8/22/44 1/23/45
f 7/24/46 1/23/47 8/22/48
f 13/25/49 14/26/50 15/27/51
f 14/26/52 13/25/53 16/28/54
f 16/28/55 13/25/56 17/29/57
f 18/30/58 17/29/59 13/25/60
f 19/31/61 20/32/62 21/33/63
f 22/34/64 21/33/65 20/32/66
f 22/34/67 23/35/68 21/33/69
f 21/33/70 23/35/71 24/36/72
f 20/37/73 14/38/74 22/39/75
f 16/40/76 22/39/77 14/38/78
f 16/40/79 17/41/80 22/39/81
f 22/39/82 17/41/83 23/42/84
f 18/43/85 13/44/86 24/45/87
f 24/45/88 13/44/89 21/46/90
f 13/44/91 15/47/92 21/46/93
f 21/46/94 15/47/95 19/48/96
f 25/49/97 26/50/98 27/51/99
f 26/50/100 28/52/101 27/51/102
f 28/52/103 29/53/104 27/51/105
f 30/54/106 27/51/107 29/53/108
f 31/55/109 32/56/110 33/57/111
f 34/58/112 33/57/113 32/56/114
f 34/58/115 32/56/116 35/59/117
f 36/60/118 35/59/119 32/56/120
f 33/61/121 34/62/122 26/63/123
f 28/64/124 26/63/125 34/62/126
f 28/64/127 34/62/128 29/65/129
f 34/62/130 35/66/131 29/65/132
f 30/67/133 36/68/134 27/69/135
f 32/70/136 27/69/137 36/68/138
f 27/69/139 32/70/140 25/71/141
f 31/72/142 25/71/143 32/70/144
f 37/73/145 38/74/146 39/75/147
f 38/74/148 37/73/149 40/76/150
f 40/76/151 37/73/152 41/77/153
f 42/78/154 41/77/155 37/73/156
f 43/79/157 44/80/158 45/81/159
f 46/82/160 45/81/161 44/80/162
f 46/82/163 47/83/164 45/81/165
f 45/81/166 47/83/167 48/84/168
f 44/85/169 38/86/170 46/87/171
f 40/88/172 46/87/173 38/86/174
f 40/88/175 41/89/176 46/87/177
f 46/87/178 41/89/179 47/90/180
f 42/91/181 37/92/182 48/93/183
f 48/93/184 37/92/185 45/94/186
f 37/92/187 39/95/188 45/94/189
f 45/94/190 39/95/191 43/96/192
f 49/97/193 50/98/194 1/1/195
f 50/98/196 51/99/197 1/1/198
f 2/2/199 1/1/200 51/99/201
f 2/2/202 51/99/203 52/100/204
f 53/101/205 54/102/206 12/12/207
f 54/102/208 55/103/209 12/12/210
f 11/11/211 12/12/212 55/103/213
f 11/11/214 55/103/215 56/104/216
f 52/105/217 5/17/218 57/106/219
f 5/17/220 11/18/221 57/106/222
f 58/107/223 57/106/224 11/18/225
f 11/18/226 56/108/227 58/107/228
f 7/24/229 53/109/230 59/110/231
f 7/24/232 59/110/233 1/23/234
f 60/111/235 1/23/236 59/110/237
f 1/23/238 60/111/239 49/112/240
f 61/113/241 62/114/242 18/30/243
f 62/114/244 63/115/245 18/30/246
f 17/29/247 18/30/248 63/115/249
f 64/116/250 17/29/251 63/115/252
f 65/117/253 66/117/254 19/31/255
f 19/31/256 66/117/257 67/118/258
f 20/32/259 19/31/260 67/118/261
f 20/32/262 67/118/263 68/119/264
f 23/35/265 68/120/266 67/121/267
f 23/35/268 67/121/269 24/36/270
f 66/122/271 24/36/272 67/121/273
f 65/122/274 24/36/275 66/122/276
f 20/37/277 68/123/278 69/124/279
f 20/37/280 69/124/281 14/38/282
f 14/38/283 69/124/284 70/125/285
f 14/38/286 70/125/287 64/126/288
f 65/127/289 71/128/290 24/45/291
f 71/128/292 72/129/293 24/45/294
f 18/43/295 24/45/296 72/129/297
f 72/129/298 61/130/299 18/43/300
f 61/131/301 72/132/302 15/47/303
f 72/132/304 71/133/305 15/47/306
f 19/48/307 15/47/308 71/133/309
f 19/48/310 71/133/311 65/134/312
f 73/135/313 74/135/314 25/49/315
f 74/135/316 75/136/317 25/49/318
f 26/50/319 25/49/320 75/136/321
f 26/50/322 75/136/323 76/137/324
f 77/138/325 78/139/326 36/60/327
f 78/139/328 79/140/329 36/60/330
f 35/59/331 36/60/332 79/140/333
f 35/59/334 79/140/335 80/141/336
f 76/142/337 29/65/338 81/143/339
f 29/65/340 35/66/341 81/143/342
f 82/144/343 81/143/344 35/66/345
f 35/66/346 80/145/347 82/144/348
f 31/72/349 77/146/350 83/147/351
f 31/72/352 83/147/353 25/71/354
f 84/148/355 25/71/356 83/147/357
f 25/71/358 84/148/359 73/149/360
f 85/150/361 86/151/362 42/78/363
f 86/151/364 87/152/365 42/78/366
f 41/77/367 42/78/368 87/152/369
f 88/153/370 41/77/371 87/152/372
f 89/154/373 90/154/374 43/79/375
f 43/79/376 90/154/377 91/155/378
f 44/80/379 43/79/380 91/155/381
f 44/80/382 91/155/383 92/156/384
f 47/83/385 92/157/386 91/158/387
f 47/83/388 91/158/389 48/84/390
f 90/159/391 48/84/392 91/158/393
f 89/159/394 48/84/395 90/159/396
f 44/85/397 92/160/398 93/161/399
f 44/85/400 93/161/401 38/86/402
f 38/86/403 93/161/404 94/162/405
f 38/86/406 94/162/407 88/163/408
f 89/164/409 95/165/410 48/93/411
f 95/165/412 96/166/413 48/93/414
f 42/91/415 48/93/416 96/166/417
f 96/166/418 85/167/419 42/91/420
f 85/168/421 96/169/422 39/95/423
f 96/169/424 95/170/425 39/95/426
f 43/96/427 39/95/428 95/170/429
f 43/96/430 95/170/431 89/171/432
f 49/172/433 6/6/434 50/173/435
f 50/173/436 6/6/437 51/174/438
f 5/5/439 51/174/440 6/6/441
f 52/175/442 51/174/443 5/5/444
f 7/7/445 54/176/446 53/177/447
f 7/7/448 55/178/449 54/176/450
f 9/9/451 55/178/452 7/7/453
f 55/178/454 9/9/455 56/179/456
f 2/15/457 52/180/458 57/181/459
f 2/15/460 57/181/461 58/182/462
f 9/13/463 2/15/464 58/182/465
f 9/13/466 58/182/467 56/183/468
f 53/184/469 12/20/470 59/185/471
f 59/185/472 12/20/473 60/186/474
f 6/19/475 60/186/476 12/20/477
f 60/186/478 6/19/479 49/187/480
f 15/27/481 62/188/482 61/189/483
f 62/188/484 15/27/485 63/190/486
f 14/26/487 63/190/488 15/27/489
f 63/190/490 14/26/491 64/190/492
f 64/191/493 70/192/494 17/41/495
f 17/41/496 70/192/497 23/42/498
f 23/42/499 70/192/500 69/193/501
f 23/42/502 69/193/503 68/194/504
f 73/195/505 30/54/506 74/195/507
f 74/195/508 30/54/509 75/196/510
f 29/53/511 75/196/512 30/54/513
f 76/197/514 75/196/515 29/53/516
f 31/55/517 78/198/518 77/199/519
f 31/55/520 79/200/521 78/198/522
f 33/57/523 79/200/524 31/55/525
f 79/200/526 33/57/527 80/201/528
f 26/63/529 76/202/530 81/203/531
f 26/63/532 81/203/533 82/204/534
f 33/61/535 26/63/536 82/204/537
f 33/61/538 82/204/539 80/205/540
f 77/206/541 36/68/542 83/207/543
f 83/207/544 36/68/545 84/208/546
f 30/67/547 84/208/548 36/68/549
f 84/208/550 30/67/551 73/209/552
f 39/75/553 86/210/554 85/211/555
f 86/210/556 39/75/557 87/212/558
f 38/74/559 87/212/560 39/75/561
f 87/212/562 38/74/563 88/213/564
f 88/214/565 94/215/566 41/89/567
f 41/89/568 94/215/569 47/90/570
f 47/90/571 94/215/572 93/216/573
f 47/90/574 93/216/575 92/217/576
